<svg xmlns="http://www.w3.org/2000/svg" viewBox="0 0 24 24"><path d="M14.426,19.094l-2.578,2.762-.4-2.762ZM20.668,6.015H12.517l1.5,4.74h1.74V9.489h1.226v1.266h3.777v.783h0v0h-1.7a7.1,7.1,0,0,1-1.707,3.089c.571.614,1.348,1.377,2.408,2.338l-.643.644c-.99-.922-1.755-1.695-2.348-2.338-.482.511-.886.876-1.018.993l.609,1.927a.134.134,0,0,1-.027.126L13.068,22h7.6A1.324,1.324,0,0,0,22,20.69V7.325A1.324,1.324,0,0,0,20.668,6.015Zm-3.9,7.943a6.915,6.915,0,0,0,1.376-2.42H14.26l1.182,3.746c.11-.092.391-.333.736-.687-1.374-1.61-1.416-2.175-1.416-2.175h1.017S15.783,12.8,16.763,13.958ZM15.389,18.2a.36.36,0,0,1-.05.036L3.332,18.226A1.335,1.335,0,0,1,2,16.9V3.332A1.335,1.335,0,0,1,3.332,2h6.945S15.389,18.2,15.389,18.2Zm-4.77-8a2.781,2.781,0,0,0-.074-.637H7.62v1.07l1.823,0a1.709,1.709,0,0,1-1.825,1.506,2.008,2.008,0,0,1,0-4.015,1.83,1.83,0,0,1,1.268.487l.825-.793A3.025,3.025,0,0,0,7.618,7a3.126,3.126,0,1,0,0,6.251A2.882,2.882,0,0,0,10.619,10.192Z"/></svg>