<svg xmlns="http://www.w3.org/2000/svg" viewBox="0 0 24 24"><path d="M11.459,11.91v2.327H10.72V8.488h1.959a1.765,1.765,0,0,1,1.268.5,1.662,1.662,0,0,1,0,2.434,1.763,1.763,0,0,1-1.268.489Zm0-2.714V11.2H12.7a1,1,0,0,0,.75-1.683L13.428,9.5a.966.966,0,0,0-.731-.3Zm4.72.979a1.831,1.831,0,0,1,1.293.438,1.55,1.55,0,0,1,.473,1.2v2.425h-.706v-.546h-.032a1.41,1.41,0,0,1-1.22.674A1.586,1.586,0,0,1,14.9,13.98a1.232,1.232,0,0,1-.437-.964,1.17,1.17,0,0,1,.461-.971,1.951,1.951,0,0,1,1.233-.361,2.184,2.184,0,0,1,1.083.241v-.17a.84.84,0,0,0-.3-.653,1.047,1.047,0,0,0-.713-.269,1.13,1.13,0,0,0-.979.522l-.65-.41a1.808,1.808,0,0,1,1.587-.77Zm-.956,2.858a.593.593,0,0,0,.245.482.9.9,0,0,0,.574.192,1.174,1.174,0,0,0,.831-.345,1.08,1.08,0,0,0,.367-.811,1.513,1.513,0,0,0-.964-.275,1.244,1.244,0,0,0-.75.217.65.65,0,0,0-.3.54ZM22,10.3l-2.466,5.667h-.762l.915-1.983L18.065,10.3h.8l1.172,2.825h.016L21.2,10.3Zm-13.526,1.1a3.883,3.883,0,0,0-.057-.672H5.3v1.272H7.086a1.529,1.529,0,0,1-.659,1h0A2,2,0,1,1,5.3,9.337a1.792,1.792,0,0,1,1.267.5l.944-.943A3.182,3.182,0,0,0,5.3,8.029a3.3,3.3,0,0,0,0,6.606,3.162,3.162,0,0,0,2.19-.8h0A3.226,3.226,0,0,0,8.474,11.407Z"/></svg>