<svg xmlns="http://www.w3.org/2000/svg" viewBox="0 0 24 24"><path d="M14.105,3.284A8.781,8.781,0,0,1,22,11.605H14.105ZM12.5,12.413v3.758a1.32,1.32,0,0,1-1.319,1.319H6.469A8.728,8.728,0,0,0,22,12.413Zm0-4.584V11.6h.766v.009H13.3V3.243l-.035,0A8.741,8.741,0,0,0,6.469,6.51h4.708A1.32,1.32,0,0,1,12.5,7.829ZM6.824,9.844H5.729V11.8H6.784a1.38,1.38,0,0,0,.934-.278.692.692,0,0,0,.315-.642Q8.033,9.844,6.824,9.844ZM12.01,7.829v8.342a.833.833,0,0,1-.834.834H2.834A.833.833,0,0,1,2,16.171V7.829A.833.833,0,0,1,2.834,7h8.342A.833.833,0,0,1,12.01,7.829ZM9.325,10.834a1.8,1.8,0,0,0-.6-1.459A2.609,2.609,0,0,0,7,8.872H4.5v6.256H5.729V12.835h1.2a2.853,2.853,0,0,0,1.264-.266,1.974,1.974,0,0,0,.841-.742A1.7,1.7,0,0,0,9.325,10.834Z"/></svg>