<svg xmlns="http://www.w3.org/2000/svg" viewBox="0 0 24 24"><path d="M22,16.2a5.8,5.8,0,0,1-7.6,5.515A10.04,10.04,0,0,0,21.716,14.4,5.8,5.8,0,0,1,22,16.2ZM9.612,2.292h.006A5.8,5.8,0,0,0,2.291,9.617,10.039,10.039,0,0,1,9.612,2.292ZM21.446,13.723l.007.015a9.652,9.652,0,0,1-7.714,7.715l-.016-.007A9.647,9.647,0,0,1,2.55,10.3h0a9.656,9.656,0,0,1,7.726-7.748h0A9.609,9.609,0,0,1,21.446,13.723Zm-7.048-1.7c-1.021-.88-3.869-1.187-3.958-2.567.16-1.725,2.59-1.278,3.674-.729a.859.859,0,0,0,1-1.363A5.216,5.216,0,0,0,8.847,7.9a2.691,2.691,0,0,0,.663,3.915h0c1.168,1.02,5.371,1.509,3.631,3.608a3.17,3.17,0,0,1-3.226-.244c-.594-.369-1.653-.207-1.611.649.293,2.194,5.978,1.985,6.929.237A2.877,2.877,0,0,0,14.4,12.026Z"/></svg>