<svg xmlns="http://www.w3.org/2000/svg" viewBox="0 0 24 24"><defs><style>.a{fill:#141313;}</style></defs><path class="a" d="M11.983,2a9.945,9.945,0,0,0-9.875,9.2l5.311,2.216A2.765,2.765,0,0,1,9,12.922c.052,0,.1,0,.156,0l2.362-3.455V9.423a3.737,3.737,0,1,1,3.737,3.771h-.085L11.8,15.618c0,.045,0,.09,0,.134a2.8,2.8,0,0,1-5.555.558l-3.8-1.585A9.924,9.924,0,1,0,11.983,2ZM8.318,17.173,7.1,16.666a2.095,2.095,0,0,0,3.837-.1,2.13,2.13,0,0,0,0-1.626A2.1,2.1,0,0,0,9.8,13.785a2.08,2.08,0,0,0-1.552-.023l1.258.524a1.569,1.569,0,0,1,.834,2.045,1.544,1.544,0,0,1-2.026.842Zm9.489-7.75A2.555,2.555,0,1,0,15.253,12,2.57,2.57,0,0,0,17.807,9.423Zm-4.469-.005a1.919,1.919,0,1,1,1.919,1.936,1.928,1.928,0,0,1-1.919-1.936Z"/></svg>