<svg xmlns="http://www.w3.org/2000/svg" viewBox="0 0 24 24"><path d="M13.946,7.393a5,5,0,1,0,2.661,2.661A4.984,4.984,0,0,0,13.946,7.393Zm-2.363.44h.834v.834h-.834ZM9.938,9.348l-.59.59-.589-.59.589-.589ZM8.667,12.417H7.833v-.834h.834Zm.681,2.824-.589-.589.589-.59.59.59Zm3.069.926h-.834v-.834h.834ZM12,14.5A2.5,2.5,0,1,1,14.5,12,2.5,2.5,0,0,1,12,14.5Zm2.652.741-.59-.589.59-.59.589.59Zm0-5.3-.59-.59.59-.589.589.589Zm1.515,2.479h-.834v-.834h.834ZM19,3H5A2,2,0,0,0,3,5V19a2,2,0,0,0,2,2H19a2,2,0,0,0,2-2V5A2,2,0,0,0,19,3Zm1,7H19v5h1v2H19a2,2,0,0,1-2,2H7a2,2,0,0,1-2-2V7A2,2,0,0,1,7,5H17a2,2,0,0,1,2,2V8h1Z"/></svg>