<svg xmlns="http://www.w3.org/2000/svg" viewBox="0 0 24 24"><path d="M12,6a6,6,0,1,0,6,6A6,6,0,0,0,12,6Zm0,10.5A4.5,4.5,0,1,1,16.5,12,4.5,4.5,0,0,1,12,16.5ZM12,0,8,3.99h3V7h2V3.99h3Zm0,24,4-3.99H13V17H11v3.01H8ZM24,12,20.01,8v3H15v2h5.01v3ZM0,12l3.99,4V13H9V11H3.99V8Zm12.529,2.284V15h-1v-.724A1.4,1.4,0,0,1,10.3,13h.735c.038.394.308.7.994.7.735,0,.9-.367.9-.6,0-.311-.165-.6-1-.8-.93-.225-1.568-.608-1.568-1.377a1.3,1.3,0,0,1,1.167-1.2V9h1v.731A1.328,1.328,0,0,1,13.6,11h-.735c-.019-.416-.24-.7-.833-.7-.563,0-.9.255-.9.615,0,.315.244.521,1,.716S13.7,12.154,13.7,13.1C13.7,13.785,13.181,14.16,12.529,14.284Z"/></svg>