<svg xmlns="http://www.w3.org/2000/svg" viewBox="0 0 24 24"><path d="M9.412,8.559a7.922,7.922,0,0,1-1.244-.4,5.44,5.44,0,0,1,2.237-1.348A5.273,5.273,0,0,0,9.412,8.559Zm2.588.3a11.737,11.737,0,0,0,2.015-.178C13.539,7.407,12.807,6.571,12,6.571s-1.539.836-2.015,2.108A11.755,11.755,0,0,0,12,8.857ZM9.236,9.1a8.293,8.293,0,0,1-1.471-.49,5.4,5.4,0,0,0-1.179,3.1H8.864A10.612,10.612,0,0,1,9.236,9.1Zm-.372,3.184H6.586a5.4,5.4,0,0,0,1.179,3.1,8.293,8.293,0,0,1,1.471-.49A10.612,10.612,0,0,1,8.864,12.286Zm6.968-4.127A5.434,5.434,0,0,0,13.6,6.811a5.273,5.273,0,0,1,.993,1.748A7.922,7.922,0,0,0,15.832,8.159ZM9.805,14.772a12.086,12.086,0,0,1,4.39,0,9.944,9.944,0,0,0,.369-2.486H9.436A9.944,9.944,0,0,0,9.805,14.772ZM14.2,9.228a12.21,12.21,0,0,1-2.2.2,12.21,12.21,0,0,1-2.2-.2,9.944,9.944,0,0,0-.369,2.486h5.128A9.944,9.944,0,0,0,14.2,9.228Zm-.6,7.961a5.434,5.434,0,0,0,2.237-1.348,7.922,7.922,0,0,0-1.244-.4A5.273,5.273,0,0,1,13.6,17.189ZM8.168,15.841a5.44,5.44,0,0,0,2.237,1.348,5.273,5.273,0,0,1-.993-1.748A7.922,7.922,0,0,0,8.168,15.841Zm13.369-1.216a.468.468,0,0,1,.125.625l-2,3.475a.5.5,0,0,1-.6.225l-2.474-1a7.541,7.541,0,0,1-1.676.975l-.4,2.65a.492.492,0,0,1-.5.425h-4a.507.507,0,0,1-.5-.425l-.376-2.65a7.171,7.171,0,0,1-1.7-.975l-2.475,1a.525.525,0,0,1-.625-.225l-2-3.475a.473.473,0,0,1,.124-.625l2.1-1.65c-.024-.325-.049-.65-.049-.975a6.133,6.133,0,0,1,.1-.975L2.487,9.375a.494.494,0,0,1-.124-.65l2-3.45a.492.492,0,0,1,.6-.225l2.5,1a7.962,7.962,0,0,1,1.675-.975l.376-2.65a.507.507,0,0,1,.5-.425h4a.51.51,0,0,1,.5.425l.374,2.65a7.49,7.49,0,0,1,1.675.975l2.5-1a.482.482,0,0,1,.6.225l2,3.45a.5.5,0,0,1-.125.65l-2.125,1.65a4.027,4.027,0,0,1,.1.975c0,.325-.026.65-.051.975ZM18,12a6,6,0,1,0-6,6A6.007,6.007,0,0,0,18,12ZM14.764,9.1a10.612,10.612,0,0,1,.372,2.612h2.278a5.4,5.4,0,0,0-1.179-3.1A8.293,8.293,0,0,1,14.764,9.1ZM12,15.143a11.746,11.746,0,0,0-2.015.178c.476,1.272,1.208,2.108,2.015,2.108s1.539-.836,2.015-2.108A11.737,11.737,0,0,0,12,15.143Zm2.764-.246a8.375,8.375,0,0,1,1.471.491,5.4,5.4,0,0,0,1.179-3.1H15.136A10.6,10.6,0,0,1,14.764,14.9Z"/></svg>