<svg xmlns="http://www.w3.org/2000/svg" viewBox="0 0 24 24"><path d="M20,2H4A2,2,0,0,0,2,4v8a2,2,0,0,0,2,2H20a2,2,0,0,0,2-2V4A2,2,0,0,0,20,2Zm0,8a2.116,2.116,0,0,0-1.98,2H5.98A2.135,2.135,0,0,0,4,10c-.006-.067-.006-3.937,0-4A2.14,2.14,0,0,0,5.98,4H18.02A2.122,2.122,0,0,0,20,6C20.006,6.065,20.006,9.935,20,10ZM9,8a3,3,0,1,1,3,3A3,3,0,0,1,9,8ZM6,8A1,1,0,1,1,7,9,1,1,0,0,1,6,8ZM16,8a1,1,0,1,1,1,1A1,1,0,0,1,16,8Zm5,10H3a1,1,0,0,1-1-1H2a1,1,0,0,1,1-1H21a1,1,0,0,1,1,1h0A1,1,0,0,1,21,18Zm0,4H3a1,1,0,0,1-1-1H2a1,1,0,0,1,1-1H21a1,1,0,0,1,1,1h0A1,1,0,0,1,21,22Z"/></svg>