<svg xmlns="http://www.w3.org/2000/svg" viewBox="0 0 24 24"><path d="M11,10h2v9a3,3,0,0,1-6,0H9a1,1,0,0,0,2,0V10Zm1-8A10.226,10.226,0,0,0,2,10H4a2,2,0,0,1,4,0h2a2,2,0,0,1,4,0h2a2,2,0,0,1,4,0h2A10.226,10.226,0,0,0,12,2Zm9.1,16.527c0-1.727-1.48-2.323-2.864-2.679s-1.829-.733-1.829-1.308c0-.658.617-1.124,1.645-1.124,1.082,0,1.486.521,1.52,1.281h1.343a2.421,2.421,0,0,0-1.952-2.322V11.039H17v1.322a2.245,2.245,0,0,0-1.994,2.2c0,1.4,1.165,2.1,2.864,2.514,1.527.363,1.829.9,1.829,1.466,0,.418-.3,1.09-1.644,1.09-1.254,0-1.747-.562-1.816-1.282H14.9a2.423,2.423,0,0,0,2.1,2.33V22h1.966V20.691C20.158,20.465,21.1,19.78,21.1,18.527Z"/></svg>