<svg xmlns="http://www.w3.org/2000/svg" viewBox="0 0 24 24"><path d="M2.515,16.475A10.487,10.487,0,0,0,11,22.445v1.5A11.994,11.994,0,0,1,0,12l.03-.66,3.81,3.81ZM24,12l-.03.66-3.81-3.81,1.33-1.33a10.47,10.47,0,0,0-8.48-5.96V.055A11.977,11.977,0,0,1,24,12ZM3.374,7.421a3.779,3.779,0,0,1,0-.885H2.047C2.032,6.691,2,6.841,2,7s.03.28.042.421ZM7,2A4.985,4.985,0,0,0,2.207,5.652H3.578a3.973,3.973,0,0,1,6.4-1.635L9.2,4.8a2.868,2.868,0,0,0-4.416.853H7.326v.884H4.488a2.815,2.815,0,0,0,0,.885H7.326v.884H4.78A2.865,2.865,0,0,0,7.326,9.852a2.835,2.835,0,0,0,1.866-.694l.787.782a3.973,3.973,0,0,1-6.4-1.635H2.194A4.991,4.991,0,1,0,7,2Zm9.213,18.794a2.325,2.325,0,0,1-2.044-2.125h1.225c.062.656.512,1.168,1.656,1.168,1.225,0,1.5-.612,1.5-.993,0-.519-.275-1.007-1.669-1.338-1.55-.375-2.612-1.012-2.612-2.294a2.168,2.168,0,0,1,1.944-2.006V12.079a4.98,4.98,0,0,0,0,9.842Zm1.668-8.7v1.13a2.207,2.207,0,0,1,1.781,2.118H18.438c-.032-.693-.4-1.168-1.388-1.168-.938,0-1.5.425-1.5,1.025,0,.525.406.868,1.669,1.194s2.612.868,2.612,2.443c-.006,1.144-.862,1.769-1.95,1.975v1.105a4.987,4.987,0,0,0,0-9.822Z"/></svg>