<svg xmlns="http://www.w3.org/2000/svg" viewBox="0 0 24 24"><path d="M20,19l-8,3L5,20.02V20H2V11H6.97l7.26,2.71A1.2,1.2,0,0,1,15,14.82,1.182,1.182,0,0,1,13.82,16H11l-1.76-.67-.33.94L11,17h7A2.006,2.006,0,0,1,20,19ZM17.881,2.089v1.13a2.207,2.207,0,0,1,1.781,2.118H18.438c-.032-.693-.4-1.168-1.388-1.168-.938,0-1.5.425-1.5,1.025,0,.525.406.868,1.669,1.193s2.612.869,2.612,2.444c-.006,1.144-.862,1.769-1.95,1.975v1.105a4.987,4.987,0,0,0,0-9.822Zm-1.793,8.705a2.209,2.209,0,0,1-1.919-2.125h1.225c.062.656.512,1.169,1.656,1.169,1.225,0,1.5-.613,1.5-.994,0-.519-.275-1.006-1.669-1.338-1.55-.375-2.612-1.012-2.612-2.293a2.049,2.049,0,0,1,1.819-2.007V2.092a4.99,4.99,0,0,0,0,9.816Z"/></svg>