<svg xmlns="http://www.w3.org/2000/svg" viewBox="0 0 24 24"><path d="M20,12c0-.575-.455-1.109-1.231-1.562V6.5C19.545,6.051,20,5.516,20,4.941,20,3.317,16.418,2,12,2S4,3.317,4,4.941c0,.575.455,1.11,1.231,1.563v3.934C4.455,10.891,4,11.425,4,12s.455,1.109,1.231,1.562V17.5C4.455,17.949,4,18.484,4,19.059,4,20.683,7.582,22,12,22s8-1.317,8-2.941c0-.575-.455-1.11-1.231-1.563V13.562C19.545,13.109,20,12.575,20,12ZM12.466,7.874l-.023.008-.024-.007ZM12,16.118A4.217,4.217,0,0,1,7.692,12,4.217,4.217,0,0,1,12,7.882,4.217,4.217,0,0,1,16.308,12,4.217,4.217,0,0,1,12,16.118Zm1.8-5.338L12,9.059,10.2,10.78a2.364,2.364,0,0,0,0,3.445,2.631,2.631,0,0,0,3.608,0,2.364,2.364,0,0,0,0-3.445Z"/></svg>