<svg xmlns="http://www.w3.org/2000/svg" viewBox="0 0 24 24"><path d="M12,12,8,14v2.146C8,18.612,9.707,21.44,12,22c2.293-.56,4-3.388,4-5.854V14Zm.529,7.284V20h-1v-.724A1.4,1.4,0,0,1,10.3,18h.735c.038.394.308.7.994.7.735,0,.9-.367.9-.6,0-.311-.165-.6-1-.8-.93-.225-1.568-.608-1.568-1.376a1.3,1.3,0,0,1,1.166-1.2V14h1v.731A1.328,1.328,0,0,1,13.6,16h-.735c-.019-.416-.24-.7-.833-.7-.563,0-.9.255-.9.615,0,.315.244.522,1,.717S13.7,17.154,13.7,18.1C13.7,18.785,13.181,19.16,12.529,19.284ZM20,6H16V4a1.993,1.993,0,0,0-2-2H10A1.993,1.993,0,0,0,8,4V6H4A1.985,1.985,0,0,0,2.01,8L2,18a1.993,1.993,0,0,0,2,2H6.973A8.76,8.76,0,0,1,6,16.146V13l6-3,6,3v3.146A8.76,8.76,0,0,1,17.027,20H20a1.993,1.993,0,0,0,2-2V8A1.993,1.993,0,0,0,20,6ZM14,6H10V4h4Z"/></svg>