<svg xmlns="http://www.w3.org/2000/svg" viewBox="0 0 24 24"><path d="M3.1,6.336a2.986,2.986,0,0,1,0-.707H2.037C2.026,5.753,2,5.873,2,6s.024.224.034.336ZM6,2A3.988,3.988,0,0,0,2.166,4.922h1.1A3.179,3.179,0,0,1,8.383,3.613l-.626.626a2.294,2.294,0,0,0-3.533.683H6.261v.707H3.991a2.316,2.316,0,0,0-.029.354,2.293,2.293,0,0,0,.029.353h2.27v.708H4.224A2.292,2.292,0,0,0,6.261,8.281a2.26,2.26,0,0,0,1.492-.555l.63.626A3.178,3.178,0,0,1,3.262,7.044H2.155A3.993,3.993,0,1,0,6,2ZM17.37,21.019a1.86,1.86,0,0,1-1.635-1.7h.98c.05.525.41.935,1.325.935.98,0,1.2-.49,1.2-.8,0-.415-.22-.8-1.335-1.07-1.24-.3-2.09-.81-2.09-1.835a1.733,1.733,0,0,1,1.555-1.6v-.9a3.984,3.984,0,0,0,0,7.873ZM18.7,14.055v.9a1.768,1.768,0,0,1,1.425,1.7h-.98c-.025-.555-.32-.935-1.11-.935-.75,0-1.2.34-1.2.82,0,.42.325.7,1.335.955s2.09.7,2.09,1.955c0,.915-.69,1.415-1.56,1.58v.884a3.99,3.99,0,0,0,0-7.858ZM22,6,18.01,2V5H12V7h6.01v3ZM5.99,19H12V17H5.99V14L2,18l3.99,4Z"/></svg>