<svg xmlns="http://www.w3.org/2000/svg" viewBox="0 0 24 24"><path d="M12,2A10,10,0,1,0,22,12,10,10,0,0,0,12,2ZM8.518,16.565l-.676,1.171a.894.894,0,1,1-1.548-.894l.5-.863L6.84,15.9a.738.738,0,0,1,.717-.294s.992.107,1.064.623a.609.609,0,0,1-.105.339Zm5.17-1.205H5.894a.894.894,0,1,1,0-1.787h2c.323-.019.4-.206.4-.206h0l2.615-4.53h0a.2.2,0,0,0,0-.184l-.864-1.5A.894.894,0,0,1,11.6,6.264l.4.694.4-.692a.894.894,0,1,1,1.548.893l-3.639,6.305c-.016.038-.021.1.1.109h2.176v.021a1.462,1.462,0,0,1,1.429,1.194S14.124,15.36,13.688,15.36Zm4.418,0H17.041c-.161,0-.134.09-.119.123l.784,1.358a.894.894,0,1,1-1.548.893l-3.135-5.429a3.033,3.033,0,0,1-.227-2.4s.352-.867.574-.528l.135.194,0,0,2.257,3.909,0,0a.312.312,0,0,0,.231.091h2.108a.894.894,0,1,1,0,1.787Z"/></svg>