<svg xmlns="http://www.w3.org/2000/svg" viewBox="0 0 24 24"><path d="M20.444,9.055a8.5,8.5,0,0,0-2.173-4.334,8.409,8.409,0,0,0-1.622-1.358,8.508,8.508,0,0,0-3.64-1.309A4.068,4.068,0,0,1,12.528,2H11.393c-.012.029-.038.018-.059.02-.292.026-.583.059-.871.114a8.453,8.453,0,0,0-5.177,3.1A8.364,8.364,0,0,0,3.447,9.947a8.567,8.567,0,0,0,.185,2.529,8.139,8.139,0,0,0,.624,1.79l.073.146a8.608,8.608,0,0,0,1.784,2.4,8.521,8.521,0,0,0,5.763,2.333c.1,0,.127.026.126.128,0,.874,0,1.747,0,2.621,0,.034,0,.068.005.11l.063-.026a18,18,0,0,0,4.49-2.966c.267-.243.979-.991,1.084-1.1.163-.175.3-.369.458-.553.177-.212.337-.437.494-.663a11,11,0,0,0,.918-1.575c.132-.279.258-.56.369-.847a.116.116,0,0,0,.011-.016,10.313,10.313,0,0,0,.6-2.439c.036-.292.059-.585.074-.878A8.1,8.1,0,0,0,20.444,9.055Zm-9.189,2.819a2.512,2.512,0,0,1-.84,1.878c-.029.026-.056.054-.084.081a2.686,2.686,0,0,1-.934.48,3.842,3.842,0,0,1-.448.085.21.21,0,0,1-.235-.152v-.968c.054-.124.168-.149.282-.176a1.153,1.153,0,0,0,.962-1.011c.013-.074.055-.152.006-.229l-2.042,0a.644.644,0,0,1-.174-.018.412.412,0,0,1-.306-.385q0-1.543,0-3.087a.432.432,0,0,1,.416-.323q1.491,0,2.981,0a.409.409,0,0,1,.4.312.4.4,0,0,1,.017.153C11.257,9.631,11.263,10.753,11.255,11.874Zm5.285,0a2.507,2.507,0,0,1-.839,1.878c-.029.026-.056.054-.084.081a2.682,2.682,0,0,1-.935.48,3.786,3.786,0,0,1-.447.085A.21.21,0,0,1,14,14.246v-.968c.053-.124.167-.149.282-.176a1.154,1.154,0,0,0,.962-1.011c.013-.074.055-.152.006-.229l-2.042,0a.636.636,0,0,1-.174-.018.414.414,0,0,1-.307-.385q0-1.543,0-3.087a.431.431,0,0,1,.416-.323q1.491,0,2.981,0a.409.409,0,0,1,.4.312.4.4,0,0,1,.017.153C16.543,9.631,16.549,10.753,16.54,11.874Z"/></svg>