<svg xmlns="http://www.w3.org/2000/svg" viewBox="0 0 24 24"><path d="M7.134,4.044A6.844,6.844,0,0,1,12,2a6.969,6.969,0,0,1,1.275.118L9.782,6.271ZM9.1,7.076,6.456,4.85A6.831,6.831,0,0,0,5.183,8.815a8.017,8.017,0,0,0,.37,2.483Zm8.778-1.7a6.808,6.808,0,0,0-3.494-2.941L11.821,5.489q.09-.006.18-.006a3.346,3.346,0,0,1,3.313,2.946ZM8.737,16.246l3.447-4.1c-.061,0-.12,0-.18,0A3.342,3.342,0,0,1,8.689,9.212L6,12.4a18.889,18.889,0,0,0,2.22,3.2C8.393,15.811,8.564,16.026,8.737,16.246ZM13.6,18.557a34.254,34.254,0,0,1,2.2-2.985c1.622-2.032,3.021-3.787,3.021-6.757a6.747,6.747,0,0,0-.436-2.406L9.4,17.1c.392.528.717,1,1.012,1.46C11.147,19.7,10.89,22,12,22S12.859,19.7,13.6,18.557Z"/></svg>