<svg xmlns="http://www.w3.org/2000/svg" viewBox="0 0 24 24"><path d="M12.45,11.162a4.12,4.12,0,0,1-.1,2.048,1.871,1.871,0,0,1-3.656,0,4.12,4.12,0,0,1-.1-2.048,2.166,2.166,0,0,1,1.448-1.8,2.456,2.456,0,0,1,.959,0A2.164,2.164,0,0,1,12.45,11.162ZM21,5V19a2,2,0,0,1-2,2H5a2,2,0,0,1-2-2V5A2,2,0,0,1,5,3H19A2,2,0,0,1,21,5ZM6.4,10.449H5.047v5.307H6.4Zm.047-1.482a.723.723,0,1,0-.722.723A.723.723,0,0,0,6.445,8.967ZM13.93,12.05a3.656,3.656,0,0,0-1.9-3.454,3.408,3.408,0,0,0-3.017,0,3.656,3.656,0,0,0-1.9,3.454,3.523,3.523,0,0,0,1.892,3.393,3.462,3.462,0,0,0,1.15.3,4.694,4.694,0,0,0,.731,0,3.462,3.462,0,0,0,1.15-.3A3.522,3.522,0,0,0,13.93,12.05Zm5.07,1.5a1.866,1.866,0,0,0-.544-1.37,3.692,3.692,0,0,0-1.361-.8c-.977-.4-1.243-.6-1.329-1.016-.121-.664.566-1.04,1.2-1.032a4.241,4.241,0,0,1,1.448.323c.014-.022.293-1.007.293-1.036a2.417,2.417,0,0,0-1.023-.337,5.19,5.19,0,0,0-1.318,0,2.16,2.16,0,0,0-1.941,1.733,1.969,1.969,0,0,0,.1.993,2.845,2.845,0,0,0,1.825,1.43c.9.335,1.222.607,1.295,1.078a.9.9,0,0,1-.521.979,3.881,3.881,0,0,1-2.549-.288c-.013.019-.3,1.085-.292,1.09a4.886,4.886,0,0,0,1.608.444h0a5.719,5.719,0,0,0,.824-.009,2.4,2.4,0,0,0,2.1-1.3A1.766,1.766,0,0,0,19,13.548Z"/></svg>