<svg xmlns="http://www.w3.org/2000/svg" viewBox="0 0 24 24"><path d="M13.476,21.863A5.717,5.717,0,0,1,9.4,20.12,6.157,6.157,0,0,1,7.62,15.749,6.271,6.271,0,0,1,8.7,12.342a5.922,5.922,0,0,0,1.052,3.1,8.345,8.345,0,0,0,6.954,3.435,9.077,9.077,0,0,0,3.095-.537C18.307,20.182,16.183,21.863,13.476,21.863Zm3.892-6.839a4.462,4.462,0,0,0,3.765-1.862,5.151,5.151,0,0,0,.523-4.749A8.883,8.883,0,0,0,18.4,4.1c-1.783-1.265-3.39-2.2-7.475-1.9A10.335,10.335,0,0,0,3.139,7.426,8.273,8.273,0,0,1,8.012,5.877a7.358,7.358,0,0,1,6.355,3.185,4.578,4.578,0,0,1,.9,3.423,3.491,3.491,0,0,1-.859,1.862c.674.7,2.788.677,2.964.677ZM6.412,16.852a7.438,7.438,0,0,1,3.729-7.464,5.4,5.4,0,0,1,2.564-.5A7.156,7.156,0,0,0,7.991,7.134,6.222,6.222,0,0,0,2.629,9.846,5.432,5.432,0,0,0,2.1,13.6,10.189,10.189,0,0,0,9.368,21.77,7.477,7.477,0,0,1,6.412,16.852Z"/></svg>