<svg xmlns="http://www.w3.org/2000/svg" viewBox="0 0 24 24"><path d="M12.833,11.476v-3.6h.994v3.6Zm1.993,0H22v-3.6H14.826ZM6.652,3.552h0V6.286H11.38a1.449,1.449,0,0,1,1.161.589h1.284V2.7H7.5A.853.853,0,0,0,6.652,3.552ZM21.99,12.476H14.826v3.675H22S21.984,13.563,21.99,12.476ZM12.232,7.739v8.527a.852.852,0,0,1-.852.853H2.853A.853.853,0,0,1,2,16.266V7.739a.853.853,0,0,1,.853-.853H11.38A.852.852,0,0,1,12.232,7.739Zm-2.64,7.035L7.864,11.979,9.549,9.232H8.336l-.959,1.751q-.1.189-.186.39H7.179c-.03-.082-.087-.207-.17-.375l-.9-1.767H4.791L6.434,12,4.64,14.774h1.3l1.067-1.948a1.231,1.231,0,0,0,.12-.251h.015a1.708,1.708,0,0,0,.124.259L8.3,14.774ZM21.147,2.7H14.826V6.875l7.174,0V3.553h0A.853.853,0,0,0,21.147,2.7ZM7.476,21.3h0Zm13.7,0Zm-7.344-4.149V12.476h-.994v3.79a1.455,1.455,0,0,1-1.453,1.453H6.652c0,1.154.017,2.391.017,2.822a.8.8,0,0,0,.807.758h13.7a.8.8,0,0,0,.807-.758c0-.526.017-1.481.017-2.822v-.568Z"/></svg>