<svg xmlns="http://www.w3.org/2000/svg" viewBox="0 0 24 24"><path d="M12,2A10,10,0,1,0,22,12,10,10,0,0,0,12,2Zm0,1.788h0ZM5.072,16.4l1.789-1.034-.342-.593L4.726,15.8a8.145,8.145,0,0,1-.564-1.35l2-.536-.176-.661-2,.535a8.226,8.226,0,0,1-.184-1.45H5.869v-.684H3.806a8.226,8.226,0,0,1,.184-1.45l2,.536.176-.661-2-.537A8.145,8.145,0,0,1,4.726,8.2L6.519,9.231l.342-.593L5.072,7.605a8.212,8.212,0,0,1,.891-1.158l1.461,1.46.483-.484-1.46-1.46A8.146,8.146,0,0,1,7.6,5.072l1.034,1.79.593-.343L8.2,4.726a8.145,8.145,0,0,1,1.35-.564l.536,2.005.662-.178-.536-2a8.226,8.226,0,0,1,1.45-.184V5.869h.684V3.806a8.238,8.238,0,0,1,1.45.184l-.536,2,.661.178.537-2a8.181,8.181,0,0,1,1.35.564L14.768,6.519l.594.343L16.4,5.072a8.212,8.212,0,0,1,1.158.891l-1.46,1.46.14.139-5.264,3.407L7.581,16.251l-.158-.158-1.46,1.46A8.261,8.261,0,0,1,5.072,16.4Zm15.122-4.054a8.226,8.226,0,0,1-.184,1.45l-2-.535-.177.661,2.005.536a8.11,8.11,0,0,1-.564,1.35l-1.793-1.035-.343.593,1.79,1.034a8.221,8.221,0,0,1-.891,1.157l-1.459-1.459-.485.482,1.46,1.461a8.212,8.212,0,0,1-1.158.891l-1.033-1.789-.594.342L15.8,19.274a8.181,8.181,0,0,1-1.35.564l-.537-2-.661.176.536,2a8.238,8.238,0,0,1-1.45.184V18.131h-.684v2.063a8.226,8.226,0,0,1-1.45-.184l.536-2-.662-.176-.536,2a8.145,8.145,0,0,1-1.35-.564l1.035-1.793-.593-.342L7.6,18.928a8.261,8.261,0,0,1-1.157-.891l1.46-1.46-.139-.139,5.263-3.407L16.42,7.749l.158.158,1.459-1.46a8.212,8.212,0,0,1,.891,1.158l-1.79,1.033.343.593L19.273,8.2a8.03,8.03,0,0,1,.565,1.35l-2.005.537.177.661,2-.536a8.226,8.226,0,0,1,.184,1.45H18.131v.684ZM20.212,12v0Z"/></svg>