<svg xmlns="http://www.w3.org/2000/svg" viewBox="0 0 24 24"><path d="M12,2A10,10,0,1,0,22,12,10,10,0,0,0,12,2Zm4.586,14.422a.623.623,0,0,1-.857.208c-2.348-1.435-5.3-1.759-8.785-.964a.624.624,0,0,1-.277-1.216c3.809-.87,7.076-.495,9.712,1.115A.623.623,0,0,1,16.586,16.422ZM17.81,13.7a.78.78,0,0,1-1.073.257,13.126,13.126,0,0,0-9.965-1.165A.78.78,0,1,1,6.319,11.3a14.586,14.586,0,0,1,11.233,1.328A.78.78,0,0,1,17.81,13.7Zm.105-2.835C14.691,8.951,9.374,8.774,6.3,9.708a.935.935,0,0,1-.543-1.79c3.533-1.072,9.405-.865,13.115,1.338a.935.935,0,0,1-.954,1.609Z"/></svg>