<svg xmlns="http://www.w3.org/2000/svg" viewBox="0 0 24 24"><path d="M3.406,11.1c0-.217.177-.3.472-.3a3.1,3.1,0,0,1,1.378.356V9.85a3.676,3.676,0,0,0-1.378-.256C2.75,9.594,2,10.183,2,11.167c0,1.533,2.111,1.289,2.111,1.95,0,.255-.222.339-.533.339a3.456,3.456,0,0,1-1.517-.445v1.322a3.84,3.84,0,0,0,1.517.317c1.155,0,1.95-.572,1.95-1.567-.006-1.655-2.122-1.361-2.122-1.983ZM7.161,8.483l-1.355.289L5.8,13.222A1.4,1.4,0,0,0,7.239,14.65a2.146,2.146,0,0,0,.972-.183V13.339c-.178.072-1.055.328-1.055-.5V10.872H8.211V9.689H7.156ZM9.939,10.1,9.85,9.689H8.65V14.55h1.389V11.256a.979.979,0,0,1,1.055-.289V9.689a.942.942,0,0,0-1.155.411Zm1.494-.411h1.395V14.55H11.433V9.689Zm0-.422,1.395-.3V7.839l-1.395.294V9.267Zm4.3.327a1.567,1.567,0,0,0-1.089.434l-.072-.345H13.344v6.478l1.389-.294.006-1.573a1.56,1.56,0,0,0,.983.35c.995,0,1.9-.8,1.9-2.561,0-1.611-.922-2.489-1.894-2.489Zm-.334,3.828a.828.828,0,0,1-.655-.261L14.733,11.1a.829.829,0,0,1,.661-.272c.506,0,.856.566.856,1.294,0,.745-.344,1.3-.856,1.3ZM22,12.139c0-1.422-.689-2.545-2.006-2.545a2.253,2.253,0,0,0-2.122,2.534,2.213,2.213,0,0,0,2.3,2.516,3.1,3.1,0,0,0,1.539-.361V13.172a2.949,2.949,0,0,1-1.361.306c-.539,0-1.017-.189-1.078-.845h2.717c0-.072.011-.361.011-.494Zm-2.744-.528c0-.628.383-.889.733-.889s.7.261.7.889Z"/></svg>