<svg xmlns="http://www.w3.org/2000/svg" viewBox="0 0 24 24"><path d="M22,10.478v-.01a1.455,1.455,0,0,0-.539-1.212,2.44,2.44,0,0,0-1.51-.4H18.83l.287-1.308h-9.1a5.727,5.727,0,0,0-5.309,3H2.633L2,13.418H4.264c.332,2.428,2.448,3.034,4.793,3.034h8.1l.287-1.308h1.7a2.974,2.974,0,0,0,1.921-.581,2.019,2.019,0,0,0,.725-1.656,1.527,1.527,0,0,0-.393-1.072,1.571,1.571,0,0,0,.251-.258A1.8,1.8,0,0,0,22,10.478ZM8.316,14.861c-1.641-.02-2.322-.81-2.322-1.69a3.747,3.747,0,0,1,.059-.435l.731-3.5h1.68l-.622,2.994a5.3,5.3,0,0,0-.079.534c0,.168-.05.721.632.7.7.02.919-.612,1.028-1.235l.632-2.994h1.69l-.761,3.627A2.452,2.452,0,0,1,8.316,14.861Zm5.238.02c-1.255-.01-2.392-.583-2.313-1.987h1.611a.831.831,0,0,0,.227.633.962.962,0,0,0,.6.148c.336-.01.741-.178.731-.534.01-.4-.543-.454-1.3-.7-.662-.228-1.3-.583-1.314-1.483.009-1.245,1.2-1.808,2.292-1.818,1.176.01,2.224.445,2.194,1.788H14.72a.512.512,0,0,0-.178-.454.967.967,0,0,0-.5-.128c-.277.009-.642.1-.652.454.01.415.83.435,1.354.632.958.336,1.284.85,1.284,1.512C16.024,14.258,14.74,14.871,13.554,14.881Zm7.026-3.093v.019a1.068,1.068,0,0,1,.8,1.087c.019,1.325-1.038,1.848-2.234,1.839H16l1.136-5.466h2.816c1.187.01,1.631.425,1.641,1.206A1.26,1.26,0,0,1,20.58,11.788Zm-.761-.841c0,.326-.336.435-.6.435h-.958l.178-.83H19.3C19.6,10.552,19.819,10.611,19.819,10.947Zm-.168,1.918c-.019.444-.425.553-.731.553H17.833l.227-1.028h.929C19.335,12.4,19.641,12.46,19.651,12.865Z"/></svg>