<svg xmlns="http://www.w3.org/2000/svg" viewBox="0 0 24 24"><path d="M12,2.5c-6,0-6,6-6,6v1s-.035-.029-.063,0C5.218,10.218,4,9.569,4,10.9,4,12.44,5.7,12.5,5.965,12.5H6c0,1-1.652,2.171-2.736,2.442A1.7,1.7,0,0,0,2,16.51a1.67,1.67,0,0,0,.106.643C2.483,18.038,4.1,19.1,5.1,18.1c.038,1.44.679,2.4,1.374,2.4a4.559,4.559,0,0,0,1.634-.388A5.5,5.5,0,0,0,12,21.5a5.5,5.5,0,0,0,3.9-1.388,4.552,4.552,0,0,0,1.634.388c.7,0,1.335-.963,1.373-2.4,1,1,2.614-.059,2.991-.944A1.67,1.67,0,0,0,22,16.51a1.7,1.7,0,0,0-1.264-1.568C19.652,14.671,18,13.5,18,12.5h.035C18.3,12.5,20,12.44,20,10.9c0-1.326-1.219-.677-1.937-1.4-.028-.028-.063,0-.063,0v-1s0-6-6-6Z"/></svg>