<svg xmlns="http://www.w3.org/2000/svg" viewBox="0 0 24 24"><path d="M21.517,3.826a1.35,1.35,0,0,0-1.438-.146L3.177,10.2c-1,.406-1.193.914-1.176,1.269.013.263.161.74,1.007.991l4.125,1.292,2.135,5.7a.463.463,0,0,0,.339.291.5.5,0,0,0,.1.01.462.462,0,0,0,.332-.141l2.486-2.559,4.259,3.138a1.988,1.988,0,0,0,.933.273,1.212,1.212,0,0,0,.514-.111,1.6,1.6,0,0,0,.821-1.219L21.922,5.582A1.674,1.674,0,0,0,21.517,3.826Zm-.5,1.549L18.141,18.938a.816.816,0,0,1-.3.57.745.745,0,0,1-.562-.1l-4.9-3.616a.462.462,0,0,0-.632.077l-1.507,1.821.146-2.916s8.132-8,8.073-8.085c-.089-.133-.249-.183-.64.069L7.427,12.873l-4.148-1.3a2.373,2.373,0,0,1-.345-.142,1.324,1.324,0,0,1,.584-.37L20.436,4.535a.466.466,0,0,1,.488,0C21.079,4.667,21.116,4.982,21.019,5.375Z"/></svg>