<svg xmlns="http://www.w3.org/2000/svg" viewBox="0 0 24 24"><path d="M19,3H5A2,2,0,0,0,3,5V19a2,2,0,0,0,2,2H19a2,2,0,0,0,2-2V5A2,2,0,0,0,19,3ZM17.87,9c0,.13,0,.26,0,.39A8.61,8.61,0,0,1,4.62,16.64a5.69,5.69,0,0,0,.72,0,6,6,0,0,0,3.76-1.3,3,3,0,0,1-2.83-2.1,2.75,2.75,0,0,0,.57.05,3,3,0,0,0,.8-.1,3,3,0,0,1-2.43-3v0a3.13,3.13,0,0,0,1.37.38,3,3,0,0,1-.93-4,8.57,8.57,0,0,0,6.24,3.17A3.1,3.1,0,0,1,11.81,9,3,3,0,0,1,17.05,7,6.38,6.38,0,0,0,19,6.22,3.07,3.07,0,0,1,17.64,7.9a6.22,6.22,0,0,0,1.74-.48A6.09,6.09,0,0,1,17.87,9Z"/></svg>