<svg xmlns="http://www.w3.org/2000/svg" viewBox="0 0 24 24"><path d="M5.68,2,7.158,7.344V9.906H8.439V7.344L9.938,2H8.646L8.109,4.432Q7.883,5.5,7.818,5.947H7.779q-.095-.631-.291-1.525L6.971,2Zm5.752,2.018a1.9,1.9,0,0,0-1.051.257,1.5,1.5,0,0,0-.59.825A4.887,4.887,0,0,0,9.6,6.6v.84a5.369,5.369,0,0,0,.164,1.478,1.435,1.435,0,0,0,.556.82A1.908,1.908,0,0,0,11.4,10a1.9,1.9,0,0,0,1.061-.26,1.453,1.453,0,0,0,.564-.818A5.15,5.15,0,0,0,13.2,7.438V6.6a5.073,5.073,0,0,0-.178-1.493,1.51,1.51,0,0,0-.566-.824A1.784,1.784,0,0,0,11.432,4.018Zm2.447.113V8.445a2.027,2.027,0,0,0,.271,1.178A.978.978,0,0,0,15,10a1.331,1.331,0,0,0,1.244-.8h.028l.113.707H17.4V4.131H16.1V8.719a.634.634,0,0,1-.231.263.569.569,0,0,1-.324.1.293.293,0,0,1-.283-.164,1.291,1.291,0,0,1-.086-.553V4.131ZM11.4,4.912a.388.388,0,0,1,.383.287,2.791,2.791,0,0,1,.108.91v1.8a2.827,2.827,0,0,1-.108.924.389.389,0,0,1-.381.283.38.38,0,0,1-.377-.283,2.916,2.916,0,0,1-.1-.924v-1.8a2.805,2.805,0,0,1,.107-.91A.381.381,0,0,1,11.4,4.912ZM5,11a2.006,2.006,0,0,0-2,2v7a2.006,2.006,0,0,0,2,2H19a2.006,2.006,0,0,0,2-2V13a2.006,2.006,0,0,0-2-2Zm7.049,2h1.056v2.568h.008a1.158,1.158,0,0,1,.407-.449,1.017,1.017,0,0,1,.566-.17.86.86,0,0,1,.611.207,1.256,1.256,0,0,1,.323.668,6.462,6.462,0,0,1,.1,1.281v.772h0a3.683,3.683,0,0,1-.264,1.6.863.863,0,0,1-.818.513,1.133,1.133,0,0,1-.564-.142.931.931,0,0,1-.383-.391h-.024l-.111.461h-.906Zm-6.563.246H8.738v.885H7.648V19.92H6.576V14.131H5.486ZM17.1,14.951a1.53,1.53,0,0,1,.867.207,1.12,1.12,0,0,1,.426.645,4.67,4.67,0,0,1,.123,1.209v.836H16.678V18.1a6.418,6.418,0,0,0,.027.7.676.676,0,0,0,.115.342.326.326,0,0,0,.27.107.341.341,0,0,0,.338-.191,1.647,1.647,0,0,0,.1-.635l.948.055a1.6,1.6,0,0,1,.007.175,1.291,1.291,0,0,1-.371,1.01A1.5,1.5,0,0,1,17.066,20a1.248,1.248,0,0,1-1.138-.51,2.971,2.971,0,0,1-.326-1.574v-.851a2.958,2.958,0,0,1,.337-1.6A1.292,1.292,0,0,1,17.1,14.951Zm-8.688.094h1.1v3.58a1.084,1.084,0,0,0,.072.465.246.246,0,0,0,.238.139.488.488,0,0,0,.276-.088.538.538,0,0,0,.193-.223V15.045h1.1V19.92h-.862l-.093-.6h-.026A1.124,1.124,0,0,1,9.357,20a.821.821,0,0,1-.714-.318,1.705,1.705,0,0,1-.233-.994Zm8.664.648a.319.319,0,0,0-.26.1.665.665,0,0,0-.111.338,6.525,6.525,0,0,0-.027.711V17.2h.8v-.349a5.934,5.934,0,0,0-.032-.711.665.665,0,0,0-.115-.342A.319.319,0,0,0,17.074,15.693Zm-3.482.036a.417.417,0,0,0-.293.126.7.7,0,0,0-.192.327v2.767a.489.489,0,0,0,.188.192.511.511,0,0,0,.25.064.336.336,0,0,0,.277-.127.9.9,0,0,0,.149-.43,6.224,6.224,0,0,0,.043-.836v-.626a8.243,8.243,0,0,0-.035-.883,1.034,1.034,0,0,0-.127-.444A.3.3,0,0,0,13.592,15.729Z"/></svg>