<svg xmlns="http://www.w3.org/2000/svg" viewBox="0 0 24 24"><path d="M20.5,10a1.486,1.486,0,0,0-1.292,1h-1.3a5.958,5.958,0,0,0-1.023-2.473L17.8,7.61A1.487,1.487,0,0,0,19.425,7.4a1.806,1.806,0,0,0-.354-2.475A1.806,1.806,0,0,0,16.6,4.575,1.487,1.487,0,0,0,16.39,6.2l-.917.917A5.958,5.958,0,0,0,13,6.09v-1.3A1.486,1.486,0,0,0,14,3.5c0-.828-.895-1.5-2-1.5s-2,.672-2,1.5a1.486,1.486,0,0,0,1,1.292v1.3A5.958,5.958,0,0,0,8.527,7.113L7.61,6.2A1.487,1.487,0,0,0,7.4,4.575a1.806,1.806,0,0,0-2.475.354A1.806,1.806,0,0,0,4.575,7.4,1.487,1.487,0,0,0,6.2,7.61l.917.917A5.958,5.958,0,0,0,6.09,11h-1.3A1.486,1.486,0,0,0,3.5,10C2.672,10,2,10.9,2,12s.672,2,1.5,2a1.486,1.486,0,0,0,1.292-1h1.3a5.964,5.964,0,0,0,1.023,2.473L6.2,16.39a1.487,1.487,0,0,0-1.621.206,1.806,1.806,0,0,0,.354,2.475,1.806,1.806,0,0,0,2.475.354A1.487,1.487,0,0,0,7.61,17.8l.917-.917A5.958,5.958,0,0,0,11,17.91v1.3A1.486,1.486,0,0,0,10,20.5c0,.828.895,1.5,2,1.5s2-.672,2-1.5a1.486,1.486,0,0,0-1-1.292v-1.3a5.958,5.958,0,0,0,2.473-1.023l.917.917a1.487,1.487,0,0,0,.206,1.621,1.806,1.806,0,0,0,2.475-.354,1.806,1.806,0,0,0,.354-2.475A1.487,1.487,0,0,0,17.8,16.39l-.917-.917A5.964,5.964,0,0,0,17.91,13h1.3A1.486,1.486,0,0,0,20.5,14c.828,0,1.5-.895,1.5-2S21.328,10,20.5,10ZM9,15a1,1,0,1,1,1-1A1,1,0,0,1,9,15Zm6-4a1,1,0,1,1,1-1A1,1,0,0,1,15,11Zm-3.939.061a1.8,1.8,0,0,1-2.475.353,1.8,1.8,0,0,1,.353-2.475,1.8,1.8,0,0,1,2.475-.353A1.8,1.8,0,0,1,11.061,11.061Zm4,4a1.8,1.8,0,0,1-2.475.353,1.8,1.8,0,0,1,.353-2.475,1.8,1.8,0,0,1,2.475-.353A1.8,1.8,0,0,1,15.061,15.061Z"/></svg>