<svg xmlns="http://www.w3.org/2000/svg" viewBox="0 0 24 24"><path d="M11.432,22a3.921,3.921,0,0,1-3.79-2.635l-.186-.57H9.194l.115.266a2.28,2.28,0,0,0,2.123,1.325,2.255,2.255,0,0,0,2.243-1.645,4.059,4.059,0,0,0-.15-1.369,4.012,4.012,0,0,1-.081-2.062,5.461,5.461,0,0,1,1.57-2.277,5.067,5.067,0,0,0,1.346-1.844,4.253,4.253,0,0,0,.216-1.337,4.812,4.812,0,0,0-5-4.593,5.264,5.264,0,0,0-4.9,3.718,2.84,2.84,0,0,0-.077.642.845.845,0,1,1-1.69,0,5.112,5.112,0,0,1,.065-.809,6.627,6.627,0,0,1,6.607-5.165,6.467,6.467,0,0,1,6.685,6.207,5.96,5.96,0,0,1-2.1,4.434l-.087.084a3.04,3.04,0,0,0-1.1,1.551,2.881,2.881,0,0,0,.184,1.174,4.2,4.2,0,0,1,.234,1.254,3.574,3.574,0,0,1-.918,2.325A4.093,4.093,0,0,1,11.432,22Zm0,0a3.921,3.921,0,0,1-3.79-2.635l-.186-.57H9.194l.115.266a2.28,2.28,0,0,0,2.123,1.325,2.255,2.255,0,0,0,2.243-1.645,4.059,4.059,0,0,0-.15-1.369,4.012,4.012,0,0,1-.081-2.062,5.461,5.461,0,0,1,1.57-2.277,5.067,5.067,0,0,0,1.346-1.844,4.253,4.253,0,0,0,.216-1.337,4.812,4.812,0,0,0-5-4.593,5.264,5.264,0,0,0-4.9,3.718,2.84,2.84,0,0,0-.077.642.845.845,0,1,1-1.69,0,5.112,5.112,0,0,1,.065-.809,6.627,6.627,0,0,1,6.607-5.165,6.467,6.467,0,0,1,6.685,6.207,5.96,5.96,0,0,1-2.1,4.434l-.087.084a3.04,3.04,0,0,0-1.1,1.551,2.881,2.881,0,0,0,.184,1.174,4.2,4.2,0,0,1,.234,1.254,3.574,3.574,0,0,1-.918,2.325A4.093,4.093,0,0,1,11.432,22Zm3.495-11.93a3.282,3.282,0,0,0-3.34-3.212A3.281,3.281,0,0,0,8.248,10.07a.477.477,0,0,0,.954,0,2.387,2.387,0,0,1,4.77,0,.478.478,0,0,0,.955,0ZM9,11.636,3,17.412,4.966,19.3l6-5.776Zm9.544-5.4,2.441-2.348L19.023,2,16.788,4.149A6.355,6.355,0,0,1,18.548,6.239Z"/></svg>