<svg xmlns="http://www.w3.org/2000/svg" viewBox="0 0 24 24"><path d="M22,4V5H8V4a2,2,0,0,1,2-2H20A2,2,0,0,1,22,4Zm0,3V20a2,2,0,0,1-2,2H10a2,2,0,0,1-2-2V9H7a1,1,0,0,0-1,1V20a2,2,0,0,1-2,2H2V20H3a1,1,0,0,0,1-1V9A2,2,0,0,1,6,7H22Zm-3,6.05c0-1.316-.387-2.383-1.733-2.383-.55,0-1.3.48-2.167.48s-1.617-.48-2.167-.48c-1.346,0-1.733,1.067-1.733,2.383a2.355,2.355,0,0,0,.867,1.821V16.3c0,1.212.866,3.033,1.3,3.033,1.3,0,.866-2.6,1.733-2.6s.433,2.6,1.733,2.6c.434,0,1.3-1.821,1.3-3.033V14.871A2.355,2.355,0,0,0,19,13.05Z"/></svg>