<svg xmlns="http://www.w3.org/2000/svg" viewBox="0 0 24 24"><path d="M9,5.4V3a1.913,1.913,0,0,1,1.917-2c.014,0,.027,0,.041,0S10.986,1,11,1a2,2,0,0,1,2,2V5.4c-.124-.191-.24-.379-.387-.58L11,2.618l-1.613,2.2C9.24,5.019,9.124,5.207,9,5.4Zm10.888,8.665L14.339,12.3a1.733,1.733,0,0,0-.66-.134H13V10.229a3.01,3.01,0,0,1-4,0v6.714c-4.311-.91-4.244-.9-4.4-.9a1.367,1.367,0,0,0-.966.4l-.965.977L8.7,23.462A1.841,1.841,0,0,0,10,24h8.3a1.78,1.78,0,0,0,1.76-1.564l.917-6.442A1.86,1.86,0,0,0,21,15.75,1.831,1.831,0,0,0,19.888,14.063ZM12.415,9.422A2.015,2.015,0,0,0,13,8.006a5.512,5.512,0,0,0-1.193-2.6L11,4.309l-.807,1.1A5.512,5.512,0,0,0,9,8.006a2.015,2.015,0,0,0,.584,1.415,2.049,2.049,0,0,0,2.831,0Z"/></svg>