<svg xmlns="http://www.w3.org/2000/svg" viewBox="0 0 24 24"><path d="M8.681,10.021a2.131,2.131,0,1,1,2.129,2.052A2.092,2.092,0,0,1,8.681,10.021Zm7.574-5.093A4.362,4.362,0,0,0,11.847,5.99l-.345.97.616.2a3.055,3.055,0,0,1,2.02,3.894,3.2,3.2,0,0,1-3.328,2.087V14.16a4.251,4.251,0,0,0,4.338-2.783A4.039,4.039,0,0,0,13.172,6.5a3.24,3.24,0,0,1,2.649-.311,3.024,3.024,0,0,1,2,3.849,5.337,5.337,0,0,1-.276.586l-4.859,6.419.892.521L18.584,10.9a6.915,6.915,0,0,0,.365-.777A4.079,4.079,0,0,0,16.255,4.928Zm-12.291.74.863.832a5.16,5.16,0,0,0,0,7.486l-.863.832A6.31,6.31,0,0,1,3.964,5.668Zm2.79,1.664.863.832a2.866,2.866,0,0,0,0,4.158l-.863.832A4.017,4.017,0,0,1,6.754,7.332Zm10.615-5A6.9,6.9,0,0,0,9.623,4.89h1.451a5.748,5.748,0,0,1,5.941-1.531,5.41,5.41,0,0,1,3.574,6.888A9.921,9.921,0,0,1,20.1,11.3L15.23,19.081a3.723,3.723,0,0,1-4.377,1.656A3.91,3.91,0,0,1,8.476,18H7.318A5.008,5.008,0,0,0,10.5,21.762a4.851,4.851,0,0,0,5.7-2.144l4.871-7.795a10.643,10.643,0,0,0,.58-1.234A6.484,6.484,0,0,0,17.369,2.334Z"/></svg>