<svg xmlns="http://www.w3.org/2000/svg" viewBox="0 0 24 24"><path d="M16,5a3,3,0,1,1,3,3A3,3,0,0,1,16,5Zm7,4.967A1.674,1.674,0,0,0,20.368,8.7l-8.387,4.108c0,.064.019.124.019.189a3.953,3.953,0,0,1-.318,1.563c.224.079.426.179.633.273L16,13.133V22h7V9.967ZM10.058,15.174a3,3,0,1,0-4.116,0C2.794,15.732,1,17.67,1,21H6.667c.333,0,.5-2,0-2h-2C4.3,19,4,18.837,4,18.183a.666.666,0,0,1,.667-.666h6.666a.666.666,0,0,1,.667.666c0,.552-.3.817-.667.817h-2c-.5,0-.333,2,0,2H15C15,17.67,13.206,15.732,10.058,15.174Z"/></svg>