<svg xmlns="http://www.w3.org/2000/svg" viewBox="0 0 24 24"><path d="M8.527,10.137,9.986,8.768,9.3,8.039,16.592,1.2l1.369,1.459,1.458-1.369,1.369,1.458L19.33,4.112,20.7,5.57l-.512.481a2.978,2.978,0,0,0-4,3.756l-2.777,2.607-.685-.729-1.458,1.369ZM21,8.805a2,2,0,1,0-2.375,1.962A5.888,5.888,0,0,1,19,12.805,5.985,5.985,0,0,1,8.731,17H12V15H3v2H6.212a8.045,8.045,0,0,0,3.161,2.915A1.993,1.993,0,0,0,8,21.805V23H18v-1.2a2,2,0,0,0-1.355-1.885A7.992,7.992,0,0,0,21,12.805a7.9,7.9,0,0,0-.489-2.7A1.98,1.98,0,0,0,21,8.805Z"/></svg>