<svg xmlns="http://www.w3.org/2000/svg" viewBox="0 0 24 24"><path d="M5.457,3.92C2.446,5.3-.377,10.72,7.586,17.565,9.574,19.274,11,23,14.4,21.735c4.971-1.852.609-11.39-.373-13.529C12.305,4.456,8.469,2.537,5.457,3.92ZM9.85,12.914a3.039,3.039,0,1,1,1.5-4.03A3.039,3.039,0,0,1,9.85,12.914Zm3.3,5.256a1,1,0,1,1,.492-1.326A1,1,0,0,1,13.154,18.17ZM6,19a2,2,0,1,1-2-2A2,2,0,0,1,6,19Zm15,1a1,1,0,1,1-1-1A1,1,0,0,1,21,20Zm0-8a1,1,0,0,1-1-1,7.42,7.42,0,0,0-4-7c-.494-.247-1-.448-1-1s.476-1.175,1-1c3,1,6,3.953,6,9A1,1,0,0,1,21,12Z"/></svg>