<svg xmlns="http://www.w3.org/2000/svg" viewBox="0 0 24 24"><path d="M14.406,3.3a4.448,4.448,0,1,1,2.9,7.583l-.806.805L12.309,7.5l.805-.806A4.43,4.43,0,0,1,14.406,3.3ZM10.4,18.319a3.746,3.746,0,0,1-.937,1.611A3.813,3.813,0,0,1,4.07,14.537,3.75,3.75,0,0,1,5.682,13.6a6,6,0,0,1-.1-.963A4.715,4.715,0,0,0,3.4,13.863,4.767,4.767,0,0,0,10.137,20.6a4.712,4.712,0,0,0,1.228-2.19A5.932,5.932,0,0,1,10.4,18.319Zm6.477-3.108L8.789,7.123A.954.954,0,0,0,7.44,8.471L8.789,9.819a3.813,3.813,0,0,0,5.392,5.392l1.348,1.349a.954.954,0,1,0,1.348-1.349Z"/></svg>