<svg xmlns="http://www.w3.org/2000/svg" viewBox="0 0 24 24"><path d="M12.128,6.594c1.872,3.817,6.8,3.227,7.091-.681C19.41,4.237,18.5,3.194,18.081,2H5.919C5.5,3.194,4.59,4.237,4.781,5.913,5.308,9.781,10.275,10.422,12.128,6.594ZM16,5a1,1,0,1,1-1,1A1,1,0,0,1,16,5ZM8,5A1,1,0,1,1,7,6,1,1,0,0,1,8,5Zm10.379,5.4a4.278,4.278,0,0,1-2.483.772h0a5.033,5.033,0,0,1-3.76-1.776,4.968,4.968,0,0,1-3.78,1.767,4.493,4.493,0,0,1-2.693-.888C3.435,14.3,3.845,19.122,4.629,22H19.373C20.147,19.156,20.563,14.335,18.379,10.4ZM7.168,12c.2.653.377,1.332.524,2H6.666c-.157-.671-.345-1.356-.544-2Zm-.2,9H5.885a11.977,11.977,0,0,0,.7-2H7.607A14.377,14.377,0,0,1,6.966,21Zm1-4h-1c.02-.184.033-.359.038-.517s-.017-.322-.026-.483h1c.008.173.029.355.024.517C8,16.662,7.982,16.826,7.965,17Zm8.752-5h1.046c-.2.644-.387,1.329-.543,2H16.193C16.341,13.332,16.521,12.653,16.717,12ZM12,18a1,1,0,1,1,1-1A1,1,0,0,1,12,18Zm3.886-1.483c0-.162.015-.344.023-.517h1c-.008.161-.031.336-.026.483s.019.333.038.517h-1C15.9,16.826,15.891,16.662,15.886,16.517ZM16.92,21a14.115,14.115,0,0,1-.641-2H17.3a11.976,11.976,0,0,0,.7,2Z"/></svg>