<svg xmlns="http://www.w3.org/2000/svg" viewBox="0 0 24 24"><path d="M7.373,21.181a.848.848,0,0,1,.864-.835l3.2-.029-.006-.552-4.947.045a.828.828,0,1,1-.017-1.654l4.948-.045-.006-.551-5.53.05a.829.829,0,1,1-.016-1.655l5.529-.05-.005-.551-4.075.037A.828.828,0,1,1,7.3,13.737l6.932-.063s-1.45-2.342-1.456-2.364a.648.648,0,0,1-.1-.33.632.632,0,0,1,.164-.437c.011-.022.72-.723.72-.723l4.689,4.286a2.151,2.151,0,0,1,.708,1.565L19,19.7a2.274,2.274,0,0,1-2.306,2.227L8.254,22A.851.851,0,0,1,7.373,21.181Zm2.767-8.47L12.4,12.69c-.3-.491-.456-.744-.537-.887l0,0a1.6,1.6,0,0,1,.134-1.856c.092-.111.282-.3.809-.821l.733-.725,3.97,3.63.637-.616a2.137,2.137,0,0,0,.667-1.581l-.115-6.172s-1.025.021-1.05.029a.7.7,0,0,0-.442.2.669.669,0,0,0-.178.3c-.012.02-.735,2.647-.735,2.647l-4.949-4.6a.907.907,0,0,0-1.234.011.8.8,0,0,0,.011,1.17l2.909,2.7-.408.394L8.669,2.846a.908.908,0,0,0-1.235.011.8.8,0,0,0,.012,1.17L11.393,7.7l-.407.394L7.454,4.807a.906.906,0,0,0-1.235.011.8.8,0,0,0,.012,1.17L9.763,9.271l-.408.393L7.07,7.54a.908.908,0,0,0-1.235.011.8.8,0,0,0,.012,1.17Z"/></svg>