<svg xmlns="http://www.w3.org/2000/svg" viewBox="0 0 24 24"><path d="M12.822,13.358a.926.926,0,0,1-.5.189c-.416.027-.836.009-1.277.009,0,.111,0,.189,0,.267.005,1.272.013,3.433.016,4.7a1.3,1.3,0,0,1-1.43,1.424c-.726,0-3.552.044-3.833.113-.462.115-.219,1.584-.3,1.935H3V2c.03,0,.057,0,.087,0,8.46,0,8.107,7.328,8.314,7.682q.78,1.338,1.546,2.681A.734.734,0,0,1,12.822,13.358ZM21,12a1,1,0,1,1-1-1A1,1,0,0,1,21,12Zm-3,2a1,1,0,1,1-1-1A1,1,0,0,1,18,14Zm-3,2a1,1,0,1,1-1-1A1,1,0,0,1,15,16Zm6,0a1,1,0,1,1-1-1A1,1,0,0,1,21,16Zm-3,2a1,1,0,1,1-1-1A1,1,0,0,1,18,18Zm3,2a1,1,0,1,1-1-1A1,1,0,0,1,21,20Z"/></svg>