<svg xmlns="http://www.w3.org/2000/svg" viewBox="0 0 24 24"><path d="M19,3H5A3,3,0,0,0,2,6v4a1,1,0,0,0,1,1H21a1,1,0,0,0,1-1V6A3,3,0,0,0,19,3ZM6,8.5a.5.5,0,0,1-.5.5h-1A.5.5,0,0,1,4,8.5V7A1,1,0,0,1,6,7ZM11,8a1,1,0,0,1-1,1H9A1,1,0,0,1,8,8V6.5a1.5,1.5,0,0,1,3,0Zm5,0a1,1,0,0,1-1,1H14a1,1,0,0,1-1-1V6.5a1.5,1.5,0,0,1,3,0Zm4,.5a.5.5,0,0,1-.5.5h-1a.5.5,0,0,1-.5-.5V7a1,1,0,0,1,2,0ZM22,19V14a1,1,0,0,0-1-1H3a1,1,0,0,0-1,1v5a3,3,0,0,0,3,3H19A3,3,0,0,0,22,19ZM5,17a1,1,0,0,1-2,0V15.5a.5.5,0,0,1,.5-.5h1a.5.5,0,0,1,.5.5Zm4,1a1,1,0,0,1-2,0V16.5a.5.5,0,0,1,.5-.5h1a.5.5,0,0,1,.5.5Zm4,0a1,1,0,0,1-2,0V16.5a.5.5,0,0,1,.5-.5h1a.5.5,0,0,1,.5.5Zm8-1a1,1,0,0,1-2,0V15.5a.5.5,0,0,1,.5-.5h1a.5.5,0,0,1,.5.5Zm-4,1a1,1,0,0,1-2,0V16.5a.5.5,0,0,1,.5-.5h1a.5.5,0,0,1,.5.5Z"/></svg>