<svg xmlns="http://www.w3.org/2000/svg" viewBox="0 0 24 24"><path d="M12,19a1,1,0,1,1-1,1A1,1,0,0,1,12,19ZM12,9a3,3,0,0,0-3,3,2.969,2.969,0,0,0,.3,1.286L13.286,9.3A2.969,2.969,0,0,0,12,9ZM7.832,14.754A4.939,4.939,0,0,1,7.1,13H5.723a2,2,0,1,1,0-2H7.1a4.939,4.939,0,0,1,.731-1.754L6.44,7.854A2,2,0,1,1,7.854,6.44L9.246,7.832A4.939,4.939,0,0,1,11,7.1V5.723a2,2,0,1,1,2,0V7.1a4.939,4.939,0,0,1,1.754.731l4.99-4.991a11.993,11.993,0,0,0-16.9,16.9ZM12,15a3,3,0,0,0,3-3,2.969,2.969,0,0,0-.3-1.286L10.714,14.7A2.969,2.969,0,0,0,12,15ZM13,4a1,1,0,1,0-1,1A1,1,0,0,0,13,4ZM5,6A1,1,0,1,0,6,5,1,1,0,0,0,5,6Zm16,6a1,1,0,1,0-1,1A1,1,0,0,0,21,12Zm-2,6a1,1,0,1,0-1,1A1,1,0,0,0,19,18ZM3,12a1,1,0,1,0,1-1A1,1,0,0,0,3,12ZM21.159,4.256l-4.991,4.99A4.939,4.939,0,0,1,16.9,11h1.378a2,2,0,1,1,0,2H16.9a4.939,4.939,0,0,1-.731,1.754l1.392,1.392a2,2,0,1,1-1.414,1.414l-1.392-1.392A4.939,4.939,0,0,1,13,16.9v1.378a2,2,0,1,1-2,0V16.9a4.939,4.939,0,0,1-1.754-.731l-4.99,4.991a11.993,11.993,0,0,0,16.9-16.9Z"/></svg>