<svg xmlns="http://www.w3.org/2000/svg" viewBox="0 0 24 24"><path d="M11.2,12.6a.6.6,0,1,0,.6.6A.6.6,0,0,0,11.2,12.6ZM20,6v4.292C20,15.225,16.587,20.88,12,22c-4.587-1.12-8-6.775-8-11.708V6l8-4Zm-2,6c0-.663-.4-1.2-.9-1.2a.892.892,0,0,0-.775.6h-.779a3.579,3.579,0,0,0-.614-1.484l.55-.55a.893.893,0,0,0,.973-.124,1.084,1.084,0,0,0-.212-1.485,1.084,1.084,0,0,0-1.485-.212.893.893,0,0,0-.124.973l-.55.55A3.579,3.579,0,0,0,12.6,8.454V7.675a.892.892,0,0,0,.6-.775c0-.5-.537-.9-1.2-.9s-1.2.4-1.2.9a.892.892,0,0,0,.6.775v.779a3.579,3.579,0,0,0-1.484.614l-.55-.55a.893.893,0,0,0-.124-.973,1.084,1.084,0,0,0-1.485.212,1.084,1.084,0,0,0-.212,1.485.893.893,0,0,0,.973.124l.55.55A3.579,3.579,0,0,0,8.454,11.4H7.675a.892.892,0,0,0-.775-.6c-.5,0-.9.537-.9,1.2s.4,1.2.9,1.2a.892.892,0,0,0,.775-.6h.779a3.579,3.579,0,0,0,.614,1.484l-.55.55a.893.893,0,0,0-.973.124,1.084,1.084,0,0,0,.212,1.485,1.084,1.084,0,0,0,1.485.212.893.893,0,0,0,.124-.973l.55-.55a3.579,3.579,0,0,0,1.484.614v.779a.892.892,0,0,0-.6.775c0,.5.537.9,1.2.9s1.2-.4,1.2-.9a.892.892,0,0,0-.6-.775v-.779a3.579,3.579,0,0,0,1.484-.614l.55.55a.893.893,0,0,0,.124.973,1.084,1.084,0,0,0,1.485-.212,1.084,1.084,0,0,0,.212-1.485.893.893,0,0,0-.973-.124l-.55-.55a3.579,3.579,0,0,0,.614-1.484h.779a.892.892,0,0,0,.775.6C17.6,13.2,18,12.663,18,12Zm-5.2-1.8a.6.6,0,1,0,.6.6A.6.6,0,0,0,12.8,10.2Z"/></svg>