<svg xmlns="http://www.w3.org/2000/svg" viewBox="0 0 24 24"><path d="M19.778,2H4.222A2.222,2.222,0,0,0,2,4.222V19.778A2.222,2.222,0,0,0,4.222,22H19.778A2.222,2.222,0,0,0,22,19.778V4.222A2.222,2.222,0,0,0,19.778,2ZM5,20a1,1,0,1,1,1-1A1,1,0,0,1,5,20Zm0-4a1,1,0,1,1,1-1A1,1,0,0,1,5,16Zm3,2a1,1,0,1,1,1-1A1,1,0,0,1,8,18Zm0-4a1,1,0,1,1,1-1A1,1,0,0,1,8,14ZM6,8V4H18V8H15V6a1,1,0,0,0-1-1h0a1,1,0,0,0-1,1V8ZM16,18a1,1,0,1,1,1-1A1,1,0,0,1,16,18Zm0-4a1,1,0,1,1,1-1A1,1,0,0,1,16,14Zm3,6a1,1,0,1,1,1-1A1,1,0,0,1,19,20Zm0-4a1,1,0,1,1,1-1A1,1,0,0,1,19,16Z"/></svg>