<svg xmlns="http://www.w3.org/2000/svg" viewBox="0 0 24 24"><path d="M20,4H4A2,2,0,0,0,2,6V18a2,2,0,0,0,2,2H20a2,2,0,0,0,2-2V6A2,2,0,0,0,20,4ZM7.655,10H8.4l1.54,4h-.75l-.376-1.059h-1.6L6.843,14H6.121Zm-.246,2.409H8.631l-.6-1.72H8.014ZM11.883,10h1.764a1.68,1.68,0,0,1,.7.123,1.1,1.1,0,0,1,.414.308,1.043,1.043,0,0,1,.2.4,1.694,1.694,0,0,1,.053.4,1.658,1.658,0,0,1-.053.4,1.045,1.045,0,0,1-.2.4,1.071,1.071,0,0,1-.414.3,1.7,1.7,0,0,1-.7.121H12.583V14h-.7Zm.7,1.893h1.025a.918.918,0,0,0,.24-.033.7.7,0,0,0,.228-.109.567.567,0,0,0,.168-.2.707.707,0,0,0,.064-.317.8.8,0,0,0-.056-.324A.5.5,0,0,0,14.1,10.7a.544.544,0,0,0-.218-.1,1.181,1.181,0,0,0-.264-.028H12.583ZM17.179,10h.7v4h-.7Z"/></svg>