<svg xmlns="http://www.w3.org/2000/svg" viewBox="0 0 24 24"><path d="M19.778,3H4.222A2.12,2.12,0,0,0,2,5V19a2.12,2.12,0,0,0,2.222,2H19.778A2.12,2.12,0,0,0,22,19V5A2.12,2.12,0,0,0,19.778,3ZM7,5H17V15H7ZM4,5H6V7H4ZM4,9H6v2H4Zm0,6V13H6v2Zm14,4H6V17H18Zm2-4H18V13h2Zm0-4H18V9h2Zm0-4H18V5h2Zm-9.721,5.987h4.264V14H9.01V12.826l.062-.016a1.28,1.28,0,0,0,.835-.593,2.726,2.726,0,0,0,.259-1.278h-.92v-.848h.92V8.623a2.269,2.269,0,0,1,.686-1.7,2.511,2.511,0,0,1,1.634-.68,3.585,3.585,0,0,1,2.5.979l-.642.69a2.837,2.837,0,0,0-1.728-.649,1.285,1.285,0,0,0-.95.371,1.584,1.584,0,0,0-.344,1.08v1.373H13.5v.848H11.326v.225a1.951,1.951,0,0,1-.338,1.14A2.5,2.5,0,0,1,10.279,12.987Z"/></svg>