<svg xmlns="http://www.w3.org/2000/svg" viewBox="0 0 24 24"><path d="M13,11.5c0-.489-.37-.943-1-1.328V6.828c.63-.385,1-.839,1-1.328C13,4.119,10.09,3,6.5,3S0,4.119,0,5.5c0,.489.37.943,1,1.328v3.344c-.63.385-1,.839-1,1.328s.37.943,1,1.328v3.344c-.63.385-1,.839-1,1.328C0,18.881,2.91,20,6.5,20S13,18.881,13,17.5c0-.489-.37-.943-1-1.328V12.828C12.63,12.443,13,11.989,13,11.5ZM6.283,7.286l-.02.008-.02-.007ZM6.5,15A3.5,3.5,0,1,1,10,11.5,3.5,3.5,0,0,1,6.5,15Zm1.466-4.537L6.5,9,5.034,10.463a2.071,2.071,0,1,0,2.932,0ZM21,19H15l.944-2.944h4.112Zm-3,4H12l.944-2.944h4.112Zm6,0H18l.944-2.944h4.112Z"/></svg>