<svg xmlns="http://www.w3.org/2000/svg" viewBox="0 0 24 24"><path d="M21.409,18.586a2,2,0,1,1-3.34.9L16.9,18.317a7.964,7.964,0,0,1-9.785.006L5.935,19.5A2,2,0,1,1,4.52,18.085l1.174-1.174A7.965,7.965,0,0,1,5.686,7.1L4.5,5.914A2,2,0,1,1,5.914,4.5L7.1,5.686a7.966,7.966,0,0,1,10.34.46l.635-.635a2,2,0,1,1,1.414,1.414l-.76.76a7.964,7.964,0,0,1-.417,9.219l1.171,1.172A1.993,1.993,0,0,1,21.409,18.586ZM15.1,14.007c0-1.726-1.479-2.322-2.863-2.678s-1.829-.733-1.829-1.309c0-.657.616-1.123,1.644-1.123,1.082,0,1.486.52,1.521,1.281h1.342a2.423,2.423,0,0,0-1.952-2.323V6.52H11V7.842a2.244,2.244,0,0,0-1.994,2.2c0,1.4,1.165,2.1,2.864,2.514,1.527.363,1.829.9,1.829,1.466,0,.418-.3,1.089-1.644,1.089-1.254,0-1.747-.562-1.816-1.281H8.9A2.421,2.421,0,0,0,11,16.158V17.48h1.966V16.172C14.158,15.946,15.1,15.261,15.1,14.007Z"/></svg>