<svg xmlns="http://www.w3.org/2000/svg" viewBox="0 0 24 24"><path d="M18.487,11.54l.068,1.266H17.383l.5-1.083c.154-.362.5-1.1.585-1.344h.019A11.557,11.557,0,0,0,18.487,11.54ZM22,6V18a2,2,0,0,1-2,2H4a2,2,0,0,1-2-2V6A2,2,0,0,1,4,4H20A2,2,0,0,1,22,6ZM6.839,14.454l2.8-4.939H8.244l-1.2,2.094a5.092,5.092,0,0,0-.571,1.172H6.452c.021-.439-.04-.978-.046-1.283L6.273,9.515H4.023L4,9.648a.933.933,0,0,1,1.015.885l.439,3.921Zm3.339,0,1.5-4.94H10.34l-1.5,4.94Zm4.93-1.083c.236-.581.012-1.2-.928-1.8l-.306-.195c-.407-.252-.592-.44-.452-.716a.622.622,0,0,1,.57-.256,1.625,1.625,0,0,1,1.036.455L15.76,10a2.99,2.99,0,0,0-1.738-.6,1.849,1.849,0,0,0-1.863.986c-.364.877-.029,1.379.745,1.908l.258.168c.522.295.751.468.565.79a.62.62,0,0,1-.585.281,2.47,2.47,0,0,1-1.442-.483l-.637.972a3.735,3.735,0,0,0,2.017.566A1.936,1.936,0,0,0,15.108,13.371ZM20,14.454l-.446-4.931H17.773l-2.632,4.931h1.452l.341-.736H18.6l.037.735H20Z"/></svg>