<svg xmlns="http://www.w3.org/2000/svg" viewBox="0 0 24 24"><path d="M20.867,7.664h-1.3A4.439,4.439,0,0,0,19.1,6.507l.914-.915a1.132,1.132,0,0,0-1.6-1.6l-.915.914a4.477,4.477,0,0,0-1.157-.478V3.133a1.133,1.133,0,1,0-2.265,0V4.427a4.491,4.491,0,0,0-1.157.478L12,3.991a1.132,1.132,0,0,0-1.6,1.6l.8.8L9.6,8l-.8-.8a1.133,1.133,0,1,0-1.6,1.6l.8.8-1.6,1.6-.8-.8a1.132,1.132,0,0,0-1.6,1.6l.914.914a4.453,4.453,0,0,0-.477,1.157H3.133a1.133,1.133,0,1,0,0,2.265h1.3a4.439,4.439,0,0,0,.477,1.157l-.914.915a1.132,1.132,0,0,0,1.6,1.6l.915-.914a4.439,4.439,0,0,0,1.157.477v1.3a1.133,1.133,0,1,0,2.265,0v-1.3a4.453,4.453,0,0,0,1.157-.477l.914.914a1.132,1.132,0,0,0,1.6-1.6l-.8-.8,1.6-1.6.8.8a1.133,1.133,0,1,0,1.6-1.6l-.8-.8,1.6-1.6.8.8a1.132,1.132,0,1,0,1.6-1.6l-.914-.914a4.453,4.453,0,0,0,.477-1.157h1.3a1.133,1.133,0,1,0,0-2.265ZM15,11a2,2,0,1,1,2-2A2,2,0,0,1,15,11ZM9.5,16A1.5,1.5,0,1,1,11,14.5,1.5,1.5,0,0,1,9.5,16Z"/></svg>