<svg xmlns="http://www.w3.org/2000/svg" viewBox="0 0 24 24"><path d="M6.463,4.065c-1.34.277-1.376,1.457-4.441,2.36,0,0,3.277,1.257,5.55.9A2.508,2.508,0,0,1,9.183,6.86a1.692,1.692,0,0,1-.2-.781c0-.124.011-.534,0-.625A1.949,1.949,0,0,0,6.463,4.065Zm8.574,1.389c-.011.091,0,.5,0,.625a1.68,1.68,0,0,1-.2.781,2.51,2.51,0,0,1,1.612.468c2.273.354,5.55-.9,5.55-.9-3.065-.9-3.1-2.083-4.441-2.36A1.949,1.949,0,0,0,15.037,5.454ZM13.8,8.345a1.12,1.12,0,0,1,1.4-.427c.318.1,2.162,1.043,2.162,2.1a2.257,2.257,0,0,1-1.477,2.017,6.467,6.467,0,0,0-1.56-.652c.992-.248,1.791-.683,1.791-1.365a.669.669,0,0,0-.692-.54,3.011,3.011,0,0,1-.861-.015C13.959,9.274,13.619,8.773,13.8,8.345Zm.2,7.194a8.773,8.773,0,0,0-1.047-.23V12.957c.138.015.267.031.373.051,1.679.308,1.74,1.063.731,1.721a6.776,6.776,0,0,1,.989.458,1.472,1.472,0,0,0-.134-2.779,9.4,9.4,0,0,0-1.959-.562V5.1a1.637,1.637,0,0,0,.942-1.435A1.785,1.785,0,0,0,12,2a1.786,1.786,0,0,0-1.885,1.667A1.637,1.637,0,0,0,11.058,5.1v6.392C9.569,11.258,7.9,11,7.9,10.021a.67.67,0,0,1,.694-.541,2.988,2.988,0,0,0,.863-.014c1.4-.435.755-2.013-.638-1.548-2.692.987-3.078,3.58.276,4.494-2.406.642-1.465,3.081.922,3.127-2.91.8-1.567,2.938.1,3.034-.618.221-1.108.878-.642,1.436.129.155.774.522.861.223.053-.18-.109-.481-.167-.655-.1-.3.326-.47.892-.551v2.141a.95.95,0,0,0,1.885,0V18.993a2.783,2.783,0,0,1,.421.072c.264.071.45.222.462.474,0,.084-.2.731-.077.725.4-.023.9-.229.948-.635a1.013,1.013,0,0,0-.454-.876,2.89,2.89,0,0,0-1.3-.436V16.269c.74.1,1.471.326,1.459.784,0,.171-.022.4-.49.639a4.417,4.417,0,0,1,.792.46,1.277,1.277,0,0,0,.728-1.1C15.386,16.119,14.786,15.785,13.99,15.539ZM8.954,13.856c.1-.558,1.066-.819,2.1-.909V15C9.862,14.781,8.848,14.477,8.954,13.856Zm.476,3.227c0-.453.831-.7,1.628-.808V18.1C10.189,17.92,9.43,17.529,9.43,17.083Z"/></svg>