<svg xmlns="http://www.w3.org/2000/svg" viewBox="0 0 24 24"><path d="M17.612,8.549l-.729-.707L19.4,5.41a1.954,1.954,0,0,0,0-2.825,2.113,2.113,0,0,0-2.919,0L13.964,5.017l-.729-.706a1.056,1.056,0,0,0-1.459,0,.977.977,0,0,0,0,1.413l.729.706L6.549,12.2c-.658.637-1.387,2.895-.729,3.531s2.99-.069,3.647-.706l5.957-5.765.729.706a1.056,1.056,0,0,0,1.459,0A.976.976,0,0,0,17.612,8.549ZM9.467,13.608c-.4.39-1.785,1.1-2.188.706s.326-1.729.729-2.119L9.2,11h2.918ZM5.838,16.9S4,19.032,4,20.221A1.805,1.805,0,0,0,5.838,22a1.8,1.8,0,0,0,1.838-1.779C7.676,19.032,5.838,16.9,5.838,16.9Z"/></svg>