<svg xmlns="http://www.w3.org/2000/svg" viewBox="0 0 24 24"><path d="M12,2A10,10,0,0,0,3.205,16.763a4.024,4.024,0,0,1,1.456-.323H4.7q0-.075,0-.15a1.965,1.965,0,0,1,1.076-1.625,4.684,4.684,0,0,1,1.457-3.039,4.653,4.653,0,0,1,3.188-1.468,2.6,2.6,0,0,1,1.886.737,2.794,2.794,0,0,1,.665,2.581,4.994,4.994,0,0,1-1.4,2.492A4.621,4.621,0,0,1,8.4,17.427H8.362a2.249,2.249,0,0,1-.545,1.738,2.133,2.133,0,0,1-1.6.671,2.676,2.676,0,0,1-.5-.06A10,10,0,1,0,12,2Zm4,8a2,2,0,1,1,2-2A2,2,0,0,1,16,10Zm-4.4,1.6C9.849,9.9,6.009,13.317,6.885,15.448A.959.959,0,0,0,6.2,17.213c.1.124.253.4.171.56s-.409.013-.533-.036a2.868,2.868,0,0,0-1.154-.3A1.905,1.905,0,0,0,2.511,19.5a2.888,2.888,0,0,0,.772,1.554,4.2,4.2,0,0,1,.382-2.267c.413-.652,1.418-.3,2.162,0,1.505.389,2.022-1.371,1.034-2.327.333.114.7.257.909-.136C9.9,17.183,13.305,13.351,11.6,11.6ZM6.694,16.308l-.015-.01C6.688,16.292,6.692,16.3,6.694,16.308Zm-.026.149.022-.014h0A.023.023,0,0,1,6.668,16.457Z"/></svg>