<svg xmlns="http://www.w3.org/2000/svg" viewBox="0 0 24 24"><path d="M7,21l-1.813.845a1,1,0,0,1-1.329-.483l-1.69-3.626a1,1,0,0,1,.484-1.329l1.812-.845Zm13.142.362,1.69-3.626a1,1,0,0,0-.484-1.329l-1.812-.845L17,21l1.813.845A1,1,0,0,0,20.142,21.362ZM12,13a2,2,0,1,0,2,2A2,2,0,0,0,12,13Zm4.981,2.053L18,16l-2,4-1.387-.407A9.37,9.37,0,0,1,12,20a8.32,8.32,0,0,1-2.519-.407L8,20,6,16l1.113-.947V13.671c-.987-.789-1.382-1.776-1.382-3.552A9,9,0,0,1,7,5c1.184-2.171,3.863-2,5.047-2S15.816,2.829,17,5a9.058,9.058,0,0,1,1.363,5.119c0,1.776-.395,2.763-1.382,3.552ZM9,11A2,2,0,1,0,7,9,2,2,0,0,0,9,11Zm6,4a3,3,0,1,0-3,3A3,3,0,0,0,15,15Zm2-6a2,2,0,1,0-2,2A2,2,0,0,0,17,9Z"/></svg>