<svg xmlns="http://www.w3.org/2000/svg" viewBox="0 0 24 24"><path d="M22,12.5A1.5,1.5,0,0,1,20.5,14a1.478,1.478,0,0,1-.5-.093c0,.031,0,.062,0,.093A7.993,7.993,0,0,1,6.777,20.051L9.27,17.558a4.452,4.452,0,0,0,6.607-1.307l-.864-.5a3.457,3.457,0,0,1-5.03,1.1l4.241-4.241A.983.983,0,0,0,15,13a1,1,0,0,0,1-1,.983.983,0,0,0-.395-.776l2.447-2.447a7.97,7.97,0,0,1,1.5,2.573A1.493,1.493,0,0,1,22,12.5ZM20.485,3.515,16.563,7.437,5.435,18.565l-1.92,1.92L2.1,19.071l2.382-2.382A7.912,7.912,0,0,1,4,14c0-.031,0-.062,0-.093A1.478,1.478,0,0,1,3.5,14a1.5,1.5,0,1,1,.953-2.65,8.015,8.015,0,0,1,5.756-5.142,6.321,6.321,0,0,1-.47-.854,4.974,4.974,0,0,1-.658-1.407.417.417,0,0,1,.676-.376A19.907,19.907,0,0,1,11.5,5.817V3a.5.5,0,0,1,1,0V5.817a19.907,19.907,0,0,1,1.743-2.246c.278-.246.787.038.666.4a12.653,12.653,0,0,1-1.118,2.232,8.025,8.025,0,0,1,.9.271L19.071,2.1ZM8.4,12.776,9.776,11.4A.983.983,0,0,0,9,11a1,1,0,0,0-1,1A.983.983,0,0,0,8.4,12.776Z"/></svg>