<svg xmlns="http://www.w3.org/2000/svg" viewBox="0 0 24 24"><path d="M6.982,7.95c.6,1.648.039,3.365-1.253,3.835S2.9,11.3,2.3,9.653,2.265,6.287,3.557,5.817,6.382,6.3,6.982,7.95Zm10.051-.041c-.6,1.648-.013,3.374,1.31,3.856s2.881-.464,3.481-2.112.014-3.375-1.309-3.856S17.633,6.261,17.033,7.909ZM12.011,2c-1.65,0-2.988,1.5-2.988,3.769S10.361,10,12.011,10,15,8.038,15,5.769,13.662,2,12.011,2ZM20,19.207C20,23.7,15.2,20.93,12,21c-3.195-.07-7.995,2.7-8-1.793C3.993,13,8.844,12,12,12S20.007,13,20,19.207ZM14.5,15.5H13V14H11v1.5H9.5v2H11V19h2V17.5h1.5Z"/></svg>