<svg xmlns="http://www.w3.org/2000/svg" viewBox="0 0 24 24" width="512" height="512" aria-labelledby="abadd-child-desc abadd-child-title"><title id="abadd-child-title">Add Item Icon</title><desc id="abadd-child-desc">A picture showing an item with a plus sign being added to container.</desc><path d="M22 12H7c-1.1 0-2 .9-2 2v6c0 1.1.9 2 2 2h15c1.1 0 2-.9 2-2v-6c0-1.1-.9-2-2-2zm-8 6h-2v2h-2v-2H8v-2h2v-2h2v2h2v2zm7-14c.6 0 1 .4 1 1v2c0 .6-.4 1-1 1H3c-.6 0-1-.4-1-1V5c0-.6.4-1 1-1h19m0-2H2C.9 2 0 2.9 0 4v4c0 1.1.9 2 2 2h20c1.1 0 2-.9 2-2V4c0-1.1-.9-2-2-2z"/></svg>