<svg xmlns="http://www.w3.org/2000/svg" viewBox="0 0 24 24" width="512" height="512" aria-labelledby="afaids-ribbon-desc afaids-ribbon-title"><title id="afaids-ribbon-title">Aids Ribbon Icon</title><desc id="afaids-ribbon-desc">A picture showing a ribbon.</desc><path d="M10.883 18.323L8.012 22l-2.084-3.051 2.465-3.816zm4.775-6.115S16.6 10.051 17 9.164c.965-2.164.86-5.239-.76-6.127l-.02-.022-.006.009A8.972 8.972 0 0011.953 2 8.994 8.994 0 007.7 3.021L7.686 3l-.036.042C6.039 3.934 6.129 7 7 9.153c1.621 4.008 8.853 13 8.894 12.837l2.084-3.051L9.805 6.285a12.707 12.707 0 014.3 0L12.97 8.047z"/></svg>