<svg xmlns="http://www.w3.org/2000/svg" viewBox="0 0 24 24" width="512" height="512" aria-labelledby="ahamazon-desc ahamazon-title"><title id="ahamazon-title">Amazon Icon</title><desc id="ahamazon-desc">A picture showing the Amazon logo.</desc><path d="M13.769 7.753a18.333 18.333 0 00-4.976.92A4.5 4.5 0 005.972 13a3.755 3.755 0 003.96 4.123 5.237 5.237 0 004.362-1.923 6.5 6.5 0 001.518 1.764.553.553 0 00.625-.063l.007.007a111.3 111.3 0 012.029-1.756.5.5 0 00.007-.7 3.617 3.617 0 01-1-2.452V7.869c0-1.746.123-3.35-1.165-4.552A6 6 0 0012.332 2c-2.515 0-5.325.938-5.917 4.049a.469.469 0 00.395.551l2.568.276a.553.553 0 00.457-.476 2.017 2.017 0 012.129-1.589 1.772 1.772 0 011.485.688 3.41 3.41 0 01.32 1.917zm0 2.7a5.173 5.173 0 01-.5 2.805 2.145 2.145 0 01-1.831 1.2c-1.016 0-1.608-.774-1.608-1.916 0-2.255 2.021-2.665 3.934-2.665zM19.567 19a10.881 10.881 0 01-7.807 3 13.133 13.133 0 01-9.347-4.518c-.3-.343.046-.5.249-.373 3.279 2 8.4 5.284 16.657 1.355.35-.146.594.098.248.536zm1.78.1a3.743 3.743 0 01-.953 1.395c-.24.192-.416.118-.288-.171s.855-2.079.569-2.454-1.656-.2-2.145-.152-.584.088-.632-.01c-.093-.26.973-.694 1.683-.779s1.835-.033 2.057.256a3.265 3.265 0 01-.291 1.915z"/></svg>