<svg xmlns="http://www.w3.org/2000/svg" viewBox="0 0 24 24" width="512" height="512" aria-labelledby="ajamerican-express-desc ajamerican-express-title"><title id="ajamerican-express-title">American Express Icon</title><desc id="ajamerican-express-desc">A picture showing the American Express logo.</desc><path d="M20 4H4a2 2 0 00-2 2v12a2 2 0 002 2h16a2 2 0 002-2V6a2 2 0 00-2-2zm-7.213 10h-.9v-2.9L10.65 14h-.9l-1.236-3v3H6.6l-.336-.9H4.35l-.336.9H3l1.688-4h1.238L7.5 13.8V10h1.574l1.126 2.7 1.124-2.7h1.463zM21 14h-1.125l-1.125-1.3-1.125 1.3h-3.6v-4h3.711l.9 1.2 1.126-1.2H21l-1.688 2zM5.25 10.8l.562 1.4H4.688zm11.926.1l.9 1.1-1.012 1.2h-2.138v-.8h2.023v-.8h-2.023v-.7z"/></svg>