<svg xmlns="http://www.w3.org/2000/svg" viewBox="0 0 24 24"><path d="M21,9c0-3-2.449-7-7.893-7C4.646,2,5,9.328,4.793,9.682q-.78,1.338-1.546,2.681a.733.733,0,0,0,.125,1,.923.923,0,0,0,.5.189c.417.027.837.009,1.278.009v.267c-.006,1.272-.013,3.433-.017,4.7a1.306,1.306,0,0,0,1.431,1.424c.726,0,3.552.044,3.833.113.462.115.219,1.584.3,1.935H19C19.26,17.016,21.541,13,21,9Zm-9,7,1.2-3.489H11.941l1.373-3.548,2.265-.082-1.265,2.583h1.745Zm6.247-5h-2.33l1.294-3.179-4.592.166L11.453,11H9A2,2,0,0,1,9,7a1.747,1.747,0,0,1,1.464.482,3.852,3.852,0,0,1,6.856-1.44A2.883,2.883,0,0,1,17.889,7.6a.068.068,0,0,0,.051.071A1.834,1.834,0,0,1,18.247,11Z"/></svg>