<svg xmlns="http://www.w3.org/2000/svg" viewBox="0 0 24 24" width="512" height="512" aria-labelledby="alapi-desc alapi-title"><title id="alapi-title">API Icon</title><desc id="alapi-desc">A picture showing a rectangle with the letters A, P, and I written inside.</desc><path d="M20 4H4a2 2 0 00-2 2v12a2 2 0 002 2h16a2 2 0 002-2V6a2 2 0 00-2-2zM7.655 10H8.4l1.54 4h-.75l-.376-1.059h-1.6L6.843 14h-.722zm-.246 2.409h1.222l-.6-1.72h-.017zM11.883 10h1.764a1.68 1.68 0 01.7.123 1.1 1.1 0 01.414.308 1.043 1.043 0 01.2.4 1.694 1.694 0 01.053.4 1.658 1.658 0 01-.053.4 1.045 1.045 0 01-.2.4 1.071 1.071 0 01-.414.3 1.7 1.7 0 01-.7.121h-1.064V14h-.7zm.7 1.893h1.025a.918.918 0 00.24-.033.7.7 0 00.228-.109.567.567 0 00.168-.2.707.707 0 00.064-.317.8.8 0 00-.056-.324.5.5 0 00-.152-.21.544.544 0 00-.218-.1 1.181 1.181 0 00-.264-.028h-1.035zM17.179 10h.7v4h-.7z"/></svg>