<svg xmlns="http://www.w3.org/2000/svg" viewBox="0 0 24 24" width="512" height="512" aria-labelledby="apapple-pay-desc apapple-pay-title"><title id="apapple-pay-title">Apple Pay Icon</title><desc id="apapple-pay-desc">A picture showing the Apple Pay logo inside.</desc><path d="M5.794 8.842a1.529 1.529 0 00.349-1.1 1.586 1.586 0 00-1.014.515 1.444 1.444 0 00-.365 1.047 1.193 1.193 0 001.03-.465m.349.565c-.565-.033-1.047.316-1.313.316s-.681-.3-1.13-.3a1.665 1.665 0 00-1.413.864 3.536 3.536 0 00.432 3.441c.283.415.632.881 1.08.864s.6-.283 1.114-.283.665.283 1.13.266.765-.415 1.048-.847a3.361 3.361 0 00.465-.964 1.506 1.506 0 01-.183-2.676 1.547 1.547 0 00-1.23-.682m4.887-1.18a1.977 1.977 0 012.078 2.061A2 2 0 0111 12.366H9.65v2.144h-.98V8.227zm-1.38 3.328h1.114a1.178 1.178 0 001.33-1.246 1.171 1.171 0 00-1.33-1.247h-1.13v2.493zm3.707 1.679c0-.8.615-1.3 1.712-1.363l1.263-.066v-.35c0-.515-.349-.814-.914-.814a.876.876 0 00-.964.665h-.9c.05-.831.765-1.446 1.9-1.446 1.114 0 1.829.582 1.829 1.512v3.158h-.9v-.748h-.017a1.627 1.627 0 01-1.446.832 1.408 1.408 0 01-1.563-1.38zm2.975-.416v-.365l-1.13.066c-.565.034-.881.283-.881.682s.332.665.831.665a1.1 1.1 0 001.18-1.048zm1.779 3.408v-.765a1.759 1.759 0 00.3.017.768.768 0 00.814-.648c0-.017.083-.283.083-.283l-1.663-4.587h1.014l1.164 3.744h.016L21 9.956h1l-1.712 4.836c-.4 1.114-.848 1.463-1.8 1.463-.067-.017-.3-.017-.382-.033z"/></svg>