<svg xmlns="http://www.w3.org/2000/svg" viewBox="0 0 24 24" width="512" height="512" aria-labelledby="anapple-desc anapple-title"><title id="anapple-title">Apple Icon</title><desc id="anapple-desc">A picture showing the Apple logo.</desc><path d="M17.458 12.625a4.421 4.421 0 002.684 4.047 10.921 10.921 0 01-1.384 2.845c-.833 1.218-1.7 2.432-3.061 2.457-1.339.025-1.77-.794-3.3-.794s-2.009.769-3.277.819c-1.32.049-2.32-1.318-3.159-2.532-1.717-2.483-3.03-7.016-1.267-10.076a4.9 4.9 0 014.138-2.507c1.292-.025 2.511.869 3.3.869s2.271-1.075 3.829-.917A4.671 4.671 0 0119.62 8.82a4.524 4.524 0 00-2.162 3.805m-2.517-7.432A4.4 4.4 0 0015.982 2a4.48 4.48 0 00-2.946 1.516 4.181 4.181 0 00-1.061 3.093 3.706 3.706 0 002.966-1.416"/></svg>