<svg xmlns="http://www.w3.org/2000/svg" viewBox="0 0 24 24" width="512" height="512" aria-labelledby="aoapple-app-store-desc aoapple-app-store-title"><title id="aoapple-app-store-title">Apple App Store icon</title><desc id="aoapple-app-store-desc">A picture showing the Apple AppStore logo.</desc><path d="M12 2a10 10 0 1010 10A10 10 0 0012 2zM8.518 16.565l-.676 1.171a.894.894 0 11-1.548-.894l.5-.863.046-.079a.738.738 0 01.717-.294s.992.107 1.064.623a.609.609 0 01-.105.339zm5.17-1.205H5.894a.894.894 0 110-1.787h2c.323-.019.4-.206.4-.206l2.615-4.53a.2.2 0 000-.184l-.864-1.5a.894.894 0 011.555-.889l.4.694.4-.692a.894.894 0 111.548.893l-3.639 6.305c-.016.038-.021.1.1.109h2.176v.021a1.462 1.462 0 011.429 1.194s.11.572-.326.572zm4.418 0h-1.065c-.161 0-.134.09-.119.123l.784 1.358a.894.894 0 11-1.548.893l-3.135-5.429a3.033 3.033 0 01-.227-2.4s.352-.867.574-.528l.135.194 2.257 3.909a.312.312 0 00.231.091h2.108a.894.894 0 110 1.787z"/></svg>