<svg xmlns="http://www.w3.org/2000/svg" viewBox="0 0 24 24" width="512" height="512" aria-labelledby="awatm-euro-desc awatm-euro-title"><title id="awatm-euro-title">ATM Euro Icon</title><desc id="awatm-euro-desc">A picture showing a screen with the Euro symbol and a keypad.</desc><path d="M19.778 3H4.222A2.12 2.12 0 002 5v14a2.12 2.12 0 002.222 2h15.556A2.12 2.12 0 0022 19V5a2.12 2.12 0 00-2.222-2zM7 5h10v10H7zM4 5h2v2H4zm0 4h2v2H4zm0 6v-2h2v2zm14 4H6v-2h12zm2-4h-2v-2h2zm0-4h-2V9h2zm0-4h-2V5h2zm-6.674 5.852a2.865 2.865 0 01-2.546-1.547h2.546v-.884h-2.838a2.815 2.815 0 010-.885h2.838v-.884H10.78A2.868 2.868 0 0115.2 7.8l.783-.782a3.973 3.973 0 00-6.4 1.635H8.021v.884h1.353a3.779 3.779 0 000 .885H8.021v.884h1.557a3.973 3.973 0 006.4 1.635l-.787-.782a2.835 2.835 0 01-1.865.693z"/></svg>