<svg xmlns="http://www.w3.org/2000/svg" viewBox="0 0 24 24" width="512" height="512" aria-labelledby="avatm-dollar-desc avatm-dollar-title"><title id="avatm-dollar-title">ATM Dollar Icon</title><desc id="avatm-dollar-desc">A picture showing a screen with the Dollar sign and a keypad.</desc><path d="M12.705 13.045V14H11.37v-.965a1.86 1.86 0 01-1.635-1.7h.98c.05.525.41.935 1.325.935.98 0 1.2-.49 1.2-.795 0-.415-.22-.8-1.335-1.07-1.24-.3-2.09-.81-2.09-1.835a1.733 1.733 0 011.555-1.605V6h1.335v.975a1.768 1.768 0 011.425 1.7h-.98c-.025-.555-.32-.935-1.11-.935-.75 0-1.2.34-1.2.82 0 .42.325.7 1.335.955s2.09.7 2.09 1.955c-.005.91-.69 1.41-1.56 1.575zM19.778 3H4.222A2.12 2.12 0 002 5v14a2.12 2.12 0 002.222 2h15.556A2.12 2.12 0 0022 19V5a2.12 2.12 0 00-2.222-2zM7 5h10v10H7zM4 5h2v2H4zm0 4h2v2H4zm0 6v-2h2v2zm14 4H6v-2h12zm2-4h-2v-2h2zm0-4h-2V9h2zm0-4h-2V5h2z"/></svg>