<svg xmlns="http://www.w3.org/2000/svg" viewBox="0 0 24 24" width="512" height="512" aria-labelledby="azauction-desc azauction-title"><title id="azauction-title">Auction Icon</title><desc id="azauction-desc">A picture showing a gavel inside a circle.</desc><path d="M12 2a10 10 0 1010 10A10 10 0 0012 2zm5.812 15.831a.607.607 0 01-.858-.018l-4.76-4.758a8.424 8.424 0 01-2.1 1.332.607.607 0 11-.877.84l-.325-.327-2.378-2.38-.329-.328a.607.607 0 01.838-.878 8.427 8.427 0 014.294-4.291.607.607 0 01.877-.839l.328.328 2.1 2.1.279.278.328.329a.607.607 0 01-.838.877 8.467 8.467 0 01-1.338 2.1l4.759 4.759.018.018a.607.607 0 01-.018.858z"/></svg>