<svg xmlns="http://www.w3.org/2000/svg" viewBox="0 0 24 24" width="512" height="512" aria-labelledby="bcbacteria-desc bcbacteria-title"><title id="bcbacteria-title">Bacteria Icon</title><desc id="bcbacteria-desc">A picture depicting a bacteria.</desc><path d="M20.867 7.664h-1.3a4.439 4.439 0 00-.467-1.157l.914-.915a1.132 1.132 0 00-1.6-1.6l-.915.914a4.477 4.477 0 00-1.157-.478V3.133a1.133 1.133 0 10-2.265 0v1.294a4.491 4.491 0 00-1.157.478L12 3.991a1.132 1.132 0 00-1.6 1.6l.8.8L9.6 8l-.8-.8a1.133 1.133 0 10-1.6 1.6l.8.8-1.6 1.6-.8-.8A1.132 1.132 0 004 12l.914.914a4.453 4.453 0 00-.477 1.157H3.133a1.133 1.133 0 100 2.265h1.3a4.439 4.439 0 00.477 1.157l-.914.915a1.132 1.132 0 001.6 1.6l.915-.914a4.439 4.439 0 001.157.477v1.3a1.133 1.133 0 102.265 0v-1.3a4.453 4.453 0 001.157-.477l.914.914a1.132 1.132 0 001.6-1.6l-.8-.8 1.6-1.6.8.8a1.133 1.133 0 101.6-1.6l-.8-.8 1.6-1.6.8.8a1.132 1.132 0 101.6-1.6l-.914-.914a4.453 4.453 0 00.477-1.157h1.3a1.133 1.133 0 100-2.265zM15 11a2 2 0 112-2 2 2 0 01-2 2zm-5.5 5a1.5 1.5 0 111.5-1.5A1.5 1.5 0 019.5 16z"/></svg>