<svg xmlns="http://www.w3.org/2000/svg" viewBox="0 0 24 24" width="512" height="512" aria-labelledby="bdbandage-desc bdbandage-title"><title id="bdbandage-title">Bandage Icon</title><desc id="bdbandage-desc">A picture depicting a bandage.</desc><path d="M3.212 10.03a3 3 0 010-4.242l2.576-2.576a3 3 0 014.242 0l.556.556-6.818 6.818zm17.5.334L10.364 20.707a4 4 0 01-5.657 0l-1.414-1.414a4 4 0 010-5.657L13.636 3.293a4 4 0 015.657 0l1.414 1.414a4 4 0 010 5.657zM14 5a1 1 0 101-1 1 1 0 00-1 1zm-2.5 2.5a1 1 0 101-1 1 1 0 00-1 1zM9 10a1 1 0 101-1 1 1 0 00-1 1zm-4 6a1 1 0 10-1-1 1 1 0 001 1zm1.75 2.25a1 1 0 10-1 1 1 1 0 001-1zm.75-4.75a1 1 0 10-1-1 1 1 0 001 1zm.75 3.25a1 1 0 10-1-1 1 1 0 001 1zM10 19a1 1 0 10-1 1 1 1 0 001-1zm.75-4.75a1 1 0 10-1-1 1 1 0 001 1zm1.75 2.25a1 1 0 10-1 1 1 1 0 001-1zm.75-4.75a1 1 0 10-1-1 1 1 0 001 1zM15 14a1 1 0 10-1 1 1 1 0 001-1zm.75-4.75a1 1 0 10-1-1 1 1 0 001 1zm1.75 2.25a1 1 0 10-1 1 1 1 0 001-1zm.75-4.75a1 1 0 10-1-1 1 1 0 001 1zM20 9a1 1 0 10-1 1 1 1 0 001-1zm.232 4.414l-6.818 6.818.556.556a3 3 0 004.242 0l2.576-2.576a3 3 0 000-4.242z"/></svg>