<svg xmlns="http://www.w3.org/2000/svg" viewBox="0 0 24 24" width="512" height="512" aria-labelledby="bebank-safe-desc bebank-safe-title"><title id="bebank-safe-title">Bank Safe Icon</title><desc id="bebank-safe-desc">A picture depicting a locked safe.</desc><path d="M13.946 7.393a5 5 0 102.661 2.661 4.984 4.984 0 00-2.661-2.661zm-2.363.44h.834v.834h-.834zM9.938 9.348l-.59.59-.589-.59.589-.589zm-1.271 3.069h-.834v-.834h.834zm.681 2.824l-.589-.589.589-.59.59.59zm3.069.926h-.834v-.834h.834zM12 14.5a2.5 2.5 0 112.5-2.5 2.5 2.5 0 01-2.5 2.5zm2.652.741l-.59-.589.59-.59.589.59zm0-5.3l-.59-.59.59-.589.589.589zm1.515 2.479h-.834v-.834h.834zM19 3H5a2 2 0 00-2 2v14a2 2 0 002 2h14a2 2 0 002-2V5a2 2 0 00-2-2zm1 7h-1v5h1v2h-1a2 2 0 01-2 2H7a2 2 0 01-2-2V7a2 2 0 012-2h10a2 2 0 012 2v1h1z"/></svg>