<svg xmlns="http://www.w3.org/2000/svg" viewBox="0 0 24 24"><path d="M15.716,21.975a1.329,1.329,0,0,1-.527-.312,9.193,9.193,0,0,1-1.236-1.444c-.341-.482-.662-.978-.991-1.468l-.04-.057c-.105.063-.205.125-.307.183a5.487,5.487,0,0,1-1.591.647,2.123,2.123,0,0,1-.974.019A.818.818,0,0,1,9.4,18.7a2.46,2.46,0,0,1,.2-.784c.042-.1.1-.2.146-.293a.109.109,0,0,0,.013-.057l-.1.05a7.461,7.461,0,0,1-1.723.675,3.779,3.779,0,0,1-.946.124,1.928,1.928,0,0,1-.913-.2,1.308,1.308,0,0,1-.67-.939,2.551,2.551,0,0,1,.007-.918,8.026,8.026,0,0,1,.7-2.162,15.721,15.721,0,0,1,1.187-2.115.118.118,0,0,0,.01-.126A14.726,14.726,0,0,1,6.5,9.493a6.5,6.5,0,0,1-.166-1.047c0-.042-.015-.063-.061-.064a17.072,17.072,0,0,0-4.195.294l-.062.01L2,8.671c.03-.029.059-.058.09-.086.878-.547,3.841-.7,4.1-.7.065,0,.085-.02.087-.086.01-.3.014-.6.041-.9a4.6,4.6,0,0,1,.313-1.4A1.633,1.633,0,0,1,6.934,5a.844.844,0,0,1,1.2-.1,2.661,2.661,0,0,1,.649.775.185.185,0,0,0,.061.065c0-.075.011-.15.014-.225.027-.644.315-2.826,1.7-3.5,1.3-.428,3.166,2.417,3.623,3.2.213.367.407.744.607,1.119.026.049.06.055.108.063.438.068.877.129,1.312.212a10.631,10.631,0,0,1,1.809.506c.142.055.285.112.423.177a.084.084,0,0,0,.127-.04c.125-.21.257-.417.377-.63a22.656,22.656,0,0,0,1.136-2.269,4.718,4.718,0,0,0,.288-.849.345.345,0,0,1,.013-.037,1.017,1.017,0,0,1,.029.447A4.507,4.507,0,0,1,20.1,4.989c-.175.461-.36.92-.559,1.372-.162.367-.352.723-.529,1.085-.038.077-.037.076.038.118a6.253,6.253,0,0,1,1.568,1.2,2.116,2.116,0,0,1,.509.854,1.045,1.045,0,0,1,.028.448.672.672,0,0,1-.313.451,1.6,1.6,0,0,1-.7.241c-.183.024-.369.029-.554.042l-.057.006c.032.025.051.042.072.056a7.61,7.61,0,0,1,1.536,1.245,3.249,3.249,0,0,1,.721,1.109,1.471,1.471,0,0,1,.07.875,1.307,1.307,0,0,1-.5.711,3.468,3.468,0,0,1-1.174.553,8.064,8.064,0,0,1-1.27.253,10.726,10.726,0,0,1-1.241.092c-.544.005-1.089.013-1.634.006a.255.255,0,0,0-.241.119A13.563,13.563,0,0,1,14.2,17.7a5.665,5.665,0,0,1-.815.639c-.046.029-.054.053-.027.1a22.758,22.758,0,0,0,1.389,2.287c.15.214.306.426.467.633S15.545,21.768,15.716,21.975ZM12.24,16.091l-.01.027A12.214,12.214,0,0,0,12.9,17.5c.031-.019.056-.033.079-.048a10.6,10.6,0,0,0,1.263-.982,10.822,10.822,0,0,0,1.847-2.1A6.05,6.05,0,0,0,17.186,11.2a.106.106,0,0,0-.062-.116c-.357-.179-.708-.373-1.071-.541a22.223,22.223,0,0,0-3.334-1.2c-.65-.182-1.3-.347-1.967-.475a.073.073,0,0,1-.069-.089c.005-.1,0-.193.008-.289.011-.126.032-.251.047-.376.005-.035.021-.05.058-.044.209.031.42.053.628.093.679.131,1.36.256,2.035.406a22.9,22.9,0,0,1,3.251.968c.019.007.039.01.076.02a4.527,4.527,0,0,0-1.511-1.815A3.615,3.615,0,0,1,17.089,9.4l.894-1.249-.129-.066a11.825,11.825,0,0,0-2.085-.761A11.507,11.507,0,0,0,13.4,6.94a5.727,5.727,0,0,0-3.079.645.12.12,0,0,0-.078.132c.019.373.388,4.814,1.308,6.645.017.049.012.073-.039.094q-.288.12-.571.249c-.057.026-.082.016-.11-.041a13.742,13.742,0,0,1-.684-1.7,30.726,30.726,0,0,1-.942-3.719l-.082-.416-.025,0a3.972,3.972,0,0,0-.785,2.256.351.351,0,0,1-.014-.046c-.015-.145-.029-.291-.044-.436a2.186,2.186,0,0,1,.053-.716A5.3,5.3,0,0,1,8.786,8.65c.011-.022.019-.046.034-.079-.13-.011-1.115-.105-1.489-.143-.041-.005-.057.01-.054.05s.007.109.014.163c.042.3.08.6.13.9A12.54,12.54,0,0,0,7.9,11.46a8.914,8.914,0,0,0,1.15,2.369,5.02,5.02,0,0,0,1.611,1.509.1.1,0,0,0,.125,0c.334-.221.676-.429,1-.66a19.639,19.639,0,0,0,1.96-1.613,26.184,26.184,0,0,0,2.125-2.18c.037-.043.066-.047.109-.015q.265.192.532.383c.047.033.047.059.012.1a24.006,24.006,0,0,1-2.095,2.42c-.633.643-1.293,1.257-1.968,1.855-.05.044-.1.09-.149.135l.006.02a3.922,3.922,0,0,0,1.159-.059,5.644,5.644,0,0,0,1.113-.344,1.847,1.847,0,0,1-.491.347,3.584,3.584,0,0,1-1.433.356C12.523,16.1,12.381,16.091,12.24,16.091ZM10.263,7.128a6.8,6.8,0,0,1,3.67-.8c-.021-.036-.032-.057-.045-.077a9.652,9.652,0,0,0-.914-1.232,3.422,3.422,0,0,0-.73-.655A.885.885,0,0,0,11,4.561a2.315,2.315,0,0,0-.425.756,5.8,5.8,0,0,0-.314,1.726A.776.776,0,0,0,10.263,7.128Zm-.005,8.466a6.484,6.484,0,0,1-2.522-2.741.152.152,0,0,0-.021.012.3.3,0,0,0-.021.033,7.788,7.788,0,0,0-.674,1.64,2.455,2.455,0,0,0-.1,1,.775.775,0,0,0,.35.567,1.117,1.117,0,0,0,.559.169,3.787,3.787,0,0,0,1.029-.084,4.76,4.76,0,0,0,1.346-.555C10.222,15.623,10.236,15.61,10.258,15.594Zm6.2-.664c.036,0,.057.005.078,0,.223-.012.445-.023.667-.039a5.845,5.845,0,0,0,1-.159,2.612,2.612,0,0,0,.942-.4.828.828,0,0,0,.341-.916,2.056,2.056,0,0,0-.428-.818,5.983,5.983,0,0,0-1.384-1.218.4.4,0,0,0-.065-.031A6.412,6.412,0,0,1,16.462,14.93Zm-7.5-7.11c-.011-.113-.02-.226-.028-.339-.019-.265-.037-.531-.057-.8a.525.525,0,0,0-.025-.16,1.236,1.236,0,0,0-.334-.465.459.459,0,0,0-.657-.016,1.2,1.2,0,0,0-.343.482A3.472,3.472,0,0,0,7.29,7.762c0,.068.026.088.086.09l.373.014A4,4,0,0,0,8.958,7.82Zm8.621,2.031c.024.013.037.021.051.027q.567.274,1.134.546a.179.179,0,0,0,.088.018c.148-.007.3-.011.444-.028a.506.506,0,0,0,.456-.507.873.873,0,0,0-.2-.556,3.786,3.786,0,0,0-1.034-.9c-.047-.031-.063,0-.084.031q-.33.533-.663,1.063C17.709,9.647,17.646,9.745,17.579,9.851Zm-5.991,6.487a.29.29,0,0,0-.028.012q-.534.375-1.069.75a.218.218,0,0,0-.071.074c-.06.123-.12.247-.169.375a.54.54,0,0,0-.024.323.52.52,0,0,0,.358.37,1.156,1.156,0,0,0,.595.033,3.844,3.844,0,0,0,1.144-.426c.055-.029.049-.058.024-.1-.243-.452-.485-.906-.728-1.358C11.611,16.37,11.6,16.355,11.588,16.338Z"/></svg>