<svg xmlns="http://www.w3.org/2000/svg" viewBox="0 0 24 24" width="512" height="512" aria-labelledby="bjbill-paid-desc bjbill-paid-title"><title id="bjbill-paid-title">Bill Paid Icon</title><desc id="bjbill-paid-desc">A picture depicting a paper bill with a check mark at the end.</desc><path d="M19 14a5 5 0 105 5 5 5 0 00-5-5zm-.5 8l-2.949-2.949 1.4-1.4L18.5 19.2l2.551-2.549 1.4 1.4zM18 2H6a2 2 0 00-2 2v16a2 2 0 002 2h6.685A6.938 6.938 0 0112 19H6v-2h6.3a6.957 6.957 0 01.969-2H6v-2h9.417A6.936 6.936 0 0119 12a7.026 7.026 0 011 .08V4a2 2 0 00-2-2zm-2 9H8V9h8zm2-4H6V5h12z"/></svg>