<svg xmlns="http://www.w3.org/2000/svg" viewBox="0 0 24 24" width="512" height="512" aria-labelledby="bkbiohazard-desc bkbiohazard-title"><title id="bkbiohazard-title">Biohazard Icon</title><desc id="bkbiohazard-desc">A picture showing the biohazard symbol.</desc><path d="M20.4 12a5.414 5.414 0 00-3.473-1.562 5.443 5.443 0 00-4.014-7.758v.941a3.9 3.9 0 11-1.817.009v-.944a5.444 5.444 0 00-3.987 7.75A5.428 5.428 0 003 19.011l.669-.669a3.9 3.9 0 111.281 1.291l-.666.666A5.443 5.443 0 0012 18.886a5.443 5.443 0 007.716 1.414l-.666-.666a3.9 3.9 0 111.278-1.291l.669.669A5.457 5.457 0 0020.4 12zM12 14.24a1 1 0 111-1 1 1 0 01-1 1zm5-.591a2.646 2.646 0 01.785.131 5.841 5.841 0 01-2.838 4.241 2.673 2.673 0 01-.44-.745 4.966 4.966 0 002.422-3.62c.027-.001.049-.007.071-.007zm-10.764.3A2.562 2.562 0 017 13.82c.029 0 .057.008.086.009a4.981 4.981 0 002.341 3.413 2.549 2.549 0 01-.415.758 5.847 5.847 0 01-2.774-4.053zm3.233-6.241a5.8 5.8 0 015.1.018 2.558 2.558 0 01-.251.844 4.815 4.815 0 00-4.606-.017 2.553 2.553 0 01-.243-.845z"/></svg>