<svg xmlns="http://www.w3.org/2000/svg" viewBox="0 0 24 24" width="512" height="512" aria-labelledby="blbitcoin-desc blbitcoin-title"><title id="blbitcoin-title">Bitcoin Icon</title><desc id="blbitcoin-desc">A picture showing the Bitcoin logo.</desc><path d="M14.339 13.513c0 1.4-2.4 1.236-3.161 1.235l.005-2.48c.762.001 3.157-.215 3.156 1.245zm-.519-3.5c0-1.328-2-1.129-2.633-1.129v2.249c.632 0 2.63.152 2.633-1.121zM22 12A10 10 0 1112 2a10 10 0 0110 10zm-7.048-.594a1.744 1.744 0 00.969-1.894C15.8 8.177 14.644 7.728 13.189 7.6V5.749h-1.127v1.8c-.3 0-.6 0-.9.01V5.745h-1.126v1.85a35.16 35.16 0 01-.717.009V7.6H7.765v1.2s.832-.015.819 0a.58.58 0 01.647.494l-.008 5.071a.4.4 0 01-.424.373c.014.013-.819 0-.819 0l-.226 1.345c.554 0 1.734 0 2.271.01v1.873h1.125v-1.853c.309.007.608.01.9.01v1.844h1.127v-1.869c1.895-.106 3.221-.581 3.388-2.359a1.918 1.918 0 00-1.613-2.333z"/></svg>