<svg xmlns="http://www.w3.org/2000/svg" viewBox="0 0 24 24" width="512" height="512" aria-labelledby="bmblood-desc bmblood-title"><title id="bmblood-title">Blood Icon</title><desc id="bmblood-desc">A picture showing two drops of liquid.</desc><path d="M16.969 5S12 9.444 12 12.634a5.024 5.024 0 001.453 3.522 4.868 4.868 0 003.516 1.363 4.865 4.865 0 003.516-1.363 5.024 5.024 0 001.453-3.522c0-3.19-4.969-7.634-4.969-7.634zm-.441 9h-1.885a2.061 2.061 0 01.009-3h1.894a2.35 2.35 0 00-.018 3zm-4.489 3.57A7.027 7.027 0 0110 12.634c0-2.477 1.9-5.156 3.531-6.995A43.068 43.068 0 0010 2S2 9.1 2 14.2a8 8 0 002.34 5.627A7.867 7.867 0 0010 22a7.867 7.867 0 005.66-2.178c.119-.119.226-.246.336-.371a6.731 6.731 0 01-3.957-1.881zM5 17a4.832 4.832 0 01-.551-5h1.962c-.665 1.6-.532 3.916.589 5z"/></svg>