<svg xmlns="http://www.w3.org/2000/svg" viewBox="0 0 24 24"><path d="M16.969,5S12,9.444,12,12.634a5.024,5.024,0,0,0,1.453,3.522,4.868,4.868,0,0,0,3.516,1.363,4.865,4.865,0,0,0,3.516-1.363,5.024,5.024,0,0,0,1.453-3.522C21.938,9.444,16.969,5,16.969,5Zm-.441,9H14.643a2.061,2.061,0,0,1,.009-3h1.894A2.35,2.35,0,0,0,16.528,14Zm-4.489,3.57A7.027,7.027,0,0,1,10,12.634c0-2.477,1.9-5.156,3.531-6.995A43.068,43.068,0,0,0,10,2S2,9.1,2,14.2a8,8,0,0,0,2.34,5.627A7.867,7.867,0,0,0,10,22a7.867,7.867,0,0,0,5.66-2.178c.119-.119.226-.246.336-.371A6.731,6.731,0,0,1,12.039,17.57ZM5,17a4.832,4.832,0,0,1-.551-5H6.411c-.665,1.6-.532,3.916.589,5Z"/></svg>