<svg xmlns="http://www.w3.org/2000/svg" viewBox="0 0 24 24" width="512" height="512" aria-labelledby="bnblu-ray-desc bnblu-ray-title"><title id="bnblu-ray-title">Blu-Ray Icon</title><desc id="bnblu-ray-desc">A picture showing the Blu-Ray logo.</desc><path d="M11.9 7c-.294 0-.462.011-.462.011a.082.082 0 00-.084.083c0 .083 0 .083.084.083 2.988 0 7.883 1.411 7.717 4.316-.166 2.406-3.9 5.227-12.7 5.227 0 .083-.083.083 0 .249 0 0 15.185.747 15.517-5.394C22.192 7.148 13.959 6.976 11.9 7zm-7.765.841c-.915 1.496-1.413 2.409-1.994 3.571l-.083.165v.083c-.083.083 0 .249 0 .332.332.581 2.158 1.245 6.224 1.245 3.07 0 6.307-.581 6.307-1.66 0-.995-3.154-1.659-6.307-1.659a10.644 10.644 0 00-2.324.249c.249-.5 1.412-2.324 1.412-2.324zm4.232 3.32c1.825 0 2.987.331 2.987.5 0 .249-1.162.5-2.987.5-1.909 0-2.987-.249-2.987-.5s1.076-.498 2.985-.498z"/></svg>