<svg xmlns="http://www.w3.org/2000/svg" viewBox="0 0 24 24" width="512" height="512" aria-labelledby="bobottom-percentile-records-desc bobottom-percentile-records-title"><title id="bobottom-percentile-records-title">Bottom records</title><desc id="bobottom-percentile-records-desc">Shows percentile records positioned at the bottom.</desc><path d="M12 10L8 6h3V2h2v4h3zm-4 8h4v-2H8zm0-4h8v-2H8zm10-1a5.976 5.976 0 012 .35V4a2 2 0 00-2-2h-3v2h3zm-5.91 7H6V4h3V2H6a2 2 0 00-2 2v16a2 2 0 002 2h6.812a5.945 5.945 0 01-.722-2zm4.872-2.435a.157.157 0 00-.058-.1.213.213 0 00-.2 0 .158.158 0 00-.059.1 1.008 1.008 0 00-.028.189c-.005.08-.008.185-.008.314s0 .23.008.312a1.046 1.046 0 00.028.192.155.155 0 00.059.094.213.213 0 00.2 0 .154.154 0 00.058-.094.966.966 0 00.028-.192c.01-.08.01-.186.01-.312s0-.234-.008-.314a.931.931 0 00-.03-.189zm2.393 1.88a.166.166 0 00-.059-.095.22.22 0 00-.2 0 .156.156 0 00-.058.095.954.954 0 00-.028.189q-.009.12-.009.315c0 .126 0 .23.009.311a.943.943 0 00.028.192.156.156 0 00.058.095.213.213 0 00.2 0 .166.166 0 00.059-.095 1.019 1.019 0 00.028-.192c.005-.081.008-.185.008-.311s0-.235-.008-.315a1.035 1.035 0 00-.028-.189zM22 19a4 4 0 11-4-4 4 4 0 014 4zm-5.2.136a1.252 1.252 0 00.411-.058.582.582 0 00.27-.186.8.8 0 00.148-.331 2.778 2.778 0 000-.985.784.784 0 00-.148-.331.583.583 0 00-.27-.187 1.489 1.489 0 00-.823 0 .594.594 0 00-.27.187.8.8 0 00-.147.331 2.778 2.778 0 000 .985.808.808 0 00.147.331.592.592 0 00.27.186 1.258 1.258 0 00.412.058zM19.185 17h-.612l-1.764 4h.612zm.884 2.949a2.328 2.328 0 00-.044-.493.808.808 0 00-.147-.331.592.592 0 00-.27-.186 1.465 1.465 0 00-.823 0 .582.582 0 00-.27.186.8.8 0 00-.148.331 2.778 2.778 0 000 .985.79.79 0 00.148.331.534.534 0 00.27.178 1.718 1.718 0 00.823 0 .543.543 0 00.27-.178.8.8 0 00.147-.331 2.311 2.311 0 00.044-.492z"/></svg>