<svg xmlns="http://www.w3.org/2000/svg" viewBox="0 0 24 24"><path d="M2.781,6.109A.747.747,0,0,0,2,6.891v7.156a3.9,3.9,0,0,0,3.844,3.844A4.037,4.037,0,0,0,9.312,15.8a3.95,3.95,0,0,0,3.469,2.094,3.891,3.891,0,0,0,0-7.782A4.04,4.04,0,0,0,9.312,12.2a3.861,3.861,0,0,0-3.468-2.094,3.985,3.985,0,0,0-2.313.782v-4A.818.818,0,0,0,2.781,6.109Zm13.657,3.969a.748.748,0,0,0-.282.125A.81.81,0,0,0,16,11.266l2.031,2.687L16,16.672a.808.808,0,0,0,.156,1.062.848.848,0,0,0,1.094-.156l1.688-2.312,1.687,2.312a.848.848,0,0,0,1.094.156.808.808,0,0,0,.156-1.062l-2-2.719,2-2.687a.81.81,0,0,0-.156-1.063.851.851,0,0,0-1.094.156l-1.687,2.282L17.25,10.359A.84.84,0,0,0,16.438,10.078ZM5.844,11.734a2.375,2.375,0,0,1,2.312,2.313,2.272,2.272,0,0,1-2.312,2.312,2.313,2.313,0,1,1,0-4.625Zm6.937,0a2.322,2.322,0,0,1,2.313,2.313,2.375,2.375,0,0,1-2.313,2.312,2.313,2.313,0,0,1,0-4.625Z"/></svg>