<svg xmlns="http://www.w3.org/2000/svg" viewBox="0 0 24 24" width="512" height="512" aria-labelledby="bqbox-desc bqbox-title"><title id="bqbox-title">Box Icon</title><desc id="bqbox-desc">A picture showing the Box logo.</desc><path d="M2.781 6.109A.747.747 0 002 6.891v7.156a3.9 3.9 0 003.844 3.844A4.037 4.037 0 009.312 15.8a3.95 3.95 0 003.469 2.094 3.891 3.891 0 000-7.782A4.04 4.04 0 009.312 12.2a3.861 3.861 0 00-3.468-2.094 3.985 3.985 0 00-2.313.782v-4a.818.818 0 00-.75-.779zm13.657 3.969a.748.748 0 00-.282.125.81.81 0 00-.156 1.063l2.031 2.687L16 16.672a.808.808 0 00.156 1.062.848.848 0 001.094-.156l1.688-2.312 1.687 2.312a.848.848 0 001.094.156.808.808 0 00.156-1.062l-2-2.719 2-2.687a.81.81 0 00-.156-1.063.851.851 0 00-1.094.156l-1.687 2.282-1.688-2.282a.84.84 0 00-.812-.281zM5.844 11.734a2.375 2.375 0 012.312 2.313 2.272 2.272 0 01-2.312 2.312 2.313 2.313 0 110-4.625zm6.937 0a2.322 2.322 0 012.313 2.313 2.375 2.375 0 01-2.313 2.312 2.313 2.313 0 010-4.625z"/></svg>