<svg xmlns="http://www.w3.org/2000/svg" viewBox="0 0 24 24" width="512" height="512" aria-labelledby="brbraille-desc brbraille-title"><title id="brbraille-title">Braille Icon</title><desc id="brbraille-desc">A picture showing 6 dots.</desc><path d="M7 1a3 3 0 103 3 3 3 0 00-3-3zm0 5a2 2 0 112-2 2 2 0 01-2 2zm-3 6a3 3 0 113 3 3 3 0 01-3-3zm10 0a3 3 0 113 3 3 3 0 01-3-3zm3 5a3 3 0 103 3 3 3 0 00-3-3zm0 5a2 2 0 112-2 2 2 0 01-2 2zM14 4a3 3 0 113 3 3 3 0 01-3-3zM7 17a3 3 0 103 3 3 3 0 00-3-3zm0 5a2 2 0 112-2 2 2 0 01-2 2z"/></svg>