<svg xmlns="http://www.w3.org/2000/svg" viewBox="0 0 24 24"><path d="M18.62,9.891C18.39,8.872,17.773,8,16.728,8H15.445A3.955,3.955,0,0,0,16,6,4,4,0,0,0,8,6a3.955,3.955,0,0,0,.555,2H7.272C6.227,8,5.61,8.872,5.38,9.891c-.382,1.7-1.663,5.4-1.324,7.376a5.609,5.609,0,0,0,6.773,4.589c.887-.239,1.779-1.287,1.368-2.149-.65-1.361-1.421.07-3.386-.854C7,18,7,17,7,17a11.721,11.721,0,0,0,1.722.174.693.693,0,0,0,.36-1.211c-.513-.581-.856-2.647.491-2.88.86-.148,1.136.268,1.249.6A5.3,5.3,0,0,0,12.11,16.3a3.535,3.535,0,0,0,3.409,1.466s-2.283,1.242-1.538,2.612S16.324,21.37,17,21a6.389,6.389,0,0,0,2.943-3.733C20.283,15.3,19.007,11.606,18.62,9.891ZM15,16a2,2,0,1,1,2-2A2,2,0,0,1,15,16Z"/></svg>