<svg xmlns="http://www.w3.org/2000/svg" viewBox="0 0 24 24" width="512" height="512" aria-labelledby="bsbreastfeeding-desc bsbreastfeeding-title"><title id="bsbreastfeeding-title">Breast-feeding Icon</title><desc id="bsbreastfeeding-desc">A picture depicting a woman breastfeeding her child.</desc><path d="M18.62 9.891C18.39 8.872 17.773 8 16.728 8h-1.283A3.955 3.955 0 0016 6a4 4 0 00-8 0 3.955 3.955 0 00.555 2H7.272C6.227 8 5.61 8.872 5.38 9.891c-.382 1.7-1.663 5.4-1.324 7.376a5.609 5.609 0 006.773 4.589c.887-.239 1.779-1.287 1.368-2.149-.65-1.361-1.421.07-3.386-.854C7 18 7 17 7 17a11.721 11.721 0 001.722.174.693.693 0 00.36-1.211c-.513-.581-.856-2.647.491-2.88.86-.148 1.136.268 1.249.6A5.3 5.3 0 0012.11 16.3a3.535 3.535 0 003.409 1.466s-2.283 1.242-1.538 2.612S16.324 21.37 17 21a6.389 6.389 0 002.943-3.733c.34-1.967-.936-5.661-1.323-7.376zM15 16a2 2 0 112-2 2 2 0 01-2 2z"/></svg>