<svg xmlns="http://www.w3.org/2000/svg" viewBox="0 0 24 24" width="512" height="512" aria-labelledby="bubrush-desc bubrush-title"><title id="bubrush-title">Brush Icon</title><desc id="bubrush-desc">A picture showing a painting brush.</desc><path d="M13.093 6.743a1.074 1.074 0 011.306.251l.237.237-6.4 6.4-.242-.231a1.074 1.074 0 01-.251-1.306c.446-.693 1.553-2.516.515-3.554-1.584-1.585-2.225-.94-3.809-2.528S2.714 3 3.354 2.354s2.073-.489 3.658 1.095.943 2.225 2.527 3.809c1.038 1.042 2.861-.069 3.554-.515zm6.93 5.874L15.31 7.9 8.9 14.31l4.433 4.433c-.039.159-.084.327-.137.508 0 0-.8 2.749.8 2.749s.8-2.749.8-2.749a10.75 10.75 0 01-.272-1.14L16.2 16.44a8.944 8.944 0 00-2.072-3.314s.555-.545 3.323 2.063l.811-.811-1.54-2.5 2.5 1.539z"/></svg>