<svg xmlns="http://www.w3.org/2000/svg" viewBox="0 0 24 24"><path d="M13.093,6.743a1.074,1.074,0,0,1,1.306.251l.237.237-6.4,6.4L7.994,13.4a1.074,1.074,0,0,1-.251-1.306c.446-.693,1.553-2.516.515-3.554C6.674,6.955,6.033,7.6,4.449,6.012S2.714,3,3.354,2.354s2.073-.489,3.658,1.095.943,2.225,2.527,3.809C10.577,8.3,12.4,7.189,13.093,6.743Zm6.93,5.874L15.31,7.9,8.9,14.31l4.433,4.433c-.039.159-.084.327-.137.508,0,0-.8,2.749.8,2.749s.8-2.749.8-2.749a10.75,10.75,0,0,1-.272-1.14L16.2,16.44a8.944,8.944,0,0,0-2.072-3.314s.555-.545,3.323,2.063l.811-.811-1.54-2.5,2.5,1.539Z"/></svg>