<svg xmlns="http://www.w3.org/2000/svg" viewBox="0 0 24 24" width="512" height="512" aria-labelledby="bvbucket-desc bvbucket-title"><title id="bvbucket-title">Bucket Icon</title><desc id="bvbucket-desc">A picture showing a bucket.</desc><path d="M14 2.39V2h-4v.369A8.326 8.326 0 005 10c0 .236 1 11 1 11a14.515 14.515 0 006 1 14.515 14.515 0 006-1s1-10.809 1-11a8.486 8.486 0 00-5-7.61zM12 11c-2.761 0-5-.448-5-1s2.239-1 5-1 5 .448 5 1-2.239 1-5 1zm5.679-2.164A17.2 17.2 0 0012 8a16.179 16.179 0 00-5.692.869C6.074 7.451 7.919 4.811 10 3.617V4h4v-.38c2.076 1.194 3.922 3.825 3.679 5.216z"/></svg>