<svg xmlns="http://www.w3.org/2000/svg" viewBox="0 0 24 24" width="512" height="512" aria-labelledby="bwbudget-spending-desc bwbudget-spending-title"><title id="bwbudget-spending-title">Budget-Spending Icon</title><desc id="bwbudget-spending-desc">A picture showing an encircled dollar sign with arrows at the top, bottom, left, and right sides of it.</desc><path d="M12 6a6 6 0 106 6 6 6 0 00-6-6zm0 10.5a4.5 4.5 0 114.5-4.5 4.5 4.5 0 01-4.5 4.5zM12 0L8 3.99h3V7h2V3.99h3zm0 24l4-3.99h-3V17h-2v3.01H8zm12-12l-3.99-4v3H15v2h5.01v3zM0 12l3.99 4v-3H9v-2H3.99V8zm12.529 2.284V15h-1v-.724A1.4 1.4 0 0110.3 13h.735c.038.394.308.7.994.7.735 0 .9-.367.9-.6 0-.311-.165-.6-1-.8-.93-.225-1.568-.608-1.568-1.377a1.3 1.3 0 011.167-1.2V9h1v.731A1.328 1.328 0 0113.6 11h-.735c-.019-.416-.24-.7-.833-.7-.563 0-.9.255-.9.615 0 .315.244.521 1 .716s1.568.523 1.568 1.469c0 .685-.519 1.06-1.171 1.184z"/></svg>