<svg xmlns="http://www.w3.org/2000/svg" viewBox="0 0 24 24"><path d="M21,9H17.46A7.251,7.251,0,0,0,14.9,6.729a2.833,2.833,0,0,0-.2-2.015l1.007-1.007L14.293,2.293,13.286,3.3a2.906,2.906,0,0,0-2.572,0L9.707,2.293,8.293,3.707,9.3,4.714a2.833,2.833,0,0,0-.2,2.015A7.251,7.251,0,0,0,6.54,9H3v2H5.514a8.879,8.879,0,0,0-.454,2H3v2H5.06a8.879,8.879,0,0,0,.454,2H3v2H6.54A6.7,6.7,0,0,0,12,22a6.7,6.7,0,0,0,5.46-3H21V17H18.486a8.879,8.879,0,0,0,.454-2H21V13H18.94a8.879,8.879,0,0,0-.454-2H21ZM11,16H9V14h2Zm0-4V10h2v2Zm4,4H13V14h2Z"/></svg>