<svg xmlns="http://www.w3.org/2000/svg" viewBox="0 0 24 24" width="512" height="512" aria-labelledby="bxbug-desc bxbug-title"><title id="bxbug-title">Bug Icon</title><desc id="bxbug-desc">A picture showing an insect.</desc><path d="M21 9h-3.54a7.251 7.251 0 00-2.56-2.271 2.833 2.833 0 00-.2-2.015l1.007-1.007-1.414-1.414L13.286 3.3a2.906 2.906 0 00-2.572 0L9.707 2.293 8.293 3.707 9.3 4.714a2.833 2.833 0 00-.2 2.015A7.251 7.251 0 006.54 9H3v2h2.514a8.879 8.879 0 00-.454 2H3v2h2.06a8.879 8.879 0 00.454 2H3v2h3.54A6.7 6.7 0 0012 22a6.7 6.7 0 005.46-3H21v-2h-2.514a8.879 8.879 0 00.454-2H21v-2h-2.06a8.879 8.879 0 00-.454-2H21zm-10 7H9v-2h2zm0-4v-2h2v2zm4 4h-2v-2h2z"/></svg>