<svg xmlns="http://www.w3.org/2000/svg" viewBox="0 0 24 24" width="512" height="512" aria-labelledby="cbbusiness-development-desc cbbusiness-development-title"><title id="cbbusiness-development-title">Business Development Icon</title><desc id="cbbusiness-development-desc">A picture depicting a globe inside a mechanical gear.</desc><path d="M9.412 8.559a7.922 7.922 0 01-1.244-.4 5.44 5.44 0 012.237-1.348 5.273 5.273 0 00-.993 1.748zm2.588.3a11.737 11.737 0 002.015-.178c-.476-1.274-1.208-2.11-2.015-2.11s-1.539.836-2.015 2.108A11.755 11.755 0 0012 8.857zM9.236 9.1a8.293 8.293 0 01-1.471-.49 5.4 5.4 0 00-1.179 3.1h2.278a10.612 10.612 0 01.372-2.61zm-.372 3.184H6.586a5.4 5.4 0 001.179 3.1 8.293 8.293 0 011.471-.49 10.612 10.612 0 01-.372-2.608zm6.968-4.127A5.434 5.434 0 0013.6 6.811a5.273 5.273 0 01.993 1.748 7.922 7.922 0 001.239-.4zm-6.027 6.615a12.086 12.086 0 014.39 0 9.944 9.944 0 00.369-2.486H9.436a9.944 9.944 0 00.369 2.486zM14.2 9.228a12.21 12.21 0 01-2.2.2 12.21 12.21 0 01-2.2-.2 9.944 9.944 0 00-.369 2.486h5.128a9.944 9.944 0 00-.359-2.486zm-.6 7.961a5.434 5.434 0 002.237-1.348 7.922 7.922 0 00-1.244-.4 5.273 5.273 0 01-.993 1.748zm-5.432-1.348a5.44 5.44 0 002.237 1.348 5.273 5.273 0 01-.993-1.748 7.922 7.922 0 00-1.244.4zm13.369-1.216a.468.468 0 01.125.625l-2 3.475a.5.5 0 01-.6.225l-2.474-1a7.541 7.541 0 01-1.676.975l-.4 2.65a.492.492 0 01-.5.425h-4a.507.507 0 01-.5-.425l-.376-2.65a7.171 7.171 0 01-1.7-.975l-2.475 1a.525.525 0 01-.625-.225l-2-3.475a.473.473 0 01.124-.625l2.1-1.65c-.024-.325-.049-.65-.049-.975a6.133 6.133 0 01.1-.975l-2.124-1.65a.494.494 0 01-.124-.65l2-3.45a.492.492 0 01.6-.225l2.5 1a7.962 7.962 0 011.675-.975l.376-2.65a.507.507 0 01.5-.425h4a.51.51 0 01.5.425l.374 2.65a7.49 7.49 0 011.675.975l2.5-1a.482.482 0 01.6.225l2 3.45a.5.5 0 01-.125.65l-2.125 1.65a4.027 4.027 0 01.1.975c0 .325-.026.65-.051.975zM18 12a6 6 0 10-6 6 6.007 6.007 0 006-6zm-3.236-2.9a10.612 10.612 0 01.372 2.612h2.278a5.4 5.4 0 00-1.179-3.1 8.293 8.293 0 01-1.471.488zM12 15.143a11.746 11.746 0 00-2.015.178c.476 1.272 1.208 2.108 2.015 2.108s1.539-.836 2.015-2.108A11.737 11.737 0 0012 15.143zm2.764-.246a8.375 8.375 0 011.471.491 5.4 5.4 0 001.179-3.1h-2.278a10.6 10.6 0 01-.372 2.612z"/></svg>