<svg xmlns="http://www.w3.org/2000/svg" viewBox="0 0 24 24" width="512" height="512" aria-labelledby="cccaduceus-desc cccaduceus-title"><title id="cccaduceus-title">Caduceus Icon</title><desc id="cccaduceus-desc">A picture depicting two snakes twisted around a poll.</desc><path d="M6.463 4.065c-1.34.277-1.376 1.457-4.441 2.36 0 0 3.277 1.257 5.55.9a2.508 2.508 0 011.611-.465 1.692 1.692 0 01-.2-.781c0-.124.011-.534 0-.625a1.949 1.949 0 00-2.52-1.389zm8.574 1.389c-.011.091 0 .5 0 .625a1.68 1.68 0 01-.2.781 2.51 2.51 0 011.612.468c2.273.354 5.55-.9 5.55-.9-3.065-.9-3.1-2.083-4.441-2.36a1.949 1.949 0 00-2.521 1.386zM13.8 8.345a1.12 1.12 0 011.4-.427c.318.1 2.162 1.043 2.162 2.1a2.257 2.257 0 01-1.477 2.017 6.467 6.467 0 00-1.56-.652c.992-.248 1.791-.683 1.791-1.365a.669.669 0 00-.692-.54 3.011 3.011 0 01-.861-.015c-.604-.189-.944-.69-.763-1.118zm.2 7.194a8.773 8.773 0 00-1.047-.23v-2.352c.138.015.267.031.373.051 1.679.308 1.74 1.063.731 1.721a6.776 6.776 0 01.989.458 1.472 1.472 0 00-.134-2.779 9.4 9.4 0 00-1.959-.562V5.1a1.637 1.637 0 00.942-1.435A1.785 1.785 0 0012 2a1.786 1.786 0 00-1.885 1.667 1.637 1.637 0 00.943 1.433v6.392C9.569 11.258 7.9 11 7.9 10.021a.67.67 0 01.694-.541 2.988 2.988 0 00.863-.014c1.4-.435.755-2.013-.638-1.548-2.692.987-3.078 3.58.276 4.494-2.406.642-1.465 3.081.922 3.127-2.91.8-1.567 2.938.1 3.034-.618.221-1.108.878-.642 1.436.129.155.774.522.861.223.053-.18-.109-.481-.167-.655-.1-.3.326-.47.892-.551v2.141a.95.95 0 001.885 0v-2.174a2.783 2.783 0 01.421.072c.264.071.45.222.462.474 0 .084-.2.731-.077.725.4-.023.9-.229.948-.635a1.013 1.013 0 00-.454-.876 2.89 2.89 0 00-1.3-.436v-2.048c.74.1 1.471.326 1.459.784 0 .171-.022.4-.49.639a4.417 4.417 0 01.792.46 1.277 1.277 0 00.728-1.1c-.049-.933-.649-1.267-1.445-1.513zm-5.046-1.683c.1-.558 1.066-.819 2.1-.909V15c-1.192-.219-2.206-.523-2.1-1.144zm.476 3.227c0-.453.831-.7 1.628-.808V18.1c-.869-.18-1.628-.571-1.628-1.017z"/></svg>