<svg xmlns="http://www.w3.org/2000/svg" viewBox="0 0 24 24" width="512" height="512" aria-labelledby="cecancer-ribbon-desc cecancer-ribbon-title"><title id="cecancer-ribbon-title">Cancer Ribbon Icon</title><desc id="cecancer-ribbon-desc">A picture depicting a ribbon.</desc><path d="M19 19l-1.75.336L16.88 22s-2.283-3.568-4.312-6.708c.61-.943 1.181-1.822 1.642-2.525zM15.9 4.944a4 4 0 00-4.52-2.894c-4.464.83-3.855 6.383-1.509 9.112 0 0 1.454-1.787 1.56-1.939a6.935 6.935 0 01-1.331-3.44c0-1.908 3.792-1.908 3.792 0a7.424 7.424 0 01-1.908 4.3L5.011 19l1.75.336L7.12 22s6.161-9.628 7.233-11.166c1.136-1.634 2.038-3.867 1.547-5.89z"/></svg>