<svg xmlns="http://www.w3.org/2000/svg" viewBox="0 0 24 24" width="512" height="512" aria-labelledby="cfcandidate-results-desc cfcandidate-results-title"><title id="cfcandidate-results-title">Candidate Results Icon</title><desc id="cfcandidate-results-desc">A picture depicting two people standing next to progress indicators.</desc><path d="M10 10H2V8.321A1.387 1.387 0 013.444 7h5.112A1.387 1.387 0 0110 8.321zM6 6a2 2 0 10-2-2 2 2 0 002 2zm4 16H2v-1.679A1.387 1.387 0 013.444 19h5.112A1.387 1.387 0 0110 20.321zm-4-4a2 2 0 10-2-2 2 2 0 002 2zm6-14v4h10V4zm9 3h-2V5h2zm-9 9v4h10v-4zm9 3h-5v-2h5z"/></svg>