<svg xmlns="http://www.w3.org/2000/svg" viewBox="0 0 24 24" width="512" height="512" aria-labelledby="cgcase-sensitive-desc cgcase-sensitive-title"><title id="cgcase-sensitive-title">Case Sensitive Icon</title><desc id="cgcase-sensitive-desc">A picture showing the letter A written in both upper and lower case.</desc><path d="M21.2 16.5c0-.2-.1-.5-.1-.7v-4.4c0-.4-.1-.8-.3-1.2-.2-.3-.5-.6-.8-.7-.3-.2-.7-.3-1.1-.3-.4-.1-.8-.1-1.2-.1-.5 0-.9 0-1.4.1-.4.1-.8.3-1.2.5-.3.2-.6.5-.8.9s-.3.9-.3 1.3h1.4c0-.5.2-1 .7-1.3.5-.2 1-.4 1.5-.3.2 0 .5 0 .7.1.2 0 .4.1.6.2.2.1.3.2.5.4.1.2.2.5.2.7s-.1.4-.2.6c-.2.2-.4.3-.6.3-.3.1-.6.1-.9.2-.4 0-.7.1-1.1.2-.4.1-.7.1-1.1.2-.3.1-.7.2-1 .4s-.5.5-.7.8c-.2.4-.3.8-.3 1.2s.1.8.2 1.1c.1.3.4.5.6.7.3.2.6.3.9.4.9.2 1.9.2 2.8-.2.5-.2 1-.6 1.4-1 0 .4.1.7.3 1 .2.2.6.3.9.3.4 0 .7-.1 1-.2v-1.1c-.1 0-.3.1-.4.1-.1.1-.2 0-.2-.2zm-1.5-1.7c0 .2-.1.4-.2.6-.1.2-.3.5-.5.6-.2.2-.5.4-.8.5-.4.1-.8.2-1.2.2-.2 0-.4 0-.6-.1-.2 0-.4-.1-.5-.2-.2-.1-.3-.2-.4-.4-.1-.2-.2-.4-.1-.6 0-.3.1-.6.2-.8.2-.2.4-.4.6-.5.3-.1.6-.2.9-.2s.7-.1 1-.1.6-.1.9-.1.5-.1.7-.3v1.4zm-9.6-.4l1.3 3.6h1.8L8.5 6H6.7L2 18h1.7L5 14.4h5.1zm-2.5-7l2.1 5.5H5.5l2.1-5.5z"/></svg>