<svg xmlns="http://www.w3.org/2000/svg" viewBox="0 0 24 24"><path d="M21.2,16.5c0-0.2-0.1-0.5-0.1-0.7v-4.4c0-0.4-0.1-0.8-0.3-1.2c-0.2-0.3-0.5-0.6-0.8-0.7c-0.3-0.2-0.7-0.3-1.1-0.3c-0.4-0.1-0.8-0.1-1.2-0.1c-0.5,0-0.9,0-1.4,0.1c-0.4,0.1-0.8,0.3-1.2,0.5c-0.3,0.2-0.6,0.5-0.8,0.9S14,11.5,14,11.9h1.4c0-0.5,0.2-1,0.7-1.3c0.5-0.2,1-0.4,1.5-0.3c0.2,0,0.5,0,0.7,0.1c0.2,0,0.4,0.1,0.6,0.2c0.2,0.1,0.3,0.2,0.5,0.4c0.1,0.2,0.2,0.5,0.2,0.7s-0.1,0.4-0.2,0.6c-0.2,0.2-0.4,0.3-0.6,0.3c-0.3,0.1-0.6,0.1-0.9,0.2c-0.4,0-0.7,0.1-1.1,0.2c-0.4,0.1-0.7,0.1-1.1,0.2c-0.3,0.1-0.7,0.2-1,0.4s-0.5,0.5-0.7,0.8c-0.2,0.4-0.3,0.8-0.3,1.2s0.1,0.8,0.2,1.1c0.1,0.3,0.4,0.5,0.6,0.7c0.3,0.2,0.6,0.3,0.9,0.4c0.9,0.2,1.9,0.2,2.8-0.2c0.5-0.2,1-0.6,1.4-1c0,0.4,0.1,0.7,0.3,1c0.2,0.2,0.6,0.3,0.9,0.3c0.4,0,0.7-0.1,1-0.2v-1.1c-0.1,0-0.3,0.1-0.4,0.1C21.3,16.8,21.2,16.7,21.2,16.5z M19.7,14.8c0,0.2-0.1,0.4-0.2,0.6c-0.1,0.2-0.3,0.5-0.5,0.6c-0.2,0.2-0.5,0.4-0.8,0.5c-0.4,0.1-0.8,0.2-1.2,0.2c-0.2,0-0.4,0-0.6-0.1c-0.2,0-0.4-0.1-0.5-0.2c-0.2-0.1-0.3-0.2-0.4-0.4c-0.1-0.2-0.2-0.4-0.1-0.6c0-0.3,0.1-0.6,0.2-0.8c0.2-0.2,0.4-0.4,0.6-0.5c0.3-0.1,0.6-0.2,0.9-0.2s0.7-0.1,1-0.1s0.6-0.1,0.9-0.1s0.5-0.1,0.7-0.3C19.7,13.4,19.7,14.8,19.7,14.8z"/><path d="M10.1,14.4l1.3,3.6h1.8L8.5,6H6.7L2,18h1.7L5,14.4H10.1z M7.6,7.4L7.6,7.4l2.1,5.5H5.5L7.6,7.4z"/></svg>