<svg xmlns="http://www.w3.org/2000/svg" viewBox="0 0 24 24" width="512" height="512" aria-labelledby="cicash-2-desc cicash-2-title"><title id="cicash-2-title">Cash Icon</title><desc id="cicash-2-desc">A picture depicting a stack of cash.</desc><path d="M13.37 17.035V18H6v-8h7.37v.965a1.733 1.733 0 00-1.555 1.605c0 1.025.85 1.535 2.09 1.835 1.115.265 1.335.655 1.335 1.07 0 .3-.22.8-1.2.8-.915 0-1.275-.41-1.325-.935h-.98a1.86 1.86 0 001.635 1.695zM14.705 10v.975a1.768 1.768 0 011.425 1.7h-.98c-.025-.555-.32-.935-1.11-.935-.75 0-1.2.34-1.2.82 0 .42.325.7 1.335.955s2.09.7 2.09 1.955c0 .915-.69 1.415-1.56 1.58V18H22v-8zM20 6H2v10h2V8h16z"/></svg>