<svg xmlns="http://www.w3.org/2000/svg" viewBox="0 0 24 24" width="512" height="512" aria-labelledby="ckcement-mixer-desc ckcement-mixer-title"><title id="ckcement-mixer-title">Cement Mixer Icon</title><desc id="ckcement-mixer-desc">A picture depicting a cement mixer truck.</desc><path d="M23.892 8.076l-1.86 3.483-7.31 3.477-2.792-1.27L10 9.486l.863-3.009L18.173 3l3.789.8zM19.221 16H21v2h-1a3 3 0 01-6 0H7a3 3 0 01-6 0H0v-5l2-5h6v8h6.779a2.966 2.966 0 014.442 0zM5 18a1 1 0 10-1 1 1 1 0 001-1zm1-8H2.9L2 13h4zm12 8a1 1 0 10-1 1 1 1 0 001-1z"/></svg>