<svg xmlns="http://www.w3.org/2000/svg" viewBox="0 0 24 24" width="512" height="512" aria-labelledby="cnchrome-desc cnchrome-title"><title id="cnchrome-title">Chrome Icon</title><desc id="cnchrome-desc">A picture showing the Chrome browser logo.</desc><path d="M14.8 8.316h6.241a.279.279 0 01.321.221 9.778 9.778 0 01-.823 8.623 9.744 9.744 0 01-6.622 4.654 9.484 9.484 0 01-2.436.177c.037-.078.063-.143.1-.2l4.145-7.132a5.441 5.441 0 00.827-2.266 4.514 4.514 0 00-1.48-3.833l-.273-.244zm-1.168 7.966l-.3.092a4.366 4.366 0 01-2.936-.082 4.723 4.723 0 01-2.414-2.047c-1.248-2.142-2.467-4.3-3.7-6.454L3.6 6.594a9.987 9.987 0 006.79 15.265zm7.123-9.073c-.027-.054-.054-.108-.084-.16A10 10 0 009.757 2.262a9.762 9.762 0 00-5.406 3.3.228.228 0 00-.019.314q1.475 2.583 2.945 5.17c.034.06.072.117.117.191.081-.3.133-.562.226-.813a4.632 4.632 0 014.405-3.1c2.2-.011 4.392 0 6.587 0H20.8c-.022-.061-.032-.089-.044-.115zM8.385 12a3.583 3.583 0 103.567-3.577A3.57 3.57 0 008.385 12z"/></svg>