<svg xmlns="http://www.w3.org/2000/svg" viewBox="0 0 24 24"><path d="M14.8,8.316h1.933c1.436,0,2.872,0,4.308,0a.279.279,0,0,1,.321.221,9.778,9.778,0,0,1-.823,8.623,9.744,9.744,0,0,1-6.622,4.654,9.484,9.484,0,0,1-2.436.177c.037-.078.063-.143.1-.2q2.073-3.565,4.145-7.132a5.441,5.441,0,0,0,.827-2.266A4.514,4.514,0,0,0,15.073,8.56C15,8.494,14.929,8.43,14.8,8.316Zm-1.168,7.966-.3.092a4.366,4.366,0,0,1-2.936-.082,4.723,4.723,0,0,1-2.414-2.047c-1.248-2.142-2.467-4.3-3.7-6.454L3.6,6.594A9.987,9.987,0,0,0,10.39,21.859Zm7.123-9.073c-.027-.054-.054-.108-.084-.16A10,10,0,0,0,9.757,2.262a9.762,9.762,0,0,0-5.406,3.3.228.228,0,0,0-.019.314q1.475,2.583,2.945,5.17c.034.06.072.117.117.191.081-.3.133-.562.226-.813a4.632,4.632,0,0,1,4.405-3.1c2.2-.011,4.392,0,6.587,0H20.8C20.778,7.263,20.768,7.235,20.756,7.209ZM8.385,12a3.583,3.583,0,1,0,3.567-3.577A3.57,3.57,0,0,0,8.385,12Z"/></svg>