<svg xmlns="http://www.w3.org/2000/svg" viewBox="0 0 24 24" width="512" height="512" aria-labelledby="cscommodities-desc cscommodities-title"><title id="cscommodities-title">Commodities Icon</title><desc id="cscommodities-desc">A picture depicting an oil barrel and 3 gold ingots.</desc><path d="M13 11.5c0-.489-.37-.943-1-1.328V6.828c.63-.385 1-.839 1-1.328C13 4.119 10.09 3 6.5 3S0 4.119 0 5.5c0 .489.37.943 1 1.328v3.344c-.63.385-1 .839-1 1.328s.37.943 1 1.328v3.344c-.63.385-1 .839-1 1.328C0 18.881 2.91 20 6.5 20s6.5-1.119 6.5-2.5c0-.489-.37-.943-1-1.328v-3.344c.63-.385 1-.839 1-1.328zM6.283 7.286l-.02.008-.02-.007zM6.5 15a3.5 3.5 0 113.5-3.5A3.5 3.5 0 016.5 15zm1.466-4.537L6.5 9l-1.466 1.463a2.071 2.071 0 102.932 0zM21 19h-6l.944-2.944h4.112zm-3 4h-6l.944-2.944h4.112zm6 0h-6l.944-2.944h4.112z"/></svg>