<svg xmlns="http://www.w3.org/2000/svg" viewBox="0 0 24 24" width="512" height="512" aria-labelledby="cucondom-used-desc cucondom-used-title"><title id="cucondom-used-title">Condom Used Icon</title><desc id="cucondom-used-desc">A picture depicting a condom with a sperm inside.</desc><path d="M17 21a1 1 0 01-1 1H8a1 1 0 010-2h8a1 1 0 011 1zm-1-2H8V7a3.99 3.99 0 013-3.858V3a1 1 0 012 0v.142A3.99 3.99 0 0116 7zM13.5 8.75c0-1.035-.68-1.865-1.5-1.75a1.888 1.888 0 00-1.152 2.762c1.165 2.194.046 5.755 1.9 6.238a6.25 6.25 0 01-.39-1.821C12.27 13 13.5 9.594 13.5 8.75z"/></svg>