<svg xmlns="http://www.w3.org/2000/svg" viewBox="0 0 24 24" width="512" height="512" aria-labelledby="cxconstruction-project-desc cxconstruction-project-title"><title id="cxconstruction-project-title">Construction Project Icon</title><desc id="cxconstruction-project-desc">A picture depicting a construction project or an architectural plan, a blueprint.</desc><path d="M2 22H1a1 1 0 01-1-1V5.11a1.487 1.487 0 001 .39h1zM24 2v18H3V4H1a1 1 0 010-2zm-2 8h-4.536L14 4l-3.039 5.263A4.454 4.454 0 009.5 9a4.5 4.5 0 104.38 5.5H15V17h7zm-11.549.147a3.494 3.494 0 102.386 4.353h-4.9zM16.309 10L14 6l-2.13 3.689A4.485 4.485 0 0114 13.5h1V10zm-4.937.552L9.67 13.5H13a3.489 3.489 0 00-1.628-2.948zM16 14.5V16h5v-5h-2.959l2.021 3.5zm2.33-1L16.887 11H16v2.5z"/></svg>