<svg xmlns="http://www.w3.org/2000/svg" viewBox="0 0 24 24" width="512" height="512" aria-labelledby="czcontains-desc czcontains-title"><title id="czcontains-title">Contains Icon</title><desc id="czcontains-desc">A picture showing the lowercase letter A in a square box.</desc><path d="M3 3v18h18V3zm16 16H5V5h14z"/><path d="M12 11.3a4.39 4.39 0 00-2.54.63 2.07 2.07 0 00-.9 1.78 2.29 2.29 0 00.66 1.74 2.63 2.63 0 001.89.63 2.39 2.39 0 001.32-.37 3.05 3.05 0 001-.93 3.72 3.72 0 00.08.57c0 .19.1.38.16.58h1.79a4.51 4.51 0 01-.21-.88 5.57 5.57 0 01-.07-.93v-3.5a2.44 2.44 0 00-.84-2 3.34 3.34 0 00-2.22-.7 3.54 3.54 0 00-2.3.72A1.93 1.93 0 009 10.29h1.71a.93.93 0 01.29-.71 1.5 1.5 0 011-.29 1.45 1.45 0 011 .35 1.3 1.3 0 01.37 1v.69zm1.4 1.08v1.17a1.61 1.61 0 01-.71.77 2.27 2.27 0 01-1.21.34 1.18 1.18 0 01-.84-.27.92.92 0 01-.3-.72 1.16 1.16 0 01.44-.9 1.76 1.76 0 011.22-.39z"/></svg>