<svg xmlns="http://www.w3.org/2000/svg" viewBox="0 0 24 24" width="512" height="512" aria-labelledby="dacontraception-desc dacontraception-title"><title id="dacontraception-title">Contraception Icon</title><desc id="dacontraception-desc">A picture depicting a pill.</desc><path d="M1 2l2 2-2 2 2 2-2 2 2 2-2 2 2 2-2 2 2 2-2 2h22l-2-2 2-2-2-2 2-2-2-2 2-2-2-2 2-2-2-2 2-2zm11 17A6.993 6.993 0 015.786 8.786l1.527 1.527A4.947 4.947 0 007 12a5 5 0 105-5 4.95 4.95 0 00-2.375.625L8.154 6.154A7 7 0 1112 19z"/></svg>