<svg xmlns="http://www.w3.org/2000/svg" viewBox="0 0 24 24" width="512" height="512" aria-labelledby="dbcordless-screwdriver-desc dbcordless-screwdriver-title"><title id="dbcordless-screwdriver-title">Cordless Screwdriver Icon</title><desc id="dbcordless-screwdriver-desc">A picture depicting a cordless screwdriver.</desc><path d="M14 5v3a2 2 0 01-2 2H3L1 8V5a2 2 0 012-2h9a2 2 0 012 2zm3 1V5a1 1 0 00-1-1h-1v5h1a1 1 0 001-1V7h6V6zm-5 7l.5-2H4v6a1 1 0 00-1 1v2a1 1 0 001 1h7a1 1 0 001-1v-2a1 1 0 00-1-1H9l1-4z"/></svg>