<svg xmlns="http://www.w3.org/2000/svg" viewBox="0 0 24 24" width="512" height="512" aria-labelledby="dccoronavirus-desc dccoronavirus-title"><title id="dccoronavirus-title">Corona Virus Icon</title><desc id="dccoronavirus-desc">A picture depicting a virus cell.</desc><path d="M20.5 10a1.486 1.486 0 00-1.292 1h-1.3a5.958 5.958 0 00-1.023-2.473l.915-.917a1.487 1.487 0 001.625-.21 1.806 1.806 0 00-.354-2.475 1.806 1.806 0 00-2.471-.35 1.487 1.487 0 00-.21 1.625l-.917.917A5.958 5.958 0 0013 6.09v-1.3a1.486 1.486 0 001-1.29c0-.828-.895-1.5-2-1.5s-2 .672-2 1.5a1.486 1.486 0 001 1.292v1.3a5.958 5.958 0 00-2.473 1.021L7.61 6.2a1.487 1.487 0 00-.21-1.625 1.806 1.806 0 00-2.475.354 1.806 1.806 0 00-.35 2.471 1.487 1.487 0 001.625.21l.917.917A5.958 5.958 0 006.09 11h-1.3a1.486 1.486 0 00-1.29-1c-.828 0-1.5.9-1.5 2s.672 2 1.5 2a1.486 1.486 0 001.292-1h1.3a5.964 5.964 0 001.023 2.473l-.915.917a1.487 1.487 0 00-1.621.206 1.806 1.806 0 00.354 2.475 1.806 1.806 0 002.475.354A1.487 1.487 0 007.61 17.8l.917-.917A5.958 5.958 0 0011 17.91v1.3a1.486 1.486 0 00-1 1.29c0 .828.895 1.5 2 1.5s2-.672 2-1.5a1.486 1.486 0 00-1-1.292v-1.3a5.958 5.958 0 002.473-1.023l.917.917a1.487 1.487 0 00.206 1.621 1.806 1.806 0 002.475-.354 1.806 1.806 0 00.354-2.475 1.487 1.487 0 00-1.625-.204l-.917-.917A5.964 5.964 0 0017.91 13h1.3a1.486 1.486 0 001.29 1c.828 0 1.5-.895 1.5-2s-.672-2-1.5-2zM9 15a1 1 0 111-1 1 1 0 01-1 1zm6-4a1 1 0 111-1 1 1 0 01-1 1zm-3.939.061a1.8 1.8 0 01-2.475.353 1.8 1.8 0 01.353-2.475 1.8 1.8 0 012.475-.353 1.8 1.8 0 01-.353 2.475zm4 4a1.8 1.8 0 01-2.475.353 1.8 1.8 0 01.353-2.475 1.8 1.8 0 012.475-.353 1.8 1.8 0 01-.353 2.475z"/></svg>