<svg xmlns="http://www.w3.org/2000/svg" viewBox="0 0 24 24"><path d="M21.9,14.35a2.55,2.55,0,0,1-2.55,2.55H17V22H15V16.9H12.55a2.545,2.545,0,0,1-1.08-4.852,3.375,3.375,0,0,1-.62-1.948,1.7,1.7,0,0,1,1.7-1.7H12.6a2.6,2.6,0,0,1-.049-.425A3.209,3.209,0,0,1,15.95,5a3.209,3.209,0,0,1,3.4,2.975A2.6,2.6,0,0,1,19.3,8.4h.049a1.7,1.7,0,0,1,1.7,1.7,3.375,3.375,0,0,1-.62,1.948A2.545,2.545,0,0,1,21.9,14.35ZM13,22V18.9h-.45a4.54,4.54,0,0,1-3.52-7.42,5.359,5.359,0,0,1-.18-1.38,3.7,3.7,0,0,1,1.824-3.188A4.982,4.982,0,0,1,12.9,3.9L11,2,7,6V5H5V8L2,11H5V22Z"/></svg>