<svg xmlns="http://www.w3.org/2000/svg" viewBox="0 0 24 24" width="512" height="512" aria-labelledby="ddcountry-home-desc ddcountry-home-title"><title id="ddcountry-home-title">Country Home Icon</title><desc id="ddcountry-home-desc">A picture depicting a house in the country with a garden and trees.</desc><path d="M21.9 14.35a2.55 2.55 0 01-2.55 2.55H17V22h-2v-5.1h-2.45a2.545 2.545 0 01-1.08-4.852 3.375 3.375 0 01-.62-1.948 1.7 1.7 0 011.7-1.7h.05a2.6 2.6 0 01-.049-.425A3.209 3.209 0 0115.95 5a3.209 3.209 0 013.4 2.975 2.6 2.6 0 01-.05.425h.049a1.7 1.7 0 011.7 1.7 3.375 3.375 0 01-.62 1.948A2.545 2.545 0 0121.9 14.35zM13 22v-3.1h-.45a4.54 4.54 0 01-3.52-7.42 5.359 5.359 0 01-.18-1.38 3.7 3.7 0 011.824-3.188A4.982 4.982 0 0112.9 3.9L11 2 7 6V5H5v3l-3 3h3v11z"/></svg>