<svg xmlns="http://www.w3.org/2000/svg" viewBox="0 0 24 24" width="512" height="512" aria-labelledby="decrane-desc decrane-title"><title id="decrane-title">Crane Icon</title><desc id="decrane-desc">A picture depicting a tower crane with a hook.</desc><path d="M6 9H2V7h4zm14.033 1h1v2h-1v.634a1.347 1.347 0 011 1.479 1.51 1.51 0 01-1.509 1.509A1.423 1.423 0 0118.033 14c.886 1.113 2 1 2 .113a.77.77 0 00-1-.85V12h-1v-2h1L19 6h-3v4h-2v8h2v2h2v2H6v-2h2v-2h2v-8H8V6H2V4h6V2h8v2h3.778L22 6h-2zM14 4h-3v3h3z"/></svg>