<svg xmlns="http://www.w3.org/2000/svg" viewBox="0 0 24 24" width="512" height="512" aria-labelledby="dgcredit-control-desc dgcredit-control-title"><title id="dgcredit-control-title">Credit Control Icon</title><desc id="dgcredit-control-desc">A picture depicting a credit card with an eye in the middle.</desc><path d="M12 14c-4.418 0-8 4-8 4s3.582 4 8 4 8-4 8-4-3.582-4-8-4zm0 6a2 2 0 112-2 2 2 0 01-2 2zM22 5H2V4a2 2 0 012-2h16a2 2 0 012 2zM2 15V7h20v8a1.985 1.985 0 01-.676 1.489C20.513 15.644 16.745 12 12 12s-8.513 3.644-9.324 4.489A1.985 1.985 0 012 15z"/></svg>