<svg xmlns="http://www.w3.org/2000/svg" viewBox="0 0 24 24" width="512" height="512" aria-labelledby="dfcredit-cards-desc dfcredit-cards-title"><title id="dfcredit-cards-title">Credit Cards Icon</title><desc id="dfcredit-cards-desc">A picture depicting a credit card.</desc><path d="M8 6a4 4 0 00-4 4v6a2 2 0 01-2-2V6a2 2 0 012-2h12a2 2 0 012 2zm-2 4h16a2 2 0 00-2-2H8a2 2 0 00-2 2zm0 2h16v6a2 2 0 01-2 2H8a2 2 0 01-2-2zm9 4.5a1.494 1.494 0 002.5 1.111 1.5 1.5 0 100-2.222A1.494 1.494 0 0015 16.5z"/></svg>