<svg xmlns="http://www.w3.org/2000/svg" viewBox="0 0 24 24" width="512" height="512" aria-labelledby="dicustom-filter-desc dicustom-filter-title"><title id="dicustom-filter-title">Custom Filter Icon</title><desc id="dicustom-filter-desc">An icon showing that custom filter is applied.</desc><path d="M12.138 21H8.2a1.171 1.171 0 01-1.152-1.188v-5.937L2.123 4.719A1.187 1.187 0 013.153 3h14.694a1.187 1.187 0 011.03 1.719l-3.763 7a2.2 2.2 0 00-.437.642h-.3a2.206 2.206 0 00-1.922 1.11l-.9 1.553-.058.109a2.246 2.246 0 00.212 2.366 2.185 2.185 0 00-.168 2.462zm9.775-2.319a.21.21 0 01.056.281l-.9 1.564a.226.226 0 01-.27.1l-1.113-.449a3.415 3.415 0 01-.754.438l-.18 1.193a.221.221 0 01-.225.191h-1.8a.228.228 0 01-.225-.191l-.169-1.193a3.233 3.233 0 01-.765-.438l-1.114.449a.236.236 0 01-.281-.1l-.9-1.564a.213.213 0 01.056-.281l.945-.742a5.864 5.864 0 01-.022-.439 2.709 2.709 0 01.045-.439l-.956-.742a.224.224 0 01-.057-.293l.9-1.552a.222.222 0 01.27-.1l1.125.45a3.581 3.581 0 01.754-.438l.169-1.193a.228.228 0 01.225-.193h1.8a.23.23 0 01.225.191l.169 1.193a3.348 3.348 0 01.753.438l1.125-.45a.217.217 0 01.27.1l.9 1.552a.225.225 0 01-.056.293l-.956.742A1.8 1.8 0 0121 17.5c0 .146-.011.293-.023.439zM19.236 17.5a1.609 1.609 0 10-1.609 1.609 1.609 1.609 0 001.609-1.609z"/></svg>