<svg xmlns="http://www.w3.org/2000/svg" viewBox="0 0 24 24"><path d="M11.54,19.96a2.185,2.185,0,0,1,.168-2.462,2.246,2.246,0,0,1-.212-2.366l.058-.109.9-1.553a2.206,2.206,0,0,1,1.922-1.11h.3a2.2,2.2,0,0,1,.437-.642l3.763-7A1.187,1.187,0,0,0,17.847,3H3.153a1.187,1.187,0,0,0-1.03,1.719l4.923,9.156v5.937A1.171,1.171,0,0,0,8.2,21h3.94Z"/><path d="M20.979,17.939c.012-.146.023-.293.023-.439a1.8,1.8,0,0,0-.045-.439l.956-.742a.225.225,0,0,0,.056-.293l-.9-1.552a.217.217,0,0,0-.27-.1l-1.125.45a3.348,3.348,0,0,0-.753-.438l-.169-1.193A.23.23,0,0,0,18.527,13h-1.8a.228.228,0,0,0-.225.191l-.169,1.193a3.581,3.581,0,0,0-.754.438l-1.125-.45a.222.222,0,0,0-.27.1l-.9,1.552a.224.224,0,0,0,.057.293l.956.742a2.709,2.709,0,0,0-.045.439c0,.146.011.293.022.439l-.945.742a.213.213,0,0,0-.056.281l.9,1.564a.236.236,0,0,0,.281.1l1.114-.449a3.233,3.233,0,0,0,.765.438l.169,1.193a.228.228,0,0,0,.225.191h1.8a.221.221,0,0,0,.225-.191l.18-1.193a3.415,3.415,0,0,0,.754-.438l1.113.449a.226.226,0,0,0,.27-.1l.9-1.564a.21.21,0,0,0-.056-.281Zm-3.352,1.17A1.609,1.609,0,1,1,19.236,17.5,1.609,1.609,0,0,1,17.627,19.109Z"/></svg>