<svg xmlns="http://www.w3.org/2000/svg" viewBox="0 0 24 24" width="512" height="512" aria-labelledby="djdeafness-desc djdeafness-title"><title id="djdeafness-title">Deafness Icon</title><desc id="djdeafness-desc">A picture depicting a crossed-out human ear.</desc><path d="M11.432 22a3.921 3.921 0 01-3.79-2.635l-.186-.57h1.738l.115.266a2.28 2.28 0 002.123 1.325 2.255 2.255 0 002.243-1.645 4.059 4.059 0 00-.15-1.369 4.012 4.012 0 01-.081-2.062 5.461 5.461 0 011.57-2.277 5.067 5.067 0 001.346-1.844 4.253 4.253 0 00.216-1.337 4.812 4.812 0 00-5-4.593 5.264 5.264 0 00-4.9 3.718 2.84 2.84 0 00-.077.642.845.845 0 11-1.69 0 5.112 5.112 0 01.065-.809 6.627 6.627 0 016.607-5.165 6.467 6.467 0 016.685 6.207 5.96 5.96 0 01-2.1 4.434l-.087.084a3.04 3.04 0 00-1.1 1.551 2.881 2.881 0 00.184 1.174 4.2 4.2 0 01.234 1.254 3.574 3.574 0 01-.918 2.325A4.093 4.093 0 0111.432 22zm0 0a3.921 3.921 0 01-3.79-2.635l-.186-.57h1.738l.115.266a2.28 2.28 0 002.123 1.325 2.255 2.255 0 002.243-1.645 4.059 4.059 0 00-.15-1.369 4.012 4.012 0 01-.081-2.062 5.461 5.461 0 011.57-2.277 5.067 5.067 0 001.346-1.844 4.253 4.253 0 00.216-1.337 4.812 4.812 0 00-5-4.593 5.264 5.264 0 00-4.9 3.718 2.84 2.84 0 00-.077.642.845.845 0 11-1.69 0 5.112 5.112 0 01.065-.809 6.627 6.627 0 016.607-5.165 6.467 6.467 0 016.685 6.207 5.96 5.96 0 01-2.1 4.434l-.087.084a3.04 3.04 0 00-1.1 1.551 2.881 2.881 0 00.184 1.174 4.2 4.2 0 01.234 1.254 3.574 3.574 0 01-.918 2.325A4.093 4.093 0 0111.432 22zm3.495-11.93a3.282 3.282 0 00-3.34-3.212 3.281 3.281 0 00-3.339 3.212.477.477 0 00.954 0 2.387 2.387 0 014.77 0 .478.478 0 00.955 0zM9 11.636l-6 5.776L4.966 19.3l6-5.776zm9.544-5.4l2.441-2.348L19.023 2l-2.235 2.149a6.355 6.355 0 011.76 2.09z"/></svg>