<svg xmlns="http://www.w3.org/2000/svg" viewBox="0 0 24 24" width="512" height="512" aria-labelledby="dkdebate-desc dkdebate-title"><title id="dkdebate-title">Debate Icon</title><desc id="dkdebate-desc">A picture depicting boxing gloves hitting each other.</desc><path d="M10.453 10.728c-.47-.413-1.986-.329-3.12-.2.575-.172 1.119-.5 1.119-1.111A.458.458 0 007.954 9l-1.42.019a1.023 1.023 0 00-.2.02l-2.034.37a.493.493 0 00-.414.425L3.8 14.268a.429.429 0 00.4.414L6.217 15c.066.012 3.137-.026 3.137-.026 2.646-.002 1.784-3.645 1.099-4.246zM10 13.751a.505.505 0 01-1 0v-1.728a.505.505 0 011 0zm-10-.427v-2.6a.86.86 0 01.859-.859h1.282a.86.86 0 01.859.858v2.6a.86.86 0 01-.859.859H.859A.86.86 0 010 13.324zm14.646 1.648s3.071.038 3.137.026l2.021-.316a.429.429 0 00.4-.414l-.089-4.434a.493.493 0 00-.414-.425l-2.034-.37a1.023 1.023 0 00-.2-.02L16.046 9a.458.458 0 00-.5.421c0 .615.544.939 1.119 1.111-1.134-.133-2.65-.217-3.12.2-.683.597-1.545 4.24 1.101 4.24zM14 12.023a.505.505 0 011 0v1.728a.505.505 0 01-1 0zm7 1.3v-2.6a.86.86 0 01.859-.859h1.282a.86.86 0 01.859.859v2.6a.86.86 0 01-.859.859h-1.282a.86.86 0 01-.859-.858zM12 7a.5.5 0 01-.5-.5v-3A.5.5 0 0112 3a.5.5 0 01.5.5v3a.5.5 0 01-.5.5zm3 0a.5.5 0 01-.183-.683l.866-1.5a.5.5 0 01.683-.183.5.5 0 01.183.683l-.866 1.5A.5.5 0 0115 7zM9 7a.5.5 0 01-.683-.183l-.866-1.5a.5.5 0 01.183-.683.5.5 0 01.683.183l.866 1.5A.5.5 0 019 7zm4 10.5v3a.5.5 0 01-.5.5.5.5 0 01-.5-.5v-3a.5.5 0 01.5-.5.5.5 0 01.5.5zm3.183-.317l.741 1.284a.5.5 0 01-.183.683.5.5 0 01-.683-.183l-.741-1.284A.5.5 0 0115.5 17a.5.5 0 01.683.183zm-6.5.5l-.741 1.284a.5.5 0 01-.683.183.5.5 0 01-.183-.683l.741-1.284A.5.5 0 019.5 17a.5.5 0 01.183.683z"/></svg>