<svg xmlns="http://www.w3.org/2000/svg" viewBox="0 0 24 24"><path d="M10.453,10.728c-.47-.413-1.986-.329-3.12-.2.575-.172,1.119-.5,1.119-1.111A.458.458,0,0,0,7.954,9l-1.42.019a1.023,1.023,0,0,0-.2.02L4.3,9.409a.493.493,0,0,0-.414.425L3.8,14.268a.429.429,0,0,0,.4.414L6.217,15c.066.012,3.137-.026,3.137-.026C12,14.972,11.138,11.329,10.453,10.728ZM10,13.751a.505.505,0,0,1-1,0V12.023a.505.505,0,0,1,1,0ZM0,13.324v-2.6a.86.86,0,0,1,.859-.859H2.141A.86.86,0,0,1,3,10.723v2.6a.86.86,0,0,1-.859.859H.859A.86.86,0,0,1,0,13.324Zm14.646,1.648s3.071.038,3.137.026l2.021-.316a.429.429,0,0,0,.4-.414l-.089-4.434a.493.493,0,0,0-.414-.425l-2.034-.37a1.023,1.023,0,0,0-.2-.02L16.046,9a.458.458,0,0,0-.5.421c0,.615.544.939,1.119,1.111-1.134-.133-2.65-.217-3.12.2C12.862,11.329,12,14.972,14.646,14.972ZM14,12.023a.505.505,0,0,1,1,0v1.728a.505.505,0,0,1-1,0Zm7,1.3v-2.6a.86.86,0,0,1,.859-.859h1.282a.86.86,0,0,1,.859.859v2.6a.86.86,0,0,1-.859.859H21.859A.86.86,0,0,1,21,13.324ZM12,7h0a.5.5,0,0,1-.5-.5v-3A.5.5,0,0,1,12,3h0a.5.5,0,0,1,.5.5v3A.5.5,0,0,1,12,7Zm3,0h0a.5.5,0,0,1-.183-.683l.866-1.5a.5.5,0,0,1,.683-.183h0a.5.5,0,0,1,.183.683l-.866,1.5A.5.5,0,0,1,15,7ZM9,7H9a.5.5,0,0,1-.683-.183l-.866-1.5a.5.5,0,0,1,.183-.683h0a.5.5,0,0,1,.683.183l.866,1.5A.5.5,0,0,1,9,7Zm4,10.5v3a.5.5,0,0,1-.5.5h0a.5.5,0,0,1-.5-.5v-3a.5.5,0,0,1,.5-.5h0A.5.5,0,0,1,13,17.5Zm3.183-.317.741,1.284a.5.5,0,0,1-.183.683h0a.5.5,0,0,1-.683-.183l-.741-1.284A.5.5,0,0,1,15.5,17h0A.5.5,0,0,1,16.183,17.183Zm-6.5.5-.741,1.284a.5.5,0,0,1-.683.183h0a.5.5,0,0,1-.183-.683l.741-1.284A.5.5,0,0,1,9.5,17h0A.5.5,0,0,1,9.683,17.683Z"/></svg>