<svg xmlns="http://www.w3.org/2000/svg" viewBox="0 0 24 24" width="512" height="512" aria-labelledby="dodental-implant-desc dodental-implant-title"><title id="dodental-implant-title">Dental Implant Icon</title><desc id="dodental-implant-desc">A picture depicting a tooth crown on a spiral.</desc><path d="M15.256 18H8.744a22.028 22.028 0 01-.348-2H15.6c-.094.727-.21 1.429-.344 2zm-5.719 2A4.307 4.307 0 0011 21.826a2.966 2.966 0 002 0A4.894 4.894 0 0014.449 20zM15.65 2C14 2 14 2.991 12 2.991S10 2 8.35 2C2 2 6 12 8 11.913c0 0 .057.91.17 2.087H10V9a1 1 0 011-1h2a1 1 0 011 1v5h1.83c.113-1.177.17-2.087.17-2.087C18 12 22 2 15.65 2z"/></svg>