<svg xmlns="http://www.w3.org/2000/svg" viewBox="0 0 24 24" width="512" height="512" aria-labelledby="dndental-floss-desc dndental-floss-title"><title id="dndental-floss-title">Dental Floss Icon</title><desc id="dndental-floss-desc">A picture  depicting a dental floss container.</desc><path d="M22 4v1H8V4a2 2 0 012-2h10a2 2 0 012 2zm0 3v13a2 2 0 01-2 2H10a2 2 0 01-2-2V9H7a1 1 0 00-1 1v10a2 2 0 01-2 2H2v-2h1a1 1 0 001-1V9a2 2 0 012-2h16zm-3 6.05c0-1.316-.387-2.383-1.733-2.383-.55 0-1.3.48-2.167.48s-1.617-.48-2.167-.48c-1.346 0-1.733 1.067-1.733 2.383a2.355 2.355 0 00.867 1.821V16.3c0 1.212.866 3.033 1.3 3.033 1.3 0 .866-2.6 1.733-2.6s.433 2.6 1.733 2.6c.434 0 1.3-1.821 1.3-3.033v-1.429A2.355 2.355 0 0019 13.05z"/></svg>