<svg xmlns="http://www.w3.org/2000/svg" viewBox="0 0 24 24" width="512" height="512" aria-labelledby="dpdevelopment-desc dpdevelopment-title"><title id="dpdevelopment-title">Development Icon</title><desc id="dpdevelopment-desc">A picture depicting puzzle pieces.</desc><path d="M2 4V2h8v2H9a2 2 0 000 4h1v2H8v1a2 2 0 01-4 0v-1H2V8h1a2 2 0 000-4zm0 0V2h8v2H9a2 2 0 000 4h1v2H8v1a2 2 0 01-4 0v-1H2V8h1a2 2 0 000-4zm9 12h-1v-2H8v1a2 2 0 01-4 0v-1H2v8h8v-2h1a2 2 0 000-4zm3-14v2h-1a2 2 0 000 4h1v2h2V9a2 2 0 014 0v1h2V2zm8 18v2h-8v-2h1a2 2 0 000-4h-1v-2h2v-1a2 2 0 014 0v1h2v2h-1a2 2 0 000 4z"/></svg>