<svg xmlns="http://www.w3.org/2000/svg" viewBox="0 0 24 24" width="512" height="512" aria-labelledby="dqdiabetes-desc dqdiabetes-title"><title id="dqdiabetes-title">Diabetes Icon</title><desc id="dqdiabetes-desc">A picture depicting an index finger with a blood drop at the tip.</desc><path d="M9 5.4V3a1.913 1.913 0 011.917-2H11a2 2 0 012 2v2.4c-.124-.191-.24-.379-.387-.58L11 2.618l-1.613 2.2c-.147.201-.263.389-.387.582zm10.888 8.665L14.339 12.3a1.733 1.733 0 00-.66-.134H13v-1.937a3.01 3.01 0 01-4 0v6.714c-4.311-.91-4.244-.9-4.4-.9a1.367 1.367 0 00-.966.4l-.965.977L8.7 23.462A1.841 1.841 0 0010 24h8.3a1.78 1.78 0 001.76-1.564l.917-6.442A1.86 1.86 0 0021 15.75a1.831 1.831 0 00-1.112-1.687zm-7.473-4.643A2.015 2.015 0 0013 8.006a5.512 5.512 0 00-1.193-2.6L11 4.309l-.807 1.1A5.512 5.512 0 009 8.006a2.015 2.015 0 00.584 1.415 2.049 2.049 0 002.831 0z"/></svg>