<svg xmlns="http://www.w3.org/2000/svg" viewBox="0 0 24 24" width="512" height="512" aria-labelledby="dtdiners-club-desc dtdiners-club-title"><title id="dtdiners-club-title">Diners Club Icon</title><desc id="dtdiners-club-desc">A picture showing the Diners Club International logo.</desc><path d="M20 4H4a2 2 0 00-2 2v12a2 2 0 002 2h16a2 2 0 002-2V6a2 2 0 00-2-2zM7.5 15.5A3.5 3.5 0 1111 12a3.5 3.5 0 01-3.5 3.5zm9.031 0h-4.375a4.64 4.64 0 000-7h4.375a3.5 3.5 0 010 7zM7 9.906v4.188a2.152 2.152 0 010-4.188zM9.656 12A2.147 2.147 0 018 14.094V9.906A2.147 2.147 0 019.656 12z"/></svg>