<svg xmlns="http://www.w3.org/2000/svg" viewBox="0 0 24 24" width="512" height="512" aria-labelledby="dvdiscount-desc dvdiscount-title"><title id="dvdiscount-title">Discount Icon</title><desc id="dvdiscount-desc">A picture showing a percent sign enclosed in a star-shaped object.</desc><path d="M21.511 8.91L18.472 7.3l-.594-3.39-3.406.482L12 2 9.528 4.392 6.122 3.91 5.528 7.3 2.489 8.91 4 12l-1.511 3.09 3.039 1.61.594 3.388 3.406-.482L12 22l2.472-2.392 3.406.482.594-3.388 3.039-1.612L20 12zM7 9a2 2 0 112 2 2 2 0 01-2-2zm2.6 7.449l-1.2-.9 6-8 1.2.9zM15 17a2 2 0 112-2 2 2 0 01-2 2zm-6-7a1 1 0 111-1 1 1 0 01-1 1zm7 5a1 1 0 11-1-1 1 1 0 011 1z"/></svg>