<svg xmlns="http://www.w3.org/2000/svg" viewBox="0 0 24 24" width="512" height="512" aria-labelledby="dudiscord-desc dudiscord-title"><title id="dudiscord-title">Discord Icon</title><desc id="dudiscord-desc">A picture showing the Discord application logo.</desc><path d="M11.1 12.762a1.275 1.275 0 01-1.21 1.321 1.326 1.326 0 010-2.643 1.268 1.268 0 011.21 1.322zm3.01-1.322a1.326 1.326 0 101.214 1.322 1.268 1.268 0 00-1.214-1.322zM21 5v14a2 2 0 01-2 2H5a2 2 0 01-2-2V5a2 2 0 012-2h14a2 2 0 012 2zm-2.057 10.19a15.943 15.943 0 00-1.714-6.94A5.883 5.883 0 0013.884 7l-.167.191c2.811.97 3.189 1.287 2.964 1.511A11.271 11.271 0 0012 7.505c-2.843 0-4.539 1.339-4.681 1.2-.225-.224.153-.541 2.964-1.511L10.116 7a5.883 5.883 0 00-3.345 1.25 15.943 15.943 0 00-1.714 6.94A4.351 4.351 0 008.7 17s.428-.512.785-.964a6.519 6.519 0 01-1.9-.8c-.27-.2-.321-.361-.183-.559.078-.112.252-.166.494.022a7.856 7.856 0 008.214 0c.242-.188.416-.134.494-.022.138.2.087.361-.183.559a6.519 6.519 0 01-1.9.8c.357.452.785.964.785.964a4.351 4.351 0 003.637-1.81z"/></svg>