<svg xmlns="http://www.w3.org/2000/svg" viewBox="0 0 24 24" width="512" height="512" aria-labelledby="dwdividents-desc dwdividents-title"><title id="dwdividents-title">Dividents Icon</title><desc id="dwdividents-desc">A picture showing a percent sign encircled in rotating arrows.</desc><path d="M6 8a2 2 0 112 2 2 2 0 01-2-2zm10 10a2 2 0 112-2 2 2 0 01-2 2zm5.475-1.524A10.487 10.487 0 0113 22.445v1.5A11.994 11.994 0 0024 12l-.03-.66-3.81 3.81zM0 12l.03.66 3.81-3.81-1.33-1.33a10.47 10.47 0 018.48-5.96V.055A11.977 11.977 0 000 12zm20.061-5.939l-2.122-2.122-14 14 2.122 2.122z"/></svg>