<svg xmlns="http://www.w3.org/2000/svg" viewBox="0 0 24 24" width="512" height="512" aria-labelledby="dxdna-desc dxdna-title"><title id="dxdna-title">DNA Icon</title><desc id="dxdna-desc">A picture depicting a spiral.</desc><path d="M15.749 10.82a82.94 82.94 0 00-1.864-1.124c.313-.216.635-.449.956-.7h-2.115a27.407 27.407 0 01-2.07-1.366c-.274-.2-.544-.416-.81-.634h7.208a8.986 8.986 0 001.423-2H7.9c-.32-.542-1.12-2-.9-2h14c0 3.258-2.842 6.044-5.251 7.824zM21 21c0-4.1-4.517-7.465-6.989-9L12 10.869C9.692 9.6 5 6.329 5 3H3c0 4.1 4.517 7.465 6.989 9C7.517 13.535 3 16.9 3 21h2c0-3.329 4.692-6.6 7-7.869A23.28 23.28 0 0114.841 15h-2.115c-.709.432-1.409.876-2.07 1.366-.274.2-.544.416-.81.634h7.206a8.981 8.981 0 011.422 2H7.9c-.32.542-1.12 2-.9 2h14z"/></svg>