<svg xmlns="http://www.w3.org/2000/svg" viewBox="0 0 24 24" width="512" height="512" aria-labelledby="dydoctor-desc dydoctor-title"><title id="dydoctor-title">Doctor Icon</title><desc id="dydoctor-desc">A picture depicting a person with stethoscope around their neck.</desc><path d="M7 6a5 5 0 115 5 5 5 0 01-5-5zM3 17h3v-5.887c-4 .869-4.031 6.877-4 6.853a7.4 7.4 0 001 1.506zm2 4.17a12.3 12.3 0 004 1.521V19H5zm13-10.057v3.164a2 2 0 11-2 0V11.8L12 15l-4-3.2V17h3v5.962c.35.024.688.038 1 .038 2.98 0 8-1 10-5.034.031.024 0-5.984-4-6.853zM17 17a1 1 0 10-1-1 1 1 0 001 1z"/></svg>