<svg xmlns="http://www.w3.org/2000/svg" viewBox="0 0 24 24" width="512" height="512" aria-labelledby="dzdoctors-bag-desc dzdoctors-bag-title"><title id="dzdoctors-bag-title">Doctors Bag Icon</title><desc id="dzdoctors-bag-desc">A picture depicting a bag with a cross in the middle.</desc><path d="M20 7h-4V5a1.993 1.993 0 00-2-2h-4a1.993 1.993 0 00-2 2v2H4a1.985 1.985 0 00-1.99 2L2 19a1.993 1.993 0 002 2h16a1.993 1.993 0 002-2V9a1.993 1.993 0 00-2-2zM10 5h4v2h-4zm6 10h-3v3h-2v-3H8v-2h3v-3h2v3h3z"/></svg>