<svg xmlns="http://www.w3.org/2000/svg" viewBox="0 0 24 24" width="512" height="512" aria-labelledby="eadoes-not-contain-desc eadoes-not-contain-title"><title id="eadoes-not-contain-title">Does-Not-Contain Icon</title><desc id="eadoes-not-contain-desc">A picture showing the lowercase letter A in a crossed-out square box.</desc><path d="M21 19.74V3H4.26L2.89 1.63 1.63 2.92 3 4.29V21h16.73l1.37 1.37 1.27-1.26zM5 19V6.28l5.28 5.27a3.19 3.19 0 00-.81.38 2.07 2.07 0 00-.9 1.78 2.29 2.29 0 00.66 1.74 2.63 2.63 0 001.89.63 2.39 2.39 0 001.32-.37 3.05 3.05 0 001-.93 3.72 3.72 0 00.08.57c0 .19.1.38.16.58h1L17.73 19zm5.79-6.23a1.31 1.31 0 01.45-.25l1.37 1.36.28.29a1.57 1.57 0 01-.19.15 2.27 2.27 0 01-1.21.34 1.18 1.18 0 01-.84-.27.92.92 0 01-.3-.72 1.16 1.16 0 01.44-.9zm2.6-1.47h-.83l-1.62-1.62.08-.1a1.5 1.5 0 011-.29 1.45 1.45 0 011 .35 1.3 1.3 0 01.37 1zM19 17.74l-3.85-3.85v-3.27a2.44 2.44 0 00-.84-2 3.34 3.34 0 00-2.22-.7 3.64 3.64 0 00-2.24.67L6.26 5H19z"/></svg>