<svg xmlns="http://www.w3.org/2000/svg" viewBox="0 0 24 24">
        <path d="M21,19.74V3H4.26L2.89,1.63,1.63,2.92,3,4.29V21H19.73l1.37,1.37,1.27-1.26ZM5,19V6.28l5.28,5.27a3.19,3.19,0,0,0-.81.38,2.07,2.07,0,0,0-.9,1.78,2.29,2.29,0,0,0,.66,1.74,2.63,2.63,0,0,0,1.89.63,2.39,2.39,0,0,0,1.32-.37,3.05,3.05,0,0,0,1-.93,3.72,3.72,0,0,0,.08.57c0,.19.1.38.16.58h1L17.73,19Zm5.79-6.23a1.31,1.31,0,0,1,.45-.25l1.37,1.36.28.29a1.57,1.57,0,0,1-.19.15,2.27,2.27,0,0,1-1.21.34,1.18,1.18,0,0,1-.84-.27.92.92,0,0,1-.3-.72A1.16,1.16,0,0,1,10.79,12.77Zm2.6-1.47h-.83L10.94,9.68l.08-.1a1.5,1.5,0,0,1,1-.29,1.45,1.45,0,0,1,1,.35,1.3,1.3,0,0,1,.37,1ZM19,17.74l-3.85-3.85V10.62a2.44,2.44,0,0,0-.84-2,3.34,3.34,0,0,0-2.22-.7,3.64,3.64,0,0,0-2.24.67L6.26,5H19Z"/>
    </svg>