<svg xmlns="http://www.w3.org/2000/svg" viewBox="0 0 24 24" width="512" height="512" aria-labelledby="eddollar-circled-desc eddollar-circled-title"><title id="eddollar-circled-title">Dollar Circled Icon</title><desc id="eddollar-circled-desc">A picture showing an encircled dollar symbol.</desc><path d="M12 2a10 10 0 1010 10A10 10 0 0012 2zm1 14.568V18h-2v-1.448A2.739 2.739 0 018.6 14h1.471c.075.787.615 1.4 1.987 1.4 1.47 0 1.8-.735 1.8-1.193 0-.622-.33-1.207-2-1.605-1.86-.45-3.135-1.215-3.135-2.752A2.546 2.546 0 0111 7.448V6h2v1.462a2.709 2.709 0 012.2 2.543h-1.47c-.037-.833-.48-1.4-1.665-1.4-1.125 0-1.8.51-1.8 1.23 0 .63.487 1.043 2 1.433S15.4 12.307 15.4 14.2c-.01 1.37-1.095 2.12-2.4 2.368z"/></svg>