<svg xmlns="http://www.w3.org/2000/svg" viewBox="0 0 24 24" width="512" height="512" aria-labelledby="eedose-desc eedose-title"><title id="eedose-title">Dose Icon</title><desc id="eedose-desc">A picture showing a medicine dropper.</desc><path d="M17.612 8.549l-.729-.707L19.4 5.41a1.954 1.954 0 000-2.825 2.113 2.113 0 00-2.919 0l-2.517 2.432-.729-.706a1.056 1.056 0 00-1.459 0 .977.977 0 000 1.413l.729.706-5.956 5.77c-.658.637-1.387 2.895-.729 3.531s2.99-.069 3.647-.706l5.957-5.765.729.706a1.056 1.056 0 001.459 0 .976.976 0 000-1.417zm-8.145 5.059c-.4.39-1.785 1.1-2.188.706s.326-1.729.729-2.119L9.2 11h2.918zM5.838 16.9S4 19.032 4 20.221A1.805 1.805 0 005.838 22a1.8 1.8 0 001.838-1.779c0-1.189-1.838-3.321-1.838-3.321z"/></svg>