<svg xmlns="http://www.w3.org/2000/svg" viewBox="0 0 24 24" width="512" height="512" aria-labelledby="efdribbble-desc efdribbble-title"><title id="efdribbble-title">Dribbble Icon</title><desc id="efdribbble-desc">A picture showing the Dribble website logo.</desc><path d="M19 3H5a2 2 0 00-2 2v14a2 2 0 002 2h14a2 2 0 002-2V5a2 2 0 00-2-2zm-1.89 11.5a13.51 13.51 0 01-1.53 2.5 3.14 3.14 0 01-.51.52 1.64 1.64 0 01-2.08.17 6.62 6.62 0 01-.69-.54 11.34 11.34 0 01-.81.9 2.23 2.23 0 01-2.66.39 3.36 3.36 0 01-1.94-2.65 4 4 0 01.36-2.48 2.4 2.4 0 011.57-1.38 2.86 2.86 0 011.73.13c0-.34-.08-.68-.11-1a11.14 11.14 0 01.37-4.26 3 3 0 01.48-1 1.27 1.27 0 011.8-.26 2.69 2.69 0 011 1.46 6.38 6.38 0 01.24 2 18.34 18.34 0 01-1.39 6.82.27.27 0 000 .2 3.23 3.23 0 00.33.49c.14.17.24.17.43.06A4.08 4.08 0 0015.27 15c.21-.37.6-1.11.6-1.11a.71.71 0 01.61-.38.69.69 0 01.69.69.58.58 0 01-.06.3zM13 8.11a17.83 17.83 0 01-.43 4.18c-.1.51-.23 1-.35 1.52h-.06c-.07-.38-.15-.76-.2-1.14a21 21 0 01-.19-3.06 7.84 7.84 0 01.23-2.1 1.93 1.93 0 01.37-.76c.18-.19.29-.17.39.06a3.63 3.63 0 01.24 1.3zm-1.53 7.46a.26.26 0 010 .15c-.22.36-.42.73-.67 1.06a1.4 1.4 0 01-1.22.51 4 4 0 01-.5-.06.92.92 0 01-.68-.57 3 3 0 010-2.5 2.52 2.52 0 01.46-.66 1.38 1.38 0 012 0 .61.61 0 01.09.18z"/></svg>