<svg xmlns="http://www.w3.org/2000/svg" viewBox="0 0 24 24" width="512" height="512" aria-labelledby="eidump-truck-desc eidump-truck-title"><title id="eidump-truck-title">Dump Truck Icon</title><desc id="eidump-truck-desc">A picture showing a dump truck.</desc><path d="M18 14a2.986 2.986 0 00-2.388 1.2L13 16l-3-3V6l1 1v5l2 2 11-2-2-6H12l-2-2H4v1h2l-2 6H2l-1 4H0v3h2.184a2.982 2.982 0 005.632 0h7.368A2.995 2.995 0 1018 14zM5 18a1 1 0 111-1 1 1 0 01-1 1zm1-8l1-3h2v3zm12 8a1 1 0 111-1 1 1 0 01-1 1z"/></svg>