<svg xmlns="http://www.w3.org/2000/svg" viewBox="0 0 24 24"><path d="M7.03,7.828v4.064A2.2,2.2,0,0,0,4.589,9.914,2.325,2.325,0,0,0,2,12.437a2.263,2.263,0,0,0,2.526,2.346c1.959,0,2.314-1.088,2.376-1.391H5.84a1.263,1.263,0,0,1-1.313.717,1.494,1.494,0,0,1-1.5-1.415H7.03V14.78h.978v-.629a2.345,2.345,0,0,0,1.838.629A2.264,2.264,0,0,0,12.179,13a2.881,2.881,0,0,0,.085-.652,2.3,2.3,0,0,0-2.4-2.435,2.28,2.28,0,0,0-1.857.89V7.828ZM12.179,13c-.205,1.365.988,1.786,1.92,1.779a2.234,2.234,0,0,0,1.92-.8v.8h1.023V11.759c-.029-.515-.1-1.754-2.275-1.845,0,0-2.079-.2-2.294,1.389h1.062s.088-.714,1.17-.7A1.258,1.258,0,0,1,16.019,12s-1,0-1.294,0C14.2,12,12.453,11.935,12.179,13Zm4.17-3.087,2.314,4.5-.9,1.76h1.125L22,9.914H20.937l-1.711,3.478L17.515,9.914Zm-11.783.694A1.381,1.381,0,0,1,6.006,12H3.024A1.509,1.509,0,0,1,4.566,10.608Zm5.071,0c1.62-.042,1.565,1.741,1.565,1.741s.026,1.714-1.565,1.737-1.564-1.76-1.564-1.76A1.613,1.613,0,0,1,9.637,10.608Zm4.879,2.086c.147-.006.251,0,.251,0h1.148s.185,1.46-1.627,1.434c0,0-1.026,0-1.085-.824C13.2,12.841,14.08,12.72,14.516,12.694Z"/></svg>