<svg xmlns="http://www.w3.org/2000/svg" viewBox="0 0 24 24" width="512" height="512" aria-labelledby="ejebay-desc ejebay-title"><title id="ejebay-title">Ebay Icon</title><desc id="ejebay-desc">A picture showing the ebay website logo.</desc><path d="M7.03 7.828v4.064a2.2 2.2 0 00-2.441-1.978A2.325 2.325 0 002 12.437a2.263 2.263 0 002.526 2.346c1.959 0 2.314-1.088 2.376-1.391H5.84a1.263 1.263 0 01-1.313.717 1.494 1.494 0 01-1.5-1.415H7.03v2.086h.978v-.629a2.345 2.345 0 001.838.629A2.264 2.264 0 0012.179 13a2.881 2.881 0 00.085-.652 2.3 2.3 0 00-2.4-2.435 2.28 2.28 0 00-1.857.89V7.828zM12.179 13c-.205 1.365.988 1.786 1.92 1.779a2.234 2.234 0 001.92-.8v.8h1.023v-3.02c-.029-.515-.1-1.754-2.275-1.845 0 0-2.079-.2-2.294 1.389h1.062s.088-.714 1.17-.7A1.258 1.258 0 0116.019 12h-1.294c-.525 0-2.272-.065-2.546 1zm4.17-3.087l2.314 4.5-.9 1.76h1.125L22 9.914h-1.063l-1.711 3.478-1.711-3.478zm-11.783.694A1.381 1.381 0 016.006 12H3.024a1.509 1.509 0 011.542-1.392zm5.071 0c1.62-.042 1.565 1.741 1.565 1.741s.026 1.714-1.565 1.737-1.564-1.76-1.564-1.76a1.613 1.613 0 011.564-1.717zm4.879 2.086c.147-.006.251 0 .251 0h1.148s.185 1.46-1.627 1.434c0 0-1.026 0-1.085-.824-.003-.462.877-.583 1.313-.609z"/></svg>