<svg xmlns="http://www.w3.org/2000/svg" viewBox="0 0 24 24"><path d="M10.444,16v2a.223.223,0,0,1-.222.222H9.778V15.778h.444A.223.223,0,0,1,10.444,16Zm3.334-.222H12.556l.2-1.034a.223.223,0,0,0-.018-.146,1.062,1.062,0,0,0-.2-.271l-.1-.105L11.02,15.647a.445.445,0,0,0-.131.315V17.7a.52.52,0,0,0,.52.518h1.8a.447.447,0,0,0,.382-.215l.591-1.367a.434.434,0,0,0,.038-.178v-.24A.446.446,0,0,0,13.778,15.778ZM19,12,18,22H6L5,12H6.444C7.392,8.806,8.667,6.444,12,6.444S16.609,8.8,17.556,12ZM8.667,12H9.778V9.778Zm6.666,4.444A3.333,3.333,0,1,0,12,19.778,3.333,3.333,0,0,0,15.333,16.444Zm0-4.444L14.222,9.778V12ZM12,6.444A2.222,2.222,0,1,0,9.778,4.222,2.222,2.222,0,0,0,12,6.444Z"/></svg>