<svg xmlns="http://www.w3.org/2000/svg" viewBox="0 0 24 24" width="512" height="512" aria-labelledby="elembryo-desc elembryo-title"><title id="elembryo-title">Embryo Icon</title><desc id="elembryo-desc">A picture depicting a baby in its mother's womb.</desc><path d="M17.527 3.669c-1-.669-2.037.989-1.2 1.824a25.105 25.105 0 011.836 1.974 3.381 3.381 0 01.484 2.85 4.167 4.167 0 01-1.75 2.1c-.535.362-1.035-.5-.5-.863a2.591 2.591 0 001.376-2.379A3.385 3.385 0 0016.045 6.7a2.36 2.36 0 01-1.229-2.813c.273-.441.426-1.118.148-1.435C14.5 1.916 13.032 2 12 2a10.006 10.006 0 105.527 1.669zM18 16.436c-.412.564-2.032-.188-2.032-.188-.3 1.861-3.09 2.8-4.468 2.752A4.555 4.555 0 017 14.5a8.766 8.766 0 01.417-2.961 2.994 2.994 0 113.273-.062 3.438 3.438 0 00.288 1.3 4.167 4.167 0 001.967-1.237c.18-.209.408-.366.66-.253a.83.83 0 01.395.84 3.069 3.069 0 01-2.093 1.859 4.868 4.868 0 001.674.882l.233-.475a.981.981 0 01.729-.526.593.593 0 01.111-.015.882.882 0 01.178 0 .558.558 0 01.078.02.959.959 0 01.243.064l.729.358 1.76.746c.458.311.924.62.358 1.396z"/></svg>