<svg xmlns="http://www.w3.org/2000/svg" viewBox="0 0 24 24"><path d="M3 14.5h2v2H3zM11 14.5h2v2h-2zM7 14.5h2v2H7zM20.8 14.8v-3A2.1 2.1 0 0 0 20 10a3 3 0 0 0-2-.6 3 3 0 0 0-2 .6 1.7 1.7 0 0 0-.7 1.5h1.5a.8.8 0 0 1 .3-.7 1.3 1.3 0 0 1 .9-.3 1.3 1.3 0 0 1 .9.4 1.1 1.1 0 0 1 .3.8v.6H18a3.8 3.8 0 0 0-2.2.6 1.8 1.8 0 0 0-.8 1.5 2 2 0 0 0 .6 1.6 2.3 2.3 0 0 0 1.6.6 2.1 2.1 0 0 0 1.2-.4 2.8 2.8 0 0 0 .8-.8 4.3 4.3 0 0 0 .1.5l.1.5H21a4.1 4.1 0 0 1-.2-.7 5.4 5.4 0 0 1 0-1zm-1.6-.5a1.5 1.5 0 0 1-.6.7 2 2 0 0 1-1 .2 1.1 1.1 0 0 1-.8-.2.8.8 0 0 1-.2-.6 1 1 0 0 1 .3-.8 1.5 1.5 0 0 1 1.1-.3h1.2z"/></svg>