<svg xmlns="http://www.w3.org/2000/svg" viewBox="0 0 24 24" width="512" height="512" aria-labelledby="enends-with-desc enends-with-title"><title id="enends-with-title">Ends With Icon</title><desc id="enends-with-desc">A picture showing three dots followed by lowercase a.</desc><path d="M3 14.5h2v2H3zm8 0h2v2h-2zm-4 0h2v2H7zm13.8.3v-3A2.1 2.1 0 0020 10a3 3 0 00-2-.6 3 3 0 00-2 .6 1.7 1.7 0 00-.7 1.5h1.5a.8.8 0 01.3-.7 1.3 1.3 0 01.9-.3 1.3 1.3 0 01.9.4 1.1 1.1 0 01.3.8v.6H18a3.8 3.8 0 00-2.2.6 1.8 1.8 0 00-.8 1.5 2 2 0 00.6 1.6 2.3 2.3 0 001.6.6 2.1 2.1 0 001.2-.4 2.8 2.8 0 00.8-.8 4.3 4.3 0 00.1.5l.1.5H21a4.1 4.1 0 01-.2-.7 5.4 5.4 0 010-1zm-1.6-.5a1.5 1.5 0 01-.6.7 2 2 0 01-1 .2 1.1 1.1 0 01-.8-.2.8.8 0 01-.2-.6 1 1 0 01.3-.8 1.5 1.5 0 011.1-.3h1.2z"/></svg>