<svg xmlns="http://www.w3.org/2000/svg" viewBox="0 0 24 24" width="512" height="512" aria-labelledby="ereu-parliament-desc ereu-parliament-title"><title id="ereu-parliament-title">EU Parliament Icon</title><desc id="ereu-parliament-desc">A picture depicting the European Parliament building.</desc><path d="M4 19v2.152a17.708 17.708 0 01-2-.6V19zm-2-4.515V18h2v-3.886c-.737.115-1.407.24-2 .371zm0-9.776v4.4A16.708 16.708 0 014 8.1V3.589a12.655 12.655 0 00-2 1.12zm0 5.566v3.168a32.413 32.413 0 012-.342V9.178a15.05 15.05 0 00-2 1.097zm20 10.28V19h-2v2.152a17.708 17.708 0 002-.597zM22 18v-3.886c-.616-.1-1.286-.183-2-.261V18zm0-8.892v-3.4a12.655 12.655 0 00-2-1.12v3.5a16.723 16.723 0 012 1.02zm0 3.992v-2.824a15.127 15.127 0 00-2-1.1v3.678a39.88 39.88 0 012 .246zM10.156 2.078c-.053 0-.1.011-.156.015V6.6a21.34 21.34 0 012-.1V3zM14 3v3.5c.674 0 1.341.039 2 .1V2.093c-.052 0-.1-.011-.156-.015zM5 19v2.367c.925.183 1.936.326 3 .432V19zm0-5.027V18h3v-4.321c-1.082.079-2.1.176-3 .294zm0-5.211v4.2c.987-.12 2-.213 3-.283V7.91a18.844 18.844 0 00-3 .852zm0-5.576v4.519A19.855 19.855 0 018 6.9V2.379a18.463 18.463 0 00-3 .807zM9 19v2.882A40.75 40.75 0 0012 22c.34 0 .667-.015 1-.023V19zm0-5.387V18h4v-4.5c-1.442 0-2.766.044-4 .113zM12 7.5a20.306 20.306 0 00-3 .24v4.879a71.74 71.74 0 014-.119V7.545c-.333-.016-.663-.045-1-.045zM14 19v2.95a37.627 37.627 0 003-.265V19zm5 2.367V19h-1v2.543c.341-.055.677-.112 1-.176zm-5-7.856V18h3v-4.387a71.538 71.538 0 00-3-.102zM19 18v-4.247a62.045 62.045 0 00-1-.079V18zM14 7.6v4.908c.924.015 1.945.052 3 .111V8.136a19.955 19.955 0 00-3-.536zm5 5.157v-4a17.812 17.812 0 00-1-.343v4.268c.332.026.665.049 1 .078zm-1-8.571v3.192c.338.1.673.206 1 .325V3.856c-.341.103-.677.211-1 .33z"/></svg>