<svg xmlns="http://www.w3.org/2000/svg" viewBox="0 0 24 24"><path d="M4,19v2.152a17.708,17.708,0,0,1-2-.6V19ZM2,14.485V18H4V14.114C3.263,14.229,2.593,14.354,2,14.485ZM2,4.709v4.4A16.708,16.708,0,0,1,4,8.1V3.589A12.655,12.655,0,0,0,2,4.709Zm0,5.566v3.168c.629-.132,1.307-.242,2-.342V9.178A15.05,15.05,0,0,0,2,10.275Zm20,10.28V19H20v2.152A17.708,17.708,0,0,0,22,20.555ZM22,18V14.114c-.616-.1-1.286-.183-2-.261V18Zm0-8.892v-3.4a12.655,12.655,0,0,0-2-1.12v3.5A16.723,16.723,0,0,1,22,9.108ZM22,13.1V10.276a15.127,15.127,0,0,0-2-1.1v3.678C20.677,12.923,21.349,13,22,13.1ZM10.156,2.078c-.053,0-.1.011-.156.015V6.6c.659-.062,1.326-.1,2-.1V3ZM14,3V6.5c.674,0,1.341.039,2,.1V2.093c-.052,0-.1-.011-.156-.015ZM5,19v2.367c.925.183,1.936.326,3,.432V19Zm0-5.027V18H8V13.679C6.918,13.758,5.9,13.855,5,13.973ZM5,8.762v4.2c.987-.12,2-.213,3-.283V7.91A18.844,18.844,0,0,0,5,8.762ZM5,3.186V7.705A19.855,19.855,0,0,1,8,6.9V2.379A18.463,18.463,0,0,0,5,3.186ZM9,19v2.882c.966.071,1.963.118,3,.118.34,0,.667-.015,1-.023V19Zm0-5.387V18h4V13.5C11.558,13.5,10.234,13.544,9,13.613ZM12,7.5a20.306,20.306,0,0,0-3,.24v4.879c1.455-.083,2.84-.119,4-.119V7.545C12.667,7.529,12.337,7.5,12,7.5ZM14,19v2.95c1.049-.05,2.049-.143,3-.265V19Zm5,2.367V19H18v2.543C18.341,21.488,18.677,21.431,19,21.367Zm-5-7.856V18h3V13.613C16.057,13.561,15.06,13.525,14,13.511ZM19,18V13.753c-.323-.029-.659-.054-1-.079V18ZM14,7.6v4.908c.924.015,1.945.052,3,.111V8.136A19.955,19.955,0,0,0,14,7.6Zm5,5.157v-4c-.326-.125-.662-.236-1-.343v4.268C18.332,12.708,18.665,12.731,19,12.76ZM18,4.186V7.378c.338.1.673.206,1,.325V3.856C18.659,3.959,18.323,4.067,18,4.186Z"/></svg>