<svg xmlns="http://www.w3.org/2000/svg" viewBox="0 0 24 24" width="512" height="512" aria-labelledby="eseuro-circled-desc eseuro-circled-title"><title id="eseuro-circled-title">Euro-Circled Icon</title><desc id="eseuro-circled-desc">A picture showing an encircled euro symbol.</desc><path d="M12 2a10 10 0 1010 10A10 10 0 0012 2zm1 7v2H8.1a5 5 0 000 2H13v2H9.026a4.925 4.925 0 007.129.847 7.049 7.049 0 001.345 1.512A6.989 6.989 0 016.683 15H5v-2h1.08a6.29 6.29 0 010-2H5V9h1.683A6.989 6.989 0 0117.5 6.641a7.049 7.049 0 00-1.345 1.512A4.925 4.925 0 009.026 9z"/></svg>