<svg xmlns="http://www.w3.org/2000/svg" viewBox="0 0 24 24" width="512" height="512" aria-labelledby="euface-id-desc euface-id-title"><title id="euface-id-title">Face ID Icon</title><desc id="euface-id-desc">A picture showing the Apple Face ID icon.</desc><path d="M5 2a3.015 3.015 0 00-3 3v2h2V5a.984.984 0 011-1h2V2zm12 0v2h2a.984.984 0 011 1v2h2V5a3.015 3.015 0 00-3-3zM6 7v4h2V7zm5 0v5h-1v2h1a2.015 2.015 0 002-2V7zm5 0v4h2V7zM2 17v2a3.015 3.015 0 003 3h2v-2H5a.984.984 0 01-1-1v-2zm18 0v2a.984.984 0 01-1 1h-2v2h2a3.015 3.015 0 003-3v-2zm-4.014-2.014l1.437 1.437a6.995 6.995 0 01-10.846 0l1.437-1.437a4.951 4.951 0 007.972 0z"/></svg>