<svg xmlns="http://www.w3.org/2000/svg" viewBox="0 0 24 24" width="512" height="512" aria-labelledby="ewfacebook-messenger-desc ewfacebook-messenger-title"><title id="ewfacebook-messenger-title">Facebook Messenger Icon</title><desc id="ewfacebook-messenger-desc">A picture showing the Facebook Messenger logo.</desc><path d="M12 2a9.65 9.65 0 00-10 9.7 9.51 9.51 0 003.14 7.17.83.83 0 01.27.57v1.77a.81.81 0 001.13.71l2-.87a.75.75 0 01.53 0 11 11 0 002.9.38A9.69 9.69 0 1012 2zm6 7.46l-2.93 4.65a1.5 1.5 0 01-2.17.4l-2.34-1.75a.6.6 0 00-.72 0l-3.16 2.4a.47.47 0 01-.68-.63l2.93-4.65a1.5 1.5 0 012.17-.4l2.34 1.75a.6.6 0 00.72 0l3.16-2.39a.47.47 0 01.68.63z"/></svg>