<svg xmlns="http://www.w3.org/2000/svg" viewBox="0 0 24 24"><path d="M18,15H6V12.2A2.184,2.184,0,0,1,8.166,10h7.668A2.184,2.184,0,0,1,18,12.2ZM2,16l1,5H5V19H19v2h2l1-5ZM16.877,7.871l1.212.487a.6.6,0,0,0,.619-.106c.792.2.892.715.892,1V15h.7V8.95c0-.674-.464-.977-1.3-1.355a.6.6,0,0,0-.376-.566l-1.212-.487a.6.6,0,0,0-.781.333l-.087.216A.6.6,0,0,0,16.877,7.871Zm-1.269-3a2.808,2.808,0,0,0-3.854-2.7A2.727,2.727,0,0,0,8.382,4.585c0,1.445.674,2.505.385,4.336a18.817,18.817,0,0,0,1.927.053V7.861a2.492,2.492,0,0,1-.963-2.12A3.226,3.226,0,0,0,13.3,3.333a2.2,2.2,0,0,1,1.252,2.312,2.434,2.434,0,0,1-.963,2.12V8.976c1.013,0,1.782-.007,1.782-.007C15.078,7.909,15.7,7.09,15.608,4.874Z"/></svg>