<svg xmlns="http://www.w3.org/2000/svg" viewBox="0 0 24 24" width="512" height="512" aria-labelledby="exfemale-candidate-desc exfemale-candidate-title"><title id="exfemale-candidate-title">Female Candidate Icon</title><desc id="exfemale-candidate-desc">A picture showing a woman standing behind a tribune.</desc><path d="M18 15H6v-2.8A2.184 2.184 0 018.166 10h7.668A2.184 2.184 0 0118 12.2zM2 16l1 5h2v-2h14v2h2l1-5zm14.877-8.129l1.212.487a.6.6 0 00.619-.106c.792.2.892.715.892 1V15h.7V8.95c0-.674-.464-.977-1.3-1.355a.6.6 0 00-.376-.566l-1.212-.487a.6.6 0 00-.781.333l-.087.216a.6.6 0 00.333.78zm-1.269-3a2.808 2.808 0 00-3.854-2.7 2.727 2.727 0 00-3.372 2.414c0 1.445.674 2.505.385 4.336a18.817 18.817 0 001.927.053V7.861a2.492 2.492 0 01-.963-2.12A3.226 3.226 0 0013.3 3.333a2.2 2.2 0 011.252 2.312 2.434 2.434 0 01-.963 2.12v1.211c1.013 0 1.782-.007 1.782-.007-.293-1.06.329-1.879.237-4.095z"/></svg>