<svg xmlns="http://www.w3.org/2000/svg" viewBox="0 0 24 24" width="512" height="512" aria-labelledby="eyfertilization-desc eyfertilization-title"><title id="eyfertilization-title">Fertilization Icon</title><desc id="eyfertilization-desc">A picture showing a sperm racing towards an egg.</desc><path d="M12 2a10 10 0 00-8.795 14.763 4.024 4.024 0 011.456-.323H4.7v-.15a1.965 1.965 0 011.076-1.625 4.684 4.684 0 011.457-3.039 4.653 4.653 0 013.188-1.468 2.6 2.6 0 011.886.737 2.794 2.794 0 01.665 2.581 4.994 4.994 0 01-1.4 2.492A4.621 4.621 0 018.4 17.427h-.038a2.249 2.249 0 01-.545 1.738 2.133 2.133 0 01-1.6.671 2.676 2.676 0 01-.5-.06A10 10 0 1012 2zm4 8a2 2 0 112-2 2 2 0 01-2 2zm-4.4 1.6c-1.751-1.7-5.591 1.717-4.715 3.848a.959.959 0 00-.685 1.765c.1.124.253.4.171.56s-.409.013-.533-.036a2.868 2.868 0 00-1.154-.3A1.905 1.905 0 002.511 19.5a2.888 2.888 0 00.772 1.554 4.2 4.2 0 01.382-2.267c.413-.652 1.418-.3 2.162 0 1.505.389 2.022-1.371 1.034-2.327.333.114.7.257.909-.136 2.13.859 5.535-2.973 3.83-4.724zm-4.906 4.708l-.015-.01c.009-.006.013.002.015.01zm-.026.149l.022-.014a.023.023 0 01-.022.014z"/></svg>