<svg xmlns="http://www.w3.org/2000/svg" viewBox="0 0 24 24" width="512" height="512" aria-labelledby="fbfinancial-insurance-desc fbfinancial-insurance-title"><title id="fbfinancial-insurance-title">Financial Insurance Icon</title><desc id="fbfinancial-insurance-desc">A picture showing the dollar sign under an umbrella.</desc><path d="M11 10h2v9a3 3 0 01-6 0h2a1 1 0 002 0v-9zm1-8a10.226 10.226 0 00-10 8h2a2 2 0 014 0h2a2 2 0 014 0h2a2 2 0 014 0h2a10.226 10.226 0 00-10-8zm9.1 16.527c0-1.727-1.48-2.323-2.864-2.679s-1.829-.733-1.829-1.308c0-.658.617-1.124 1.645-1.124 1.082 0 1.486.521 1.52 1.281h1.343a2.421 2.421 0 00-1.952-2.322v-1.336H17v1.322a2.245 2.245 0 00-1.994 2.2c0 1.4 1.165 2.1 2.864 2.514 1.527.363 1.829.9 1.829 1.466 0 .418-.3 1.09-1.644 1.09-1.254 0-1.747-.562-1.816-1.282H14.9a2.423 2.423 0 002.1 2.33V22h1.966v-1.309c1.192-.226 2.134-.911 2.134-2.164z"/></svg>