<svg xmlns="http://www.w3.org/2000/svg" viewBox="0 0 24 24" width="512" height="512" aria-labelledby="fcfirefox-desc fcfirefox-title"><title id="fcfirefox-title">Firefox Icon</title><desc id="fcfirefox-desc">A picture showing the Firefox browser logo.</desc><path d="M20.986 8.714a5.422 5.422 0 00-1.946-2.451 10.073 10.073 0 01.98 2.937v.02c-1.093-2.735-2.952-3.835-4.47-6.237a8.933 8.933 0 01-.231-.37c-.042-.075-.075-.14-.107-.2a1.78 1.78 0 01-.145-.386.026.026 0 00-.02-.027.036.036 0 00-.025 0v.005h-.008V2a7.069 7.069 0 00-3.282 4.96c-.134-.011-.262-.041-.4-.041a5.07 5.07 0 00-2.666.77 6.67 6.67 0 01.067-1.839A7.181 7.181 0 006.4 7.659a5.234 5.234 0 01-.338-2.427 1.733 1.733 0 00-.325.17 6.956 6.956 0 00-.951.813 8.531 8.531 0 00-.9 1.088 8.189 8.189 0 00-1.3 2.937l-.018.068c-.018.082-.085.51-.095.6v.025a9.236 9.236 0 00-.155 1.336v.05a9.7 9.7 0 0019.25 1.641c.018-.125.03-.25.045-.375a9.974 9.974 0 00-.627-4.871zm-9.652-1.307a4.624 4.624 0 013.8 1.99 3.338 3.338 0 00-1.915-.332 4.013 4.013 0 01-2.281 7.523 4.314 4.314 0 01-1.261-.246q-.143-.054-.285-.117l-.078-.035a4.284 4.284 0 01-.25-.136 4.8 4.8 0 01-.594-.4c-.047-.038-.1-.076-.141-.116a3.86 3.86 0 01-1.389-2.565s.445-1.666 3.2-1.666a2.359 2.359 0 001.168-1.069 14.923 14.923 0 01-2.349-1.4 1.334 1.334 0 01-.227-.632 4.614 4.614 0 012.602-.799z"/></svg>