<svg xmlns="http://www.w3.org/2000/svg" viewBox="0 0 24 24" width="512" height="512" aria-labelledby="fdfitness-watch-desc fdfitness-watch-title"><title id="fdfitness-watch-title">Fitness-Watch Icon</title><desc id="fdfitness-watch-desc">A picture depicting a digital watch with the heart symbol in the middle.</desc><path d="M18 4H6a2 2 0 012-2h8a2 2 0 012 2zM8 22h8a2 2 0 002-2H6a2 2 0 002 2zM20 8v8a2 2 0 01-2 2H6a2 2 0 01-2-2V8a2 2 0 012-2h12a2 2 0 012 2zm-4.921 3.043a1.677 1.677 0 00-1.693-1.693A1.842 1.842 0 0012 9.994a1.842 1.842 0 00-1.386-.644 1.677 1.677 0 00-1.693 1.693c0 1.164 1.047 2.113 2.633 3.551L12 15l.446-.4c1.586-1.444 2.633-2.393 2.633-3.557z"/></svg>