<svg xmlns="http://www.w3.org/2000/svg" viewBox="0 0 24 24" width="512" height="512" aria-labelledby="figas-mask-desc figas-mask-title"><title id="figas-mask-title">Gas Mask Icon</title><desc id="figas-mask-desc">A picture depicting a gas mask.</desc><path d="M7 21l-1.813.845a1 1 0 01-1.329-.483l-1.69-3.626a1 1 0 01.484-1.329l1.812-.845zm13.142.362l1.69-3.626a1 1 0 00-.484-1.329l-1.812-.845L17 21l1.813.845a1 1 0 001.329-.483zM12 13a2 2 0 102 2 2 2 0 00-2-2zm4.981 2.053L18 16l-2 4-1.387-.407A9.37 9.37 0 0112 20a8.32 8.32 0 01-2.519-.407L8 20l-2-4 1.113-.947v-1.382c-.987-.789-1.382-1.776-1.382-3.552A9 9 0 017 5c1.184-2.171 3.863-2 5.047-2S15.816 2.829 17 5a9.058 9.058 0 011.363 5.119c0 1.776-.395 2.763-1.382 3.552zM9 11a2 2 0 10-2-2 2 2 0 002 2zm6 4a3 3 0 10-3 3 3 3 0 003-3zm2-6a2 2 0 10-2 2 2 2 0 002-2z"/></svg>