<svg xmlns="http://www.w3.org/2000/svg" viewBox="0 0 24 24" width="512" height="512" aria-labelledby="fpgithub-desc fpgithub-title"><title id="fpgithub-title">GitHub Icon</title><desc id="fpgithub-desc">A picture showing the GitHub website logo.</desc><path d="M22 12a10 10 0 01-6.675 9.422v-2.349a3.478 3.478 0 00-1.575-2.825c3.324-.35 4.9-2 4.9-4.25a4.054 4.054 0 00-1.1-2.7c.25-.775.525-2.4-.075-3a3.549 3.549 0 00-2.625 1.225 7.576 7.576 0 00-2.424-.4 7.7 7.7 0 00-2.425.4A3.55 3.55 0 007.375 6.3c-.625.625-.325 2.225-.1 3A4.126 4.126 0 006.15 12c0 2.25 1.6 3.9 4.95 4.3a3.1 3.1 0 00-1.326 1.625 10.027 10.027 0 01-1.4.1 1.277 1.277 0 01-1.325-.65A2.617 2.617 0 005.7 16.349c-.275-.025-.475.175-.225.375.825.575.875 1.5 1.2 2.1a1.707 1.707 0 001.575.85H9.5v2A10 10 0 1122 12z"/></svg>