<svg xmlns="http://www.w3.org/2000/svg" viewBox="0 0 24 24" width="512" height="512" aria-labelledby="fwgoogle-play-desc fwgoogle-play-title"><title id="fwgoogle-play-title">Google Play Icon</title><desc id="fwgoogle-play-desc">A picture showing the Google Play logo.</desc><path d="M3.266 2.967v-.56a.427.427 0 01.634-.351l9.974 5.7-2.909 2.909zm0 1.874c.014 3.407.044 9.637.061 13.462l6.7-6.7zm17.467 7.085a.436.436 0 00-.219-.373l-5.45-3.117L11.9 11.6l3.614 3.614 5.012-2.92a.431.431 0 00.211-.368zM3.558 21.942a.425.425 0 00.428 0l10.346-6.034-3.367-3.368-7.629 7.625.007 1.409a.418.418 0 00.215.368z"/></svg>