<svg xmlns="http://www.w3.org/2000/svg" viewBox="0 0 24 24" width="512" height="512" aria-labelledby="ftgoogle-hangouts-desc ftgoogle-hangouts-title"><title id="ftgoogle-hangouts-title">Google Hangouts Icon</title><desc id="ftgoogle-hangouts-desc">A picture showing the Google Hangouts logo.</desc><path d="M20.444 9.055a8.5 8.5 0 00-2.173-4.334 8.409 8.409 0 00-1.622-1.358 8.508 8.508 0 00-3.64-1.309A4.068 4.068 0 0112.528 2h-1.135c-.012.029-.038.018-.059.02a8.792 8.792 0 00-.871.114 8.453 8.453 0 00-5.177 3.1 8.364 8.364 0 00-1.839 4.713 8.567 8.567 0 00.185 2.529 8.139 8.139 0 00.624 1.79l.073.146a8.608 8.608 0 001.784 2.4 8.521 8.521 0 005.763 2.333c.1 0 .127.026.126.128v2.621c0 .034 0 .068.005.11l.063-.026a18 18 0 004.49-2.966c.267-.243.979-.991 1.084-1.1.163-.175.3-.369.458-.553.177-.212.337-.437.494-.663a11 11 0 00.918-1.575c.132-.279.258-.56.369-.847a.116.116 0 00.011-.016 10.313 10.313 0 00.6-2.439c.036-.292.059-.585.074-.878a8.1 8.1 0 00-.124-1.886zm-9.189 2.819a2.512 2.512 0 01-.84 1.878c-.029.026-.056.054-.084.081a2.686 2.686 0 01-.934.48 3.842 3.842 0 01-.448.085.21.21 0 01-.235-.152v-.968c.054-.124.168-.149.282-.176a1.153 1.153 0 00.962-1.011c.013-.074.055-.152.006-.229H7.922a.644.644 0 01-.174-.018.412.412 0 01-.306-.385V8.372a.432.432 0 01.416-.323h2.981a.409.409 0 01.4.312.4.4 0 01.017.153c.001 1.117.007 2.239-.001 3.36zm5.285 0a2.507 2.507 0 01-.839 1.878c-.029.026-.056.054-.084.081a2.682 2.682 0 01-.935.48 3.786 3.786 0 01-.447.085.21.21 0 01-.235-.152v-.968c.053-.124.167-.149.282-.176a1.154 1.154 0 00.962-1.011c.013-.074.055-.152.006-.229h-2.042a.636.636 0 01-.174-.018.414.414 0 01-.307-.385V8.372a.431.431 0 01.416-.323h2.981a.409.409 0 01.4.312.4.4 0 01.017.153c.002 1.117.008 2.239-.001 3.36z"/></svg>