<svg xmlns="http://www.w3.org/2000/svg" viewBox="0 0 24 24" width="512" height="512" aria-labelledby="fugoogle-maps-desc fugoogle-maps-title"><title id="fugoogle-maps-title">Google Maps Icon</title><desc id="fugoogle-maps-desc">A picture showing the Google Maps logo.</desc><path d="M7.134 4.044A6.844 6.844 0 0112 2a6.969 6.969 0 011.275.118L9.782 6.271zM9.1 7.076L6.456 4.85a6.831 6.831 0 00-1.273 3.965 8.017 8.017 0 00.37 2.483zm8.778-1.7a6.808 6.808 0 00-3.494-2.941l-2.563 3.054q.09-.006.18-.006a3.346 3.346 0 013.313 2.946zm-9.141 10.87l3.447-4.1h-.18a3.342 3.342 0 01-3.315-2.934L6 12.4a18.889 18.889 0 002.22 3.2c.173.211.344.426.517.646zm4.863 2.311a34.254 34.254 0 012.2-2.985c1.622-2.032 3.021-3.787 3.021-6.757a6.747 6.747 0 00-.436-2.406L9.4 17.1c.392.528.717 1 1.012 1.46C11.147 19.7 10.89 22 12 22s.859-2.3 1.6-3.443z"/></svg>