<svg xmlns="http://www.w3.org/2000/svg" viewBox="0 0 24 24" width="512" height="512" aria-labelledby="fxgoogle-translate-desc fxgoogle-translate-title"><title id="fxgoogle-translate-title">Google Translate Icon</title><desc id="fxgoogle-translate-desc">A picture showing the Google Translate logo.</desc><path d="M14.426 19.094l-2.578 2.762-.4-2.762zm6.242-13.079h-8.151l1.5 4.74h1.74V9.489h1.226v1.266h3.777v.783h-1.7a7.1 7.1 0 01-1.707 3.089c.571.614 1.348 1.377 2.408 2.338l-.643.644a43.9 43.9 0 01-2.348-2.338c-.482.511-.886.876-1.018.993l.609 1.927a.134.134 0 01-.027.126L13.068 22h7.6A1.324 1.324 0 0022 20.69V7.325a1.324 1.324 0 00-1.332-1.31zm-3.9 7.943a6.915 6.915 0 001.376-2.42H14.26l1.182 3.746c.11-.092.391-.333.736-.687-1.374-1.61-1.416-2.175-1.416-2.175h1.017s.004.378.984 1.536zM15.389 18.2a.36.36 0 01-.05.036l-12.007-.01A1.335 1.335 0 012 16.9V3.332A1.335 1.335 0 013.332 2h6.945l5.112 16.2zm-4.77-8a2.781 2.781 0 00-.074-.637H7.62v1.07h1.823a1.709 1.709 0 01-1.825 1.506 2.008 2.008 0 010-4.015 1.83 1.83 0 011.268.487l.825-.793A3.025 3.025 0 007.618 7a3.126 3.126 0 100 6.251 2.882 2.882 0 003.001-3.059z"/></svg>