<svg xmlns="http://www.w3.org/2000/svg" viewBox="0 0 24 24" width="512" height="512" aria-labelledby="fvgoogle-pay-desc fvgoogle-pay-title"><title id="fvgoogle-pay-title">Google Pay Icon</title><desc id="fvgoogle-pay-desc">A picture showing the Google Pay logo.</desc><path d="M11.459 11.91v2.327h-.739V8.488h1.959a1.765 1.765 0 011.268.5 1.662 1.662 0 010 2.434 1.763 1.763 0 01-1.268.489zm0-2.714V11.2H12.7a1 1 0 00.75-1.683l-.022-.017a.966.966 0 00-.731-.3zm4.72.979a1.831 1.831 0 011.293.438 1.55 1.55 0 01.473 1.2v2.425h-.706v-.546h-.032a1.41 1.41 0 01-1.22.674 1.586 1.586 0 01-1.087-.386 1.232 1.232 0 01-.437-.964 1.17 1.17 0 01.461-.971 1.951 1.951 0 011.233-.361 2.184 2.184 0 011.083.241v-.17a.84.84 0 00-.3-.653 1.047 1.047 0 00-.713-.269 1.13 1.13 0 00-.979.522l-.65-.41a1.808 1.808 0 011.587-.77zm-.956 2.858a.593.593 0 00.245.482.9.9 0 00.574.192 1.174 1.174 0 00.831-.345 1.08 1.08 0 00.367-.811 1.513 1.513 0 00-.964-.275 1.244 1.244 0 00-.75.217.65.65 0 00-.3.54zM22 10.3l-2.466 5.667h-.762l.915-1.983-1.622-3.684h.8l1.172 2.825h.016L21.2 10.3zM8.474 11.4a3.883 3.883 0 00-.057-.672H5.3V12h1.786a1.529 1.529 0 01-.659 1A2 2 0 115.3 9.337a1.792 1.792 0 011.267.5l.944-.943A3.182 3.182 0 005.3 8.029a3.3 3.3 0 000 6.606 3.162 3.162 0 002.19-.8 3.226 3.226 0 00.984-2.428z"/></svg>