<svg xmlns="http://www.w3.org/2000/svg" viewBox="0 0 24 24" width="512" height="512" aria-labelledby="geheart-monitor-desc geheart-monitor-title"><title id="geheart-monitor-title">Heart Monitor Icon</title><desc id="geheart-monitor-desc">A picture showing the heart symbol with a cardiogram drawn inside it.</desc><path d="M3 12a7.008 7.008 0 01-1-3.5A5.447 5.447 0 017.5 3 5.988 5.988 0 0112 5.09 5.988 5.988 0 0116.5 3 5.447 5.447 0 0122 8.5a7.019 7.019 0 01-1 3.5h-3.52l-1.6-2h-1.751L12.2 14.183 10.044 7H7.882l-2.5 5zm13.518 2l-1.288-1.612L13.1 17h-2.144L8.767 9.7 6.618 14H2v2h4.241c1.227 1.233 2.678 2.551 4.309 4.03L12 21.35l1.45-1.31A64.8 64.8 0 0019.6 14z"/></svg>