<svg xmlns="http://www.w3.org/2000/svg" viewBox="0 0 24 24" width="512" height="512" aria-labelledby="gchearing-aid-desc gchearing-aid-title"><title id="gchearing-aid-title">Hearing Aid Icon</title><desc id="gchearing-aid-desc">A picture depicting an earphone inserted into a human ear.</desc><path d="M8.681 10.021a2.131 2.131 0 112.129 2.052 2.092 2.092 0 01-2.129-2.052zm7.574-5.093a4.362 4.362 0 00-4.408 1.062l-.345.97.616.2a3.055 3.055 0 012.02 3.894 3.2 3.2 0 01-3.328 2.087v1.019a4.251 4.251 0 004.338-2.783A4.039 4.039 0 0013.172 6.5a3.24 3.24 0 012.649-.311 3.024 3.024 0 012 3.849 5.337 5.337 0 01-.276.586l-4.859 6.419.892.521 5.006-6.664a6.915 6.915 0 00.365-.777 4.079 4.079 0 00-2.694-5.195zm-12.291.74l.863.832a5.16 5.16 0 000 7.486l-.863.832a6.31 6.31 0 010-9.15zm2.79 1.664l.863.832a2.866 2.866 0 000 4.158l-.863.832a4.017 4.017 0 010-5.822zm10.615-5A6.9 6.9 0 009.623 4.89h1.451a5.748 5.748 0 015.941-1.531 5.41 5.41 0 013.574 6.888A9.921 9.921 0 0120.1 11.3l-4.87 7.781a3.723 3.723 0 01-4.377 1.656A3.91 3.91 0 018.476 18H7.318a5.008 5.008 0 003.182 3.762 4.851 4.851 0 005.7-2.144l4.871-7.795a10.643 10.643 0 00.58-1.234 6.484 6.484 0 00-4.282-8.255z"/></svg>