<svg xmlns="http://www.w3.org/2000/svg" viewBox="0 0 24 24" width="512" height="512" aria-labelledby="gjidea-generation-desc gjidea-generation-title"><title id="gjidea-generation-title">Idea Generation Icon</title><desc id="gjidea-generation-desc">A picture showing a light bulb encircled in rotating arrows.</desc><path d="M12 4.029A5.533 5.533 0 009.5 14.5v4.43l.829 1.07h3.342l.833-1.07V14.5A5.533 5.533 0 0012 4.029zM13.582 18h-3.164v-1h3.164zm0-2h-3.164v-1h3.164zM12.5 10.41V13h-1v-2.59L9.67 8.59l.71-.71L12 9.5l1.62-1.62.71.71zm2.645 9.75l1.33 1.32A10.489 10.489 0 0022.031 15H23.6A11.988 11.988 0 0112 24l-.66-.03zM12 0l.66.03-3.815 3.81-1.33-1.33A10.489 10.489 0 001.961 9H.4A11.973 11.973 0 0112 0zm8.162 8.853l1.32-1.33A10.486 10.486 0 0015 1.967V.4A11.987 11.987 0 0124 12l-.03.66zM0 12l.03-.66 3.81 3.81-1.33 1.33A10.493 10.493 0 009 22.036V23.6A11.976 11.976 0 010 12z"/></svg>