<svg xmlns="http://www.w3.org/2000/svg" viewBox="0 0 24 24"><path d="M12,4.029A5.533,5.533,0,0,0,9.5,14.5V18.93L10.329,20h3.342l.833-1.07V14.5A5.533,5.533,0,0,0,12,4.029ZM13.582,18H10.418V17h3.164Zm0-2H10.418V15h3.164ZM12.5,10.41V13h-1V10.41L9.67,8.59l.71-.71L12,9.5l1.62-1.62.71.71Zm2.645,9.75,1.33,1.32A10.489,10.489,0,0,0,22.031,15H23.6A11.988,11.988,0,0,1,12,24l-.66-.03ZM12,0l.66.03L8.845,3.84,7.515,2.51A10.489,10.489,0,0,0,1.961,9H.4A11.973,11.973,0,0,1,12,0Zm8.162,8.853,1.32-1.33A10.486,10.486,0,0,0,15,1.967V.4A11.987,11.987,0,0,1,24,12l-.03.66ZM0,12l.03-.66,3.81,3.81-1.33,1.33A10.493,10.493,0,0,0,9,22.036V23.6A11.976,11.976,0,0,1,0,12Z"/></svg>