<svg xmlns="http://www.w3.org/2000/svg" viewBox="0 0 24 24" width="512" height="512" aria-labelledby="gminstagram-desc gminstagram-title"><title id="gminstagram-title">Instagram Icon</title><desc id="gminstagram-desc">A picture showing the Instagram application logo.</desc><path d="M19 3H5a2 2 0 00-2 2v14a2 2 0 002 2h14a2 2 0 002-2V5a2 2 0 00-2-2zm-7 14.64A5.64 5.64 0 1117.64 12 5.65 5.65 0 0112 17.64zm5.86-10.18a1.32 1.32 0 111.32-1.32 1.32 1.32 0 01-1.32 1.32zM15.66 12A3.66 3.66 0 1112 8.34 3.66 3.66 0 0115.66 12z"/></svg>