<svg xmlns="http://www.w3.org/2000/svg" viewBox="0 0 24 24" width="512" height="512" aria-labelledby="gninternet-explorer-desc gninternet-explorer-title"><title id="gninternet-explorer-title">Internet Explorer Icon</title><desc id="gninternet-explorer-desc">A picture showing the Internet Explorer browser logo.</desc><path d="M20.658 2.717c-1.5-1.2-4.256-.726-7.434 1.33a9.449 9.449 0 00-1-.055c-4.8 0-8.685 3.624-8.685 8.093v.127c1.957-3.2 4.582-5.412 6.969-6.12a29.277 29.277 0 00-2.274 2.2 26.606 26.606 0 00-4.339 6.1c-1.506 3.019-1.819 5.648-.56 6.891 1.349 1.334 4.173.743 7.3-1.243a9.323 9.323 0 001.588.138 9.419 9.419 0 001.147-.071 8.54 8.54 0 007.178-5.716h-5.761a2.685 2.685 0 01-2.536 1.879 2.716 2.716 0 01-2.676-2.755v-.277h11.25a7.54 7.54 0 00.089-1.153 8.157 8.157 0 00-5.827-7.642c2.381-1.376 4.412-1.755 5.39-.788a2.065 2.065 0 01.5 1.383A23.263 23.263 0 0119.8 9h.2c.095-.416 1.238-2.778 1.425-3.653a2.276 2.276 0 00-.767-2.63zm-10.61 17.2c-2.46 1.463-4.569 1.886-5.572.895-.873-.862-.741-2.629.175-4.778a8.64 8.64 0 005.4 3.883zm-.47-9.244a2.673 2.673 0 115.346 0H9.578"/></svg>