<svg xmlns="http://www.w3.org/2000/svg" viewBox="0 0 24 24" width="512" height="512" aria-labelledby="gpios-desc gpios-title"><title id="gpios-title">iOS Icon</title><desc id="gpios-desc">A picture showing the iOS logo.</desc><path d="M12.45 11.162a4.12 4.12 0 01-.1 2.048 1.871 1.871 0 01-3.656 0 4.12 4.12 0 01-.1-2.048 2.166 2.166 0 011.448-1.8 2.456 2.456 0 01.959 0 2.164 2.164 0 011.449 1.8zM21 5v14a2 2 0 01-2 2H5a2 2 0 01-2-2V5a2 2 0 012-2h14a2 2 0 012 2zM6.4 10.449H5.047v5.307H6.4zm.047-1.482a.723.723 0 10-.722.723.723.723 0 00.72-.723zm7.483 3.083a3.656 3.656 0 00-1.9-3.454 3.408 3.408 0 00-3.017 0 3.656 3.656 0 00-1.9 3.454 3.523 3.523 0 001.892 3.393 3.462 3.462 0 001.15.3 4.694 4.694 0 00.731 0 3.462 3.462 0 001.15-.3 3.522 3.522 0 001.894-3.393zm5.07 1.5a1.866 1.866 0 00-.544-1.37 3.692 3.692 0 00-1.361-.8c-.977-.4-1.243-.6-1.329-1.016-.121-.664.566-1.04 1.2-1.032a4.241 4.241 0 011.448.323 25.13 25.13 0 00.293-1.036 2.417 2.417 0 00-1.023-.337 5.19 5.19 0 00-1.318 0 2.16 2.16 0 00-1.941 1.733 1.969 1.969 0 00.1.993 2.845 2.845 0 001.825 1.43c.9.335 1.222.607 1.295 1.078a.9.9 0 01-.521.979 3.881 3.881 0 01-2.549-.288c-.013.019-.3 1.085-.292 1.09a4.886 4.886 0 001.608.444 5.719 5.719 0 00.824-.009 2.4 2.4 0 002.1-1.3 1.766 1.766 0 00.185-.884z"/></svg>