<svg xmlns="http://www.w3.org/2000/svg" viewBox="0 0 24 24" width="512" height="512" aria-labelledby="gtis-false-desc gtis-false-title"><title id="gtis-false-title">Is False Icon</title><desc id="gtis-false-desc">A picture showing an encircled X symbol.</desc><path d="M8 5a7 7 0 107 7 7 7 0 00-7-7zm4.31 9.79l-1.52 1.52L8 13.52l-2.79 2.79-1.52-1.52L6.48 12 3.69 9.21l1.52-1.52L8 10.48l2.79-2.79 1.52 1.52L9.52 12zM18 7a5 5 0 00-3 1.06 7.48 7.48 0 01.49 1 3.89 3.89 0 110 5.82 8.08 8.08 0 01-.49 1A5 5 0 1018 7z"/><path d="M17.52 13.85l2.91-2.92-.78-.78-2.13 2.12-1.17-1.15-.38.37-.41.41.42.42L17 13.34l.52.51z"/></svg>