<svg xmlns="http://www.w3.org/2000/svg" viewBox="0 0 24 24" width="512" height="512" aria-labelledby="guis-not-null-desc guis-not-null-title"><title id="guis-not-null-title">Is Not Null Icon</title><desc id="guis-not-null-desc">A picture showing a crossed-out circle.</desc><path d="M16.58 6.07l.79-1.36-1.74-1-.78 1.35a7.5 7.5 0 00-7.43 12.87l-.79 1.36 1.74 1 .78-1.35a7.5 7.5 0 007.43-12.87zM6.5 12A5.5 5.5 0 0112 6.5a5.65 5.65 0 011.84.32l-5.41 9.36A5.49 5.49 0 016.5 12zm5.5 5.5a5.65 5.65 0 01-1.84-.32l5.41-9.36A5.5 5.5 0 0112 17.5z"/></svg>