<svg xmlns="http://www.w3.org/2000/svg" viewBox="0 0 24 24" width="512" height="512" aria-labelledby="gwis-true-desc gwis-true-title"><title id="gwis-true-title">is True Icon</title><desc id="gwis-true-desc">A picture showing an encircled check mark symbol.</desc><path d="M19.44 14.22zm-2.88 0zm0 0L18 12.79l1.44 1.43.78-.78L18.79 12l1.43-1.44-.78-.78L18 11.21l-1.44-1.43-.78.78L17.21 12l-1.43 1.44.78.78z"/><path d="M18 7a5 5 0 00-3 1.06 7.48 7.48 0 01.49 1 3.89 3.89 0 110 5.82 8.08 8.08 0 01-.49 1A5 5 0 1018 7zM8 5a7 7 0 107 7 7 7 0 00-7-7zm-.93 10.18l-3.38-3.37 1.13-1.12 2.25 2.25 4.11-4.12 1.13 1.12z"/></svg>