<svg xmlns="http://www.w3.org/2000/svg" viewBox="0 0 24 24" width="512" height="512" aria-labelledby="fvjsfiddle-desc fvjsfiddle-title"><title id="fvjsfiddle-title">jsfiddle icon</title><desc id="fvjsfiddle-desc">Some description</desc><defs><style>.fvfvfvfvfva{fill-rule:evenodd}</style></defs><path class="fvfvfvfvfva" d="M19.574 11.352c.423-6.4-8.616-8.564-11.3-2.87a2.749 2.749 0 00-4.3 2.941c-3.45 1.914-2.009 7.4 1.992 7.376.072.007 11.8 0 11.878 0 4.35.31 5.743-5.884 1.728-7.449zM7.369 15.811c-2.72-2.963 1.853-6.017 4.413-3.45.991.851 1.893 2.79 3.326 2.8a1.2 1.2 0 001.228-1.535c-.435-1.091-1.79-1.076-2.632-.205-.059-.068-.864-1.021-.9-1.058 1.785-1.97 5.78-.724 5.15 2.151-.468 2.281-3.61 2.606-5.134 1.092-.392-.344-1.088-1.241-1.446-1.635a2.338 2.338 0 00-2.3-1.133 1.173 1.173 0 00-.542 1.962 1.659 1.659 0 002.34-.276c.051.06.869 1.012.891 1.043a3.293 3.293 0 01-4.394.249z"/></svg>