<svg xmlns="http://www.w3.org/2000/svg" viewBox="0 0 24 24" width="512" height="512" aria-labelledby="hakeep-away-from-children-desc hakeep-away-from-children-title"><title id="hakeep-away-from-children-title">Keep Away From Children Icon</title><desc id="hakeep-away-from-children-desc">A picture depicting a crossed-out baby head.</desc><path d="M22 12.5a1.5 1.5 0 01-1.5 1.5 1.478 1.478 0 01-.5-.093V14a7.993 7.993 0 01-13.223 6.051l2.493-2.493a4.452 4.452 0 006.607-1.307l-.864-.5a3.457 3.457 0 01-5.03 1.1l4.241-4.241A.983.983 0 0015 13a1 1 0 001-1 .983.983 0 00-.395-.776l2.447-2.447a7.97 7.97 0 011.5 2.573A1.493 1.493 0 0122 12.5zm-1.515-8.985l-3.922 3.922L5.435 18.565l-1.92 1.92L2.1 19.071l2.382-2.382A7.912 7.912 0 014 14v-.093a1.478 1.478 0 01-.5.093 1.5 1.5 0 11.953-2.65 8.015 8.015 0 015.756-5.142 6.321 6.321 0 01-.47-.854 4.974 4.974 0 01-.658-1.407.417.417 0 01.676-.376A19.907 19.907 0 0111.5 5.817V3a.5.5 0 011 0v2.817a19.907 19.907 0 011.743-2.246c.278-.246.787.038.666.4a12.653 12.653 0 01-1.118 2.232 8.025 8.025 0 01.9.271l4.38-4.374zM8.4 12.776L9.776 11.4A.983.983 0 009 11a1 1 0 00-1 1 .983.983 0 00.4.776z"/></svg>