<svg xmlns="http://www.w3.org/2000/svg" viewBox="0 0 24 24" width="512" height="512" aria-labelledby="hflast-year-desc hflast-year-title"><title id="hflast-year-title">Last Year Icon</title><desc id="hflast-year-desc">A picture depicting a calendar with an back-arrow in the middle.</desc><path d="M21 10v11H7v2h14a2 2 0 002-2V10z"/><path d="M19 17V5a2 2 0 00-2-2h-1V1h-2v2H6V1H4v2H3a2 2 0 00-2 2v12a2 2 0 002 2h14a2 2 0 002-2zM3 17V7h14v10H3z"/><path d="M8.87 9l-2.99 3 2.99 3v-2.25h5.26v-1.5H8.87V9z"/></svg>