<svg xmlns="http://www.w3.org/2000/svg" viewBox="0 0 24 24" width="512" height="512" aria-labelledby="hclast-month-desc hclast-month-title"><title id="hclast-month-title">Last Month Icon</title><desc id="hclast-month-desc">A picture depicting a calendar with a back-arrow at the end.</desc><path d="M17.5 14a4.48 4.48 0 104.5 4.5 4.47 4.47 0 00-4.5-4.5zm3.5 5.5h-4v2l-3-3 3-3v2h4zM5 9h2v2H5zm0 4h2v2H5zm5 0h2v2h-2zm-5 4h2v2H5zm5 0h2v2h-2zm0-8h2v2h-2zm5 0h2v2h-2z"/><path d="M4 8h14v4h2V5a2 2 0 00-2-2h-1V1h-2v2H7V1H5v2H4a2 2 0 00-2 2v15a2 2 0 002 2h7v-2H4z"/></svg>