<svg xmlns="http://www.w3.org/2000/svg" viewBox="0 0 24 24" width="512" height="512" aria-labelledby="hglegal-document-desc hglegal-document-title"><title id="hglegal-document-title">Legal Document Icon</title><desc id="hglegal-document-desc">A picture depicting a sheet of paper with a badge of honor in the middle.</desc><path d="M14 2H6a2 2 0 00-1.99 2L4 20a2 2 0 001.99 2H18a2.006 2.006 0 002-2V8zM9.2 20L8 18.8H6.2l2.091-4.09a5.955 5.955 0 002.935 1.235zM8 10a4 4 0 114 4 4 4 0 01-4-4zm8 8.8L14.8 20l-2.062-4.05a5.961 5.961 0 002.971-1.24L17.8 18.8z"/></svg>