<svg xmlns="http://www.w3.org/2000/svg" viewBox="0 0 24 24" width="512" height="512" aria-labelledby="hjlinkedin-desc hjlinkedin-title"><title id="hjlinkedin-title">LinkedIn Icon</title><desc id="hjlinkedin-desc">A picture showing the LinkedIn logo.</desc><path d="M19 3H5a2 2 0 00-2 2v14a2 2 0 002 2h14a2 2 0 002-2V5a2 2 0 00-2-2zM8.45 17.92h-3V9.71h3zM6.92 8.21A1.4 1.4 0 015.41 6.8 1.43 1.43 0 017 5.4a1.39 1.39 0 011.5 1.4 1.43 1.43 0 01-1.58 1.41zM19 17.92h-2.86v-4.48c0-1.25-.77-1.53-1.05-1.53s-1.24.19-1.24 1.53v4.48h-3V9.71h3v1.15a2.66 2.66 0 012.57-1.15c1.43 0 2.58 1.15 2.58 3.73z"/></svg>