<svg xmlns="http://www.w3.org/2000/svg" viewBox="0 0 24 24"><path d="M3.462,10.539A5,5,0,0,1,2.345,5.176L4.17,7A2,2,0,0,0,7,4.17L5.176,2.345a4.982,4.982,0,0,1,6.763,5.347l1.1,1.1L11.281,10.54l-.059-.059A2.07,2.07,0,0,0,7.68,11.94,4.978,4.978,0,0,1,3.462,10.539Zm17.513,5.486a3.5,3.5,0,1,1-5.851,3.345l-3.041-3.041a2.064,2.064,0,0,0,1.436-.606,2.085,2.085,0,0,0,0-2.945l-.059-.059,1.753-1.753,4.158,4.158A3.472,3.472,0,0,1,20.975,16.025ZM19.6,17.641a1.382,1.382,0,1,0,0,1.954A1.381,1.381,0,0,0,19.6,17.641Zm-9.08-1.859.766-.766a1.083,1.083,0,0,0,1.531-1.531l-.766-.766,6.891-6.891h1.532L22,2.766,21.234,2,18.172,3.531V5.063l-6.891,6.891-.766-.766a1.083,1.083,0,0,0-1.531,1.531l-.766.766a1.082,1.082,0,0,0-1.531,0L2.476,17.7a1.623,1.623,0,0,0,0,2.3l1.531,1.531a1.623,1.623,0,0,0,2.3,0l4.211-4.211A1.082,1.082,0,0,0,10.515,15.782Z"/></svg>