<svg xmlns="http://www.w3.org/2000/svg" viewBox="0 0 24 24" width="512" height="512" aria-labelledby="hmmaintenance-desc hmmaintenance-title"><title id="hmmaintenance-title">Maintenance Icon</title><desc id="hmmaintenance-desc">A picture showing a wrench and a screwdriver tools.</desc><path d="M3.462 10.539a5 5 0 01-1.117-5.363L4.17 7A2 2 0 007 4.17L5.176 2.345a4.982 4.982 0 016.763 5.347l1.1 1.1-1.758 1.748-.059-.059A2.07 2.07 0 007.68 11.94a4.978 4.978 0 01-4.218-1.401zm17.513 5.486a3.5 3.5 0 11-5.851 3.345l-3.041-3.041a2.064 2.064 0 001.436-.606 2.085 2.085 0 000-2.945l-.059-.059 1.753-1.753 4.158 4.158a3.472 3.472 0 011.604.901zM19.6 17.641a1.382 1.382 0 100 1.954 1.381 1.381 0 000-1.954zm-9.08-1.859l.766-.766a1.083 1.083 0 001.531-1.531l-.766-.766 6.891-6.891h1.532L22 2.766 21.234 2l-3.062 1.531v1.532l-6.891 6.891-.766-.766a1.083 1.083 0 00-1.531 1.531l-.766.766a1.082 1.082 0 00-1.531 0L2.476 17.7a1.623 1.623 0 000 2.3l1.531 1.531a1.623 1.623 0 002.3 0l4.211-4.211a1.082 1.082 0 00-.003-1.538z"/></svg>