<svg xmlns="http://www.w3.org/2000/svg" viewBox="0 0 24 24" width="512" height="512" aria-labelledby="homask-1-desc homask-1-title"><title id="homask-1-title">Mask Icon</title><desc id="homask-1-desc">A picture depicting a face mask.</desc><path d="M21.846 6.583a.526.526 0 10-.744-.745l-2.856 2.856L12 6.91 5.754 8.694 2.9 5.838a.526.526 0 10-.744.745L5.342 9.77a35.636 35.636 0 001.269 4.243l-3.4 3.4a.526.526 0 10.744.745l3.208-3.208c1.307 1.068 3.575 2.486 4.837 2.486s3.529-1.417 4.838-2.485l3.211 3.211a.526.526 0 00.744-.745l-3.432-3.432a33.772 33.772 0 001.293-4.211zm-5.635 4.891L12 10.421l-4.211 1.053v-1.053L12 9.368l4.211 1.053z"/></svg>