<svg xmlns="http://www.w3.org/2000/svg" viewBox="0 0 24 24" width="512" height="512" aria-labelledby="hqmassage-desc hqmassage-title"><title id="hqmassage-title">Massage Icon</title><desc id="hqmassage-desc">A picture depicting a person giving another person a massage.</desc><path d="M16 5a3 3 0 113 3 3 3 0 01-3-3zm7 4.967A1.674 1.674 0 0020.368 8.7l-8.387 4.108c0 .064.019.124.019.189a3.953 3.953 0 01-.318 1.563c.224.079.426.179.633.273l3.685-1.7V22h7V9.967zm-12.942 5.207a3 3 0 10-4.116 0C2.794 15.732 1 17.67 1 21h5.667c.333 0 .5-2 0-2h-2C4.3 19 4 18.837 4 18.183a.666.666 0 01.667-.666h6.666a.666.666 0 01.667.666c0 .552-.3.817-.667.817h-2c-.5 0-.333 2 0 2H15c0-3.33-1.794-5.268-4.942-5.826z"/></svg>