<svg xmlns="http://www.w3.org/2000/svg" viewBox="0 0 24 24" width="512" height="512" aria-labelledby="hrmastercard-desc hrmastercard-title"><title id="hrmastercard-title">Mastercard Icon</title><desc id="hrmastercard-desc">A picture showing the MasterCard logo.</desc><path d="M20 4H4a2 2 0 00-2 2v12a2 2 0 002 2h16a2 2 0 002-2V6a2 2 0 00-2-2zM9.536 16A4 4 0 1112 8.85l-.13.093a3.676 3.676 0 000 6.112l.132.094A3.982 3.982 0 019.536 16zm4.928 0A3.982 3.982 0 0112 15.149l.132-.094a3.676 3.676 0 000-6.112l-.13-.093A4 4 0 1114.464 16z"/></svg>