<svg xmlns="http://www.w3.org/2000/svg" viewBox="0 0 24 24" width="512" height="512" aria-labelledby="hvmedium-desc hvmedium-title"><title id="hvmedium-title">Medium Icon</title><desc id="hvmedium-desc">A picture showing the Medium website logo in the middle.</desc><path d="M19 3H5a2 2 0 00-2 2v14a2 2 0 002 2h14a2 2 0 002-2V5a2 2 0 00-2-2zm-1 4.438l-.958.919a.277.277 0 00-.106.269v6.748a.277.277 0 00.106.269l.936.919v.2h-4.706v-.2l.969-.941c.1-.1.1-.123.1-.269V9.9l-2.695 6.844h-.364L8.14 9.9v4.587a.631.631 0 00.174.526l1.26 1.529v.2H6v-.2l1.26-1.532a.608.608 0 00.163-.526V9.18a.464.464 0 00-.151-.392l-1.121-1.35v-.2H9.63l2.689 5.9 2.365-5.9H18z"/></svg>