<svg xmlns="http://www.w3.org/2000/svg" viewBox="0 0 24 24" width="512" height="512" aria-labelledby="hxmicroscope-desc hxmicroscope-title"><title id="hxmicroscope-title">Microscope Icon</title><desc id="hxmicroscope-desc">A picture depicting a microscope.</desc><path d="M8.527 10.137l1.459-1.369-.686-.729L16.592 1.2l1.369 1.459 1.458-1.369 1.369 1.458-1.458 1.364L20.7 5.57l-.512.481a2.978 2.978 0 00-4 3.756l-2.777 2.607-.685-.729-1.458 1.369zM21 8.805a2 2 0 10-2.375 1.962A5.888 5.888 0 0119 12.805 5.985 5.985 0 018.731 17H12v-2H3v2h3.212a8.045 8.045 0 003.161 2.915A1.993 1.993 0 008 21.805V23h10v-1.2a2 2 0 00-1.355-1.885A7.992 7.992 0 0021 12.805a7.9 7.9 0 00-.489-2.7 1.98 1.98 0 00.489-1.3z"/></svg>