<svg xmlns="http://www.w3.org/2000/svg" viewBox="0 0 24 24" width="512" height="512" aria-labelledby="hwmicroorganisms-desc hwmicroorganisms-title"><title id="hwmicroorganisms-title">Microorganisms Icon</title><desc id="hwmicroorganisms-desc">A picture depicting a single-cell organism.</desc><path d="M5.457 3.92C2.446 5.3-.377 10.72 7.586 17.565 9.574 19.274 11 23 14.4 21.735c4.971-1.852.609-11.39-.373-13.529-1.722-3.75-5.558-5.669-8.57-4.286zm4.393 8.994a3.039 3.039 0 111.5-4.03 3.039 3.039 0 01-1.5 4.03zm3.3 5.256a1 1 0 11.492-1.326 1 1 0 01-.488 1.326zM6 19a2 2 0 11-2-2 2 2 0 012 2zm15 1a1 1 0 11-1-1 1 1 0 011 1zm0-8a1 1 0 01-1-1 7.42 7.42 0 00-4-7c-.494-.247-1-.448-1-1s.476-1.175 1-1c3 1 6 3.953 6 9a1 1 0 01-1 1z"/></svg>