<svg xmlns="http://www.w3.org/2000/svg" viewBox="0 0 24 24" width="512" height="512" aria-labelledby="ibmoney-bag-desc ibmoney-bag-title"><title id="ibmoney-bag-title">Money Bag Icon</title><desc id="ibmoney-bag-desc">A picture depicting a bag of coins.</desc><path d="M21 17c0 4-1 5-1 5H4s-1-1-1-5 3-7 6-9h2v1.448a2.546 2.546 0 00-2.278 2.407c0 1.537 1.275 2.3 3.135 2.752 1.673.4 2 .983 2 1.605 0 .458-.33 1.193-1.8 1.193-1.372 0-1.912-.615-1.987-1.4H8.6a2.739 2.739 0 002.4 2.547V20h2v-1.432c1.3-.248 2.39-1 2.4-2.37 0-1.891-1.62-2.543-3.135-2.933s-2-.8-2-1.433c0-.72.675-1.23 1.8-1.23 1.185 0 1.628.57 1.665 1.4h1.47a2.709 2.709 0 00-2.2-2.54V8h2c3 2 6 5 6 9zM13.723 3a1.984 1.984 0 00-3.446 0H8l1 3h6l1-3z"/></svg>