<svg xmlns="http://www.w3.org/2000/svg" viewBox="0 0 24 24" width="512" height="512" aria-labelledby="iems-excel-desc iems-excel-title"><title id="iems-excel-title">Microsoft Excel Icon</title><desc id="iems-excel-desc">A picture showing the Microsoft Excel logo.</desc><path d="M12.833 11.476v-3.6h.994v3.6zm1.993 0H22v-3.6h-7.174zM6.652 3.552v2.734h4.728a1.449 1.449 0 011.161.589h1.284V2.7H7.5a.853.853 0 00-.848.852zm15.338 8.924h-7.164v3.675H22s-.016-2.588-.01-3.675zm-9.758-4.737v8.527a.852.852 0 01-.852.853H2.853A.853.853 0 012 16.266V7.739a.853.853 0 01.853-.853h8.527a.852.852 0 01.852.853zm-2.64 7.035l-1.728-2.795 1.685-2.747H8.336l-.959 1.751q-.1.189-.186.39h-.012a4.283 4.283 0 00-.17-.375l-.9-1.767H4.791L6.434 12 4.64 14.774h1.3l1.067-1.948a1.231 1.231 0 00.12-.251h.015a1.708 1.708 0 00.124.259l1.034 1.94zM21.147 2.7h-6.321v4.175H22V3.553a.853.853 0 00-.853-.853zM7.476 21.3zm13.7 0zm-7.344-4.149v-4.675h-.994v3.79a1.455 1.455 0 01-1.453 1.453H6.652c0 1.154.017 2.391.017 2.822a.8.8 0 00.807.758h13.7a.8.8 0 00.807-.758c0-.526.017-1.481.017-2.822v-.568z"/></svg>