<svg xmlns="http://www.w3.org/2000/svg" viewBox="0 0 24 24" width="512" height="512" aria-labelledby="igms-outlook-desc igms-outlook-title"><title id="igms-outlook-title">Microsoft Outlook Icon</title><desc id="igms-outlook-desc">A picture showing the Microsoft Outlook logo.</desc><path d="M20.748 8.4h-3.563V5.81h3.562zm-6.374 6.922a.33.33 0 00.263 0l1.548-.882v-1.321H12.8v1.314l1.531.863zm6.374-3.48V9.388h-3.564v2.738h3.058zm0-7.709a.878.878 0 00-.878-.877H9.127a.878.878 0 00-.878.877v.986h12.5zm-4.563 5.26H12.8v2.738h3.381zm1 4.481l1.317-.75h-1.32zM12.6 15.432v.234a1.431 1.431 0 01-1.434 1.434H7v2.717a.937.937 0 00.935.937H21.06a.945.945 0 00.231-.031.4.4 0 00.113-.038.081.081 0 00.037-.012.635.635 0 00.144-.081c.013-.007.019-.007.025-.019zm-1.429.757H2.833A.833.833 0 012 15.356V7.024a.833.833 0 01.833-.833h8.333a.833.833 0 01.834.833v8.332a.833.833 0 01-.834.833zm-1.241-5.06a3.486 3.486 0 00-.35-1.593 2.582 2.582 0 00-1-1.083 2.892 2.892 0 00-1.508-.388 3.1 3.1 0 00-1.631.409 2.606 2.606 0 00-1.024 1.134 3.769 3.769 0 00-.348 1.656 3.409 3.409 0 00.354 1.574 2.631 2.631 0 001.011 1.085 2.956 2.956 0 001.542.392 3 3 0 001.566-.4A2.652 2.652 0 009.57 12.8a3.688 3.688 0 00.36-1.671zm5.2 4.828l6.815 3.882a.879.879 0 00.055-.226V11.8c.146 0-6.872 4.157-6.872 4.157zM7.981 9.389a1.5 1.5 0 00-.954-.3 1.558 1.558 0 00-.923.275 1.708 1.708 0 00-.59.751 2.986 2.986 0 000 2.15 1.7 1.7 0 00.577.746 1.506 1.506 0 00.9.272 1.588 1.588 0 00.963-.281 1.62 1.62 0 00.56-.748 2.886 2.886 0 00.179-1.04 3.145 3.145 0 00-.169-1.054 1.666 1.666 0 00-.543-.771zm8.2-3.579H12.8V8.4h3.381z"/></svg>