<svg xmlns="http://www.w3.org/2000/svg" viewBox="0 0 24 24"><path d="M20.748,8.4H17.185V5.81h3.562Zm-6.374,6.922a.33.33,0,0,0,.263,0l1.548-.882V13.119H12.8v1.314l1.531.863Zm6.374-3.48V9.388H17.184v2.738h3.058Zm0-7.709a.878.878,0,0,0-.878-.877H9.127a.878.878,0,0,0-.878.877v.986h12.5Zm-4.563,5.26H12.8v2.738h3.381Zm1,4.481,1.317-.75H17.182ZM12.6,15.432v.234A1.431,1.431,0,0,1,11.166,17.1H7v2.717a.937.937,0,0,0,.935.937H21.06a.945.945,0,0,0,.231-.031.4.4,0,0,0,.113-.038.081.081,0,0,0,.037-.012.635.635,0,0,0,.144-.081c.013-.007.019-.007.025-.019Zm-1.429.757H2.833A.833.833,0,0,1,2,15.356V7.024a.833.833,0,0,1,.833-.833h8.333A.833.833,0,0,1,12,7.024v8.332A.833.833,0,0,1,11.166,16.189ZM9.93,11.129a3.486,3.486,0,0,0-.35-1.593,2.582,2.582,0,0,0-1-1.083,2.892,2.892,0,0,0-1.508-.388,3.1,3.1,0,0,0-1.631.409A2.606,2.606,0,0,0,4.417,9.608a3.769,3.769,0,0,0-.348,1.656,3.409,3.409,0,0,0,.354,1.574,2.631,2.631,0,0,0,1.011,1.085,2.956,2.956,0,0,0,1.542.392,3,3,0,0,0,1.566-.4A2.652,2.652,0,0,0,9.57,12.8,3.688,3.688,0,0,0,9.93,11.129Zm5.2,4.828,6.815,3.882A.879.879,0,0,0,22,19.613V11.8C22.146,11.8,15.128,15.957,15.128,15.957ZM7.981,9.389a1.5,1.5,0,0,0-.954-.3,1.558,1.558,0,0,0-.923.275,1.708,1.708,0,0,0-.59.751,2.986,2.986,0,0,0,0,2.15h0a1.7,1.7,0,0,0,.577.746,1.506,1.506,0,0,0,.9.272,1.588,1.588,0,0,0,.963-.281,1.62,1.62,0,0,0,.56-.748,2.886,2.886,0,0,0,.179-1.04,3.145,3.145,0,0,0-.169-1.054A1.666,1.666,0,0,0,7.981,9.389Zm8.2-3.579H12.8V8.4h3.381Z"/></svg>