<svg xmlns="http://www.w3.org/2000/svg" viewBox="0 0 24 24" width="512" height="512" aria-labelledby="ihms-powerpoint-desc ihms-powerpoint-title"><title id="ihms-powerpoint-title">Microsoft Powerpoint Icon</title><desc id="ihms-powerpoint-desc">A picture showing the Microsoft Powerpoint logo.</desc><path d="M14.105 3.284A8.781 8.781 0 0122 11.605h-7.895zM12.5 12.413v3.758a1.32 1.32 0 01-1.319 1.319H6.469A8.728 8.728 0 0022 12.413zm0-4.584V11.6h.766v.009h.034V3.243h-.035A8.741 8.741 0 006.469 6.51h4.708A1.32 1.32 0 0112.5 7.829zM6.824 9.844H5.729V11.8h1.055a1.38 1.38 0 00.934-.278.692.692 0 00.315-.642q0-1.036-1.209-1.036zm5.186-2.015v8.342a.833.833 0 01-.834.834H2.834A.833.833 0 012 16.171V7.829A.833.833 0 012.834 7h8.342a.833.833 0 01.834.829zm-2.685 3.005a1.8 1.8 0 00-.6-1.459A2.609 2.609 0 007 8.872H4.5v6.256h1.229v-2.293h1.2a2.853 2.853 0 001.264-.266 1.974 1.974 0 00.841-.742 1.7 1.7 0 00.291-.993z"/></svg>