<svg xmlns="http://www.w3.org/2000/svg" viewBox="0 0 24 24"><path d="M22,7.153H12.4a1.408,1.408,0,0,0-1.232-.734H7V4.083a.833.833,0,0,1,.833-.833H21.167A.833.833,0,0,1,22,4.083Zm0,4.358V8.121H12.58v3.39Zm0,4.377V12.479H12.58v3.409ZM11.166,17.581H7v2.336a.833.833,0,0,0,.833.833H21.167A.833.833,0,0,0,22,19.917V16.856H12.393A1.406,1.406,0,0,1,11.166,17.581ZM12,7.833v8.334a.833.833,0,0,1-.833.833H2.833A.833.833,0,0,1,2,16.167V7.833A.833.833,0,0,1,2.833,7h8.334A.833.833,0,0,1,12,7.833ZM10.719,8.875H9.656L8.781,13.25,7.531,9H6.594L5.281,13.25,4.406,8.875H3.281l1.25,6.25H5.656l1.375-4.312,1.313,4.312H9.469Z"/></svg>