<svg xmlns="http://www.w3.org/2000/svg" viewBox="0 0 24 24" width="512" height="512" aria-labelledby="ijms-word-desc ijms-word-title"><title id="ijms-word-title">Microsoft Word Icon</title><desc id="ijms-word-desc">A picture showing the Microsoft Word logo.</desc><path d="M22 7.153h-9.6a1.408 1.408 0 00-1.232-.734H7V4.083a.833.833 0 01.833-.833h13.334a.833.833 0 01.833.833zm0 4.358v-3.39h-9.42v3.39zm0 4.377v-3.409h-9.42v3.409zm-10.834 1.693H7v2.336a.833.833 0 00.833.833h13.334a.833.833 0 00.833-.833v-3.061h-9.607a1.406 1.406 0 01-1.227.725zM12 7.833v8.334a.833.833 0 01-.833.833H2.833A.833.833 0 012 16.167V7.833A.833.833 0 012.833 7h8.334a.833.833 0 01.833.833zm-1.281 1.042H9.656l-.875 4.375L7.531 9h-.937l-1.313 4.25-.875-4.375H3.281l1.25 6.25h1.125l1.375-4.312 1.313 4.312h1.125z"/></svg>