<svg xmlns="http://www.w3.org/2000/svg" viewBox="0 0 24 24" width="512" height="512" aria-labelledby="innext-year-desc innext-year-title"><title id="innext-year-title">Next Year icon</title><desc id="innext-year-desc">A picture depicting a calendar with a forward-arrow in the middle.</desc><path d="M21 21H7v2h14a2 2 0 002-2V10h-2z"/><path d="M19 17V5a2 2 0 00-2-2h-1V1h-2v2H6V1H4v2H3a2 2 0 00-2 2v12a2 2 0 002 2h14a2 2 0 002-2zM3 17V7h14v10H3z"/><path d="M11.13 11.25H5.88v1.5h5.25V15l3-3-3-3v2.25z"/></svg>