<svg xmlns="http://www.w3.org/2000/svg" viewBox="0 0 24 24" width="512" height="512" aria-labelledby="iknext-month-desc iknext-month-title"><title id="iknext-month-title">Next Month icon</title><desc id="iknext-month-desc">A picture depicting a calendar with a forward-arrow at the end.</desc><path d="M20 14.76a4.5 4.5 0 102 3.74 4.47 4.47 0 00-2-3.74zm-2 6.74v-2h-4v-2h4v-2l3 3zM5 9h2v2H5zm0 4h2v2H5zm5 0h2v2h-2zm-5 4h2v2H5zm5 0h2v2h-2zm0-8h2v2h-2zm5 0h2v2h-2z"/><path d="M4 8h14v4h2V5a2 2 0 00-2-2h-1V1h-2v2H7V1H5v2H4a2 2 0 00-2 2v15a2 2 0 002 2h7v-2H4z"/></svg>