<svg xmlns="http://www.w3.org/2000/svg" viewBox="0 0 24 24" width="512" height="512" aria-labelledby="iqnurse-desc iqnurse-title"><title id="iqnurse-title">Nurse Icon</title><desc id="iqnurse-desc">A picture depicting a female nurse.</desc><path d="M14.032 17.331C16.535 17.458 19 19.5 19 22H5c0-2.5 2.465-4.542 4.968-4.669A5.379 5.379 0 017.368 15H5v-3.39a6.037 6.037 0 011.632-4.041L7.3 8.858h9.448l.641-1.266A6.026 6.026 0 0119 11.61V15h-2.368a5.379 5.379 0 01-2.6 2.331zm3.876-12.982l-1.776 3.509H7.907L6.092 4.349A8.441 8.441 0 0111.983 2a7.745 7.745 0 015.925 2.349zm-4.408.08h-1v-1h-1v1h-1v1h1v1h1v-1h1z"/></svg>