<svg xmlns="http://www.w3.org/2000/svg" viewBox="0 0 24 24"><path d="M17,22a4.53,4.53,0,0,1-3.126-1.219,2.644,2.644,0,0,0-3.752,0,4.61,4.61,0,0,1-6.246,0A2.58,2.58,0,0,0,2,20V18a4.523,4.523,0,0,1,3.123,1.219,2.638,2.638,0,0,0,3.747,0,4.615,4.615,0,0,1,6.25,0,2.646,2.646,0,0,0,3.754,0A4.528,4.528,0,0,1,22,18v2a2.588,2.588,0,0,0-1.877.781A4.528,4.528,0,0,1,17,22Zm4-11H19V6H15V8H13V2H9V8H5v3H3v2H6v4.367c.135.1.261.2.373.291a3.938,3.938,0,0,0,.441.328A.764.764,0,0,0,7,18a.657.657,0,0,0,.183-.015,3.853,3.853,0,0,0,.442-.327c.113-.091.242-.192.38-.3V13h3v3.077A6.848,6.848,0,0,1,12,16,6.974,6.974,0,0,1,13,16.078V13h3v4.369c.133.1.258.2.369.287a3.674,3.674,0,0,0,.444.329A.72.72,0,0,0,17,18a.745.745,0,0,0,.185-.015,3.847,3.847,0,0,0,.443-.328c.112-.09.239-.189.375-.292V13h3Z"/></svg>