<svg xmlns="http://www.w3.org/2000/svg" viewBox="0 0 24 24" width="512" height="512" aria-labelledby="isoil-platform-desc isoil-platform-title"><title id="isoil-platform-title">Oil Platform Icon</title><desc id="isoil-platform-desc">A picture depicting an oil platform/offshore drilling rig at seas.</desc><path d="M17 22a4.53 4.53 0 01-3.126-1.219 2.644 2.644 0 00-3.752 0 4.61 4.61 0 01-6.246 0A2.58 2.58 0 002 20v-2a4.523 4.523 0 013.123 1.219 2.638 2.638 0 003.747 0 4.615 4.615 0 016.25 0 2.646 2.646 0 003.754 0A4.528 4.528 0 0122 18v2a2.588 2.588 0 00-1.877.781A4.528 4.528 0 0117 22zm4-11h-2V6h-4v2h-2V2H9v6H5v3H3v2h3v4.367c.135.1.261.2.373.291a3.938 3.938 0 00.441.328A.764.764 0 007 18a.657.657 0 00.183-.015 3.853 3.853 0 00.442-.327c.113-.091.242-.192.38-.3V13h3v3.077A6.848 6.848 0 0112 16a6.974 6.974 0 011 .078V13h3v4.369c.133.1.258.2.369.287a3.674 3.674 0 00.444.329A.72.72 0 0017 18a.745.745 0 00.185-.015 3.847 3.847 0 00.443-.328c.112-.09.239-.189.375-.292V13h3z"/></svg>