<svg xmlns="http://www.w3.org/2000/svg" viewBox="0 0 24 24" width="512" height="512" aria-labelledby="iroil-desc iroil-title"><title id="iroil-title">Oil Icon</title><desc id="iroil-desc">A picture depicting an oil barrel.</desc><path d="M20 12c0-.575-.455-1.109-1.231-1.562V6.5C19.545 6.051 20 5.516 20 4.941 20 3.317 16.418 2 12 2S4 3.317 4 4.941c0 .575.455 1.11 1.231 1.563v3.934C4.455 10.891 4 11.425 4 12s.455 1.109 1.231 1.562V17.5C4.455 17.949 4 18.484 4 19.059 4 20.683 7.582 22 12 22s8-1.317 8-2.941c0-.575-.455-1.11-1.231-1.563v-3.934C19.545 13.109 20 12.575 20 12zm-7.534-4.126l-.023.008-.024-.007zM12 16.118A4.217 4.217 0 017.692 12 4.217 4.217 0 0112 7.882 4.217 4.217 0 0116.308 12 4.217 4.217 0 0112 16.118zm1.8-5.338L12 9.059l-1.8 1.721a2.364 2.364 0 000 3.445 2.631 2.631 0 003.608 0 2.364 2.364 0 000-3.445z"/></svg>