<svg xmlns="http://www.w3.org/2000/svg" viewBox="0 0 24 24" width="512" height="512" aria-labelledby="itonedrive-desc itonedrive-title"><title id="itonedrive-title">OneDrive Icon</title><desc id="itonedrive-desc">A picture showing the Microsoft OneDrive logo.</desc><path d="M14.525 11.838c1.617-.719 3.724-1.788 5.43-.712a3.9 3.9 0 011.711 4.991zM9.406 9.453a4.829 4.829 0 00-2.549-.723H6.8a4.865 4.865 0 00-4.043 7.424l10.478-4.409zm.3-.5l4.192 2.51c1.189-.444 3.091-1.536 4.4-1.384A6.438 6.438 0 007 8.156a5.4 5.4 0 012.711.8zm4.146 3.163L3.1 16.645a4.865 4.865 0 003.755 1.791h11.256a3.893 3.893 0 003.274-1.807z"/></svg>