<svg xmlns="http://www.w3.org/2000/svg" viewBox="0 0 24 24" width="512" height="512" aria-labelledby="ivpacifier-desc ivpacifier-title"><title id="ivpacifier-title">Pacifier Icon</title><desc id="ivpacifier-desc">A picture depicting a baby pacifier.</desc><path d="M14.406 3.3a4.448 4.448 0 112.9 7.583l-.806.805L12.309 7.5l.805-.806A4.43 4.43 0 0114.406 3.3zM10.4 18.319a3.746 3.746 0 01-.937 1.611 3.813 3.813 0 01-5.393-5.393 3.75 3.75 0 011.612-.937 6 6 0 01-.1-.963A4.715 4.715 0 003.4 13.863a4.767 4.767 0 006.737 6.737 4.712 4.712 0 001.228-2.19 5.932 5.932 0 01-.965-.091zm6.477-3.108L8.789 7.123A.954.954 0 007.44 8.471l1.349 1.348a3.813 3.813 0 005.392 5.392l1.348 1.349a.954.954 0 101.348-1.349z"/></svg>