<svg xmlns="http://www.w3.org/2000/svg" viewBox="0 0 24 24" width="512" height="512" aria-labelledby="iyparliament-2-desc iyparliament-2-title"><title id="iyparliament-2-title">Parliament Icon</title><desc id="iyparliament-2-desc">A picture depicting a parliament building.</desc><path d="M21 9V8h2V6h-6V5h-4.5V3h-.128v-.246l.056-.009a2.454 2.454 0 001.818-1.49 3.317 3.317 0 00-1.855.727l-.019.007v-.607a.382.382 0 10-.763 0v.6a3.317 3.317 0 00-1.855-.727 2.454 2.454 0 001.818 1.49l.037.006V3H11.5v2H7v1H1v2h2v1h1v11H3v1H1v2h22v-2h-2v-1h-1V9zM7 20H5V9h2zm3 0H8V9h2zm3 0h-2V9h2zm3 0h-2V9h2zm3 0h-2V9h2z"/></svg>