<svg xmlns="http://www.w3.org/2000/svg" viewBox="0 0 24 24" width="512" height="512" aria-labelledby="ixparliament-1-desc ixparliament-1-title"><title id="ixparliament-1-title">Parliament Icon</title><desc id="ixparliament-1-desc">A picture depicting a parliament building.</desc><path d="M14.315 7h-4.63c0-2.3 1.082-4.315 2.315-4.315S14.315 4.7 14.315 7zM6.09 7H9c0-2.761 1.343-5 3-5a6 6 0 00-5.91 5zM12 2c1.657 0 3 2.239 3 5h2.91A6 6 0 0012 2zm10 9v11H2V11h20zM7 16.5a1.5 1.5 0 00-3 0V21h3zM7 12H4v1h3zm8 5a3 3 0 00-6 0v4h6zm5-.5a1.5 1.5 0 00-3 0V21h3zm0-4.5h-3v1h3zm0-4H4v2h16z"/></svg>