<svg xmlns="http://www.w3.org/2000/svg" viewBox="0 0 24 24" width="512" height="512" aria-labelledby="izpay-date-desc izpay-date-title"><title id="izpay-date-title">Paydate Icon</title><desc id="izpay-date-desc">A picture depicting a credit card in front of a calendar.</desc><path d="M5 2v2H4a2.006 2.006 0 00-2 2v14a2.006 2.006 0 002 2h4v-2H4V9h14v2h2V6a2.006 2.006 0 00-2-2h-1V2h-2v2H7V2zm5 14.75h12v3.75a1.5 1.5 0 01-1.5 1.5h-9a1.5 1.5 0 01-1.5-1.5zm12-2.25v.75H10v-.75a1.5 1.5 0 011.5-1.5h9a1.5 1.5 0 011.5 1.5z"/></svg>