<svg xmlns="http://www.w3.org/2000/svg" viewBox="0 0 24 24"><path d="M20.933,7.24a5.16,5.16,0,0,0-3.069-1.794,4.619,4.619,0,0,0-4.715-3.44H6.5A1.589,1.589,0,0,0,4.981,3.127c-.017.044-2.961,13.559-2.969,13.744-.22,2.316,2.744,1.733,4.158,1.792-.026.248-.356,1.5-.334,1.727a1.609,1.609,0,0,0,1.6,1.6s2.918-.017,3.8-.017a1.529,1.529,0,0,0,1.378-1.242l1-4.293h1.552C20.688,16.442,23.754,10.828,20.933,7.24Zm-16.565,9.2L7.005,4.227h6.144a2.746,2.746,0,0,1,2.308,1.125H10.231a1.59,1.59,0,0,0-1.514,1.1c-.535,2.48-1.534,7.54-2.077,9.991Zm15.289-5.234c-2.13,5.363-7.439,1.138-8.1,4.343l-.989,4.222H8.207L9.618,13.11c5.089.457,8.1-1.9,8.434-5.312A2.846,2.846,0,0,1,19.657,11.208Z"/></svg>