<svg xmlns="http://www.w3.org/2000/svg" viewBox="0 0 24 24" width="512" height="512" aria-labelledby="japaypal-desc japaypal-title"><title id="japaypal-title">Paypal Icon</title><desc id="japaypal-desc">A picture showing the PayPal application logo.</desc><path d="M20.933 7.24a5.16 5.16 0 00-3.069-1.794 4.619 4.619 0 00-4.715-3.44H6.5a1.589 1.589 0 00-1.519 1.121c-.017.044-2.961 13.559-2.969 13.744-.22 2.316 2.744 1.733 4.158 1.792-.026.248-.356 1.5-.334 1.727a1.609 1.609 0 001.6 1.6s2.918-.017 3.8-.017a1.529 1.529 0 001.378-1.242l1-4.293h1.552c5.522.004 8.588-5.61 5.767-9.198zm-16.565 9.2L7.005 4.227h6.144a2.746 2.746 0 012.308 1.125h-5.226a1.59 1.59 0 00-1.514 1.1c-.535 2.48-1.534 7.54-2.077 9.991zm15.289-5.234c-2.13 5.363-7.439 1.138-8.1 4.343l-.989 4.222H8.207l1.411-6.661c5.089.457 8.1-1.9 8.434-5.312a2.846 2.846 0 011.605 3.41z"/></svg>