<svg xmlns="http://www.w3.org/2000/svg" viewBox="0 0 24 24" width="512" height="512" aria-labelledby="jbpiggy-bank-desc jbpiggy-bank-title"><title id="jbpiggy-bank-title">Piggy Bank Icon</title><desc id="jbpiggy-bank-desc">A picture depicting a piggy bank.</desc><path d="M20 13c-.011 0-.02.006-.032.006A6.613 6.613 0 0018 8l-.692 1.5A4.974 4.974 0 0013.8 7.081 4.2 4.2 0 0013 7a4.908 4.908 0 00-.906.091c-.136.025-.264.066-.4.1s-.281.078-.417.129a5.181 5.181 0 00-.5.219c-.071.036-.14.074-.209.113a5.065 5.065 0 00-.543.348C9.212 7.374 8.477 6.817 6 7l.7 2.526A6.766 6.766 0 005.452 12H4a1 1 0 00-1 1v3a1 1 0 001 1h2l2 5h3v-2h4l-.054 2H17a16.824 16.824 0 002.932-7.014c.023 0 .044.014.068.014a1 1 0 000-2zM9.5 13a1.5 1.5 0 111.5-1.5A1.5 1.5 0 019.5 13zm.652-7.1A2.96 2.96 0 0110 5a3 3 0 016 0 2.96 2.96 0 01-.152.9 4.97 4.97 0 00-5.7 0z"/></svg>