<svg xmlns="http://www.w3.org/2000/svg" viewBox="0 0 24 24"><path d="M20,13c-.011,0-.02.006-.032.006A6.613,6.613,0,0,0,18,8l-.692,1.5A4.974,4.974,0,0,0,13.8,7.081,4.2,4.2,0,0,0,13,7a4.908,4.908,0,0,0-.906.091c-.136.025-.264.066-.4.1s-.281.078-.417.129a5.181,5.181,0,0,0-.5.219c-.071.036-.14.074-.209.113A5.065,5.065,0,0,0,10.025,8C9.212,7.374,8.477,6.817,6,7l.7,2.526A6.766,6.766,0,0,0,5.452,12H4a1,1,0,0,0-1,1V16a1,1,0,0,0,1,1l2,0,2,5h3V20h4l-.054,2H17a16.824,16.824,0,0,0,2.932-7.014c.023,0,.044.014.068.014a1,1,0,0,0,0-2ZM9.5,13A1.5,1.5,0,1,1,11,11.5,1.5,1.5,0,0,1,9.5,13Zm.652-7.1A2.96,2.96,0,0,1,10,5a3,3,0,0,1,6,0,2.96,2.96,0,0,1-.152.9,4.97,4.97,0,0,0-5.7,0Z"/></svg>