<svg xmlns="http://www.w3.org/2000/svg" viewBox="0 0 24 24" width="512" height="512" aria-labelledby="jfpinterest-desc jfpinterest-title"><title id="jfpinterest-title">Pinterest Icon</title><desc id="jfpinterest-desc">A picture showing the Pinterest logo.</desc><path d="M2 12a9.75 9.75 0 013-7.11A9.83 9.83 0 0112 2a9.74 9.74 0 017.17 3A9.93 9.93 0 0122 12a9.77 9.77 0 01-3 7.09A9.8 9.8 0 0112 22a9.45 9.45 0 01-2.81-.43 10.79 10.79 0 00.54-1 16.37 16.37 0 00.79-2.5c.07-.33.19-.79.35-1.36a2.57 2.57 0 00.94.86 4.1 4.1 0 003.71-.16 6.16 6.16 0 002.81-3.63A7.36 7.36 0 0018.15 9 5.61 5.61 0 0015 5.83 8.7 8.7 0 009.46 6a6.3 6.3 0 00-3.75 3.42 8.07 8.07 0 00-.33 1.78 8.18 8.18 0 00.06 1.72 3.39 3.39 0 00.56 1.5 3 3 0 001.25 1 .36.36 0 00.32 0c.1 0 .2-.26.31-.62a2.25 2.25 0 00.12-.73l-.16-.27a3.82 3.82 0 01-.53-2.8 5 5 0 011.21-2.47 5.46 5.46 0 013.38-1.41 4.45 4.45 0 013.3 1 4.22 4.22 0 011 2.07 6.51 6.51 0 010 2.33 7.27 7.27 0 01-.76 2.09 2.86 2.86 0 01-2.31 1.56 1.73 1.73 0 01-1.27-.6 1.38 1.38 0 01-.29-1.31 16.79 16.79 0 01.43-1.63 9.22 9.22 0 00.43-1.88c-.08-1-.54-1.5-1.37-1.52a1.88 1.88 0 00-1.45.88 3.43 3.43 0 00-.5 1.73 4.39 4.39 0 00.35 1.57c-.29 1.17-.51 2.11-.67 2.81 0 .18-.19.74-.43 1.68A13.13 13.13 0 008 20.05v1.09a10.34 10.34 0 01-4.4-3.73A9.64 9.64 0 012 12z"/></svg>