<svg xmlns="http://www.w3.org/2000/svg" viewBox="0 0 24 24" width="512" height="512" aria-labelledby="jiplastic-surgery-desc jiplastic-surgery-title"><title id="jiplastic-surgery-title">Plastic Surgery Icon</title><desc id="jiplastic-surgery-desc">A picture depicting a marker-marked human torso.</desc><path d="M12.128 6.594c1.872 3.817 6.8 3.227 7.091-.681C19.41 4.237 18.5 3.194 18.081 2H5.919C5.5 3.194 4.59 4.237 4.781 5.913c.527 3.868 5.494 4.509 7.347.681zM16 5a1 1 0 11-1 1 1 1 0 011-1zM8 5a1 1 0 11-1 1 1 1 0 011-1zm10.379 5.4a4.278 4.278 0 01-2.483.772 5.033 5.033 0 01-3.76-1.776 4.968 4.968 0 01-3.78 1.767 4.493 4.493 0 01-2.693-.888C3.435 14.3 3.845 19.122 4.629 22h14.744c.774-2.844 1.19-7.665-.994-11.6zM7.168 12c.2.653.377 1.332.524 2H6.666a30.083 30.083 0 00-.544-2zm-.2 9H5.885a11.977 11.977 0 00.7-2h1.022a14.377 14.377 0 01-.641 2zm1-4h-1c.02-.184.033-.359.038-.517s-.017-.322-.026-.483h1c.008.173.029.355.024.517-.004.145-.022.309-.039.483zm8.752-5h1.046c-.2.644-.387 1.329-.543 2h-1.03c.148-.668.328-1.347.524-2zM12 18a1 1 0 111-1 1 1 0 01-1 1zm3.886-1.483c0-.162.015-.344.023-.517h1c-.008.161-.031.336-.026.483s.019.333.038.517h-1a5.63 5.63 0 01-.035-.483zM16.92 21a14.115 14.115 0 01-.641-2H17.3a11.976 11.976 0 00.7 2z"/></svg>