<svg xmlns="http://www.w3.org/2000/svg" viewBox="0 0 24 24"><path d="M13.205,9.121c-.2-.2-.552-.921-1.3-.907a1.354,1.354,0,0,0-.171.025A2.546,2.546,0,0,0,9.457,6.788l-.8-3.061L4.466,2l-.616.617L5.836,4.85a1.383,1.383,0,0,1,1.7,1.7l.582.582a2.582,2.582,0,0,0-.568.418,2.619,2.619,0,0,0-.419.568l-.581-.581a1.385,1.385,0,0,1-1.7-1.7L2.617,3.85,2,4.466,3.726,8.659l3.062.8a2.546,2.546,0,0,0,1.451,2.273,1.354,1.354,0,0,0-.025.171c-.014.751.706,1.1.907,1.3.2.553,2.46,9.391,8.662,8.763,1.715-.174.351-1.557-1.155-1.908s-3.164-2.511-3.691-3.892c-.44-1.152-.722-3.66-1.767-4.856.025-.023.054-.04.078-.064s.041-.053.064-.078c1.2,1.045,3.7,1.327,4.856,1.767,1.381.527,3.54,2.184,3.892,3.691s1.734,2.87,1.908,1.155C22.6,11.581,13.758,9.321,13.205,9.121Zm-3.19.894a.872.872,0,1,1,0-1.233A.871.871,0,0,1,10.015,10.015Z"/></svg>