<svg xmlns="http://www.w3.org/2000/svg" viewBox="0 0 24 24" width="512" height="512" aria-labelledby="jlpneumatic-hammer-drill-desc jlpneumatic-hammer-drill-title"><title id="jlpneumatic-hammer-drill-title">Pneumatic Hammer Drill Icon</title><desc id="jlpneumatic-hammer-drill-desc">A picture depicting a pneumatic hammer drill.</desc><path d="M21 4h-3a.937.937 0 00-.857-1H14a1 1 0 00-1-1h-2a1 1 0 00-1 1H6.857A.937.937 0 006 4H3a1 1 0 000 2h3a.937.937 0 00.857 1H8v3a1 1 0 001 1v4a1 1 0 001 1h1v4l1 2 1-2v-4h1a1 1 0 001-1v-4a1 1 0 001-1V7h1.143A.937.937 0 0018 6h3a1 1 0 000-2zm-6 2H9V4h6z"/></svg>