<svg xmlns="http://www.w3.org/2000/svg" viewBox="0 0 24 24" width="512" height="512" aria-labelledby="jnpopular-votes-desc jnpopular-votes-title"><title id="jnpopular-votes-title">Popular Votes Icon</title><desc id="jnpopular-votes-desc">A picture depicting a hand about to drop a ballot into a voting box.</desc><path d="M22 7h-3V1h3zm-8.151-4.344C11.5 2.656 9 4 8.175 8h2.036c.182-1.331.8-2 1.789-2a1.183 1.183 0 011.135 1.048S9.4 9.86 9.538 11.3c.044.44.548.945.919.705C12.808 10.481 18 5.9 18 5.9V2.635s-3.186.021-4.151.021zM11 12.842a1.385 1.385 0 01-.751.222A1.848 1.848 0 018.543 11.4 3.638 3.638 0 019.574 9H7v7h10V9h-1.07A61.327 61.327 0 0111 12.842zM24 17v4a2 2 0 01-2 2H1.99A2 2 0 010 21v-4l3-3h2v2H3.78L2 18h20l-1.77-2H19v-2h2z"/></svg>