<svg xmlns="http://www.w3.org/2000/svg" viewBox="0 0 24 24"><path d="M22,7H19V1h3ZM13.849,2.656C11.5,2.656,9,4,8.175,8h2.036c.182-1.331.8-2,1.789-2a1.183,1.183,0,0,1,1.135,1.048S9.4,9.86,9.538,11.3c.044.44.548.945.919.705C12.808,10.481,18,5.9,18,5.9V2.635S14.814,2.656,13.849,2.656ZM11,12.842a1.385,1.385,0,0,1-.751.222A1.848,1.848,0,0,1,8.543,11.4,3.638,3.638,0,0,1,9.574,9H7v7H17V9H15.93A61.327,61.327,0,0,1,11,12.842ZM24,17v4a2,2,0,0,1-2,2H1.99A2,2,0,0,1,0,21V17l3-3H5v2H3.78L2,18H22l-1.77-2H19V14h2Z"/></svg>