<svg xmlns="http://www.w3.org/2000/svg" viewBox="0 0 24 24"><path d="M10.022,5.7c-.015-.181.392-.75.392-.75l-.145-.961-.244.145a1.718,1.718,0,0,1,1.7-1.857,2.393,2.393,0,0,1,3.426,1.3,2.141,2.141,0,0,0,.228,0c.092-.014.184.144.184.144a.582.582,0,0,1,.514-.144,1.7,1.7,0,0,1,1.013.516l-.747.746c-.006-.585-.74-.788-.74-.788l-.027.131-.27.076a2.535,2.535,0,0,1-.678,1.82,3.336,3.336,0,0,0-.4.877L12.012,9.159a2.3,2.3,0,0,0,.377-1.59c-.1-.461-.7-.131-.7-.131A1.465,1.465,0,0,1,11.1,7.5a.5.5,0,0,1-.356-.618c.066-.224-.3-.094-.361-.156-.182-.175.058-.332.058-.332s-.2.021-.237-.026c-.2-.261.158-.434.158-.434S10.038,5.9,10.022,5.7ZM7.346,9.992c-.013-.079-.421-.29-.421-.527,0-.183.291-.476.423-.6a4.418,4.418,0,0,0,.143.837c.171.553.842,2.844.842,2.844l.068.224,1.237-1.236c-.317-.377-.663-.8-.9-1.134-.527-.75-.83-1.343-.7-1.606s.641-.16.724-.343c.02-.043-.105-.158-.105-.158A2.907,2.907,0,0,0,9.545,6.7c-.158-.131-1.08-.8-1.08-.8s-.281.2-.546.431c-.131-.023-.21-.035-.2.185L7.68,6.55c-.121-.021-.19-.017-.177.208l-.009.012c-.145.017-.233.021-.151.251l-.008.018c-.118.017-.176.049-.083.278a2.049,2.049,0,0,0,.055.818s0,.137.012.336a2.139,2.139,0,0,1-.691.861c-.123.025-.276-.109-.429-.188s-.222.018-.222.018c.079.066,1.255.909,1.255.909S7.359,10.071,7.346,9.992Zm10.659,3.6c.184.292-.521.876-.823,1.126S15,17,15,17a2.583,2.583,0,0,1,.43,1.484,2.751,2.751,0,0,1-.776,1.844A2.955,2.955,0,0,0,14.024,22H10.651a12.98,12.98,0,0,0-.132-2.015c-.086-.162-1.448-.521-2.178-1.5L4.929,21.9,3.515,20.485l4.652-4.652,7-7,5.322-5.322L21.9,4.929,16.27,10.558C16.618,11.216,17.3,12.474,18.005,13.593ZM16,14a18.616,18.616,0,0,0-1.183-1.988l-1.67,1.669A6.1,6.1,0,0,0,14,16Z"/></svg>