<svg xmlns="http://www.w3.org/2000/svg" viewBox="0 0 24 24" width="512" height="512" aria-labelledby="jppregnancy-no-alcohol-desc jppregnancy-no-alcohol-title"><title id="jppregnancy-no-alcohol-title">Pregnancy No Alcohol Icon</title><desc id="jppregnancy-no-alcohol-desc">A picture showing a crossed-out woman drinking wine.</desc><path d="M10.022 5.7c-.015-.181.392-.75.392-.75l-.145-.961-.244.145a1.718 1.718 0 011.7-1.857 2.393 2.393 0 013.426 1.3 2.141 2.141 0 00.228 0c.092-.014.184.144.184.144a.582.582 0 01.514-.144 1.7 1.7 0 011.013.516l-.747.746c-.006-.585-.74-.788-.74-.788l-.027.131-.27.076a2.535 2.535 0 01-.678 1.82 3.336 3.336 0 00-.4.877l-2.216 2.204a2.3 2.3 0 00.377-1.59c-.1-.461-.7-.131-.7-.131a1.465 1.465 0 01-.589.062.5.5 0 01-.356-.618c.066-.224-.3-.094-.361-.156-.182-.175.058-.332.058-.332s-.2.021-.237-.026c-.2-.261.158-.434.158-.434s-.324-.034-.34-.234zM7.346 9.992c-.013-.079-.421-.29-.421-.527 0-.183.291-.476.423-.6a4.418 4.418 0 00.143.837c.171.553.842 2.844.842 2.844l.068.224 1.237-1.236c-.317-.377-.663-.8-.9-1.134-.527-.75-.83-1.343-.7-1.606s.641-.16.724-.343c.02-.043-.105-.158-.105-.158A2.907 2.907 0 009.545 6.7c-.158-.131-1.08-.8-1.08-.8s-.281.2-.546.431c-.131-.023-.21-.035-.2.185l-.039.034c-.121-.021-.19-.017-.177.208l-.009.012c-.145.017-.233.021-.151.251l-.008.018c-.118.017-.176.049-.083.278a2.049 2.049 0 00.055.818s0 .137.012.336a2.139 2.139 0 01-.691.861c-.123.025-.276-.109-.429-.188s-.222.018-.222.018c.079.066 1.255.909 1.255.909s.127 0 .114-.079zm10.659 3.6c.184.292-.521.876-.823 1.126S15 17 15 17a2.583 2.583 0 01.43 1.484 2.751 2.751 0 01-.776 1.844 2.955 2.955 0 00-.63 1.672h-3.373a12.98 12.98 0 00-.132-2.015c-.086-.162-1.448-.521-2.178-1.5L4.929 21.9l-1.414-1.415 4.652-4.652 7-7 5.322-5.322L21.9 4.929l-5.63 5.629c.348.658 1.03 1.916 1.735 3.035zM16 14a18.616 18.616 0 00-1.183-1.988l-1.67 1.669A6.1 6.1 0 0014 16z"/></svg>