<svg xmlns="http://www.w3.org/2000/svg" viewBox="0 0 24 24"><path d="M17.224,12.682c.017-.227.035-.455.035-.682a2.849,2.849,0,0,0-.07-.683l1.487-1.155a.351.351,0,0,0,.088-.455l-1.4-2.415a.338.338,0,0,0-.42-.157l-1.75.7a5.275,5.275,0,0,0-1.173-.683L13.759,5.3a.356.356,0,0,0-.35-.3h-2.8a.356.356,0,0,0-.35.3L10,7.152a5.532,5.532,0,0,0-1.172.683l-1.75-.7a.344.344,0,0,0-.42.157l-1.4,2.415a.346.346,0,0,0,.087.455l1.488,1.155a4.293,4.293,0,0,0-.07.683c0,.227.017.455.035.682l-1.47,1.155a.333.333,0,0,0-.088.438l1.4,2.432a.368.368,0,0,0,.438.158l1.732-.7a5.024,5.024,0,0,0,1.19.682l.263,1.855a.356.356,0,0,0,.35.3h2.8a.344.344,0,0,0,.35-.3l.28-1.855a5.242,5.242,0,0,0,1.172-.682l1.733.7a.352.352,0,0,0,.42-.158l1.4-2.432a.329.329,0,0,0-.088-.438Zm-4.5,2.455v.984H11.351v-.994a1.917,1.917,0,0,1-1.684-1.752h1.009c.052.541.423.963,1.365.963,1.01,0,1.236-.5,1.236-.819,0-.427-.226-.829-1.375-1.1-1.277-.309-2.153-.834-2.153-1.89a1.786,1.786,0,0,1,1.6-1.654V7.879h1.375V8.884a1.821,1.821,0,0,1,1.468,1.746H13.185c-.026-.572-.33-.963-1.144-.963-.772,0-1.236.35-1.236.844,0,.433.335.716,1.375.984s2.153.716,2.153,2.014C14.328,14.452,13.623,14.967,12.726,15.137ZM16.47,21.48A10.487,10.487,0,0,0,22.44,13h1.5A11.994,11.994,0,0,1,11.99,24l-.66-.03,3.81-3.81ZM11.99,0l.66.03L8.84,3.84,7.51,2.51a10.47,10.47,0,0,0-5.96,8.48H.05A11.977,11.977,0,0,1,11.99,0Z"/></svg>