<svg xmlns="http://www.w3.org/2000/svg" viewBox="0 0 24 24" width="512" height="512" aria-labelledby="jsproject-revenue-desc jsproject-revenue-title"><title id="jsproject-revenue-title">Project Revenue Icon</title><desc id="jsproject-revenue-desc">A picture showing the dollar symbol inside a mechanical gear encircled by rotating arrows.</desc><path d="M17.224 12.682c.017-.227.035-.455.035-.682a2.849 2.849 0 00-.07-.683l1.487-1.155a.351.351 0 00.088-.455l-1.4-2.415a.338.338 0 00-.42-.157l-1.75.7a5.275 5.275 0 00-1.173-.683L13.759 5.3a.356.356 0 00-.35-.3h-2.8a.356.356 0 00-.35.3L10 7.152a5.532 5.532 0 00-1.172.683l-1.75-.7a.344.344 0 00-.42.157l-1.4 2.415a.346.346 0 00.087.455l1.488 1.155a4.293 4.293 0 00-.07.683c0 .227.017.455.035.682l-1.47 1.155a.333.333 0 00-.088.438l1.4 2.432a.368.368 0 00.438.158l1.732-.7a5.024 5.024 0 001.19.682l.263 1.855a.356.356 0 00.35.3h2.8a.344.344 0 00.35-.3l.28-1.855a5.242 5.242 0 001.172-.682l1.733.7a.352.352 0 00.42-.158l1.4-2.432a.329.329 0 00-.088-.438zm-4.5 2.455v.984h-1.373v-.994a1.917 1.917 0 01-1.684-1.752h1.009c.052.541.423.963 1.365.963 1.01 0 1.236-.5 1.236-.819 0-.427-.226-.829-1.375-1.1-1.277-.309-2.153-.834-2.153-1.89a1.786 1.786 0 011.6-1.654v-.996h1.375v1.005a1.821 1.821 0 011.468 1.746h-1.007c-.026-.572-.33-.963-1.144-.963-.772 0-1.236.35-1.236.844 0 .433.335.716 1.375.984s2.153.716 2.153 2.014c-.005.943-.71 1.458-1.607 1.628zm3.746 6.343A10.487 10.487 0 0022.44 13h1.5a11.994 11.994 0 01-11.95 11l-.66-.03 3.81-3.81zM11.99 0l.66.03-3.81 3.81-1.33-1.33a10.47 10.47 0 00-5.96 8.48H.05A11.977 11.977 0 0111.99 0z"/></svg>