<svg xmlns="http://www.w3.org/2000/svg" viewBox="0 0 24 24" width="512" height="512" aria-labelledby="jtprotester-signs-desc jtprotester-signs-title"><title id="jtprotester-signs-title">Protester Signs Icon</title><desc id="jtprotester-signs-desc">A picture showing two signs.</desc><path d="M12.431 13.063l-4.746-1.244 1.672-6.1L1 7.905l2.225 8.126 4.746-1.244L9.965 21l1.272-3.577-.892-3.258 1.922-.5zm-5.244-.427l-1.693-.977-.978 1.693-.847-.489.978-1.693-1.694-.978.489-.846 1.694.977.977-1.693.847.489-.978 1.693 1.694.978zM11.135 3l-2.226 8.127 4.746 1.244L11.293 21h2.543l2.193-8.007 4.746 1.245L23 6.111zm3.188 8.22l-1.666-3.258 1.074-.673L14.8 9.426l4.606-2.951L20 7.6z"/></svg>