<svg xmlns="http://www.w3.org/2000/svg" viewBox="0 0 24 24" width="512" height="512" aria-labelledby="karadiator-desc karadiator-title"><title id="karadiator-title">Radiator Icon</title><desc id="karadiator-desc">A picture showing a radiator used for heating.</desc><path d="M19.277 8a2 2 0 100-2H18v-.5a1.5 1.5 0 00-3 0V6h-2v-.5a1.5 1.5 0 00-3 0V6H8v-.5a1.5 1.5 0 00-3 0V6H2v2h3v8H2v2h3v.5a1.5 1.5 0 003 0V18h2v.5a1.5 1.5 0 003 0V18h2v.5a1.5 1.5 0 003 0V18h2v1h2v-4h-2v1h-2V8zM8 16V8h2v8zm7 0h-2V8h2z"/></svg>