<svg xmlns="http://www.w3.org/2000/svg" viewBox="0 0 24 24" width="512" height="512" aria-labelledby="kbradioactive-desc kbradioactive-title"><title id="kbradioactive-title">Radioactive Icon</title><desc id="kbradioactive-desc">A picture showing the radioactive symbol.</desc><path d="M12 0a12 12 0 1012 12A12 12 0 0012 0zm0 21.6a9.6 9.6 0 119.6-9.6 9.6 9.6 0 01-9.6 9.6zM11 12a1 1 0 111 1 1 1 0 01-1-1zm-3.236 6.778a7.984 7.984 0 01-3.75-6.5l5-.175a2.985 2.985 0 001.4 2.432zm.481-13.841a7.993 7.993 0 017.51 0L13.4 9.363a2.889 2.889 0 00-2.8 0zm11.741 7.343a7.984 7.984 0 01-3.75 6.5l-2.65-4.241a2.985 2.985 0 001.4-2.432z"/></svg>