<svg xmlns="http://www.w3.org/2000/svg" viewBox="0 0 24 24" width="512" height="512" aria-labelledby="kcreddit-desc kcreddit-title"><title id="kcreddit-title">Reddit Icon</title><desc id="kcreddit-desc">A picture showing the Reddit website logo.</desc><path d="M12 2A10 10 0 112 12 10 10 0 0112 2zm6.67 10a1.47 1.47 0 00-1.51-1.41 1.5 1.5 0 00-1 .41 7.09 7.09 0 00-3.85-1.23L13 6.65l2.14.45A1 1 0 1016 6a1 1 0 00-.75.49L12.82 6a.3.3 0 00-.37.23l-.74 3.47a7.14 7.14 0 00-3.9 1.23 1.46 1.46 0 00-2 2.13 1.48 1.48 0 00.39.26 3.23 3.23 0 000 .44c0 2.24 2.61 4.07 5.8 4.07s5.83-1.82 5.83-4.06a3.23 3.23 0 000-.44 1.47 1.47 0 00.84-1.33zm-10 1a1 1 0 111 1 1 1 0 01-1-1zm5.81 2.75a3.79 3.79 0 01-2.47.77 3.79 3.79 0 01-2.47-.77.27.27 0 010-.38.29.29 0 01.35 0A3.28 3.28 0 0012 16a3.27 3.27 0 002.09-.61.28.28 0 01.39.4zM14.3 14a1 1 0 111-1 1 1 0 01-1 1h-.05z"/></svg>