<svg xmlns="http://www.w3.org/2000/svg" viewBox="0 0 24 24" width="512" height="512" aria-labelledby="keresponsive-layout-desc keresponsive-layout-title"><title id="keresponsive-layout-title">Responsive Layout Icon</title><desc id="keresponsive-layout-desc">A picture depicting a mobile phone in front of a laptop computer.</desc><path d="M12 20H3a1 1 0 01-1-1v-1h3a2 2 0 01-2-2V5a2 2 0 012-2h14a2 2 0 012 2v2h-2V5H5v11h7zm3-11h6a1 1 0 011 1v10a1 1 0 01-1 1h-6a1 1 0 01-1-1V10a1 1 0 011-1zm5 2h-4v8h4z"/></svg>