<svg xmlns="http://www.w3.org/2000/svg" viewBox="0 0 24 24" width="512" height="512" aria-labelledby="khresults-piechart-desc khresults-piechart-title"><title id="khresults-piechart-title">Results Pie Chart Icon</title><desc id="khresults-piechart-desc">A picture depicting a pie chart.</desc><path d="M8.5 12.5a.94.94 0 01-1.244.951L4.207 16.5H0v-1h3.793l2.756-2.756A.992.992 0 118.5 12.5zm12.525-4l-3.049 3.049a.988.988 0 00-.244-.049 1 1 0 101 1 .952.952 0 00-.049-.244L21.439 9.5H24v-1zm-6.777-3.807A7.994 7.994 0 003.4 14.482l2.1-2.107A2 2 0 117.625 14.5l-2.7 2.7a7.975 7.975 0 009.323 2.111L11 12zm5.481 7.932a2 2 0 11-2.122-2.125l2.372-2.372a8.026 8.026 0 00-3.731-3.439L13 12l3.248 7.307A8 8 0 0021 12c0-.205-.03-.4-.045-.6z"/></svg>