<svg xmlns="http://www.w3.org/2000/svg" viewBox="0 0 24 24" width="512" height="512" aria-labelledby="kgresults-by-candidates-desc kgresults-by-candidates-title"><title id="kgresults-by-candidates-title">Results by Candidates Icon</title><desc id="kgresults-by-candidates-desc">A picture depicting a pie chart.</desc><path d="M0 0h24v24H0z" fill="none"/><path d="M11 12.315V2.062a9.985 9.985 0 105.865 18.631zM7.3 10a1.351 1.351 0 11-1.35 1.35A1.35 1.35 0 017.3 10zm2.7 5.4H4.6v-.676c0-.9 1.8-1.35 2.7-1.35s2.7.452 2.7 1.35zm3-13.34v9.623l5.5 7.863A9.956 9.956 0 0013 2.062zM17 8a1 1 0 11-1 1 1 1 0 011-1zm2 4h-4v-.5c0-.665 1.332-1 2-1s2 .335 2 1z"/></svg>