<svg xmlns="http://www.w3.org/2000/svg" viewBox="0 0 24 24"><path d="M8.5,12.5a.94.94,0,0,1-1.244.951L4.207,16.5H0v-1H3.793l2.756-2.756A.992.992,0,1,1,8.5,12.5Zm12.525-4-3.049,3.049a.988.988,0,0,0-.244-.049,1,1,0,1,0,1,1,.952.952,0,0,0-.049-.244L21.439,9.5H24v-1ZM14.248,4.693A7.994,7.994,0,0,0,3.4,14.482L5.5,12.375A2,2,0,1,1,7.625,14.5l-2.7,2.7a7.975,7.975,0,0,0,9.323,2.111L11,12Zm5.481,7.932A2,2,0,1,1,17.607,10.5l2.372-2.372a8.026,8.026,0,0,0-3.731-3.439L13,12l3.248,7.307A8,8,0,0,0,21,12c0-.205-.03-.4-.045-.6Z"/></svg>