<svg xmlns="http://www.w3.org/2000/svg" viewBox="0 0 24 24"><path d="M3.277,18H1a1,1,0,0,1,0-2H3.277a2,2,0,1,1,0,2ZM5,13a3.982,3.982,0,0,0-3.445,2H2.779a3,3,0,1,1,0,4H1.555A3.993,3.993,0,1,0,5,13Zm15.723,5H23a1,1,0,0,0,0-2H20.723a2,2,0,1,0,0,2ZM15,17a3.988,3.988,0,0,0,7.445,2H21.221a3,3,0,1,1,0-4h1.224A3.988,3.988,0,0,0,15,17Zm2.567-8h-3.86L12.5,7.793l.707-.707L12.5,6.379,10.379,8.5l.707.707.707-.707L13,9.707V13a1,1,0,0,1-2,0V12L9,10H7V4h6a1,1,0,0,0-1-1H6A1,1,0,0,0,5,4v6H5a2,2,0,0,0-2,2v.435A4.924,4.924,0,0,1,5,12a5.006,5.006,0,0,1,5,5,4.95,4.95,0,0,1-.424,2h4.857A5,5,0,0,1,21,12.433,3.433,3.433,0,0,0,17.567,9Z"/></svg>