<svg xmlns="http://www.w3.org/2000/svg" viewBox="0 0 24 24" width="512" height="512" aria-labelledby="kkroad-roller-desc kkroad-roller-title"><title id="kkroad-roller-title">Road Roller Icon</title><desc id="kkroad-roller-desc">A picture depicting a road roller machine.</desc><path d="M3.277 18H1a1 1 0 010-2h2.277a2 2 0 110 2zM5 13a3.982 3.982 0 00-3.445 2h1.224a3 3 0 110 4H1.555A3.993 3.993 0 105 13zm15.723 5H23a1 1 0 000-2h-2.277a2 2 0 100 2zM15 17a3.988 3.988 0 007.445 2h-1.224a3 3 0 110-4h1.224A3.988 3.988 0 0015 17zm2.567-8h-3.86L12.5 7.793l.707-.707-.707-.707L10.379 8.5l.707.707.707-.707L13 9.707V13a1 1 0 01-2 0v-1l-2-2H7V4h6a1 1 0 00-1-1H6a1 1 0 00-1 1v6a2 2 0 00-2 2v.435A4.924 4.924 0 015 12a5.006 5.006 0 015 5 4.95 4.95 0 01-.424 2h4.857A5 5 0 0121 12.433 3.433 3.433 0 0017.567 9z"/></svg>