<svg xmlns="http://www.w3.org/2000/svg" viewBox="0 0 24 24" width="512" height="512" aria-labelledby="klrod-of-asclepius-desc klrod-of-asclepius-title"><title id="klrod-of-asclepius-title">Rod of Ascelepius Icon</title><desc id="klrod-of-asclepius-desc">A picture depicting a snake twisted around a poll.</desc><path d="M18.865 5.035c-.459-.714-2.448-.41-3.131.112a1.016 1.016 0 00-.275 1.27c-.244.16-.488.32-.733.47a7.393 7.393 0 01-.948.508 2.042 2.042 0 01-.882.086v-2.5c.606-.05 1.017-.245 1.017-.983A2.035 2.035 0 009.844 4c0 .738.412.933 1.017.983v2.078l-.168-.042a9.086 9.086 0 00-1.28-.207 2.391 2.391 0 00-1.669.4 1.872 1.872 0 00-.59.822 2.827 2.827 0 00-.149.8 4.478 4.478 0 00.139 1.407 2.926 2.926 0 00.8 1.376 3.3 3.3 0 001.377.758 6.241 6.241 0 001.544.218v1.861a9.03 9.03 0 00-.774.175 3.321 3.321 0 00-1.375.711 2.16 2.16 0 00-.686 1.608 3.328 3.328 0 00.326 1.482 2.195 2.195 0 001.3 1.025 6.374 6.374 0 001.48.242c.15 1.3.382 2.3.743 2.3s.575-.935.725-2.162A5.44 5.44 0 0115.948 22a5.475 5.475 0 00-3.266-2.882c.087-.936.139-1.961.169-2.847-.305.056-.6.1-.888.144-.376.056-.725.114-1.045.186.024.624.06 1.3.11 1.955a9.396 9.396 0 01-.856-.343.815.815 0 01-.456-.447 2.018 2.018 0 01-.088-.787.635.635 0 01.2-.478 1.813 1.813 0 01.716-.33c.11-.03.242-.046.359-.071.575-.121 1.214-.2 1.9-.327.022 0 .045-.011.066-.015a6.164 6.164 0 001.244-.351 2.761 2.761 0 001.287-1.039 2.638 2.638 0 00.353-1.644 1.85 1.85 0 00-.362-.943 1.945 1.945 0 00-.815-.615A4.994 4.994 0 0012.9 10.9V9.287h-.046a11.855 11.855 0 01-1.989-.224v1.82a5.461 5.461 0 01-1.075-.134A1.289 1.289 0 018.737 9.8a2.959 2.959 0 01-.112-.9c0-.3.081-.46.113-.474a.926.926 0 01.587-.1 7.774 7.774 0 011.059.144c.419.068.854.151 1.309.215.071.01.142.018.214.027a8.3 8.3 0 00.94.07 3.359 3.359 0 001.431-.28 8.132 8.132 0 001.092-.668c.2-.142.4-.288.591-.433a1.286 1.286 0 001.58.177c.71-.39 1.808-1.789 1.324-2.543zM12.9 14v-1.417a3.369 3.369 0 011.022.123c.158.1.116.019.16.206a1.052 1.052 0 01-.107.6 1.764 1.764 0 01-1.075.575z"/></svg>