<svg xmlns="http://www.w3.org/2000/svg" viewBox="0 0 24 24" width="512" height="512" aria-labelledby="knsafari-desc knsafari-title"><title id="knsafari-title">Safari Icon</title><desc id="knsafari-desc">A picture showing the Safari browser logo.</desc><path d="M12 2a10 10 0 1010 10A10 10 0 0012 2zm0 1.788zM5.072 16.4l1.789-1.034-.342-.593L4.726 15.8a8.145 8.145 0 01-.564-1.35l2-.536-.176-.661-2 .535a8.226 8.226 0 01-.184-1.45h2.067v-.684H3.806a8.226 8.226 0 01.184-1.45l2 .536.176-.661-2-.537a8.145 8.145 0 01.56-1.342l1.793 1.031.342-.593-1.789-1.033a8.212 8.212 0 01.891-1.158l1.461 1.46.483-.484-1.46-1.46A8.146 8.146 0 017.6 5.072l1.034 1.79.593-.343L8.2 4.726a8.145 8.145 0 011.35-.564l.536 2.005.662-.178-.536-2a8.226 8.226 0 011.45-.184v2.064h.684V3.806a8.238 8.238 0 011.45.184l-.536 2 .661.178.537-2a8.181 8.181 0 011.35.564l-1.04 1.787.594.343 1.038-1.79a8.212 8.212 0 011.158.891l-1.46 1.46.14.139-5.264 3.407-3.393 5.282-.158-.158-1.46 1.46a8.261 8.261 0 01-.891-1.153zm15.122-4.054a8.226 8.226 0 01-.184 1.45l-2-.535-.177.661 2.005.536a8.11 8.11 0 01-.564 1.35l-1.793-1.035-.343.593 1.79 1.034a8.221 8.221 0 01-.891 1.157l-1.459-1.459-.485.482 1.46 1.461a8.212 8.212 0 01-1.158.891l-1.033-1.789-.594.342 1.032 1.789a8.181 8.181 0 01-1.35.564l-.537-2-.661.176.536 2a8.238 8.238 0 01-1.45.184v-2.067h-.684v2.063a8.226 8.226 0 01-1.45-.184l.536-2-.662-.176-.536 2a8.145 8.145 0 01-1.35-.564l1.035-1.793-.593-.342L7.6 18.928a8.261 8.261 0 01-1.157-.891l1.46-1.46-.139-.139 5.263-3.407 3.393-5.282.158.158 1.459-1.46a8.212 8.212 0 01.891 1.158l-1.79 1.033.343.593L19.273 8.2a8.03 8.03 0 01.565 1.35l-2.005.537.177.661 2-.536a8.226 8.226 0 01.184 1.45h-2.063v.684zm.018-.346z"/></svg>