<svg xmlns="http://www.w3.org/2000/svg" viewBox="0 0 24 24" width="512" height="512" aria-labelledby="kosafety-vest-desc kosafety-vest-title"><title id="kosafety-vest-title">Safety Vest Icon</title><desc id="kosafety-vest-desc">A picture depicting a safety vest.</desc><path d="M21 10v2h-8.5v-2H14V8h-1.5V4c3.778 0 2.833-2 4.722-2a4.017 4.017 0 012.834 1s-.945 1-.945 5c0 1.764 1.843 2.2 1.889 2zm0 7v-4h-8.5v4zm-8.5 1v2a4.065 4.065 0 003.778 2A7.054 7.054 0 0021 20v-2zm-1-1v-4H3v4zM3 18v2a7.054 7.054 0 004.722 2 4.065 4.065 0 003.778-2v-2zm7-8V8h1.5V4C7.722 4 8.667 2 6.778 2a4.017 4.017 0 00-2.834 1s.945 1 .945 5c0 1.764-1.843 2.2-1.889 2v2h8.5v-2z"/></svg>