<svg xmlns="http://www.w3.org/2000/svg" viewBox="0 0 24 24"><path d="M2,12A10,10,0,1,1,12,22,10,10,0,0,1,2,12Zm4.1,1.263H5.087v.2a1.445,1.445,0,0,0,.368,1.063,1.671,1.671,0,0,0,1.222.371,2.021,2.021,0,0,0,1.277-.36,1.374,1.374,0,0,0,.459-1.151,2,2,0,0,0-.042-.42.989.989,0,0,0-.151-.347,1.3,1.3,0,0,0-.29-.294,2.392,2.392,0,0,0-.47-.263l-.776-.336a.87.87,0,0,1-.42-.29.717.717,0,0,1-.1-.388.978.978,0,0,1,.024-.218.465.465,0,0,1,.091-.185.471.471,0,0,1,.178-.129.7.7,0,0,1,.281-.049.462.462,0,0,1,.42.192,1,1,0,0,1,.126.55h.965v-.141a1.476,1.476,0,0,0-.115-.612,1.107,1.107,0,0,0-.322-.42,1.311,1.311,0,0,0-.49-.238,2.461,2.461,0,0,0-.619-.073,1.653,1.653,0,0,0-1.134.364,1.393,1.393,0,0,0-.413,1.1,1.75,1.75,0,0,0,.076.543,1.124,1.124,0,0,0,.242.413,1.556,1.556,0,0,0,.41.312,3.707,3.707,0,0,0,.581.245,3.862,3.862,0,0,1,.423.164,1.069,1.069,0,0,1,.277.179.562.562,0,0,1,.15.22.836.836,0,0,1,.046.29.564.564,0,0,1-.186.466.646.646,0,0,1-.416.151.811.811,0,0,1-.326-.057.514.514,0,0,1-.206-.153.55.55,0,0,1-.105-.242,1.64,1.64,0,0,1-.028-.319ZM9.89,9.825l-1.324,5h1.05l.231-1.056h1.33l.231,1.056h1.05l-1.323-5Zm.132,3.115.483-2.247h.015L11,12.94Zm2.787,1.883H15.6V14H13.816V9.825H12.809Zm6.034-5H16.05v5h2.863V14H17.058V12.653h1.68v-.826h-1.68V10.651h1.785Z"/></svg>