<svg xmlns="http://www.w3.org/2000/svg" viewBox="0 0 24 24" width="512" height="512" aria-labelledby="kpsale-desc kpsale-title"><title id="kpsale-title">Sale Icon</title><desc id="kpsale-desc">A picture showing the word sale encircled.</desc><path d="M2 12a10 10 0 1110 10A10 10 0 012 12zm4.1 1.263H5.087v.2a1.445 1.445 0 00.368 1.063 1.671 1.671 0 001.222.371 2.021 2.021 0 001.277-.36 1.374 1.374 0 00.459-1.151 2 2 0 00-.042-.42.989.989 0 00-.151-.347 1.3 1.3 0 00-.29-.294 2.392 2.392 0 00-.47-.263l-.776-.336a.87.87 0 01-.42-.29.717.717 0 01-.1-.388.978.978 0 01.024-.218.465.465 0 01.091-.185.471.471 0 01.178-.129.7.7 0 01.281-.049.462.462 0 01.42.192 1 1 0 01.126.55h.965v-.141a1.476 1.476 0 00-.115-.612 1.107 1.107 0 00-.322-.42 1.311 1.311 0 00-.49-.238 2.461 2.461 0 00-.619-.073 1.653 1.653 0 00-1.134.364 1.393 1.393 0 00-.413 1.1 1.75 1.75 0 00.076.543 1.124 1.124 0 00.242.413 1.556 1.556 0 00.41.312 3.707 3.707 0 00.581.245 3.862 3.862 0 01.423.164 1.069 1.069 0 01.277.179.562.562 0 01.15.22.836.836 0 01.046.29.564.564 0 01-.186.466.646.646 0 01-.416.151.811.811 0 01-.326-.057.514.514 0 01-.206-.153.55.55 0 01-.105-.242 1.64 1.64 0 01-.028-.319zm3.79-3.438l-1.324 5h1.05l.231-1.056h1.33l.231 1.056h1.05l-1.323-5zm.132 3.115l.483-2.247h.015L11 12.94zm2.787 1.883H15.6V14h-1.784V9.825h-1.007zm6.034-5H16.05v5h2.863V14h-1.855v-1.347h1.68v-.826h-1.68v-1.176h1.785z"/></svg>