<svg xmlns="http://www.w3.org/2000/svg" viewBox="0 0 24 24" width="512" height="512" aria-labelledby="kqsass-desc kqsass-title"><title id="kqsass-title">Sass Icon</title><desc id="kqsass-desc">A picture showing the Sass language logo.</desc><path d="M19.212 13.119a4.107 4.107 0 00-1.812.422 3.772 3.772 0 01-.4-.941 2.506 2.506 0 01-.035-.789 6.644 6.644 0 01.237-.85c0-.036-.044-.207-.447-.21s-.748.078-.789.184a3.888 3.888 0 00-.167.6 14.357 14.357 0 01-1.222 2.351 2.272 2.272 0 01-.311-1.475 6.882 6.882 0 01.236-.85c0-.036-.043-.207-.447-.21s-.748.078-.788.184-.085.356-.167.6-1.059 2.415-1.314 2.979c-.13.287-.244.518-.324.675l-.013.028c-.068.134-.109.208-.109.208-.055.1-.113.19-.142.19a1.256 1.256 0 01.009-.622c.145-.755.494-1.931.49-1.971 0-.021.065-.226-.227-.333a.363.363 0 00-.412.07c-.025 0-.044.062-.044.062s.311-1.321-.614-1.321a2.751 2.751 0 00-1.768 1.2c-.248.135-.779.425-1.342.735l-.647.356-.043-.05c-1.117-1.192-3.183-2.035-3.1-3.638.032-.583.235-2.117 3.969-3.978 3.06-1.525 5.51-1.1 5.932-.175.605 1.328-1.309 3.8-4.486 4.153a2.382 2.382 0 01-1.999-.503c-.167-.184-.192-.192-.254-.157-.1.056-.038.218 0 .315a1.883 1.883 0 001.148.9 6.081 6.081 0 003.724-.368c1.925-.744 3.429-2.816 2.987-4.547-.45-1.765-3.369-2.343-6.133-1.362a13.835 13.835 0 00-4.7 2.7C2.163 9.1 1.92 10.34 2.02 10.858c.355 1.84 2.891 3.038 3.906 3.926-.05.027-.1.053-.14.078-.509.251-2.442 1.263-2.926 2.332-.549 1.212.088 2.082.508 2.2a3.122 3.122 0 003.361-1.363 3.379 3.379 0 00.3-3.106l-.011-.025.4-.236c.26-.151.514-.294.734-.414a4.957 4.957 0 00-.261 1.33 2.779 2.779 0 00.6 1.927.655.655 0 00.482.158c.43 0 .626-.357.841-.78.265-.519.5-1.122.5-1.122s-.294 1.631.509 1.631c.292 0 .587-.38.718-.573l.023-.037.047-.076v-.009c.118-.2.379-.669.77-1.437.5-.993.99-2.235.99-2.235a6.669 6.669 0 00.192.806 7.668 7.668 0 00.417.936 9.754 9.754 0 01-.189.256v.005c-.093.124-.2.258-.308.389a11.323 11.323 0 00-.937 1.174.321.321 0 00.087.43.788.788 0 00.491.079 2.246 2.246 0 00.736-.167 2.448 2.448 0 00.632-.332 1.407 1.407 0 00.6-1.245 2.509 2.509 0 00-.229-.878c.036-.051.071-.1.107-.155a16.753 16.753 0 001.1-1.893 6.72 6.72 0 00.192.806 5.625 5.625 0 00.355.8 3.435 3.435 0 00-1.064 1.378c-.231.665-.05.966.289 1.034a1.047 1.047 0 00.534-.108 2.481 2.481 0 00.673-.342 1.519 1.519 0 00.745-1.236 2.3 2.3 0 00-.17-.731 3.816 3.816 0 011.939-.224c1.74.2 2.081 1.289 2.016 1.743a1.148 1.148 0 01-.553.78c-.121.075-.159.1-.149.157.015.082.071.079.175.061A1.356 1.356 0 0022 15.345c.04-1.066-.98-2.236-2.788-2.226zM5.8 17.638c-.576.629-1.38.867-1.726.667-.372-.216-.225-1.142.482-1.809a9.23 9.23 0 011.357-1.012l.358-.214.039-.022.089-.054a2.5 2.5 0 01-.599 2.444zm4.2-2.853c-.2.489-.62 1.741-.876 1.673-.22-.057-.353-1.009-.044-1.945a4.3 4.3 0 01.683-1.253c.315-.352.661-.467.745-.325a6.391 6.391 0 01-.508 1.85zm3.467 1.655c-.085.044-.163.073-.2.051s.035-.074.035-.074.434-.467.605-.679c.1-.124.214-.27.34-.435v.049a1.449 1.449 0 01-.778 1.088zm2.672-.61c-.063-.045-.053-.19.156-.645a2.428 2.428 0 01.594-.766 1.143 1.143 0 01.06.337 1.1 1.1 0 01-.808 1.074z"/></svg>