<svg xmlns="http://www.w3.org/2000/svg" viewBox="0 0 24 24" width="512" height="512" aria-labelledby="krsaw-desc krsaw-title"><title id="krsaw-title">Saw Icon</title><desc id="krsaw-desc">A picture depicting a hand saw.</desc><path d="M20 6h-2a1 1 0 00-1 1v8a1 1 0 001 1h2a3 3 0 003-3V9a3 3 0 00-3-3zm1.5 6a2 2 0 01-2 2h-1V8h1a2 2 0 012 2zM16 8v6l-1.364-.091L14 12l-.609 1.826-1.823-.121L11 12l-.544 1.63L8.5 13.5 8 12l-.478 1.435-2.09-.14L5 12l-.413 1.239-2.224-.148L2 12l-.348 1.043L1 13V8z"/></svg>