<svg xmlns="http://www.w3.org/2000/svg" viewBox="0 0 24 24"><path d="M19.476,14.23c1.946,0,3.524-.882,3.524-1.969,0,0-1.732-4.807-2.587-7.178a1.442,1.442,0,0,0,.558-1.132,1.5,1.5,0,0,0-2.9-.488H13.923a2,2,0,0,0-3.846,0H5.928a1.5,1.5,0,0,0-2.9.488,1.442,1.442,0,0,0,.558,1.132C2.732,7.454,1,12.257,1,12.261c0,1.087,1.578,1.969,3.524,1.969s3.524-.882,3.524-1.969c0,0-1.732-4.807-2.587-7.178a1.461,1.461,0,0,0,.467-.644h4.149A1.949,1.949,0,0,0,11,5.632V18.1H7.016a.976.976,0,1,0,0,1.951H5.023a.976.976,0,1,0,0,1.951H18.977a.976.976,0,1,0,0-1.951H16.984a.976.976,0,1,0,0-1.951H13V5.632a1.949,1.949,0,0,0,.926-1.193h4.149a1.461,1.461,0,0,0,.467.644c-.855,2.371-2.587,7.174-2.587,7.178C15.952,13.348,17.53,14.23,19.476,14.23ZM2.063,12.244,4.524,5.417l2.462,6.827ZM19.476,5.417l2.461,6.827H17.014Z"/></svg>