<svg xmlns="http://www.w3.org/2000/svg" viewBox="0 0 24 24" width="512" height="512" aria-labelledby="ktscales-unbalanced-desc ktscales-unbalanced-title"><title id="ktscales-unbalanced-title">Scales Unbalanced Icon</title><desc id="ktscales-unbalanced-desc">A picture showing unbalanced weight scales.</desc><path d="M19.476 15.367c1.946 0 3.524-.86 3.524-1.922l-2.587-7.007a1.4 1.4 0 00.558-1.1 1.462 1.462 0 00-1.5-1.428 1.5 1.5 0 00-1.3.736l-4.208-.5A1.959 1.959 0 0012 2.476a1.992 1.992 0 00-1.85 1.2l-4.157-.5A1.475 1.475 0 004.524 2a1.463 1.463 0 00-1.495 1.429 1.4 1.4 0 00.558 1.105A7409.12 7409.12 0 001 11.541c0 1.061 1.578 1.921 3.524 1.921s3.524-.86 3.524-1.921c0-.005-1.732-4.693-2.587-7.007a1.461 1.461 0 00.363-.413l4.208.5A1.892 1.892 0 0011 6.022V18.19H7.016a.953.953 0 100 1.9H5.023a.953.953 0 100 1.905h13.954a.953.953 0 100-1.905h-1.993a.953.953 0 100-1.9H13V6.022a1.933 1.933 0 00.853-.94l4.157.5a1.4 1.4 0 00.532.858c-.855 2.315-2.587 7-2.587 7.007-.003 1.06 1.575 1.92 3.521 1.92zM2.063 11.524L4.524 4.86l2.462 6.664zm17.413-4.759L21.937 13h-4.923z"/></svg>