<svg xmlns="http://www.w3.org/2000/svg" viewBox="0 0 24 24"><path d="M19.476,15.367c1.946,0,3.524-.86,3.524-1.922,0,0-1.732-4.692-2.587-7.007a1.4,1.4,0,0,0,.558-1.1,1.462,1.462,0,0,0-1.5-1.428,1.5,1.5,0,0,0-1.3.736l-4.208-.5A1.959,1.959,0,0,0,12,2.476a1.992,1.992,0,0,0-1.85,1.2l-4.157-.5A1.475,1.475,0,0,0,4.524,2,1.463,1.463,0,0,0,3.029,3.429a1.4,1.4,0,0,0,.558,1.105C2.732,6.848,1,11.536,1,11.541c0,1.061,1.578,1.921,3.524,1.921s3.524-.86,3.524-1.921c0-.005-1.732-4.693-2.587-7.007a1.461,1.461,0,0,0,.363-.413l4.208.5A1.892,1.892,0,0,0,11,6.022V18.19H7.016a.953.953,0,1,0,0,1.9H5.023a.953.953,0,1,0,0,1.905H18.977a.953.953,0,1,0,0-1.905H16.984a.953.953,0,1,0,0-1.9H13V6.022a1.933,1.933,0,0,0,.853-.94l4.157.5a1.4,1.4,0,0,0,.532.858c-.855,2.315-2.587,7-2.587,7.007C15.952,14.507,17.53,15.367,19.476,15.367ZM2.063,11.524,4.524,4.86l2.462,6.664ZM19.476,6.765,21.937,13H17.014Z"/></svg>