<svg xmlns="http://www.w3.org/2000/svg" viewBox="0 0 24 24" width="512" height="512" aria-labelledby="ksscales-balanced-desc ksscales-balanced-title"><title id="ksscales-balanced-title">Scales Balanced Icon</title><desc id="ksscales-balanced-desc">A picture showing perfectly balanced weight scales.</desc><path d="M19.476 14.23c1.946 0 3.524-.882 3.524-1.969l-2.587-7.178a1.442 1.442 0 00.558-1.132 1.5 1.5 0 00-2.9-.488h-4.148a2 2 0 00-3.846 0H5.928a1.5 1.5 0 00-2.9.488 1.442 1.442 0 00.558 1.132C2.732 7.454 1 12.257 1 12.261c0 1.087 1.578 1.969 3.524 1.969s3.524-.882 3.524-1.969L5.461 5.083a1.461 1.461 0 00.467-.644h4.149A1.949 1.949 0 0011 5.632V18.1H7.016a.976.976 0 100 1.951H5.023a.976.976 0 100 1.951h13.954a.976.976 0 100-1.951h-1.993a.976.976 0 100-1.951H13V5.632a1.949 1.949 0 00.926-1.193h4.149a1.461 1.461 0 00.467.644c-.855 2.371-2.587 7.174-2.587 7.178-.003 1.087 1.575 1.969 3.521 1.969zM2.063 12.244l2.461-6.827 2.462 6.827zm17.413-6.827l2.461 6.827h-4.923z"/></svg>