<svg xmlns="http://www.w3.org/2000/svg" viewBox="0 0 24 24" width="512" height="512" aria-labelledby="kvscrewdriver-desc kvscrewdriver-title"><title id="kvscrewdriver-title">Screwdriver Icon</title><desc id="kvscrewdriver-desc">A picture showing a screwdriver.</desc><path d="M10.515 15.782l.766-.766a1.083 1.083 0 001.531-1.531l-.766-.766 6.891-6.891h1.532L22 2.766 21.234 2l-3.062 1.531v1.532l-6.891 6.891-.766-.766a1.083 1.083 0 00-1.531 1.531l-.766.766a1.082 1.082 0 00-1.531 0L2.476 17.7a1.623 1.623 0 000 2.3l1.531 1.531a1.623 1.623 0 002.3 0l4.211-4.211a1.082 1.082 0 00-.003-1.538z"/></svg>