<svg xmlns="http://www.w3.org/2000/svg" viewBox="0 0 24 24" width="512" height="512" aria-labelledby="kxsecurity-2-desc kxsecurity-2-title"><title id="kxsecurity-2-title">Security Icon</title><desc id="kxsecurity-2-desc">A picture depicting a shield-protected briefcase.</desc><path d="M12 12l-4 2v2.146C8 18.612 9.707 21.44 12 22c2.293-.56 4-3.388 4-5.854V14zm.529 7.284V20h-1v-.724A1.4 1.4 0 0110.3 18h.735c.038.394.308.7.994.7.735 0 .9-.367.9-.6 0-.311-.165-.6-1-.8-.93-.225-1.568-.608-1.568-1.376a1.3 1.3 0 011.166-1.2V14h1v.731A1.328 1.328 0 0113.6 16h-.735c-.019-.416-.24-.7-.833-.7-.563 0-.9.255-.9.615 0 .315.244.522 1 .717s1.568.522 1.568 1.468c0 .685-.519 1.06-1.171 1.184zM20 6h-4V4a1.993 1.993 0 00-2-2h-4a1.993 1.993 0 00-2 2v2H4a1.985 1.985 0 00-1.99 2L2 18a1.993 1.993 0 002 2h2.973A8.76 8.76 0 016 16.146V13l6-3 6 3v3.146A8.76 8.76 0 0117.027 20H20a1.993 1.993 0 002-2V8a1.993 1.993 0 00-2-2zm-6 0h-4V4h4z"/></svg>