<svg xmlns="http://www.w3.org/2000/svg" viewBox="0 0 24 24" width="512" height="512" aria-labelledby="lasign-language-desc lasign-language-title"><title id="lasign-language-title">Sign Language Icon</title><desc id="lasign-language-desc">A picture depicting two human hands gesticulating.</desc><path d="M7.373 21.181a.848.848 0 01.864-.835l3.2-.029-.006-.552-4.947.045a.828.828 0 11-.017-1.654l4.948-.045-.006-.551-5.53.05a.829.829 0 11-.016-1.655l5.529-.05-.005-.551-4.075.037a.828.828 0 11-.012-1.654l6.932-.063s-1.45-2.342-1.456-2.364a.648.648 0 01-.1-.33.632.632 0 01.164-.437c.011-.022.72-.723.72-.723l4.689 4.286a2.151 2.151 0 01.708 1.565L19 19.7a2.274 2.274 0 01-2.306 2.227L8.254 22a.851.851 0 01-.881-.819zm2.767-8.47l2.26-.021c-.3-.491-.456-.744-.537-.887a1.6 1.6 0 01.134-1.856c.092-.111.282-.3.809-.821l.733-.725 3.97 3.63.637-.616a2.137 2.137 0 00.667-1.581l-.115-6.172s-1.025.021-1.05.029a.7.7 0 00-.442.2.669.669 0 00-.178.3c-.012.02-.735 2.647-.735 2.647l-4.949-4.6a.907.907 0 00-1.234.011.8.8 0 00.011 1.17l2.909 2.7-.408.394-3.953-3.667a.908.908 0 00-1.235.011.8.8 0 00.012 1.17L11.393 7.7l-.407.394-3.532-3.287a.906.906 0 00-1.235.011.8.8 0 00.012 1.17l3.532 3.283-.408.393L7.07 7.54a.908.908 0 00-1.235.011.8.8 0 00.012 1.17z"/></svg>