<svg xmlns="http://www.w3.org/2000/svg" viewBox="0 0 24 24" width="512" height="512" aria-labelledby="lbskype-desc lbskype-title"><title id="lbskype-title">Skype Icon</title><desc id="lbskype-desc">A picture showing the Microsoft Skype logo.</desc><path d="M22 16.2a5.8 5.8 0 01-7.6 5.515 10.04 10.04 0 007.316-7.315A5.8 5.8 0 0122 16.2zM9.612 2.292h.006a5.8 5.8 0 00-7.327 7.325 10.039 10.039 0 017.321-7.325zm11.834 11.431l.007.015a9.652 9.652 0 01-7.714 7.715l-.016-.007A9.647 9.647 0 012.55 10.3a9.656 9.656 0 017.726-7.748 9.609 9.609 0 0111.17 11.171zm-7.048-1.7c-1.021-.88-3.869-1.187-3.958-2.567.16-1.725 2.59-1.278 3.674-.729a.859.859 0 001-1.363 5.216 5.216 0 00-6.267.536 2.691 2.691 0 00.663 3.915c1.168 1.02 5.371 1.509 3.631 3.608a3.17 3.17 0 01-3.226-.244c-.594-.369-1.653-.207-1.611.649.293 2.194 5.978 1.985 6.929.237a2.877 2.877 0 00-.833-4.039z"/></svg>