<svg xmlns="http://www.w3.org/2000/svg" viewBox="0 0 24 24" width="512" height="512" aria-labelledby="ldslack-desc ldslack-title"><title id="ldslack-title">Slack Icon</title><desc id="ldslack-desc">A picture showing the Slack application logo.</desc><path d="M9.368 7.263H4.105a2.106 2.106 0 000 4.211h5.263a2.106 2.106 0 100-4.211zm2.106-3.158v2.106H9.368a2.106 2.106 0 112.106-2.106zM7.263 14.632V19.9a2.106 2.106 0 004.211 0v-5.268a2.106 2.106 0 10-4.211 0zm-3.158-2.106h2.106v2.106a2.106 2.106 0 11-2.106-2.106zm10.527 4.211H19.9a2.106 2.106 0 000-4.211h-5.268a2.106 2.106 0 100 4.211zM12.526 19.9v-2.111h2.106a2.106 2.106 0 11-2.106 2.111zm4.211-10.532V4.105a2.106 2.106 0 00-4.211 0v5.263a2.106 2.106 0 104.211 0zm3.163 2.106h-2.111V9.368a2.106 2.106 0 112.111 2.106z"/></svg>