<svg xmlns="http://www.w3.org/2000/svg" viewBox="0 0 24 24" width="512" height="512" aria-labelledby="lesnapchat-desc lesnapchat-title"><title id="lesnapchat-title">Snapchat Icon</title><desc id="lesnapchat-desc">A picture showing the Snapchat application logo.</desc><path d="M12 2.5c-6 0-6 6-6 6v1s-.035-.029-.063 0C5.218 10.218 4 9.569 4 10.9c0 1.54 1.7 1.6 1.965 1.6H6c0 1-1.652 2.171-2.736 2.442A1.7 1.7 0 002 16.51a1.67 1.67 0 00.106.643c.377.885 1.994 1.947 2.994.947.038 1.44.679 2.4 1.374 2.4a4.559 4.559 0 001.634-.388A5.5 5.5 0 0012 21.5a5.5 5.5 0 003.9-1.388 4.552 4.552 0 001.634.388c.7 0 1.335-.963 1.373-2.4 1 1 2.614-.059 2.991-.944A1.67 1.67 0 0022 16.51a1.7 1.7 0 00-1.264-1.568C19.652 14.671 18 13.5 18 12.5h.035c.265 0 1.965-.06 1.965-1.6 0-1.326-1.219-.677-1.937-1.4-.028-.028-.063 0-.063 0v-1s0-6-6-6z"/></svg>