<svg xmlns="http://www.w3.org/2000/svg" viewBox="0 0 24 24" width="512" height="512" aria-labelledby="lfsneeze-desc lfsneeze-title"><title id="lfsneeze-title">Sneeze Icon</title><desc id="lfsneeze-desc">A picture depicting a person sneezing.</desc><path d="M12.822 13.358a.926.926 0 01-.5.189c-.416.027-.836.009-1.277.009v.267c.005 1.272.013 3.433.016 4.7a1.3 1.3 0 01-1.43 1.424c-.726 0-3.552.044-3.833.113-.462.115-.219 1.584-.3 1.935H3V2h.087c8.46 0 8.107 7.328 8.314 7.682q.78 1.338 1.546 2.681a.734.734 0 01-.125.995zM21 12a1 1 0 11-1-1 1 1 0 011 1zm-3 2a1 1 0 11-1-1 1 1 0 011 1zm-3 2a1 1 0 11-1-1 1 1 0 011 1zm6 0a1 1 0 11-1-1 1 1 0 011 1zm-3 2a1 1 0 11-1-1 1 1 0 011 1zm3 2a1 1 0 11-1-1 1 1 0 011 1z"/></svg>