<svg xmlns="http://www.w3.org/2000/svg" viewBox="0 0 24 24" width="512" height="512" aria-labelledby="lmspotify-desc lmspotify-title"><title id="lmspotify-title">Spotify Icon</title><desc id="lmspotify-desc">A picture showing the Spotify application logo.</desc><path d="M12 2a10 10 0 1010 10A10 10 0 0012 2zm4.586 14.422a.623.623 0 01-.857.208c-2.348-1.435-5.3-1.759-8.785-.964a.624.624 0 01-.277-1.216c3.809-.87 7.076-.495 9.712 1.115a.623.623 0 01.207.857zM17.81 13.7a.78.78 0 01-1.073.257 13.126 13.126 0 00-9.965-1.165.78.78 0 11-.453-1.492 14.586 14.586 0 0111.233 1.328.78.78 0 01.258 1.072zm.105-2.835C14.691 8.951 9.374 8.774 6.3 9.708a.935.935 0 01-.543-1.79c3.533-1.072 9.405-.865 13.115 1.338a.935.935 0 01-.954 1.609z"/></svg>