<svg xmlns="http://www.w3.org/2000/svg" viewBox="0 0 24 24" width="512" height="512" aria-labelledby="lnstackoverflow-desc lnstackoverflow-title"><title id="lnstackoverflow-title">Stackoverflow Icon</title><desc id="lnstackoverflow-desc">A picture showing the Stackoverflow logo.</desc><path d="M15.313 14.8l-7.656-1.855.371-1.531 7.657 1.857-.372 1.529m.514-1.832L8.811 9.385l.717-1.4 7.016 3.585-.717 1.4m1.08-1.9l-5.933-5.182L12.011 4.7l5.933 5.184-1.037 1.186M18.54 9.4l-4.425-6.515L15.419 2l4.425 6.519-1.3.885m-3.349 7.314l-7.867-.43.086-1.574 7.867.43-.086 1.574m1.631 3.706V13.9H18.4V22H4.156v-8.111h1.576v6.535h11.09M7.3 17.279h7.932v1.575H7.3v-1.575z"/></svg>