<svg xmlns="http://www.w3.org/2000/svg" viewBox="0 0 24 24" width="512" height="512" aria-labelledby="lrstats-desc lrstats-title"><title id="lrstats-title">Stats Icon</title><desc id="lrstats-desc">A picture showing a bar chart on a computer screen.</desc><path d="M21.618 2.05H2.382A1.385 1.385 0 001 3.438v13.174A1.385 1.385 0 002.382 18H10v2H8v2h8v-2h-2v-2h7.618A1.385 1.385 0 0023 16.612V3.438a1.385 1.385 0 00-1.382-1.388zM21 14.879H3V3.982h18zM7 11H5V6h2zm4 0H9V8h2zm8 2H5v-1h14zm-4-2h-2V7h2zm4 0h-2V9h2z"/></svg>