<svg xmlns="http://www.w3.org/2000/svg" viewBox="0 0 24 24" width="512" height="512" aria-labelledby="lssteam-desc lssteam-title"><title id="lssteam-title">Steam Icon</title><desc id="lssteam-desc">A picture showing the Steam application logo.</desc><path d="M11.983 2a9.945 9.945 0 00-9.875 9.2l5.311 2.216A2.765 2.765 0 019 12.922h.156l2.362-3.455v-.044a3.737 3.737 0 113.737 3.771h-.085l-3.37 2.424v.134a2.8 2.8 0 01-5.555.558l-3.8-1.585A9.924 9.924 0 1011.983 2zM8.318 17.173L7.1 16.666a2.095 2.095 0 003.837-.1 2.13 2.13 0 000-1.626A2.1 2.1 0 009.8 13.785a2.08 2.08 0 00-1.552-.023l1.258.524a1.569 1.569 0 01.834 2.045 1.544 1.544 0 01-2.026.842zm9.489-7.75A2.555 2.555 0 1015.253 12a2.57 2.57 0 002.554-2.577zm-4.469-.005a1.919 1.919 0 111.919 1.936 1.928 1.928 0 01-1.919-1.936z"/></svg>