<svg xmlns="http://www.w3.org/2000/svg" viewBox="0 0 24 24" width="512" height="512" aria-labelledby="ltstethoscope-desc ltstethoscope-title"><title id="ltstethoscope-title">Stethoscope Icon</title><desc id="ltstethoscope-desc">A picture depicting a stethoscope.</desc><path d="M20.961 7.737V16a6 6 0 01-6 6h-.948a6 6 0 01-6-6v-1C4.7 15 2 10.314 2 7V3h4v2H4.013v2c0 2.206 1.8 6 4 6h1.948c2.205 0 4-3.794 4-6V5H12V3h4v4c0 3.3-2.7 7.957-5.987 8v1a4 4 0 004 4h.948a4 4 0 004-4V7.708a2 2 0 112 .029z"/></svg>