<svg xmlns="http://www.w3.org/2000/svg" viewBox="0 0 24 24" width="512" height="512" aria-labelledby="lustop-hand-desc lustop-hand-title"><title id="lustop-hand-title">Stop Hand Icon</title><desc id="lustop-hand-desc">A picture depicting a sign with a stop hand.</desc><path d="M12 22a2.577 2.577 0 01-1.828-.756l-7.416-7.416a2.588 2.588 0 010-3.656l7.416-7.416a2.588 2.588 0 013.656 0l7.416 7.416a2.588 2.588 0 010 3.656l-7.416 7.416A2.577 2.577 0 0112 22zm0-18.966a1.549 1.549 0 00-1.1.453L3.487 10.9a1.553 1.553 0 000 2.194l7.413 7.419a1.553 1.553 0 002.194 0l7.419-7.413a1.553 1.553 0 000-2.194L13.1 3.487a1.549 1.549 0 00-1.1-.453zm2.892 8.318v1.706c0 .281-.1.456-.356.456-.275 0-.374-.169-.374-.45V8.328c0-.834-1.052-.859-1.052-.056l-.01 3.446c0 .146.008.251-.423.251a.24.24 0 01-.246-.251v-4.3a.62.62 0 00-1.238 0v4.3a.245.245 0 11-.489 0v-3.78a.62.62 0 00-1.238 0v3.78a.245.245 0 11-.49 0V8.969a.541.541 0 00-.532-.5.553.553 0 00-.582.5v6.149c0 .659.357 1.014 1.089 1.014h5.113c1.263 0 2.07.173 2.07-1.637v-3.143a.623.623 0 00-1.242 0z"/></svg>