<svg xmlns="http://www.w3.org/2000/svg" viewBox="0 0 24 24"><path d="M12,22a2.577,2.577,0,0,1-1.828-.756L2.756,13.828a2.588,2.588,0,0,1,0-3.656l7.416-7.416a2.588,2.588,0,0,1,3.656,0l7.416,7.416a2.588,2.588,0,0,1,0,3.656l-7.416,7.416A2.577,2.577,0,0,1,12,22ZM12,3.034a1.549,1.549,0,0,0-1.1.453L3.487,10.9a1.553,1.553,0,0,0,0,2.194L10.9,20.513a1.553,1.553,0,0,0,2.194,0L20.513,13.1a1.553,1.553,0,0,0,0-2.194L13.1,3.487A1.549,1.549,0,0,0,12,3.034Zm2.892,8.318v1.706c0,.281-.1.456-.356.456-.275,0-.374-.169-.374-.45V8.328c0-.834-1.052-.859-1.052-.056L13.1,11.718c0,.146.008.251-.423.251a.24.24,0,0,1-.246-.251v-4.3a.62.62,0,0,0-1.238,0v4.3a.245.245,0,1,1-.489,0V7.938a.62.62,0,0,0-1.238,0v3.78a.245.245,0,1,1-.49,0V8.969a.541.541,0,0,0-.532-.5.553.553,0,0,0-.582.5v6.149c0,.659.357,1.014,1.089,1.014h5.113c1.263,0,2.07.173,2.07-1.637V11.352A.623.623,0,0,0,14.892,11.352Z"/></svg>