<svg xmlns="http://www.w3.org/2000/svg" viewBox="0 0 24 24" width="512" height="512" aria-labelledby="lxstripe-desc lxstripe-title"><title id="lxstripe-title">Stripe Icon</title><desc id="lxstripe-desc">A picture showing the Stripe application logo.</desc><path d="M3.406 11.1c0-.217.177-.3.472-.3a3.1 3.1 0 011.378.356V9.85a3.676 3.676 0 00-1.378-.256C2.75 9.594 2 10.183 2 11.167c0 1.533 2.111 1.289 2.111 1.95 0 .255-.222.339-.533.339a3.456 3.456 0 01-1.517-.445v1.322a3.84 3.84 0 001.517.317c1.155 0 1.95-.572 1.95-1.567-.006-1.655-2.122-1.361-2.122-1.983zm3.755-2.617l-1.355.289-.006 4.45a1.4 1.4 0 001.439 1.428 2.146 2.146 0 00.972-.183v-1.128c-.178.072-1.055.328-1.055-.5v-1.967h1.055V9.689H7.156zM9.939 10.1l-.089-.411h-1.2v4.861h1.389v-3.294a.979.979 0 011.055-.289V9.689a.942.942 0 00-1.155.411zm1.494-.411h1.395v4.861h-1.395V9.689zm0-.422l1.395-.3V7.839l-1.395.294v1.134zm4.3.327a1.567 1.567 0 00-1.089.434l-.072-.345h-1.228v6.478l1.389-.294.006-1.573a1.56 1.56 0 00.983.35c.995 0 1.9-.8 1.9-2.561 0-1.611-.922-2.489-1.894-2.489zm-.334 3.828a.828.828 0 01-.655-.261l-.011-2.061a.829.829 0 01.661-.272c.506 0 .856.566.856 1.294 0 .745-.344 1.3-.856 1.3zM22 12.139c0-1.422-.689-2.545-2.006-2.545a2.253 2.253 0 00-2.122 2.534 2.213 2.213 0 002.3 2.516 3.1 3.1 0 001.539-.361v-1.111a2.949 2.949 0 01-1.361.306c-.539 0-1.017-.189-1.078-.845h2.717c0-.072.011-.361.011-.494zm-2.744-.528c0-.628.383-.889.733-.889s.7.261.7.889z"/></svg>