<svg xmlns="http://www.w3.org/2000/svg" viewBox="0 0 24 24" width="512" height="512" aria-labelledby="lysyringe-desc lysyringe-title"><title id="lysyringe-title">Syringe Icon</title><desc id="lysyringe-desc">A picture depicting a syringe.</desc><path d="M20.028 9.629l1.414-1.415-5.656-5.656-1.415 1.414 2.122 2.121-1.415 1.414-2.121-2.121-7.071 7.071-.293 4.536-.414.414a.983.983 0 00-.245.952L2.7 20.589a.5.5 0 00.707.707l2.23-2.23a.983.983 0 00.952-.245l.414-.414 4.536-.293 1.418-1.414-2.121-2.122 1.414-1.414 2.121 2.121 1.415-1.414-2.122-2.121 1.414-1.414 2.122 2.121 1.414-1.414-2.121-2.121 1.414-1.415z"/></svg>