<svg xmlns="http://www.w3.org/2000/svg" viewBox="0 0 24 24" width="512" height="512" aria-labelledby="lzsystem-update-desc lzsystem-update-title"><title id="lzsystem-update-title">System Update Icon</title><desc id="lzsystem-update-desc">A picture depicting a computer screen with a reload symbol in the middle.</desc><path d="M20 2H4a2 2 0 00-2 2v12a2 2 0 002 2h6l-2 4h8l-2-4h6a2 2 0 002-2V4a2 2 0 00-2-2zm-8.194 2.923a5.077 5.077 0 104.724 6.923h.982a6.019 6.019 0 11-.237-4.277l.919-.2-.85 2.631-1.85-2.049.857-.184a5.1 5.1 0 00-4.545-2.844zM14 11.424l-.8.8-2-2V6.715h1.139v3.042z"/></svg>