<svg xmlns="http://www.w3.org/2000/svg" viewBox="0 0 24 24" width="512" height="512" aria-labelledby="matable-saw-blade-desc matable-saw-blade-title"><title id="matable-saw-blade-title">Table Saw Blade Icon</title><desc id="matable-saw-blade-desc">A picture depicting a table saw blade.</desc><path d="M21 21H3a1 1 0 01-1-1v-2a1 1 0 011-1h18a1 1 0 011 1v2a1 1 0 01-1 1zm-1.117-7.944c-.426 1.37-1.368 1.387-2.3 1.149-.027.058-.052.117-.081.174A1.811 1.811 0 0019 15.518a2.323 2.323 0 01-.448.482H5.66a2.013 2.013 0 01.846-1.593c-.028-.056-.052-.115-.079-.171a1.746 1.746 0 00-1.761.587 1.725 1.725 0 011.211-2.339c-.01-.062-.018-.125-.027-.187A1.731 1.731 0 004 12.286c0-1.441.892-1.761 1.845-1.834.008-.062.017-.125.027-.187a1.753 1.753 0 00-1.755-.607c.426-1.37 1.369-1.387 2.3-1.149.027-.058.052-.117.081-.174A1.814 1.814 0 005.005 7.2c.81-1.165 1.712-.879 2.524-.353.042-.046.084-.092.128-.136a1.878 1.878 0 00-1.078-1.569c1.113-.845 1.886-.285 2.5.476.053-.03.109-.054.164-.082A1.935 1.935 0 008.682 3.7c1.312-.445 1.879.341 2.239 1.265.06-.011.12-.019.179-.028A1.946 1.946 0 0011.111 3c1.379 0 1.686.932 1.755 1.927.06.009.12.018.18.029a1.926 1.926 0 00.581-1.834c1.311.445 1.327 1.43 1.1 2.4.055.028.112.054.167.084a1.868 1.868 0 001.09-1.555c1.115.846.841 1.789.338 2.636l.131.134a1.8 1.8 0 001.5-1.126 1.76 1.76 0 01-.456 2.614c.028.055.052.114.079.171a1.749 1.749 0 001.761-.588 1.725 1.725 0 01-1.211 2.339c.01.062.018.125.027.187a1.73 1.73 0 001.85.012c0 1.44-.892 1.76-1.845 1.833a6.074 6.074 0 01-.027.188 1.753 1.753 0 001.752.605zM14 11a2 2 0 10-2 2 2 2 0 002-2z"/></svg>