<svg xmlns="http://www.w3.org/2000/svg" viewBox="0 0 24 24"><path d="M21,21H3a1,1,0,0,1-1-1V18a1,1,0,0,1,1-1H21a1,1,0,0,1,1,1v2A1,1,0,0,1,21,21Zm-1.117-7.944c-.426,1.37-1.368,1.387-2.3,1.149-.027.058-.052.117-.081.174A1.811,1.811,0,0,0,19,15.518a2.323,2.323,0,0,1-.448.482H5.66a2.013,2.013,0,0,1,.846-1.593c-.028-.056-.052-.115-.079-.171a1.746,1.746,0,0,0-1.761.587,1.725,1.725,0,0,1,1.211-2.339c-.01-.062-.018-.125-.027-.187A1.731,1.731,0,0,0,4,12.286c0-1.441.892-1.761,1.845-1.834.008-.062.017-.125.027-.187a1.753,1.753,0,0,0-1.755-.607c.426-1.37,1.369-1.387,2.3-1.149.027-.058.052-.117.081-.174A1.814,1.814,0,0,0,5.005,7.2c.81-1.165,1.712-.879,2.524-.353.042-.046.084-.092.128-.136A1.878,1.878,0,0,0,6.579,5.142c1.113-.845,1.886-.285,2.5.476.053-.03.109-.054.164-.082A1.935,1.935,0,0,0,8.682,3.7c1.312-.445,1.879.341,2.239,1.265.06-.011.12-.019.179-.028A1.946,1.946,0,0,0,11.111,3c1.379,0,1.686.932,1.755,1.927.06.009.12.018.18.029a1.926,1.926,0,0,0,.581-1.834c1.311.445,1.327,1.43,1.1,2.4.055.028.112.054.167.084a1.868,1.868,0,0,0,1.09-1.555c1.115.846.841,1.789.338,2.636.044.045.088.089.131.134a1.8,1.8,0,0,0,1.5-1.126,1.76,1.76,0,0,1-.456,2.614c.028.055.052.114.079.171a1.749,1.749,0,0,0,1.761-.588,1.725,1.725,0,0,1-1.211,2.339c.01.062.018.125.027.187a1.73,1.73,0,0,0,1.85.012c0,1.44-.892,1.76-1.845,1.833-.008.063-.017.125-.027.188A1.753,1.753,0,0,0,19.883,13.056ZM14,11a2,2,0,1,0-2,2A2,2,0,0,0,14,11Z"/></svg>