<svg xmlns="http://www.w3.org/2000/svg" viewBox="0 0 24 24" width="512" height="512" aria-labelledby="mdteeth-desc mdteeth-title"><title id="mdteeth-title">Teeth Icon</title><desc id="mdteeth-desc">A picture depicting human teeth.</desc><path d="M19 3H5a3 3 0 00-3 3v4a1 1 0 001 1h18a1 1 0 001-1V6a3 3 0 00-3-3zM6 8.5a.5.5 0 01-.5.5h-1a.5.5 0 01-.5-.5V7a1 1 0 012 0zm5-.5a1 1 0 01-1 1H9a1 1 0 01-1-1V6.5a1.5 1.5 0 013 0zm5 0a1 1 0 01-1 1h-1a1 1 0 01-1-1V6.5a1.5 1.5 0 013 0zm4 .5a.5.5 0 01-.5.5h-1a.5.5 0 01-.5-.5V7a1 1 0 012 0zM22 19v-5a1 1 0 00-1-1H3a1 1 0 00-1 1v5a3 3 0 003 3h14a3 3 0 003-3zM5 17a1 1 0 01-2 0v-1.5a.5.5 0 01.5-.5h1a.5.5 0 01.5.5zm4 1a1 1 0 01-2 0v-1.5a.5.5 0 01.5-.5h1a.5.5 0 01.5.5zm4 0a1 1 0 01-2 0v-1.5a.5.5 0 01.5-.5h1a.5.5 0 01.5.5zm8-1a1 1 0 01-2 0v-1.5a.5.5 0 01.5-.5h1a.5.5 0 01.5.5zm-4 1a1 1 0 01-2 0v-1.5a.5.5 0 01.5-.5h1a.5.5 0 01.5.5z"/></svg>