<svg xmlns="http://www.w3.org/2000/svg" viewBox="0 0 24 24" width="512" height="512" aria-labelledby="metelegram-desc metelegram-title"><title id="metelegram-title">Telegram Icon</title><desc id="metelegram-desc">A picture showing the Telegram application icon.</desc><path d="M21.517 3.826a1.35 1.35 0 00-1.438-.146L3.177 10.2c-1 .406-1.193.914-1.176 1.269.013.263.161.74 1.007.991l4.125 1.292 2.135 5.7a.463.463 0 00.339.291.5.5 0 00.1.01.462.462 0 00.332-.141l2.486-2.559 4.259 3.138a1.988 1.988 0 00.933.273 1.212 1.212 0 00.514-.111 1.6 1.6 0 00.821-1.219l2.87-13.552a1.674 1.674 0 00-.405-1.756zm-.5 1.549l-2.876 13.563a.816.816 0 01-.3.57.745.745 0 01-.562-.1l-4.9-3.616a.462.462 0 00-.632.077L10.24 17.69l.146-2.916s8.132-8 8.073-8.085c-.089-.133-.249-.183-.64.069L7.427 12.873l-4.148-1.3a2.373 2.373 0 01-.345-.142 1.324 1.324 0 01.584-.37l16.918-6.526a.466.466 0 01.488 0c.155.132.192.447.095.84z"/></svg>