<svg xmlns="http://www.w3.org/2000/svg" viewBox="0 0 24 24" width="512" height="512" aria-labelledby="mjthis-year-desc mjthis-year-title"><title id="mjthis-year-title">This Year Icon</title><desc id="mjthis-year-desc">A picture depicting a stacked calendar with a check mark in the middle.</desc><path d="M21 21H7v2h14a2 2 0 002-2V10h-2z"/><path d="M19 17V5a2 2 0 00-2-2h-1V1h-2v2H6V1H4v2H3a2 2 0 00-2 2v12a2 2 0 002 2h14a2 2 0 002-2zM3 17V7h14v10H3z"/><path d="M8.85 13.15l-1.77-1.77-.88.89 2.65 2.65 4.95-4.96-.88-.88-4.07 4.07z"/></svg>