<svg xmlns="http://www.w3.org/2000/svg" viewBox="0 0 24 24" width="512" height="512" aria-labelledby="mgthis-month-desc mgthis-month-title"><title id="mgthis-month-title">This Month Icon</title><desc id="mgthis-month-desc">A picture depicting a calendar with an encircled check mark at the end.</desc><path d="M6 9h2v2H6zm0 4h2v2H6zm5 0h2v2h-2zm-5 4h2v2H6zm5 0h2v2h-2zm0-8h2v2h-2zm5 0h2v2h-2zm5 5.76a4.5 4.5 0 102 3.74 4.47 4.47 0 00-2-3.74zm-2.94 5.41l-1.75-1.76.69-.71 1.05 1L20 16.83l.71.71z"/><path d="M5 8h14v4h2V5a2 2 0 00-2-2h-1V1h-2v2H8V1H6v2H5a2 2 0 00-2 2v15a2 2 0 002 2h7v-2H5z"/></svg>