<svg xmlns="http://www.w3.org/2000/svg" viewBox="0 0 24 24" width="512" height="512" aria-labelledby="mktiktok-desc mktiktok-title"><title id="mktiktok-title">TikTok Icon</title><desc id="mktiktok-desc">A picture showing the TikTok application logo.</desc><path d="M19 3H5a2 2 0 00-2 2v14a2 2 0 002 2h14a2 2 0 002-2V5a2 2 0 00-2-2zm-1.853 7.853c-.1.009-.2.014-.295.015a3.212 3.212 0 01-2.687-1.452v4.944a3.655 3.655 0 11-3.654-3.654c.076 0 .15.007.225.011v1.8a1.861 1.861 0 10-.225 3.708 1.911 1.911 0 001.94-1.842l.018-8.4h1.721a3.208 3.208 0 002.957 2.865z"/></svg>