<svg xmlns="http://www.w3.org/2000/svg" viewBox="0 0 24 24" width="512" height="512" aria-labelledby="motoilet-paper-desc motoilet-paper-title"><title id="motoilet-paper-title">Toilet Paper Icon</title><desc id="motoilet-paper-desc">A picture depicting a roll of toilet paper.</desc><path d="M6.5 5.3C7.328 5.3 8 6.509 8 8s-.672 2.7-1.5 2.7S5 9.491 5 8s.672-2.7 1.5-2.7zM7 2h10c2.209 0 4 2.686 4 6v14l-2-2-2 2-2-2-2 2-2-2-2 2v-8H7c-2.209 0-4-2.686-4-6s1.791-6 4-6zm7 10h2v-2h-2zm4 0h2v-2h-2zm-8 0h2v-2h-2zm-3.5.5C7.881 12.5 9 10.485 9 8S7.881 3.5 6.5 3.5 4 5.515 4 8s1.119 4.5 2.5 4.5z"/></svg>