<svg xmlns="http://www.w3.org/2000/svg" viewBox="0 0 24 24" width="512" height="512" aria-labelledby="mrtooth-cracked-desc mrtooth-cracked-title"><title id="mrtooth-cracked-title">Tooth Cracked Icon</title><desc id="mrtooth-cracked-desc">A picture depicting a chipped human tooth.</desc><path d="M17 2c-1.268 0-3 1.107-5 1.107S8.268 2 7 2a3.416 3.416 0 00-3.376 2H6a3 3 0 010 6H3.622A5.554 5.554 0 005 11.7V15c0 2.8 2 7 3 7 3 0 2-6 4-6s1 6 4 6c1 0 3-4.2 3-7v-3.3a5.438 5.438 0 002-4.2c0-3.038-.894-5.5-4-5.5z"/></svg>