<svg xmlns="http://www.w3.org/2000/svg" viewBox="0 0 24 24" width="512" height="512" aria-labelledby="mstop-percentile-records-desc mstop-percentile-records-title"><title id="mstop-percentile-records-title">Top Percentile Records Icon</title><desc id="mstop-percentile-records-desc">Shows percentile records positioned at the top.</desc><path d="M12 14l4 4h-3v4h-2v-4H8zm0-8H8v2h4zm4 4H8v2h8zm2 1v9h-3v2h3a2 2 0 002-2v-9.35a5.976 5.976 0 01-2 .35zM6 4h6.09a5.966 5.966 0 01.722-2H6a2 2 0 00-2 2v16a2 2 0 002 2h3v-2H6zm13.355 1.445a.166.166 0 00-.059-.1.22.22 0 00-.2 0 .156.156 0 00-.058.1.954.954 0 00-.028.189q-.01.12-.01.315c0 .126 0 .23.009.311a.943.943 0 00.028.192.156.156 0 00.058.095.213.213 0 00.2 0 .166.166 0 00.059-.095 1.019 1.019 0 00.028-.192c.005-.081.008-.185.008-.311s0-.235-.008-.315a1.035 1.035 0 00-.027-.189zm-2.393-1.88a.157.157 0 00-.062-.095.213.213 0 00-.2 0 .158.158 0 00-.059.095 1.008 1.008 0 00-.028.189c-.005.08-.008.185-.008.314s0 .23.008.312a1.046 1.046 0 00.028.192.155.155 0 00.059.094.213.213 0 00.2 0 .154.154 0 00.058-.094.966.966 0 00.028-.192C17 4.3 17 4.194 17 4.068s0-.234-.008-.314a.931.931 0 00-.03-.189zM22 5a4 4 0 11-4-4 4 4 0 014 4zm-5.2.136a1.252 1.252 0 00.411-.058.582.582 0 00.27-.186.8.8 0 00.148-.331 2.4 2.4 0 00.044-.493 2.378 2.378 0 00-.044-.492.784.784 0 00-.148-.331.583.583 0 00-.27-.187 1.489 1.489 0 00-.823 0 .594.594 0 00-.27.187.8.8 0 00-.147.331 2.311 2.311 0 00-.044.492 2.328 2.328 0 00.044.493.808.808 0 00.147.331.592.592 0 00.27.186 1.258 1.258 0 00.412.058zM19.185 3h-.612l-1.764 4h.612zm.884 2.949a2.328 2.328 0 00-.044-.493.808.808 0 00-.147-.331.592.592 0 00-.27-.186 1.465 1.465 0 00-.823 0 .582.582 0 00-.27.186.8.8 0 00-.148.331 2.328 2.328 0 00-.044.493 2.311 2.311 0 00.044.492.79.79 0 00.148.331.534.534 0 00.27.178 1.718 1.718 0 00.823 0 .543.543 0 00.27-.178.8.8 0 00.147-.331 2.311 2.311 0 00.044-.492z"/></svg>