<svg xmlns="http://www.w3.org/2000/svg" viewBox="0 0 24 24"><path d="M12,14l4,4H13v4H11V18H8Zm0-8H8V8h4Zm4,4H8v2h8Zm2,1v9H15v2h3a2,2,0,0,0,2-2V10.65A5.976,5.976,0,0,1,18,11ZM6,4h6.09a5.966,5.966,0,0,1,.722-2H6A2,2,0,0,0,4,4V20a2,2,0,0,0,2,2H9V20H6ZM19.355,5.445a.166.166,0,0,0-.059-.1.22.22,0,0,0-.2,0,.156.156,0,0,0-.058.1.954.954,0,0,0-.028.189Q19,5.754,19,5.949c0,.126,0,.23.009.311a.943.943,0,0,0,.028.192.156.156,0,0,0,.058.095.213.213,0,0,0,.2,0,.166.166,0,0,0,.059-.095,1.019,1.019,0,0,0,.028-.192c.005-.081.008-.185.008-.311s0-.235-.008-.315A1.035,1.035,0,0,0,19.355,5.445Zm-2.393-1.88A.157.157,0,0,0,16.9,3.47a.213.213,0,0,0-.2,0,.158.158,0,0,0-.059.095,1.008,1.008,0,0,0-.028.189c-.005.08-.008.185-.008.314s0,.23.008.312a1.046,1.046,0,0,0,.028.192.155.155,0,0,0,.059.094.213.213,0,0,0,.2,0,.154.154,0,0,0,.058-.094.966.966,0,0,0,.028-.192C17,4.3,17,4.194,17,4.068s0-.234-.008-.314A.931.931,0,0,0,16.962,3.565ZM22,5a4,4,0,1,1-4-4A4,4,0,0,1,22,5Zm-5.2.136a1.252,1.252,0,0,0,.411-.058.582.582,0,0,0,.27-.186.8.8,0,0,0,.148-.331,2.4,2.4,0,0,0,.044-.493,2.378,2.378,0,0,0-.044-.492.784.784,0,0,0-.148-.331.583.583,0,0,0-.27-.187,1.489,1.489,0,0,0-.823,0,.594.594,0,0,0-.27.187.8.8,0,0,0-.147.331,2.311,2.311,0,0,0-.044.492,2.328,2.328,0,0,0,.044.493.808.808,0,0,0,.147.331.592.592,0,0,0,.27.186A1.258,1.258,0,0,0,16.8,5.136ZM19.185,3h-.612L16.809,7h.612Zm.884,2.949a2.328,2.328,0,0,0-.044-.493.808.808,0,0,0-.147-.331.592.592,0,0,0-.27-.186,1.465,1.465,0,0,0-.823,0,.582.582,0,0,0-.27.186.8.8,0,0,0-.148.331,2.328,2.328,0,0,0-.044.493,2.311,2.311,0,0,0,.044.492.79.79,0,0,0,.148.331.534.534,0,0,0,.27.178,1.718,1.718,0,0,0,.823,0,.543.543,0,0,0,.27-.178.8.8,0,0,0,.147-.331A2.311,2.311,0,0,0,20.069,5.949Z"/></svg>