<svg xmlns="http://www.w3.org/2000/svg" viewBox="0 0 24 24"><path d="M21.036,9.059a16.675,16.675,0,0,1-1.055,9.309c-.431.616-.733,2.754-1.912,2.477-.467-.226-.222-.7-.011-1.044a16.173,16.173,0,0,0,1.979-7.23c-.077-3.169.026-8.3-4.395-9.328-1.162-.27-.956-1.187.04-1.019a13.218,13.218,0,0,1,1.6.591C19.913,3.972,20.682,7.067,21.036,9.059ZM15.742,4.218c-3.284-1.3-7.854.454-8.1,3.363.038.886,1.3.5,1.266-.276.574-2.446,4.84-3.584,6.9-1.817,1.318,1.209,1.313,2.931,1.839,4.423a.539.539,0,0,0,.679.39c.729-.179.407-.8.373-1.2C18.43,8.076,17.68,4.985,15.742,4.218Zm-3.085,3q-.625.165-.336.889a11.586,11.586,0,0,1,.86,4.67c-.028,3.051-1.437,5.914-3.531,8.612-.138.22-.07.435.216.553a.817.817,0,0,0,.95-.326c2.813-3.5,4.153-7.221,3.548-11.1C14.176,9.316,13.873,6.953,12.657,7.22ZM5.689,9.865c1.508,3.353.323,7.206-2.861,10.112-.35.433.3.675.774.557a10.516,10.516,0,0,0,3.519-4.962,8.048,8.048,0,0,0,.009-5.341,5.707,5.707,0,0,1-.577-2.495C6.782,5.1,9.626,3.291,12.728,2.849c.933-.555-.161-.993-.908-.805C7.361,2.934,4.207,6.363,5.689,9.865Zm3.648-.186a.553.553,0,0,0-.721-.339c-.681.179-.354.726-.329,1.1a9.544,9.544,0,0,1-1.659,8.187c-.235.637-2.345,2.11-1.548,2.559.942.362,1.472-.886,1.982-1.347a11.372,11.372,0,0,0,2.679-8.8A9.539,9.539,0,0,0,9.337,9.679Zm6.018-3.222c-1.348-1.933-5.179-.939-5.414,1.078-.009,1.436.966,2.715.884,4.178.175.645-.444,2.5.582,2.607a.649.649,0,0,0,.653-.574,10.613,10.613,0,0,0-.869-5.638c-.658-1.6,2.786-2.484,3.26-.808a13.7,13.7,0,0,1-1.926,13.585c-.262.335-.578.846.01,1.034a.668.668,0,0,0,.743-.213,15.19,15.19,0,0,0,3.26-11.757A12.4,12.4,0,0,0,15.355,6.457Zm-5.091,9.821a18.249,18.249,0,0,1-3.109,4.973c.8,2.32,4.512-4.567,4.408-5.275C11.047,15.5,10.405,15.6,10.264,16.278Zm7.493-3.817A16.006,16.006,0,0,1,15.013,20.9c-.446.609.584.925,1.074.371a16.927,16.927,0,0,0,2.932-9.149C18.948,11.278,17.569,11.567,17.757,12.461Z"/></svg>