<svg xmlns="http://www.w3.org/2000/svg" viewBox="0 0 24 24" width="512" height="512" aria-labelledby="mutouch-id-desc mutouch-id-title"><title id="mutouch-id-title">TouchID Icon</title><desc id="mutouch-id-desc">A picture showing the Apple TouchID logo.</desc><path d="M21.036 9.059a16.675 16.675 0 01-1.055 9.309c-.431.616-.733 2.754-1.912 2.477-.467-.226-.222-.7-.011-1.044a16.173 16.173 0 001.979-7.23c-.077-3.169.026-8.3-4.395-9.328-1.162-.27-.956-1.187.04-1.019a13.218 13.218 0 011.6.591c2.631 1.157 3.4 4.252 3.754 6.244zm-5.294-4.841c-3.284-1.3-7.854.454-8.1 3.363.038.886 1.3.5 1.266-.276.574-2.446 4.84-3.584 6.9-1.817 1.318 1.209 1.313 2.931 1.839 4.423a.539.539 0 00.679.39c.729-.179.407-.8.373-1.2-.269-1.025-1.019-4.116-2.957-4.883zm-3.085 3q-.625.165-.336.889a11.586 11.586 0 01.86 4.67c-.028 3.051-1.437 5.914-3.531 8.612-.138.22-.07.435.216.553a.817.817 0 00.95-.326c2.813-3.5 4.153-7.221 3.548-11.1-.188-1.2-.491-3.563-1.707-3.296zM5.689 9.865c1.508 3.353.323 7.206-2.861 10.112-.35.433.3.675.774.557a10.516 10.516 0 003.519-4.962 8.048 8.048 0 00.009-5.341 5.707 5.707 0 01-.577-2.495c.229-2.636 3.073-4.445 6.175-4.887.933-.555-.161-.993-.908-.805-4.459.89-7.613 4.319-6.131 7.821zm3.648-.186a.553.553 0 00-.721-.339c-.681.179-.354.726-.329 1.1a9.544 9.544 0 01-1.659 8.187c-.235.637-2.345 2.11-1.548 2.559.942.362 1.472-.886 1.982-1.347a11.372 11.372 0 002.679-8.8 9.539 9.539 0 00-.404-1.36zm6.018-3.222c-1.348-1.933-5.179-.939-5.414 1.078-.009 1.436.966 2.715.884 4.178.175.645-.444 2.5.582 2.607a.649.649 0 00.653-.574 10.613 10.613 0 00-.869-5.638c-.658-1.6 2.786-2.484 3.26-.808a13.7 13.7 0 01-1.926 13.585c-.262.335-.578.846.01 1.034a.668.668 0 00.743-.213 15.19 15.19 0 003.26-11.757 12.4 12.4 0 00-1.183-3.492zm-5.091 9.821a18.249 18.249 0 01-3.109 4.973c.8 2.32 4.512-4.567 4.408-5.275-.516-.476-1.158-.376-1.299.302zm7.493-3.817a16.006 16.006 0 01-2.744 8.439c-.446.609.584.925 1.074.371a16.927 16.927 0 002.932-9.149c-.071-.844-1.45-.555-1.262.339z"/></svg>