<svg xmlns="http://www.w3.org/2000/svg" viewBox="0 0 24 24" width="512" height="512" aria-labelledby="mxtractor-desc mxtractor-title"><title id="mxtractor-title">Tractor Icon</title><desc id="mxtractor-desc">A picture depicting a tractor vehicle.</desc><path d="M22 11.537V4a1 1 0 00-1-1h-9a1 1 0 00-1 1v1h2l-1.846 6H7V9h1V8H5v1h1v2H5a2 2 0 00-2 2v1.141A3.991 3.991 0 107.445 20h6.092A5.994 5.994 0 1022 11.537zM4 20a2 2 0 112-2 2 2 0 01-2 2zm9.551-8.016L15.462 5H20v5.349a5.959 5.959 0 00-6.449 1.635zM18 19a3 3 0 113-3 3 3 0 01-3 3z"/></svg>