<svg xmlns="http://www.w3.org/2000/svg" viewBox="0 0 24 24" width="512" height="512" aria-labelledby="natwitter-desc natwitter-title"><title id="natwitter-title">Twitter Icon</title><desc id="natwitter-desc">A picture showing the Twitter application logo.</desc><path d="M19 3H5a2 2 0 00-2 2v14a2 2 0 002 2h14a2 2 0 002-2V5a2 2 0 00-2-2zm-1.13 6v.39a8.61 8.61 0 01-13.25 7.25 5.69 5.69 0 00.72 0 6 6 0 003.76-1.3 3 3 0 01-2.83-2.1 2.75 2.75 0 00.57.05 3 3 0 00.8-.1 3 3 0 01-2.43-3 3.13 3.13 0 001.37.38 3 3 0 01-.93-4 8.57 8.57 0 006.24 3.17 3.1 3.1 0 01-.08-.74 3 3 0 015.24-2A6.38 6.38 0 0019 6.22a3.07 3.07 0 01-1.36 1.68 6.22 6.22 0 001.74-.48A6.09 6.09 0 0117.87 9z"/></svg>