<svg xmlns="http://www.w3.org/2000/svg" viewBox="0 0 24 24" width="512" height="512" aria-labelledby="neusa-ca-desc neusa-ca-title"><title id="neusa-ca-title">USA California Icon</title><desc id="neusa-ca-desc">A picture depicting the shape of the state of California.</desc><path d="M0 0h24v24H0z" fill="none"/><path d="M8.494 3.285L7.143 8.632l6.338 8.946.519 1.543-1.247 1.748.312.823-.831.308a7.152 7.152 0 00-3.325-.411 13.7 13.7 0 00-.26-2s-.727-.823-1.194-.772c-.143.016-.052-.565-.052-.565l-.624-.1-.935-1.028-1.35-.424.415-1.234L3.247 13l.623-1.132s-.727.309-.727-.719 0-1.543-.52-1.748l.52-.515s-.931 0-1.039-.822c-.156-1.183.519-1.543.519-2.468 0-.511-.623-.203-.623-1.128 0-.617.727-.411 1.039-2.468zM10.542 8.2a3.212 3.212 0 00.7 2.2 2.445 2.445 0 001.932.8 2.3 2.3 0 001.629-.59 2.6 2.6 0 00.797-1.54h-1.2a1.817 1.817 0 01-.3.668 1.128 1.128 0 01-.944.414 1.225 1.225 0 01-1-.483 2.262 2.262 0 01-.392-1.451 2.581 2.581 0 01.371-1.5 1.174 1.174 0 011.014-.529 1.186 1.186 0 01.953.375 1.647 1.647 0 01.295.625h1.2a2.084 2.084 0 00-.394-1.074 2.384 2.384 0 00-2.1-.953 2.367 2.367 0 00-1.77.711 3.182 3.182 0 00-.791 2.327zm5.619 2.832h1.258l.391-1.184h2.12l.38 1.184h1.3l-2.032-5.759h-1.362zm2.723-4.442l.728 2.266h-1.475z"/></svg>