<svg xmlns="http://www.w3.org/2000/svg" viewBox="0 0 24 24" width="512" height="512" aria-labelledby="nmusa-tx-desc nmusa-tx-title"><title id="nmusa-tx-title">USA TX icon</title><desc id="nmusa-tx-desc">A picture depicting the shape of the state of Texas.</desc><path d="M0 0h24v24H0z" fill="none"/><path d="M10.987 2l3.237.235v2.507l1.618.744 2.329.744 1.5-.314 1.461.431.079 1.88L22 9.48l-.158 1.959-1.105.626-1.337 1.019-2.132.548s-.4 2.741.158 3.368l-2.447-.627-.479-1.645-1.974-3.211-1.421-.235-.947 1.253S8.5 11.752 8.342 10.89s-.079-1.41-.868-1.41c-.553-.548-1.263-1.331-1.263-1.331H10.4zM2.469 15.758v1.019H4.2v4.739h1.21v-4.739h1.723v-1.019zm7.442 3.794l1.1 1.964h1.461L10.6 18.535l1.761-2.777h-1.39l-1.06 1.875-1.026-1.875H7.447l1.762 2.824-1.852 2.934h1.4z"/></svg>