<svg xmlns="http://www.w3.org/2000/svg" viewBox="0 0 24 24"><defs><style>.a{fill:none;}</style></defs><path class="a" d="M0,0H24V24H0Z"/><path d="M21.361,10.458,13.542,2.639a2.18,2.18,0,0,0-3.084,0L2.639,10.458a2.18,2.18,0,0,0,0,3.084l7.819,7.819a2.18,2.18,0,0,0,3.084,0l7.819-7.819A2.18,2.18,0,0,0,21.361,10.458Zm-4.838,4.127c-.295,1.236-.232,3.127-2.037,2.569-.023-.288-.044-.569-.07-.894-8.755,4.272-10.878-10-2.144-10.017,1.532,0,4.814,1.231,3.6,3.239-3.331-2.939-8.5-.694-6.974,4,1.131,2.245,4.766,2.221,6.007.125h-2.7a1.285,1.285,0,0,1,.1-1.355c.878-.387,4.318-.483,4.7-.118C16.844,12.939,16.689,13.763,16.523,14.585Z"/></svg>