<svg xmlns="http://www.w3.org/2000/svg" viewBox="0 0 24 24" width="512" height="512" aria-labelledby="nfusa-fl-desc nfusa-fl-title"><title id="nfusa-fl-title">USA Florida Icon</title><desc id="nfusa-fl-desc">A picture depicting the shape of the state of Florida.</desc><path d="M0 0h24v24H0z" fill="none"/><path d="M7.927 2.455l.616.909 5.389-.606s.616.606 1.078.454S15.318 2 15.318 2h.615c2 5.152 3.7 5.606 3.7 5.606V8.97a8.284 8.284 0 012.31 4.848 2.06 2.06 0 01-.77 1.364l.462 1.06L20.09 17l-.923-1.818-1.386-.909s-2.31-2.576-2.771-3.182c.615-1.212 0-1.212 0-1.212l-.462.454-.308-.606c.924-2.272-.308-3.03-.308-3.03l-.77-.152A3.906 3.906 0 009.852 4.5l-2 1.515A6.484 6.484 0 005.541 4.2a5.849 5.849 0 00-3.233.3L2 3.439zM2.279 21.516h1.2V19.1h2.55v-1H3.475v-1.323h2.91v-1.011H2.279zm4.887 0h4.078V20.48H8.369v-4.722h-1.2z"/></svg>