<svg xmlns="http://www.w3.org/2000/svg" viewBox="0 0 24 24" width="512" height="512" aria-labelledby="nhusa-ny-desc nhusa-ny-title"><title id="nhusa-ny-title">USA NY icon</title><desc id="nhusa-ny-desc">A picture depicting the shape of the state of New York.</desc><path d="M0 0h24v24H0z" fill="none"/><path d="M2.115 2.758h1.261l2.286 4.014V2.758h1.121v5.758H5.58L3.236 4.43v4.086H2.115zm9.082 0h1.364l-1.926 3.6v2.16h-1.2V6.356l-1.993-3.6h1.415l1.2 2.508zM14.366 7.9l-2.443 3.6-.2 2-5.676 1.707a.7.7 0 00-.489.869c.082.266.863.448.665 1.224a4.16 4.16 0 01-2.035 2.4l1.017.8 11.4-2 1.222 1 2.646 1.2.916 1.3.611-1.4-.407-6.2L19.15 7z"/></svg>