<svg xmlns="http://www.w3.org/2000/svg" viewBox="0 0 24 24"><defs><style>.a{fill:none;}</style></defs><path class="a" d="M0,0H24V24H0Z"/><path d="M23,17v1a3,3,0,0,1-6,0V15.5a.5.5,0,0,0-.5-.5h-1a.5.5,0,0,0-.5.5V21H11V17H5v4H1V12H19v6a1,1,0,0,0,2,0V17ZM19,7.5V10H1V7.5C1,5.015,5.029,3,10,3S19,5.015,19,7.5ZM6.332,7.727,5.363,7c.124-.413.242-.8.36-1.19l-.039-.024-.969.732-.989-.724-.03.026c.124.394.247.787.374,1.19l-1.017.787H4.316c.135.4.266.794.4,1.184h.041c.122-.393.244-.787.373-1.2H6.317Zm5.031,0-.975-.733c.126-.411.245-.8.365-1.188l-.04-.026c-.327.246-.653.493-.972.732L8.7,5.743,9.1,7l-.958.746.018.046H9.345L9.74,8.977h.038l.373-1.207h1.2Zm5.117.051c-.324-.242-.647-.485-.976-.732.119-.408.235-.8.351-1.2l-.035-.022-.969.73-.988-.726-.028.028c.121.389.241.778.369,1.19L13.24,7.8l.016.037h1.2c.131.4.26.8.389,1.2l.041-.005c.122-.395.243-.791.37-1.2h1.209Z"/></svg>