<svg xmlns="http://www.w3.org/2000/svg" viewBox="0 0 24 24" width="512" height="512" aria-labelledby="niusa-party-democratic-desc niusa-party-democratic-title"><title id="niusa-party-democratic-title">USA Party Democratic Icon</title><desc id="niusa-party-democratic-desc">A picture showing the Democratic Party symbol of a donkey.</desc><path d="M0 0h24v24H0z" fill="none"/><path d="M7.156 12.424h13.849l.039-.1c.811-2.053.519-5.74-2.938-5.43-3.551.319-2.487 1.362-6.35 1.424a2.992 2.992 0 00-.358.039A22.473 22.473 0 017.925 4.87S8.2 2 7.2 2c-.73 0-1 1.339-1.277 2.2-.734-.669-2.172-1.827-2.723-1.158s1.351 2.689 1.351 2.689c-1.033.4-.811 1.235-1.895 2.379a1.788 1.788 0 00.346 3c.724.38 3.09-.349 3.338-.771.189.369.47 1.19.816 2.085zm11.7-2.508l.3-.932.3.932h.983l-.8.576.3.933-.8-.577-.8.577.3-.933-.8-.576zm-3.345 0l.3-.932.3.932h.989l-.8.576.3.933-.8-.577-.8.577.3-.933-.8-.576zm-3.345 0l.3-.932.3.932h.983l-.8.576.3.933-.795-.577-.795.577.3-.933-.795-.576zm-3.345 0l.3-.932.3.932h.983l-.795.576.3.933-.795-.577-.795.577.3-.933-.8-.576zM21.833 16.8c-.285.047-.522-.682-.522-.929 0-.226-.509-1.262-.875-1.307a4.6 4.6 0 00.271 1.072 11.076 11.076 0 01.067 4.7c-.3.53-.912 1.457-.912 1.457a2.078 2.078 0 01-1.081.2 1.328 1.328 0 01-.878-.5 3.581 3.581 0 001.419-2.947c.067-1.986-.169-2.847-1.013-3.707s-.507.562-.507.562l.439 1.391-1.284 1.192v1.125a14.91 14.91 0 00-1.486 2.02c-.878.264-1.452.264-1.655-.2s1.858-2.913 1.858-2.913l.371-1.225L15 14.673l-3.884.464a4.58 4.58 0 00-.844 2.549 3.091 3.091 0 001.146 2.114 6 6 0 01-1.283 1.523L9.594 21l-.169.629-2.263.1 1.25-2.119a17.726 17.726 0 00.019-2.043 22.7 22.7 0 00-.19-2.8 10.787 10.787 0 01-.658-1.3h13.041c.312 0 .463 1.331.64 1.518.205.217.632.356.664.6s.189 1.166-.095 1.215z"/></svg>