<svg xmlns="http://www.w3.org/2000/svg" viewBox="0 0 24 24"><defs><style>.a{fill:none;}</style></defs><path class="a" d="M0,0H24V24H0Z"/><path d="M19,8H11.189L7.766,4.753S8.024,2,7.08,2c-.686,0-.943,1.285-1.2,2.111C5.194,3.468,3.842,2.358,3.327,3S4.594,5.579,4.594,5.579c-.972.382-.54,1.064-1.505,1.577A2.6,2.6,0,0,0,2.5,10.794c.907.814,3.541-.389,3.773-.794C6.876,11.193,8,14,8,14v8h2V20l1.249.975,1.39-1.414-1.911-1.944V17h5.8L15.4,20.571l1.87.615L18,19.38V22h2.034V12.371L21.017,14s.825-.849.983-1ZM9.638,11.516l-.747-.552-.748.552.286-.894-.748-.553h.924l.286-.894.285.894H10.1l-.748.553Zm3.145,0-.747-.552-.748.552.286-.894-.748-.553h.924l.286-.894.285.894h.925l-.748.553Zm3.145,0-.747-.552-.748.552.285-.894-.747-.553H14.9l.286-.894.285.894h.924l-.747.553Zm3.145,0-.747-.552-.748.552.285-.894-.747-.553h.924l.286-.894.285.894h.924l-.747.553Z"/></svg>