<svg xmlns="http://www.w3.org/2000/svg" viewBox="0 0 24 24" width="512" height="512" aria-labelledby="njusa-party-green-desc njusa-party-green-title"><title id="njusa-party-green-title">USA Party Green Icon</title><desc id="njusa-party-green-desc">A picture showing the Green Party symbol.</desc><path d="M0 0h24v24H0z" fill="none"/><path d="M21.361 10.458l-7.819-7.819a2.18 2.18 0 00-3.084 0l-7.819 7.819a2.18 2.18 0 000 3.084l7.819 7.819a2.18 2.18 0 003.084 0l7.819-7.819a2.18 2.18 0 000-3.084zm-4.838 4.127c-.295 1.236-.232 3.127-2.037 2.569l-.07-.894c-8.755 4.272-10.878-10-2.144-10.017 1.532 0 4.814 1.231 3.6 3.239-3.331-2.939-8.5-.694-6.974 4 1.131 2.245 4.766 2.221 6.007.125h-2.7a1.285 1.285 0 01.1-1.355c.878-.387 4.318-.483 4.7-.118-.161.805-.316 1.629-.482 2.451z"/></svg>