<svg xmlns="http://www.w3.org/2000/svg" viewBox="0 0 24 24"><defs><style>.a{fill:none;}</style></defs><path class="a" d="M0,0H24V24H0Z"/><path d="M21.9,9.034C21.47,8.7,21,8,19.021,9a3.113,3.113,0,0,1,.97-3.367C18,5,16.825,7.047,16.545,8.129,15,6,16.623,4.6,16.864,4,14,4,13.376,7.48,13.355,7.517a1.7,1.7,0,0,1-1.017-.84,3.026,3.026,0,0,1,.073-2.609,3.481,3.481,0,0,0-1.622,1.165,3.5,3.5,0,0,0-.826,2.645A3.96,3.96,0,0,1,8.169,5.233c-1.222,1-1.278,2.269-.929,3.684A2.9,2.9,0,0,1,4.512,7.149C4,9,5.116,10.524,5.934,11.758c-.934.242-2-.743-2.962-1.2a2.515,2.515,0,0,0,1.349,2.19,1.331,1.331,0,0,0,.592.2q7.627.017,15.255.007c.106,0,.212-.016.331-.026C19.841,11.548,20.217,10.512,21.9,9.034ZM10.108,12.242l-.93-.678-.905.687c.116-.445.209-.8.3-1.162L7.7,10.377l1.11-.059c.113-.347.223-.682.363-1.111.141.407.257.739.389,1.122h1l.029.094-.806.667C9.889,11.46,9.987,11.809,10.108,12.242Zm3.71.008-.923-.686-.919.687c.117-.435.208-.774.309-1.152l-.777-.643.01-.1h.991c.122-.378.229-.712.374-1.161.146.434.258.769.383,1.14h.991l.039.1-.8.658C13.6,11.448,13.693,11.8,13.818,12.25Zm3.706,0-.922-.687-.922.691c.12-.445.212-.784.313-1.157l-.863-.711,1.093-.071c.112-.339.227-.684.369-1.113.139.41.252.746.381,1.126h1.009l.032.091-.809.668Zm3.7,1.75L22,15.192c.182,2.186-2.589,2.377-4.154,2-.375,1.116.54,1.883.934,2.809H16.327c-.326-2.361-6.415-2.772-3.986,0H9.505C8.493,17.444,6,20,3.77,16.858a3.23,3.23,0,0,0,2.692-.665C4.647,16.122,2,15,2,14Z"/></svg>