<svg xmlns="http://www.w3.org/2000/svg" viewBox="0 0 24 24"><defs><style>.a{fill:none;}</style></defs><path class="a" d="M0,0H24V24H0Z"/><path d="M10.987,2l3.237.235V4.742l1.618.744,2.329.744,1.5-.314,1.461.431.079,1.88L22,9.48l-.158,1.959-1.105.626L19.4,13.084l-2.132.548s-.4,2.741.158,3.368l-2.447-.627L14.5,14.728l-1.974-3.211-1.421-.235-.947,1.253S8.5,11.752,8.342,10.89s-.079-1.41-.868-1.41c-.553-.548-1.263-1.331-1.263-1.331H10.4ZM2.469,15.758v1.019H4.2v4.739H5.41V16.777H7.133V15.758Zm7.442,3.794,1.1,1.964h1.461L10.6,18.535l1.761-2.777h-1.39L9.911,17.633,8.885,15.758H7.447l1.762,2.824L7.357,21.516h1.4Z"/></svg>