<svg xmlns="http://www.w3.org/2000/svg" viewBox="0 0 24 24" width="512" height="512" aria-labelledby="nlusa-party-republican-desc nlusa-party-republican-title"><title id="nlusa-party-republican-title">USA Party Republican Icon</title><desc id="nlusa-party-republican-desc">A picture showing the Republican Party symbol of an elephant.</desc><path d="M0 0h24v24H0z" fill="none"/><path d="M23 17v1a3 3 0 01-6 0v-2.5a.5.5 0 00-.5-.5h-1a.5.5 0 00-.5.5V21h-4v-4H5v4H1v-9h18v6a1 1 0 002 0v-1zm-4-9.5V10H1V7.5C1 5.015 5.029 3 10 3s9 2.015 9 4.5zm-12.668.227L5.363 7l.36-1.19-.039-.024-.969.732-.989-.724-.03.026.374 1.19-1.017.787h1.263c.135.4.266.794.4 1.184h.041l.373-1.2h1.187zm5.031 0l-.975-.733.365-1.188-.04-.026-.972.732L8.7 5.743 9.1 7l-.958.746.018.046h1.185l.395 1.185h.038l.373-1.207h1.2zm5.117.051l-.976-.732.351-1.2-.035-.022-.969.73-.988-.726-.028.028.369 1.19-.964.754.016.037h1.2c.131.4.26.8.389 1.2l.041-.005.37-1.2h1.209z"/></svg>