<svg xmlns="http://www.w3.org/2000/svg" viewBox="0 0 24 24" width="512" height="512" aria-labelledby="ngusa-lower-48-states-desc ngusa-lower-48-states-title"><title id="ngusa-lower-48-states-title">USA lower 48 States Icon</title><desc id="ngusa-lower-48-states-desc">A picture depicting the shape of the lower 48 states of the USA.</desc><path d="M20.958 7.877L22 6.916l-.637-1.147h-.405l-.434 1.457-1.274.5-2.2 2.325-.406-.186.174-1.085-.608-.744-.723.31.289 1.271-.463.558-.376-.744L15.111 8l1.1-.31-.058-.372-1.389-.062-.521.4-.9-.031.81-.775A81.465 81.465 0 012.839 5.614L2 9.272l.608 3.317 2.055 1.55 3.241.713.521 1.395.666.434.319-.5.607.124.579 1.736 1.013.341.058-1.054 1.8-1 .832.375.81-.186-.15-.482 1.424-.262 1.187.341.268.965.774 1.112.55-.341-.29-1.829-.666-1.116 1.768-2.405-.261-.713.377-1.087V9.582l1.244-.713-.318-.155z"/></svg>