<svg xmlns="http://www.w3.org/2000/svg" viewBox="0 0 24 24" width="512" height="512" aria-labelledby="nkusa-party-libertarian-desc nkusa-party-libertarian-title"><title id="nkusa-party-libertarian-title">USA Party Libertarian Icon</title><desc id="nkusa-party-libertarian-desc">A picture showing the Libertarian Party symbol of a hedgehog.</desc><path d="M0 0h24v24H0z" fill="none"/><path d="M21.9 9.034C21.47 8.7 21 8 19.021 9a3.113 3.113 0 01.97-3.367C18 5 16.825 7.047 16.545 8.129 15 6 16.623 4.6 16.864 4 14 4 13.376 7.48 13.355 7.517a1.7 1.7 0 01-1.017-.84 3.026 3.026 0 01.073-2.609 3.481 3.481 0 00-1.622 1.165 3.5 3.5 0 00-.826 2.645 3.96 3.96 0 01-1.794-2.645c-1.222 1-1.278 2.269-.929 3.684a2.9 2.9 0 01-2.728-1.768C4 9 5.116 10.524 5.934 11.758c-.934.242-2-.743-2.962-1.2a2.515 2.515 0 001.349 2.19 1.331 1.331 0 00.592.2q7.627.017 15.255.007c.106 0 .212-.016.331-.026-.658-1.381-.282-2.417 1.401-3.895zm-11.792 3.208l-.93-.678-.905.687c.116-.445.209-.8.3-1.162l-.873-.712 1.11-.059.363-1.111.389 1.122h1l.029.094-.806.667.323 1.152zm3.71.008l-.923-.686-.919.687.309-1.152-.777-.643.01-.1h.991l.374-1.161.383 1.14h.991l.039.1-.8.658c.104.355.197.707.322 1.157zm3.706 0l-.922-.687-.922.691.313-1.157-.863-.711 1.093-.071.369-1.113.381 1.126h1.009l.032.091-.809.668zm3.7 1.75L22 15.192c.182 2.186-2.589 2.377-4.154 2-.375 1.116.54 1.883.934 2.809h-2.453c-.326-2.361-6.415-2.772-3.986 0H9.505C8.493 17.444 6 20 3.77 16.858a3.23 3.23 0 002.692-.665C4.647 16.122 2 15 2 14z"/></svg>