<svg xmlns="http://www.w3.org/2000/svg" viewBox="0 0 24 24" width="512" height="512" aria-labelledby="nnusb-desc nnusb-title"><title id="nnusb-title">USB Icon</title><desc id="nnusb-desc">A picture showing the USB standard logo.</desc><path d="M22 10.478v-.01a1.455 1.455 0 00-.539-1.212 2.44 2.44 0 00-1.51-.4H18.83l.287-1.308h-9.1a5.727 5.727 0 00-5.309 3H2.633L2 13.418h2.264c.332 2.428 2.448 3.034 4.793 3.034h8.1l.287-1.308h1.7a2.974 2.974 0 001.921-.581 2.019 2.019 0 00.725-1.656 1.527 1.527 0 00-.393-1.072 1.571 1.571 0 00.251-.258A1.8 1.8 0 0022 10.478zM8.316 14.861c-1.641-.02-2.322-.81-2.322-1.69a3.747 3.747 0 01.059-.435l.731-3.5h1.68l-.622 2.994a5.3 5.3 0 00-.079.534c0 .168-.05.721.632.7.7.02.919-.612 1.028-1.235l.632-2.994h1.69l-.761 3.627a2.452 2.452 0 01-2.668 1.999zm5.238.02c-1.255-.01-2.392-.583-2.313-1.987h1.611a.831.831 0 00.227.633.962.962 0 00.6.148c.336-.01.741-.178.731-.534.01-.4-.543-.454-1.3-.7-.662-.228-1.3-.583-1.314-1.483.009-1.245 1.2-1.808 2.292-1.818 1.176.01 2.224.445 2.194 1.788H14.72a.512.512 0 00-.178-.454.967.967 0 00-.5-.128c-.277.009-.642.1-.652.454.01.415.83.435 1.354.632.958.336 1.284.85 1.284 1.512-.004 1.314-1.288 1.927-2.474 1.937zm7.026-3.093v.019a1.068 1.068 0 01.8 1.087c.019 1.325-1.038 1.848-2.234 1.839H16l1.136-5.466h2.816c1.187.01 1.631.425 1.641 1.206a1.26 1.26 0 01-1.013 1.315zm-.761-.841c0 .326-.336.435-.6.435h-.958l.178-.83h.861c.3 0 .519.059.519.395zm-.168 1.918c-.019.444-.425.553-.731.553h-1.087l.227-1.028h.929c.346.01.652.07.662.475z"/></svg>