<svg xmlns="http://www.w3.org/2000/svg" viewBox="0 0 24 24" width="512" height="512" aria-labelledby="noverified-account-desc noverified-account-title"><title id="noverified-account-title">Verified Account Icon</title><desc id="noverified-account-desc">A picture showing a badge with a check mark in the middle.</desc><path d="M22 12a2.991 2.991 0 00-2.8-2.98 2.986 2.986 0 00-4.22-4.215 2.985 2.985 0 00-5.96 0A2.986 2.986 0 004.805 9.02a2.985 2.985 0 000 5.96A2.986 2.986 0 009.02 19.2a2.985 2.985 0 005.96 0 2.986 2.986 0 004.22-4.22A2.991 2.991 0 0022 12zm-11.5 4.06l-3.707-3.707 1.414-1.413 2.293 2.292 5.293-5.292 1.414 1.414z"/></svg>