<svg xmlns="http://www.w3.org/2000/svg" viewBox="0 0 24 24" width="512" height="512" aria-labelledby="npveterinarian-desc npveterinarian-title"><title id="npveterinarian-title">Veterinarian Icon</title><desc id="npveterinarian-desc">A picture depicting a paw footprint with a medical cross inside.</desc><path d="M6.982 7.95c.6 1.648.039 3.365-1.253 3.835S2.9 11.3 2.3 9.653s-.035-3.366 1.257-3.836S6.382 6.3 6.982 7.95zm10.051-.041c-.6 1.648-.013 3.374 1.31 3.856s2.881-.464 3.481-2.112.014-3.375-1.309-3.856-2.882.464-3.482 2.112zM12.011 2c-1.65 0-2.988 1.5-2.988 3.769S10.361 10 12.011 10 15 8.038 15 5.769 13.662 2 12.011 2zM20 19.207C20 23.7 15.2 20.93 12 21c-3.195-.07-7.995 2.7-8-1.793C3.993 13 8.844 12 12 12s8.007 1 8 7.207zM14.5 15.5H13V14h-2v1.5H9.5v2H11V19h2v-1.5h1.5z"/></svg>