<svg xmlns="http://www.w3.org/2000/svg" viewBox="0 0 24 24" width="512" height="512" aria-labelledby="nrviber-desc nrviber-title"><title id="nrviber-title">Viber Icon</title><desc id="nrviber-desc">A picture showing the Viber application logo.</desc><path d="M19 3H5a2 2 0 00-2 2v14a2 2 0 002 2h14a2 2 0 002-2V5a2 2 0 00-2-2zm-7.42 3.244c.09-.083.154-.095.468-.085.164 0 .4.025.536.04a5.367 5.367 0 011.786.53 4.832 4.832 0 011.438 1.039 4.664 4.664 0 01.983 1.351 6.448 6.448 0 01.626 2.642c.014.337 0 .412-.073.509a.357.357 0 01-.578-.054.942.942 0 01-.056-.4 6.931 6.931 0 00-.106-1 4.615 4.615 0 00-1.788-2.976 4.7 4.7 0 00-2.71-.958c-.366-.021-.43-.034-.513-.1a.377.377 0 01-.013-.538zm2.3 2.482a3.651 3.651 0 00-1.48-.445.491.491 0 01-.364-.137.351.351 0 01-.036-.436c.1-.156.254-.181.715-.112a3.727 3.727 0 012.669 1.6A3.833 3.833 0 0116 10.9a3.185 3.185 0 010 .717.349.349 0 01-.5.18c-.149-.075-.193-.2-.193-.519a3.1 3.1 0 00-.352-1.434 2.936 2.936 0 00-1.078-1.118zm.651 2.569a.37.37 0 01-.45.009c-.093-.069-.122-.142-.143-.341a1.823 1.823 0 00-.15-.62 1.093 1.093 0 00-.974-.615c-.237-.029-.308-.056-.385-.147a.358.358 0 01.108-.539c.073-.037.1-.041.266-.031a2.683 2.683 0 01.327.04 1.846 1.846 0 01.92.459 1.909 1.909 0 01.572 1.2c.049.338.028.473-.094.59zm2.88 5.062a4.285 4.285 0 01-1.085 1.353 1.544 1.544 0 01-.927.384 1.359 1.359 0 01-.727-.152 15.289 15.289 0 01-6.581-5.069 14.362 14.362 0 01-2.048-3.719C5.771 8.4 5.758 8.078 5.981 7.7a4.322 4.322 0 01.806-.787 2.761 2.761 0 01.91-.545 1.043 1.043 0 01.481.044 1.257 1.257 0 01.232.116 9.362 9.362 0 011.719 2.2 1.23 1.23 0 01.194.852c-.061.219-.163.335-.62.7a3.581 3.581 0 00-.382.341.9.9 0 00-.125.436 3.235 3.235 0 00.484 1.355 5.84 5.84 0 00.967 1.139 5.364 5.364 0 001.27.9c.565.281.91.352 1.162.235a1 1 0 00.153-.085c.019-.017.167-.2.329-.4.312-.393.384-.457.6-.53a1.037 1.037 0 01.829.075c.212.11.675.4.973.6a14.167 14.167 0 011.347 1.1.874.874 0 01.098.911z"/></svg>