<svg xmlns="http://www.w3.org/2000/svg" viewBox="0 0 24 24" width="512" height="512" aria-labelledby="nsvimeo-desc nsvimeo-title"><title id="nsvimeo-title">Vimeo Icon</title><desc id="nsvimeo-desc">A picture showign the Vimeo website logo.</desc><path d="M21.975 7.366q-.135 2.912-4.076 7.972-4.076 5.286-6.9 5.285-1.746 0-2.956-3.224l-1.609-5.912q-.9-3.225-1.926-3.225A6.179 6.179 0 002.94 9.2L2 7.993Q3.465 6.706 4.911 5.4a6.6 6.6 0 012.956-1.8q2.33-.224 2.866 3.18.582 3.674.806 4.568.672 3.046 1.478 3.046.627 0 1.881-1.971a7.736 7.736 0 001.344-3q.178-1.7-1.344-1.7a3.874 3.874 0 00-1.478.313q1.48-4.789 5.643-4.655 3.092.089 2.912 3.986z"/></svg>