<svg xmlns="http://www.w3.org/2000/svg" viewBox="0 0 24 24" width="512" height="512" aria-labelledby="nvvirus-stop-desc nvvirus-stop-title"><title id="nvvirus-stop-title">Virus Stop Icon</title><desc id="nvvirus-stop-desc">A picture depicting a crossed-out virus symbol.</desc><path d="M12 19a1 1 0 11-1 1 1 1 0 011-1zm0-10a3 3 0 00-3 3 2.969 2.969 0 00.3 1.286L13.286 9.3A2.969 2.969 0 0012 9zm-4.168 5.754A4.939 4.939 0 017.1 13H5.723a2 2 0 110-2H7.1a4.939 4.939 0 01.731-1.754L6.44 7.854A2 2 0 117.854 6.44l1.392 1.392A4.939 4.939 0 0111 7.1V5.723a2 2 0 112 0V7.1a4.939 4.939 0 011.754.731l4.99-4.991a11.993 11.993 0 00-16.9 16.9zM12 15a3 3 0 003-3 2.969 2.969 0 00-.3-1.286L10.714 14.7A2.969 2.969 0 0012 15zm1-11a1 1 0 10-1 1 1 1 0 001-1zM5 6a1 1 0 101-1 1 1 0 00-1 1zm16 6a1 1 0 10-1 1 1 1 0 001-1zm-2 6a1 1 0 10-1 1 1 1 0 001-1zM3 12a1 1 0 101-1 1 1 0 00-1 1zm18.159-7.744l-4.991 4.99A4.939 4.939 0 0116.9 11h1.378a2 2 0 110 2H16.9a4.939 4.939 0 01-.731 1.754l1.392 1.392a2 2 0 11-1.414 1.414l-1.392-1.392A4.939 4.939 0 0113 16.9v1.378a2 2 0 11-2 0V16.9a4.939 4.939 0 01-1.754-.731l-4.99 4.991a11.993 11.993 0 0016.9-16.9z"/></svg>