<svg xmlns="http://www.w3.org/2000/svg" viewBox="0 0 24 24"><path d="M18.277,13a2,2,0,1,0,0-2H16.9a4.939,4.939,0,0,0-.731-1.754L17.56,7.854A2,2,0,1,0,16.146,6.44L14.754,7.832A4.939,4.939,0,0,0,13,7.1V5.723a2,2,0,1,0-2,0V7.1a4.939,4.939,0,0,0-1.754.731L7.854,6.44A2,2,0,1,0,6.44,7.854L7.832,9.246A4.939,4.939,0,0,0,7.1,11H5.723a2,2,0,1,0,0,2H7.1a4.939,4.939,0,0,0,.731,1.754L6.44,16.146A2,2,0,1,0,7.854,17.56l1.392-1.392A4.939,4.939,0,0,0,11,16.9v1.378a2,2,0,1,0,2,0V16.9a4.939,4.939,0,0,0,1.754-.731l1.392,1.392a2,2,0,1,0,1.414-1.414l-1.392-1.392A4.939,4.939,0,0,0,16.9,13ZM11,14a1,1,0,1,1,1-1A1,1,0,0,1,11,14Z"/></svg>