<svg xmlns="http://www.w3.org/2000/svg" viewBox="0 0 24 24" width="512" height="512" aria-labelledby="ntvirus-desc ntvirus-title"><title id="ntvirus-title">Virus Icon</title><desc id="ntvirus-desc">A picture depicting a corona-shaped virus.</desc><path d="M18.277 13a2 2 0 100-2H16.9a4.939 4.939 0 00-.731-1.754l1.391-1.392a2 2 0 10-1.414-1.414l-1.392 1.392A4.939 4.939 0 0013 7.1V5.723a2 2 0 10-2 0V7.1a4.939 4.939 0 00-1.754.731L7.854 6.44A2 2 0 106.44 7.854l1.392 1.392A4.939 4.939 0 007.1 11H5.723a2 2 0 100 2H7.1a4.939 4.939 0 00.731 1.754L6.44 16.146a2 2 0 101.414 1.414l1.392-1.392A4.939 4.939 0 0011 16.9v1.378a2 2 0 102 0V16.9a4.939 4.939 0 001.754-.731l1.392 1.392a2 2 0 101.414-1.414l-1.392-1.392A4.939 4.939 0 0016.9 13zM11 14a1 1 0 111-1 1 1 0 01-1 1z"/></svg>