<svg xmlns="http://www.w3.org/2000/svg" viewBox="0 0 24 24" width="512" height="512" aria-labelledby="nuvirus-protection-desc nuvirus-protection-title"><title id="nuvirus-protection-title">Virus Protection Icon</title><desc id="nuvirus-protection-desc">A picture depicting a shield with a virus on it.</desc><path d="M11.2 12.6a.6.6 0 10.6.6.6.6 0 00-.6-.6zM20 6v4.292C20 15.225 16.587 20.88 12 22c-4.587-1.12-8-6.775-8-11.708V6l8-4zm-2 6c0-.663-.4-1.2-.9-1.2a.892.892 0 00-.775.6h-.779a3.579 3.579 0 00-.614-1.484l.55-.55a.893.893 0 00.973-.124 1.084 1.084 0 00-.212-1.485 1.084 1.084 0 00-1.485-.212.893.893 0 00-.124.973l-.55.55a3.579 3.579 0 00-1.484-.614v-.779a.892.892 0 00.6-.775c0-.5-.537-.9-1.2-.9s-1.2.4-1.2.9a.892.892 0 00.6.775v.779a3.579 3.579 0 00-1.484.614l-.55-.55a.893.893 0 00-.124-.973 1.084 1.084 0 00-1.485.212 1.084 1.084 0 00-.212 1.485.893.893 0 00.973.124l.55.55a3.579 3.579 0 00-.614 1.484h-.779a.892.892 0 00-.775-.6c-.5 0-.9.537-.9 1.2s.4 1.2.9 1.2a.892.892 0 00.775-.6h.779a3.579 3.579 0 00.614 1.484l-.55.55a.893.893 0 00-.973.124 1.084 1.084 0 00.212 1.485 1.084 1.084 0 001.485.212.893.893 0 00.124-.973l.55-.55a3.579 3.579 0 001.484.614v.779a.892.892 0 00-.6.775c0 .5.537.9 1.2.9s1.2-.4 1.2-.9a.892.892 0 00-.6-.775v-.779a3.579 3.579 0 001.484-.614l.55.55a.893.893 0 00.124.973 1.084 1.084 0 001.485-.212 1.084 1.084 0 00.212-1.485.893.893 0 00-.973-.124l-.55-.55a3.579 3.579 0 00.614-1.484h.779a.892.892 0 00.775.6c.5 0 .9-.537.9-1.2zm-5.2-1.8a.6.6 0 10.6.6.6.6 0 00-.6-.6z"/></svg>