<svg xmlns="http://www.w3.org/2000/svg" viewBox="0 0 24 24" width="512" height="512" aria-labelledby="nwvisa-desc nwvisa-title"><title id="nwvisa-title">Visa Icon</title><desc id="nwvisa-desc">A picture showing the Visa credit card logo.</desc><path d="M18.487 11.54l.068 1.266h-1.172l.5-1.083c.154-.362.5-1.1.585-1.344h.019a11.557 11.557 0 000 1.161zM22 6v12a2 2 0 01-2 2H4a2 2 0 01-2-2V6a2 2 0 012-2h16a2 2 0 012 2zM6.839 14.454l2.8-4.939H8.244l-1.2 2.094a5.092 5.092 0 00-.571 1.172h-.021c.021-.439-.04-.978-.046-1.283l-.133-1.983h-2.25L4 9.648a.933.933 0 011.015.885l.439 3.921zm3.339 0l1.5-4.94H10.34l-1.5 4.94zm4.93-1.083c.236-.581.012-1.2-.928-1.8l-.306-.195c-.407-.252-.592-.44-.452-.716a.622.622 0 01.57-.256 1.625 1.625 0 011.036.455L15.76 10a2.99 2.99 0 00-1.738-.6 1.849 1.849 0 00-1.863.986c-.364.877-.029 1.379.745 1.908l.258.168c.522.295.751.468.565.79a.62.62 0 01-.585.281 2.47 2.47 0 01-1.442-.483l-.637.972a3.735 3.735 0 002.017.566 1.936 1.936 0 002.028-1.217zM20 14.454l-.446-4.931h-1.781l-2.632 4.931h1.452l.341-.736H18.6l.037.735H20z"/></svg>