<svg xmlns="http://www.w3.org/2000/svg" viewBox="0 0 24 24" width="512" height="512" aria-labelledby="nxvisually-impaired-desc nxvisually-impaired-title"><title id="nxvisually-impaired-title">Visually Impaired Icon</title><desc id="nxvisually-impaired-desc">A picture depicting a crossed-out human eye.</desc><path d="M18.365 8.463L21.9 4.929l-1.415-1.414-3.823 3.823-1.834 1.834-1.414 1.414a2 2 0 10-2.828 2.828l-1.414 1.414-1.834 1.834-3.823 3.823L4.929 21.9 9.3 17.527A8.472 8.472 0 0012 18a7.709 7.709 0 00.849-.056l7.642-7.644a19.8 19.8 0 00-2.126-1.837zM12 16a3.926 3.926 0 01-1.023-.149l2.437-2.437 2.437-2.437A3.926 3.926 0 0116 12a4 4 0 01-4 4zm10-4s-3.108 4.149-7.334 5.541l6.514-6.514c.526.581.82.973.82.973zM9.334 6.459l-6.513 6.513C2.3 12.4 2 12 2 12s3.108-4.149 7.334-5.541zm-3.71 9.089A19.434 19.434 0 013.508 13.7l7.643-7.643A7.709 7.709 0 0112 6a8.527 8.527 0 012.7.47l-1.677 1.679A3.926 3.926 0 0012 8a4 4 0 00-4 4 3.926 3.926 0 00.149 1.023z"/></svg>