<svg xmlns="http://www.w3.org/2000/svg" viewBox="0 0 24 24"><path d="M7.067,15.018l-2.627,2a.828.828,0,0,1-1.063-.048l-1.1-1.005c-.019-.018-.037-.036-.055-.056a.841.841,0,0,1,.057-1.183l2.237-2.052ZM22,5a1.013,1.013,0,0,0-.71-.885L17.176,2.124a1.243,1.243,0,0,0-1.423.243c.01-.01.024-.013.034-.023-.009.009-.022.014-.031.023L8.623,8.911l3.224,2.46L17,7.437v9.125L4.443,6.978a.829.829,0,0,0-1.066.048l-1.1,1.005c-.019.018-.037.036-.055.056A.841.841,0,0,0,2.279,9.27L15.756,21.633a1.239,1.239,0,0,0,1.42.243l4.116-1.991A1.256,1.256,0,0,0,22,18.753"/></svg>