<svg xmlns="http://www.w3.org/2000/svg" viewBox="0 0 24 24" width="512" height="512" aria-labelledby="nzvs-code-desc nzvs-code-title"><title id="nzvs-code-title">VSCode Icon</title><desc id="nzvs-code-desc">A picture showing the Microsoft VSCode logo.</desc><path d="M7.067 15.018l-2.627 2a.828.828 0 01-1.063-.048l-1.1-1.005a.971.971 0 01-.055-.056.841.841 0 01.057-1.183l2.237-2.052zM22 5a1.013 1.013 0 00-.71-.885l-4.114-1.991a1.243 1.243 0 00-1.423.243c.01-.01.024-.013.034-.023-.009.009-.022.014-.031.023L8.623 8.911l3.224 2.46L17 7.437v9.125L4.443 6.978a.829.829 0 00-1.066.048l-1.1 1.005a.971.971 0 00-.055.056.841.841 0 00.057 1.183l13.477 12.363a1.239 1.239 0 001.42.243l4.116-1.991A1.256 1.256 0 0022 18.753"/></svg>