<svg xmlns="http://www.w3.org/2000/svg" viewBox="0 0 24 24" width="512" height="512" aria-labelledby="oawater-boiler-desc oawater-boiler-title"><title id="oawater-boiler-title">Water Boiler Icon</title><desc id="oawater-boiler-desc">A picture depicting a water boiler.</desc><path d="M5 19a2 2 0 002 2h1v1h2v-1h4v1h2v-1h1a2 2 0 002-2v-8H5zm1-4.083A3.307 3.307 0 008 16c2 0 2-1.8 4-1.8s2 1.8 4 1.8a3.319 3.319 0 002-1.087V18a2 2 0 01-2 2H8a2 2 0 01-2-2zM12 5l1 2h-2zm5-3H7a2 2 0 00-2 2v6h14V4a2 2 0 00-2-2zm-5 6a2 2 0 112-2 2 2 0 01-2 2z"/></svg>