<svg xmlns="http://www.w3.org/2000/svg" viewBox="0 0 24 24" width="512" height="512" aria-labelledby="odwechat-desc odwechat-title"><title id="odwechat-title">WeChat Icon</title><desc id="odwechat-desc">A picture showing the WeChat icon.</desc><path d="M19 21H5a2 2 0 01-2-2V5a2 2 0 012-2h14a2 2 0 012 2v14a2 2 0 01-2 2zM14.7 9.954a3.842 3.842 0 00-.8-2.032 5.136 5.136 0 00-5.611-1.644 4.36 4.36 0 00-3.062 2.989 3.92 3.92 0 001.708 4.4.437.437 0 01.2.577c-.107.355-.167.725-.261 1.147.509-.318.938-.6 1.385-.856a.879.879 0 01.483-.081c.461.038.919.107 1.422.169a3.936 3.936 0 011.223-3.334A4.912 4.912 0 0114.7 9.954zM8.777 9.43a.586.586 0 01-.607.555.57.57 0 01-.564-.591.577.577 0 01.6-.557.593.593 0 01.571.593zm3.09-.594a.576.576 0 11.016 1.151.579.579 0 01-.6-.566.6.6 0 01.58-.585zm5.725 9.142a1.3 1.3 0 00-.08-.3c-.254-.464-.112-.754.285-1.106a3.288 3.288 0 00.38-4.586 4.477 4.477 0 00-5.789-.862 3.375 3.375 0 00-.533 5.505 4.107 4.107 0 003.329 1.086 6.675 6.675 0 011.228-.23 4.367 4.367 0 011.18.5zm-4.639-4.492a.484.484 0 01-.482-.462.489.489 0 01.485-.5.48.48 0 110 .959zm3.46-.458a.473.473 0 11-.945-.041.473.473 0 11.945.041z"/></svg>