<svg xmlns="http://www.w3.org/2000/svg" viewBox="0 0 24 24" width="512" height="512" aria-labelledby="oeweight-scale-desc oeweight-scale-title"><title id="oeweight-scale-title">Weight Scale Icon</title><desc id="oeweight-scale-desc">A picture depicting a weight scale.</desc><path d="M19.778 2H4.222A2.222 2.222 0 002 4.222v15.556A2.222 2.222 0 004.222 22h15.556A2.222 2.222 0 0022 19.778V4.222A2.222 2.222 0 0019.778 2zM5 20a1 1 0 111-1 1 1 0 01-1 1zm0-4a1 1 0 111-1 1 1 0 01-1 1zm3 2a1 1 0 111-1 1 1 0 01-1 1zm0-4a1 1 0 111-1 1 1 0 01-1 1zM6 8V4h12v4h-3V6a1 1 0 00-1-1 1 1 0 00-1 1v2zm10 10a1 1 0 111-1 1 1 0 01-1 1zm0-4a1 1 0 111-1 1 1 0 01-1 1zm3 6a1 1 0 111-1 1 1 0 01-1 1zm0-4a1 1 0 111-1 1 1 0 01-1 1z"/></svg>