<svg xmlns="http://www.w3.org/2000/svg" viewBox="0 0 24 24" width="512" height="512" aria-labelledby="ofwhatsapp-desc ofwhatsapp-title"><title id="ofwhatsapp-title">WhatsApp Icon</title><desc id="ofwhatsapp-desc">A picture showing the WhatsApp application icon.</desc><path d="M19.077 4.928A9.99 9.99 0 003.355 16.977L2 22l5.233-1.237a9.98 9.98 0 004.773 1.216 9.991 9.991 0 007.071-17.051zM16.9 15.554a2.517 2.517 0 01-1.685 1.186c-.458.042-.887.207-2.995-.624a10.236 10.236 0 01-4.263-3.767 4.853 4.853 0 01-1.021-2.581 2.794 2.794 0 01.874-2.081.916.916 0 01.666-.312c.166 0 .333 0 .478.006.178.007.375.016.562.431.222.494.707 1.728.769 1.853a.461.461 0 01.021.437 1.732 1.732 0 01-.249.416c-.125.146-.262.325-.374.437s-.255.26-.11.509a7.508 7.508 0 001.388 1.728 6.856 6.856 0 002.007 1.239c.25.125.395.1.541-.063s.624-.728.79-.978.333-.208.562-.125 1.456.687 1.706.812.416.187.478.291a2.1 2.1 0 01-.145 1.186z"/></svg>