<svg xmlns="http://www.w3.org/2000/svg" viewBox="0 0 24 24" width="512" height="512" aria-labelledby="ogwhite-house-1-desc ogwhite-house-1-title"><title id="ogwhite-house-1-title">White House Icon</title><desc id="ogwhite-house-1-desc">A picture depicting the famous White House presidential building.</desc><path d="M19 21v-5h1.05v-1H18V9h1v-.961h-1.65a6.476 6.476 0 00-3.613-4.055 2.022 2.022 0 00-1.328-1.2V1h-.718v1.779a2.022 2.022 0 00-1.328 1.205A6.476 6.476 0 006.75 8.039H5V9h1v6H3.95v1H5v5H3v2h18v-2zM8 21H7v-5h1zM7 10h1v4H7zm3 11H9v-5h1zm1-7h-1v-4h1zm1.5 7h-1v-3h1zm1.5-7h-1v-4h1zm1 7h-1v-5h1zm2-7h-1v-4h1zm0 7h-1v-5h1z"/></svg>