<svg xmlns="http://www.w3.org/2000/svg" viewBox="0 0 24 24" width="512" height="512" aria-labelledby="oiwire-transfer-desc oiwire-transfer-title"><title id="oiwire-transfer-title">Wire Transfer Icon</title><desc id="oiwire-transfer-desc">A picture showing the euro and dollar symbols moving in different directions.</desc><path d="M3.1 6.336a2.986 2.986 0 010-.707H2.037C2.026 5.753 2 5.873 2 6s.024.224.034.336zM6 2a3.988 3.988 0 00-3.834 2.922h1.1a3.179 3.179 0 015.117-1.309l-.626.626a2.294 2.294 0 00-3.533.683h2.037v.707h-2.27a2.316 2.316 0 00-.029.354 2.293 2.293 0 00.029.353h2.27v.708H4.224a2.292 2.292 0 002.037 1.237 2.26 2.26 0 001.492-.555l.63.626a3.178 3.178 0 01-5.121-1.308H2.155A3.993 3.993 0 106 2zm11.37 19.019a1.86 1.86 0 01-1.635-1.7h.98c.05.525.41.935 1.325.935.98 0 1.2-.49 1.2-.8 0-.415-.22-.8-1.335-1.07-1.24-.3-2.09-.81-2.09-1.835a1.733 1.733 0 011.555-1.6v-.9a3.984 3.984 0 000 7.873zm1.33-6.964v.9a1.768 1.768 0 011.425 1.7h-.98c-.025-.555-.32-.935-1.11-.935-.75 0-1.2.34-1.2.82 0 .42.325.7 1.335.955s2.09.7 2.09 1.955c0 .915-.69 1.415-1.56 1.58v.884a3.99 3.99 0 000-7.858zM22 6l-3.99-4v3H12v2h6.01v3zM5.99 19H12v-2H5.99v-3L2 18l3.99 4z"/></svg>