<svg xmlns="http://www.w3.org/2000/svg" viewBox="0 0 24 24" width="512" height="512" aria-labelledby="ojworker-desc ojworker-title"><title id="ojworker-title">Worker Icon</title><desc id="ojworker-desc">A picture depicting a construction worker with a helmet.</desc><path d="M22 22h-3v-6c2 0 3 2.962 3 6zM2 22h3v-6c-2 0-3 2.962-3 6zm5 0h10v-6H7zM17 6h-.059C16.72 4.025 16.25 3.524 15 3l-.7 1.026-.984-.173.3-1.7a8.579 8.579 0 00-3.226 0l.3 1.7-.99.173L9 3c-1.25.524-1.72 1.025-1.941 3H7a1 1 0 000 2h10a1 1 0 000-2zm-8.865 4.98a3.983 3.983 0 007.73 0A.688.688 0 0016 11c1 0 .976-1.843.939-2H7.061C7.024 9.157 7 11 8 11a.688.688 0 00.135-.02z"/></svg>