<svg xmlns="http://www.w3.org/2000/svg" viewBox="0 0 24 24" width="512" height="512" aria-labelledby="okworkers-desc okworkers-title"><title id="okworkers-title">Workers Icon</title><desc id="okworkers-desc">A picture depicting a group of construction workers with helmets.</desc><path d="M13 14h-.059c-.221-1.975-.691-2.476-1.941-3l-.7 1.026-.984-.173.3-1.7a8.579 8.579 0 00-3.226 0l.3 1.7-.984.173L5 11c-1.25.524-1.72 1.025-1.941 3H3a1 1 0 000 2h10a1 1 0 000-2zm-8.865 4.98a3.983 3.983 0 007.73 0A.688.688 0 0012 19c1 0 .976-1.843.939-2H3.061C3.024 17.157 3 19 4 19a.688.688 0 00.135-.02zM21 6h-.059C20.72 4.025 20.25 3.524 19 3l-.7 1.026-.984-.173.3-1.7a8.579 8.579 0 00-3.226 0l.3 1.7-.984.173L13 3c-1.25.524-1.72 1.025-1.941 3H11a1 1 0 000 2h10a1 1 0 000-2zm-1 5a.688.688 0 01-.135-.02A3.99 3.99 0 0115.929 14l-.1-.079a7.484 7.484 0 00-2.749-4.349.316.316 0 01.193-.572h7.666c.037.157.061 2-.939 2z"/></svg>