<svg xmlns="http://www.w3.org/2000/svg" viewBox="0 0 24 24"><path d="M20,2H4A2,2,0,0,0,2,4V20a2,2,0,0,0,2,2H20a2,2,0,0,0,2-2V4A2,2,0,0,0,20,2Zm0,18H4V4H20ZM7.7,11.634a1.151,1.151,0,0,0,.317-.063.618.618,0,0,0,.243-.152.367.367,0,0,0,.1-.264.429.429,0,0,0-.2-.379.79.79,0,0,0-.452-.132.689.689,0,0,0-.533.2A.668.668,0,0,0,7,11.331H6.112a1.428,1.428,0,0,1,.127-.542,1.246,1.246,0,0,1,.321-.42,1.465,1.465,0,0,1,.5-.273A2.022,2.022,0,0,1,7.7,10a2.258,2.258,0,0,1,.55.069,1.7,1.7,0,0,1,.5.206,1.21,1.21,0,0,1,.357.336.784.784,0,0,1,.137.456.8.8,0,0,1-.16.495.815.815,0,0,1-.482.292v.011a1.04,1.04,0,0,1,.6.308.813.813,0,0,1,.216.567,1.041,1.041,0,0,1-.14.539,1.238,1.238,0,0,1-.377.4,1.785,1.785,0,0,1-.544.242A2.605,2.605,0,0,1,7,13.906a1.542,1.542,0,0,1-.54-.272,1.207,1.207,0,0,1-.344-.438A1.322,1.322,0,0,1,6,12.6h.885a.931.931,0,0,0,.058.294.7.7,0,0,0,.151.243.727.727,0,0,0,.246.162.925.925,0,0,0,.35.06.86.86,0,0,0,.531-.162.524.524,0,0,0,.216-.443.5.5,0,0,0-.1-.335.59.59,0,0,0-.259-.168,1.281,1.281,0,0,0-.344-.061c-.125-.005-.244-.008-.357-.008v-.55A2.453,2.453,0,0,0,7.7,11.634Zm4.814-.9a.591.591,0,0,0-.406-.143.684.684,0,0,0-.416.123.949.949,0,0,0-.265.3,1.42,1.42,0,0,0-.144.382,1.989,1.989,0,0,0-.052.363l.012.011a1.072,1.072,0,0,1,.446-.329,1.685,1.685,0,0,1,1.166.008,1.449,1.449,0,0,1,.478.288,1.1,1.1,0,0,1,.269.4,1.306,1.306,0,0,1,.085.457,1.338,1.338,0,0,1-.115.552,1.3,1.3,0,0,1-.327.446,1.549,1.549,0,0,1-.508.3,1.915,1.915,0,0,1-.655.107,1.877,1.877,0,0,1-.858-.174,1.491,1.491,0,0,1-.544-.453,1.7,1.7,0,0,1-.281-.636,3.3,3.3,0,0,1-.079-.724,2.713,2.713,0,0,1,.1-.715,1.924,1.924,0,0,1,.315-.646,1.65,1.65,0,0,1,.556-.471A1.752,1.752,0,0,1,12.118,10a2.055,2.055,0,0,1,.55.071,1.517,1.517,0,0,1,.453.207,1.116,1.116,0,0,1,.32.333,1.177,1.177,0,0,1,.164.456h-.884A.638.638,0,0,0,12.511,10.732Zm-.782,1.257a.627.627,0,0,0-.233.157.664.664,0,0,0-.138.228.821.821,0,0,0-.045.272.732.732,0,0,0,.049.262.7.7,0,0,0,.144.231.706.706,0,0,0,.232.162.783.783,0,0,0,.315.06.692.692,0,0,0,.3-.06.72.72,0,0,0,.219-.16.67.67,0,0,0,.138-.225.773.773,0,0,0,.046-.259.828.828,0,0,0-.043-.266.683.683,0,0,0-.128-.232.624.624,0,0,0-.219-.165.726.726,0,0,0-.311-.063A.836.836,0,0,0,11.729,11.989Zm4.129-1.268-.183.875.013.01a1.2,1.2,0,0,1,.406-.228,1.783,1.783,0,0,1,1.094.036,1.326,1.326,0,0,1,.442.28,1.186,1.186,0,0,1,.275.416,1.355,1.355,0,0,1,.095.509,1.159,1.159,0,0,1-.137.553,1.456,1.456,0,0,1-.371.443,1.694,1.694,0,0,1-.54.288,1.983,1.983,0,0,1-.655.1,2.7,2.7,0,0,1-.638-.074,1.725,1.725,0,0,1-.541-.229,1.226,1.226,0,0,1-.377-.382,1.054,1.054,0,0,1-.147-.531h.93a.607.607,0,0,0,.236.421.922.922,0,0,0,.848.093.773.773,0,0,0,.249-.165.706.706,0,0,0,.157-.237.718.718,0,0,0,.056-.277.754.754,0,0,0-.052-.281.64.64,0,0,0-.158-.231.738.738,0,0,0-.248-.154.932.932,0,0,0-.334-.055.957.957,0,0,0-.406.074.91.91,0,0,0-.3.234h-.838l.452-2.129h2.561v.644Z"/></svg>