<svg xmlns="http://www.w3.org/2000/svg" viewBox="0 0 24 24" width="512" height="512"><path d="M20 2H4a2 2 0 00-2 2v16a2 2 0 002 2h16a2 2 0 002-2V4a2 2 0 00-2-2zm0 18H4V4h16zM5 10h1.127L7.2 11.58 8.258 10h1.121l-1.7 2.465V14H6.677v-1.558zm5.044.74V10h3.745v.74h-1.37V14h-1.005v-3.26zm6.882-.74a2.667 2.667 0 01.823.123 1.86 1.86 0 01.659.37 1.679 1.679 0 01.435.616 2.205 2.205 0 01.157.868 2.456 2.456 0 01-.128.807 1.7 1.7 0 01-.387.639 1.828 1.828 0 01-.647.423 2.453 2.453 0 01-.912.154h-1.972v-4zm-.07 3.26a1.46 1.46 0 00.422-.061.951.951 0 00.365-.205 1.007 1.007 0 00.256-.372 1.453 1.453 0 00.1-.56 2.054 2.054 0 00-.067-.547 1.046 1.046 0 00-.221-.417.973.973 0 00-.407-.266 1.818 1.818 0 00-.624-.092h-.717v2.52z"/></svg>