<svg xmlns="http://www.w3.org/2000/svg" viewBox="0 0 24 24" width="512" height="512"><path d="M20 2H4a2 2 0 00-2 2v16a2 2 0 002 2h16a2 2 0 002-2V4a2 2 0 00-2-2zm0 18H4V4h16zM7.7 11.634a1.151 1.151 0 00.317-.063.618.618 0 00.243-.152.367.367 0 00.1-.264.429.429 0 00-.2-.379.79.79 0 00-.452-.132.689.689 0 00-.533.2.668.668 0 00-.175.487h-.888a1.428 1.428 0 01.127-.542 1.246 1.246 0 01.321-.42 1.465 1.465 0 01.5-.273A2.022 2.022 0 017.7 10a2.258 2.258 0 01.55.069 1.7 1.7 0 01.5.206 1.21 1.21 0 01.357.336.784.784 0 01.137.456.8.8 0 01-.16.495.815.815 0 01-.482.292v.011a1.04 1.04 0 01.6.308.813.813 0 01.216.567 1.041 1.041 0 01-.14.539 1.238 1.238 0 01-.377.4 1.785 1.785 0 01-.544.242A2.605 2.605 0 017 13.906a1.542 1.542 0 01-.54-.272 1.207 1.207 0 01-.344-.438A1.322 1.322 0 016 12.6h.885a.931.931 0 00.058.294.7.7 0 00.151.243.727.727 0 00.246.162.925.925 0 00.35.06.86.86 0 00.531-.162.524.524 0 00.216-.443.5.5 0 00-.1-.335.59.59 0 00-.259-.168 1.281 1.281 0 00-.344-.061 8.981 8.981 0 00-.357-.008v-.55a2.453 2.453 0 00.323.002zm4.814-.9a.591.591 0 00-.406-.143.684.684 0 00-.416.123.949.949 0 00-.265.3 1.42 1.42 0 00-.144.382 1.989 1.989 0 00-.052.363l.012.011a1.072 1.072 0 01.446-.329 1.685 1.685 0 011.166.008 1.449 1.449 0 01.478.288 1.1 1.1 0 01.269.4 1.306 1.306 0 01.085.457 1.338 1.338 0 01-.115.552 1.3 1.3 0 01-.327.446 1.549 1.549 0 01-.508.3 1.915 1.915 0 01-.655.107 1.877 1.877 0 01-.858-.174 1.491 1.491 0 01-.544-.453 1.7 1.7 0 01-.281-.636 3.3 3.3 0 01-.079-.724 2.713 2.713 0 01.1-.715 1.924 1.924 0 01.315-.646 1.65 1.65 0 01.556-.471 1.752 1.752 0 01.827-.18 2.055 2.055 0 01.55.071 1.517 1.517 0 01.453.207 1.116 1.116 0 01.32.333 1.177 1.177 0 01.164.456h-.884a.638.638 0 00-.21-.335zm-.782 1.257a.627.627 0 00-.233.157.664.664 0 00-.138.228.821.821 0 00-.045.272.732.732 0 00.049.262.7.7 0 00.144.231.706.706 0 00.232.162.783.783 0 00.315.06.692.692 0 00.3-.06.72.72 0 00.219-.16.67.67 0 00.138-.225.773.773 0 00.046-.259.828.828 0 00-.043-.266.683.683 0 00-.128-.232.624.624 0 00-.219-.165.726.726 0 00-.311-.063.836.836 0 00-.329.056zm4.129-1.268l-.183.875.013.01a1.2 1.2 0 01.406-.228 1.783 1.783 0 011.094.036 1.326 1.326 0 01.442.28 1.186 1.186 0 01.275.416 1.355 1.355 0 01.095.509 1.159 1.159 0 01-.137.553 1.456 1.456 0 01-.371.443 1.694 1.694 0 01-.54.288 1.983 1.983 0 01-.655.1 2.7 2.7 0 01-.638-.074 1.725 1.725 0 01-.541-.229 1.226 1.226 0 01-.377-.382 1.054 1.054 0 01-.147-.531h.93a.607.607 0 00.236.421.922.922 0 00.848.093.773.773 0 00.249-.165.706.706 0 00.157-.237.718.718 0 00.056-.277.754.754 0 00-.052-.281.64.64 0 00-.158-.231.738.738 0 00-.248-.154.932.932 0 00-.334-.055.957.957 0 00-.406.074.91.91 0 00-.3.234h-.838l.452-2.129h2.561v.644z"/></svg>