<svg xmlns="http://www.w3.org/2000/svg" viewBox="0 0 24 24" width="512" height="512" aria-labelledby="oryoutube-desc oryoutube-title"><title id="oryoutube-title">YouTube Icon</title><desc id="oryoutube-desc">A picture showing the YouTube website logo.</desc><path d="M5.68 2l1.478 5.344v2.562h1.281V7.344L9.938 2H8.646l-.537 2.432Q7.883 5.5 7.818 5.947h-.039q-.095-.631-.291-1.525L6.971 2zm5.752 2.018a1.9 1.9 0 00-1.051.257 1.5 1.5 0 00-.59.825A4.887 4.887 0 009.6 6.6v.84a5.369 5.369 0 00.164 1.478 1.435 1.435 0 00.556.82A1.908 1.908 0 0011.4 10a1.9 1.9 0 001.061-.26 1.453 1.453 0 00.564-.818 5.15 5.15 0 00.175-1.484V6.6a5.073 5.073 0 00-.178-1.493 1.51 1.51 0 00-.566-.824 1.784 1.784 0 00-1.024-.265zm2.447.113v4.314a2.027 2.027 0 00.271 1.178A.978.978 0 0015 10a1.331 1.331 0 001.244-.8h.028l.113.707H17.4V4.131h-1.3v4.588a.634.634 0 01-.231.263.569.569 0 01-.324.1.293.293 0 01-.283-.164 1.291 1.291 0 01-.086-.553V4.131zm-2.479.781a.388.388 0 01.383.287 2.791 2.791 0 01.108.91v1.8a2.827 2.827 0 01-.108.924.389.389 0 01-.381.283.38.38 0 01-.377-.283 2.916 2.916 0 01-.1-.924v-1.8a2.805 2.805 0 01.107-.91.381.381 0 01.368-.287zM5 11a2.006 2.006 0 00-2 2v7a2.006 2.006 0 002 2h14a2.006 2.006 0 002-2v-7a2.006 2.006 0 00-2-2zm7.049 2h1.056v2.568h.008a1.158 1.158 0 01.407-.449 1.017 1.017 0 01.566-.17.86.86 0 01.611.207 1.256 1.256 0 01.323.668 6.462 6.462 0 01.1 1.281v.772a3.683 3.683 0 01-.264 1.6.863.863 0 01-.818.513 1.133 1.133 0 01-.564-.142.931.931 0 01-.383-.391h-.024l-.111.461h-.906zm-6.563.246h3.252v.885h-1.09v5.789H6.576v-5.789h-1.09zM17.1 14.951a1.53 1.53 0 01.867.207 1.12 1.12 0 01.426.645 4.67 4.67 0 01.123 1.209v.836h-1.838v.252a6.418 6.418 0 00.027.7.676.676 0 00.115.342.326.326 0 00.27.107.341.341 0 00.338-.191 1.647 1.647 0 00.1-.635l.948.055a1.6 1.6 0 01.007.175 1.291 1.291 0 01-.371 1.01 1.5 1.5 0 01-1.046.337 1.248 1.248 0 01-1.138-.51 2.971 2.971 0 01-.326-1.574v-.851a2.958 2.958 0 01.337-1.6 1.292 1.292 0 011.161-.514zm-8.688.094h1.1v3.58a1.084 1.084 0 00.072.465.246.246 0 00.238.139.488.488 0 00.276-.088.538.538 0 00.193-.223v-3.873h1.1v4.875h-.862l-.093-.6h-.026a1.124 1.124 0 01-1.053.68.821.821 0 01-.714-.318 1.705 1.705 0 01-.233-.994zm8.664.648a.319.319 0 00-.26.1.665.665 0 00-.111.338 6.525 6.525 0 00-.027.711v.358h.8v-.349a5.934 5.934 0 00-.032-.711.665.665 0 00-.115-.342.319.319 0 00-.257-.105zm-3.482.036a.417.417 0 00-.293.126.7.7 0 00-.192.327v2.767a.489.489 0 00.188.192.511.511 0 00.25.064.336.336 0 00.277-.127.9.9 0 00.149-.43 6.224 6.224 0 00.043-.836v-.626a8.243 8.243 0 00-.035-.883 1.034 1.034 0 00-.127-.444.3.3 0 00-.262-.13z"/></svg>