<svg xmlns="http://www.w3.org/2000/svg" viewBox="0 0 24 24"><path d="M19,3H5A2,2,0,0,0,3,5V19a2,2,0,0,0,2,2H19a2,2,0,0,0,2-2V5A2,2,0,0,0,19,3ZM17.11,14.5v0A13.51,13.51,0,0,1,15.58,17a3.14,3.14,0,0,1-.51.52,1.64,1.64,0,0,1-2.08.17,6.62,6.62,0,0,1-.69-.54,11.34,11.34,0,0,1-.81.9,2.23,2.23,0,0,1-2.66.39,3.36,3.36,0,0,1-1.94-2.65,4,4,0,0,1,.36-2.48,2.4,2.4,0,0,1,1.57-1.38,2.86,2.86,0,0,1,1.73.13c0-.34-.08-.68-.11-1a11.14,11.14,0,0,1,.37-4.26,3,3,0,0,1,.48-1,1.27,1.27,0,0,1,1.8-.26,2.69,2.69,0,0,1,1,1.46,6.38,6.38,0,0,1,.24,2,18.34,18.34,0,0,1-1.39,6.82.27.27,0,0,0,0,.2,3.23,3.23,0,0,0,.33.49c.14.17.24.17.43.06A4.08,4.08,0,0,0,15.27,15c.21-.37.6-1.11.6-1.11a.71.71,0,0,1,.61-.38.69.69,0,0,1,.69.69A.58.58,0,0,1,17.11,14.5ZM13,8.11a17.83,17.83,0,0,1-.43,4.18c-.1.51-.23,1-.35,1.52h-.06c-.07-.38-.15-.76-.2-1.14a21,21,0,0,1-.19-3.06A7.84,7.84,0,0,1,12,7.51a1.93,1.93,0,0,1,.37-.76c.18-.19.29-.17.39.06A3.63,3.63,0,0,1,13,8.11Zm-1.53,7.46a.26.26,0,0,1,0,.15c-.22.36-.42.73-.67,1.06a1.4,1.4,0,0,1-1.22.51,4,4,0,0,1-.5-.06.92.92,0,0,1-.68-.57,3,3,0,0,1,0-2.5,2.52,2.52,0,0,1,.46-.66,1.38,1.38,0,0,1,2,0,.61.61,0,0,1,.09.18Z"/></svg>