<svg xmlns="http://www.w3.org/2000/svg" viewBox="0 0 24 24"><path d="M2,12A9.75,9.75,0,0,1,5,4.89,9.83,9.83,0,0,1,12,2a9.74,9.74,0,0,1,7.17,3A9.93,9.93,0,0,1,22,12a9.77,9.77,0,0,1-3,7.09A9.8,9.8,0,0,1,12,22a9.45,9.45,0,0,1-2.81-.43,10.79,10.79,0,0,0,.54-1,16.37,16.37,0,0,0,.79-2.5c.07-.33.19-.79.35-1.36a2.57,2.57,0,0,0,.94.86,4.1,4.1,0,0,0,3.71-.16,6.16,6.16,0,0,0,2.81-3.63A7.36,7.36,0,0,0,18.15,9,5.61,5.61,0,0,0,15,5.83,8.7,8.7,0,0,0,9.46,6,6.3,6.3,0,0,0,5.71,9.42a8.07,8.07,0,0,0-.33,1.78,8.18,8.18,0,0,0,.06,1.72A3.39,3.39,0,0,0,6,14.42a3,3,0,0,0,1.25,1,.36.36,0,0,0,.32,0c.1,0,.2-.26.31-.62A2.25,2.25,0,0,0,8,14.07l-.16-.27A3.82,3.82,0,0,1,7.31,11,5,5,0,0,1,8.52,8.53,5.46,5.46,0,0,1,11.9,7.12a4.45,4.45,0,0,1,3.3,1,4.22,4.22,0,0,1,1,2.07,6.51,6.51,0,0,1,0,2.33,7.27,7.27,0,0,1-.76,2.09,2.86,2.86,0,0,1-2.31,1.56,1.73,1.73,0,0,1-1.27-.6,1.38,1.38,0,0,1-.29-1.31A16.79,16.79,0,0,1,12,12.63a9.22,9.22,0,0,0,.43-1.88c-.08-1-.54-1.5-1.37-1.52a1.88,1.88,0,0,0-1.45.88,3.43,3.43,0,0,0-.5,1.73,4.39,4.39,0,0,0,.35,1.57c-.29,1.17-.51,2.11-.67,2.81,0,.18-.19.74-.43,1.68A13.13,13.13,0,0,0,8,20.05v1.09A10.34,10.34,0,0,1,3.6,17.41,9.64,9.64,0,0,1,2,12Z"/></svg>