<svg xmlns="http://www.w3.org/2000/svg" viewBox="0 0 24 24"><path d="M12,2A10,10,0,1,1,2,12,10,10,0,0,1,12,2Zm6.67,10a1.47,1.47,0,0,0-1.51-1.41,1.5,1.5,0,0,0-1,.41,7.09,7.09,0,0,0-3.85-1.23L13,6.65l2.14.45A1,1,0,1,0,16,6a1,1,0,0,0-.75.49L12.82,6a.3.3,0,0,0-.37.23h0l-.74,3.47a7.14,7.14,0,0,0-3.9,1.23,1.46,1.46,0,0,0-2,2.13,1.48,1.48,0,0,0,.39.26,3.23,3.23,0,0,0,0,.44C6.2,16,8.81,17.83,12,17.83s5.83-1.82,5.83-4.06a3.23,3.23,0,0,0,0-.44A1.47,1.47,0,0,0,18.67,12Zm-10,1a1,1,0,1,1,1,1A1,1,0,0,1,8.67,13Zm5.81,2.75a3.79,3.79,0,0,1-2.47.77,3.79,3.79,0,0,1-2.47-.77.27.27,0,0,1,0-.38.29.29,0,0,1,.35,0A3.28,3.28,0,0,0,12,16a3.27,3.27,0,0,0,2.09-.61.28.28,0,0,1,.39.4h0v0ZM14.3,14a1,1,0,1,1,1-1,1,1,0,0,1-1,1h-.05Z"/></svg>