<svg xmlns="http://www.w3.org/2000/svg" viewBox="0 0 24 24"><path d="M19,3H5A2,2,0,0,0,3,5V19a2,2,0,0,0,2,2H19a2,2,0,0,0,2-2V5A2,2,0,0,0,19,3ZM11.58,6.244c.09-.083.154-.095.468-.085.164,0,.4.025.536.04h0a5.367,5.367,0,0,1,1.786.53,4.832,4.832,0,0,1,1.438,1.039,4.664,4.664,0,0,1,.983,1.351,6.448,6.448,0,0,1,.626,2.642c.014.337,0,.412-.073.509a.357.357,0,0,1-.578-.054.942.942,0,0,1-.056-.4,6.931,6.931,0,0,0-.106-1,4.615,4.615,0,0,0-1.788-2.976,4.7,4.7,0,0,0-2.71-.958c-.366-.021-.43-.034-.513-.1A.377.377,0,0,1,11.58,6.244Zm2.3,2.482A3.651,3.651,0,0,0,12.4,8.281a.491.491,0,0,1-.364-.137A.351.351,0,0,1,12,7.708c.1-.156.254-.181.715-.112a3.727,3.727,0,0,1,2.669,1.6A3.833,3.833,0,0,1,16,10.9a3.185,3.185,0,0,1,0,.717.349.349,0,0,1-.5.18c-.149-.075-.193-.2-.193-.519a3.1,3.1,0,0,0-.352-1.434A2.936,2.936,0,0,0,13.877,8.726Zm.651,2.569a.37.37,0,0,1-.45.009c-.093-.069-.122-.142-.143-.341a1.823,1.823,0,0,0-.15-.62,1.093,1.093,0,0,0-.974-.615c-.237-.029-.308-.056-.385-.147a.358.358,0,0,1,.108-.539c.073-.037.1-.041.266-.031a2.683,2.683,0,0,1,.327.04,1.846,1.846,0,0,1,.92.459,1.909,1.909,0,0,1,.572,1.2C14.671,11.048,14.65,11.183,14.528,11.3Zm2.88,5.062a4.285,4.285,0,0,1-1.085,1.353,1.544,1.544,0,0,1-.927.384,1.359,1.359,0,0,1-.727-.152,15.289,15.289,0,0,1-6.581-5.069A14.362,14.362,0,0,1,6.043,9.154C5.771,8.4,5.758,8.078,5.981,7.7a4.322,4.322,0,0,1,.806-.787,2.761,2.761,0,0,1,.91-.545,1.043,1.043,0,0,1,.481.044h0a1.257,1.257,0,0,1,.232.116,9.362,9.362,0,0,1,1.719,2.2,1.23,1.23,0,0,1,.194.852c-.061.219-.163.335-.62.7a3.581,3.581,0,0,0-.382.341.9.9,0,0,0-.125.436,3.235,3.235,0,0,0,.484,1.355,5.84,5.84,0,0,0,.967,1.139,5.364,5.364,0,0,0,1.27.9c.565.281.91.352,1.162.235a1,1,0,0,0,.153-.085c.019-.017.167-.2.329-.4.312-.393.384-.457.6-.53a1.037,1.037,0,0,1,.829.075c.212.11.675.4.973.6a14.167,14.167,0,0,1,1.347,1.1A.874.874,0,0,1,17.408,16.357Z"/></svg>