<svg xmlns="http://www.w3.org/2000/svg" viewBox="0 0 24 24"><path d="M19,21H5a2,2,0,0,1-2-2V5A2,2,0,0,1,5,3H19a2,2,0,0,1,2,2V19A2,2,0,0,1,19,21ZM14.7,9.954a3.842,3.842,0,0,0-.8-2.032A5.136,5.136,0,0,0,8.289,6.278,4.36,4.36,0,0,0,5.227,9.267a3.92,3.92,0,0,0,1.708,4.4.437.437,0,0,1,.2.577c-.107.355-.167.725-.261,1.147.509-.318.938-.6,1.385-.856a.879.879,0,0,1,.483-.081c.461.038.919.107,1.422.169a3.936,3.936,0,0,1,1.223-3.334A4.912,4.912,0,0,1,14.7,9.954ZM8.777,9.43a.586.586,0,0,1-.607.555.57.57,0,0,1-.564-.591.577.577,0,0,1,.6-.557.593.593,0,0,1,.571.593Zm3.09-.594a.576.576,0,1,1,.016,1.151.579.579,0,0,1-.6-.566.6.6,0,0,1,.58-.585Zm5.725,9.142a1.3,1.3,0,0,0-.08-.3c-.254-.464-.112-.754.285-1.106a3.288,3.288,0,0,0,.38-4.586,4.477,4.477,0,0,0-5.789-.862,3.375,3.375,0,0,0-.533,5.505,4.107,4.107,0,0,0,3.329,1.086,6.675,6.675,0,0,1,1.228-.23,4.367,4.367,0,0,1,1.18.5Zm-4.639-4.492a.484.484,0,0,1-.482-.462.489.489,0,0,1,.485-.5.48.48,0,1,1,0,.959Zm3.46-.458a.473.473,0,1,1-.945-.041.473.473,0,1,1,.945.041Z"/></svg>