<svg xmlns="http://www.w3.org/2000/svg" viewBox="0 0 24 24"><path d="M19.077,4.928A9.99,9.99,0,0,0,3.355,16.977L2,22l5.233-1.237a9.98,9.98,0,0,0,4.773,1.216h0A9.991,9.991,0,0,0,19.077,4.928ZM16.9,15.554a2.517,2.517,0,0,1-1.685,1.186c-.458.042-.887.207-2.995-.624a10.236,10.236,0,0,1-4.263-3.767A4.853,4.853,0,0,1,6.936,9.768,2.794,2.794,0,0,1,7.81,7.687a.916.916,0,0,1,.666-.312c.166,0,.333,0,.478.006.178.007.375.016.562.431.222.494.707,1.728.769,1.853a.461.461,0,0,1,.021.437,1.732,1.732,0,0,1-.249.416c-.125.146-.262.325-.374.437s-.255.26-.11.509a7.508,7.508,0,0,0,1.388,1.728,6.856,6.856,0,0,0,2.007,1.239c.25.125.395.1.541-.063s.624-.728.79-.978.333-.208.562-.125,1.456.687,1.706.812.416.187.478.291A2.1,2.1,0,0,1,16.9,15.554Z"/></svg>